<svg width="1519" height="137" viewBox="0 0 1519 137" fill="none" xmlns="http://www.w3.org/2000/svg">
<path d="M14.7732 128.133L0 124.586V0H1519V135.67L1506.34 133.453L1495.26 135.67H1450.94L1434.58 133.453H1413.48L1405.04 130.35L1390.26 133.453H1378.65L1368.1 130.35H1353.33L1341.72 133.453L1332.22 130.35L1315.34 129.463L1295.29 130.35L1278.94 129.463L1262.58 124.586L1231.98 130.35L1218.79 129.463H1190.3L1182.38 128.133L1171.3 130.35H1156.53L1147.56 133.453H1137.01L1124.34 130.35L1104.82 137L1085.83 133.453L1065.25 137L1049.42 133.453H1036.23H1014.6L1006.69 130.35H991.386L969.754 133.453H961.84L956.036 130.35H940.208L927.017 129.463L925.435 130.35L919.631 127.689L894.305 130.35H888.502H875.311L862.121 133.453H847.348H823.605C816.007 130.97 802.852 132.419 797.224 133.453C790.893 132.419 777.703 130.35 775.592 130.35H766.623C765.779 130.35 760.291 132.419 757.653 133.453L729.162 128.133L722.303 130.35L699.616 128.133V131.68L667.431 128.133H652.131H642.106L628.388 123.256H584.596L570.35 128.133H561.381H544.497H534.473C530.779 126.507 522.654 123.256 519.7 123.256C516.745 123.256 507.916 126.507 503.871 128.133H483.822C480.304 125.029 470.948 119.709 461.662 123.256C452.376 126.803 439.151 127.985 433.699 128.133L426.84 132.566C423.85 131.088 416.92 128.133 413.122 128.133C409.323 128.133 403.8 131.088 401.514 132.566C400.107 133.896 394.339 135.759 382.52 132.566C370.701 129.374 358.25 131.236 353.501 132.566H341.366H330.286H323.955L297.047 128.133H269.083H256.42L241.647 132.566H214.211H191.524H172.002L145.094 128.133L138.762 136.557H125.044L100.247 132.566H84.4182H64.8965C61.5198 132.566 48.3646 129.611 42.2091 128.133L23.7426 124.586L14.7732 121.482V128.133Z" fill="white"/>
</svg>
