<svg width="36" height="34" viewBox="0 0 36 34" fill="none" xmlns="http://www.w3.org/2000/svg">
<path d="M17.9994 0.534216C15.7365 0.456255 13.9842 1.93286 12.0867 2.86069C9.50587 4.30556 6.84827 5.63847 4.31884 7.15824C2.66439 8.42826 1.90424 10.4719 2.07799 12.4454C2.08762 15.9445 2.05879 19.4444 2.09254 22.9429C2.30678 25.0613 3.86209 26.8591 5.86347 27.7453C9.07633 29.4868 12.2703 31.2607 15.4949 32.9819C17.5448 33.8647 19.9715 33.4934 21.7849 32.299C24.9883 30.5417 28.2116 28.8154 31.4024 27.0384C33.238 25.8042 34.1093 23.6333 33.9209 21.5533C33.9113 18.0541 33.9402 14.5543 33.9063 11.0558C33.6919 8.93753 32.1369 7.13931 30.1353 6.25352C26.9223 4.51235 23.7278 2.73963 20.5033 1.01825C19.7228 0.675861 18.8559 0.536474 17.9995 0.53415M15.9819 9.34559H20.0178V24.6536H15.9819V9.34559ZM21.0606 12.6775H25.0946V24.6536H21.0606V12.6775ZM10.9038 18.925H14.9391V24.6536H10.9038V18.925Z" fill="white"/>
</svg>
