<svg width="101" height="100" viewBox="0 0 101 100" fill="none" xmlns="http://www.w3.org/2000/svg">
<path d="M36.0479 11.5562V19.3707M54.5562 19.2207L49.0292 24.7478M17.5417 19.2207L23.0667 24.7478M9.875 37.7291H17.6917M47.1875 42.6562C47.8786 41.1049 48.235 39.4253 48.2333 37.727C48.232 36.1279 47.9156 34.5447 47.3024 33.0678C46.6892 31.5909 45.7911 30.2493 44.6594 29.1195C43.5277 27.9898 42.1845 27.094 40.7066 26.4833C39.2287 25.8726 37.645 25.559 36.0458 25.5603C32.8192 25.5614 29.725 26.8436 27.4432 29.1249C25.1614 31.4063 23.8787 34.5003 23.8771 37.727C23.8792 40.1615 24.609 42.5397 25.9729 44.5563C27.3369 46.5728 29.2725 48.1355 31.5313 49.0437M70.0208 46.077L50.0437 68.8103H66.5833L63.9854 87.3499L83.85 62.8124H66.9479L70.0208 46.077Z" stroke="#F8F8F8" stroke-width="3" stroke-linecap="round" stroke-linejoin="round"/>
<path d="M52.4271 66.0957H28.3896C26.2453 66.0919 24.1899 65.2383 22.6737 63.7221C21.1574 62.2058 20.3039 60.1505 20.3 58.0062C20.2994 56.6913 20.6194 55.3962 21.2322 54.2329C21.8451 53.0696 22.7323 52.0733 23.817 51.3303C24.9017 50.5872 26.1513 50.1198 27.4574 49.9686C28.7635 49.8174 30.0867 49.9869 31.3125 50.4624C31.3542 49.9832 31.4209 49.5041 31.5313 49.0457C32.0062 46.7483 33.2588 44.685 35.0777 43.2034C36.8966 41.7218 39.1707 40.9127 41.5167 40.9124C43.6105 40.9124 45.573 41.5437 47.1875 42.6562C47.9292 43.1562 48.5834 43.7457 49.1709 44.3999C50.374 42.0138 52.2157 40.0084 54.4911 38.6069C56.7664 37.2055 59.3861 36.4631 62.0584 36.4624C68.6417 36.4624 74.1834 40.8457 75.9271 46.8416C77.4105 46.0353 79.0667 45.5332 80.8542 45.5332C82.2044 45.5343 83.5412 45.8014 84.7882 46.3193C86.0352 46.8371 87.1679 47.5956 88.1217 48.5513C89.0755 49.507 89.8317 50.6413 90.347 51.8893C90.8623 53.1373 91.1267 54.4747 91.1251 55.8249C91.1254 58.49 90.0899 61.0509 88.2371 62.9666C86.3844 64.8824 83.8595 66.0029 81.1959 66.0916M29.0209 80.1353V76.2353M37.5355 88.4436V84.5457M49.4709 82.6603V78.7624" stroke="#F8F8F8" stroke-width="3" stroke-linecap="round" stroke-linejoin="round"/>
</svg>
