<svg width="364" height="330" viewBox="0 0 364 330" fill="none" xmlns="http://www.w3.org/2000/svg">
<g filter="url(#filter0_d_396_7216)">
<rect x="29" y="29" width="306" height="272" rx="25" fill="#075A53" fill-opacity="0.8" shape-rendering="crispEdges"/>
<path d="M168.56 104.92C169.733 104.92 170.773 105.373 171.68 106.28C172.587 107.187 173.04 108.28 173.04 109.56V114.04H168.56C167.28 114.04 166.187 113.587 165.28 112.68C164.373 111.773 163.92 110.707 163.92 109.48C163.92 108.253 164.373 107.187 165.28 106.28C166.187 105.373 167.28 104.973 168.56 105.08V104.92ZM176.08 114.04V109.56C176.08 107.427 175.333 105.64 173.84 104.2C172.347 102.76 170.56 102.04 168.48 102.04C166.4 102.04 164.64 102.76 163.2 104.2C161.76 105.64 161.04 107.4 161.04 109.48C161.04 111.56 161.76 113.347 163.2 114.84C164.64 116.333 166.427 117.08 168.56 117.08H173.04V128.92H168.56C166.427 129.027 164.64 129.8 163.2 131.24C161.76 132.68 161.04 134.44 161.04 136.52C161.04 138.6 161.76 140.36 163.2 141.8C164.64 143.24 166.4 143.96 168.48 143.96C170.56 143.96 172.347 143.24 173.84 141.8C175.333 140.36 176.08 138.573 176.08 136.44V131.96H188.08V136.44C188.08 138.573 188.8 140.36 190.24 141.8C191.68 143.24 193.44 143.96 195.52 143.96C197.6 143.96 199.36 143.24 200.8 141.8C202.24 140.36 202.96 138.6 202.96 136.52C202.96 134.44 202.24 132.653 200.8 131.16C199.36 129.667 197.573 128.92 195.44 128.92H190.96V116.92H195.44C197.573 117.027 199.36 116.333 200.8 114.84C202.24 113.347 202.96 111.56 202.96 109.48C202.96 107.4 202.24 105.64 200.8 104.2C199.36 102.76 197.6 102.04 195.52 102.04C193.44 102.04 191.653 102.76 190.16 104.2C188.667 105.64 187.92 107.427 187.92 109.56V114.04H176.08ZM188.08 116.92V128.92H176.08V116.92H188.08ZM190.96 114.04V109.56C190.96 108.28 191.413 107.187 192.32 106.28C193.227 105.373 194.293 104.92 195.52 104.92C196.747 104.92 197.813 105.373 198.72 106.28C199.627 107.187 200.08 108.253 200.08 109.48C200.08 110.707 199.627 111.773 198.72 112.68C197.813 113.587 196.72 114.04 195.44 114.04H190.96ZM190.96 131.96H195.44C196.72 131.96 197.813 132.413 198.72 133.32C199.627 134.227 200.08 135.293 200.08 136.52C200.08 137.747 199.627 138.787 198.72 139.64C197.813 140.493 196.747 140.947 195.52 141C194.293 141.053 193.227 140.627 192.32 139.72C191.413 138.813 190.96 137.72 190.96 136.44V131.96ZM173.04 131.96V136.44C173.04 137.72 172.587 138.787 171.68 139.64C170.773 140.493 169.707 140.92 168.48 140.92C167.253 140.92 166.187 140.493 165.28 139.64C164.373 138.787 163.92 137.747 163.92 136.52C163.92 135.293 164.373 134.227 165.28 133.32C166.187 132.413 167.28 131.96 168.56 131.96H173.04Z" fill="white" fill-opacity="0.6"/>
</g>
<defs>
<filter id="filter0_d_396_7216" x="0" y="0" width="364" height="330" filterUnits="userSpaceOnUse" color-interpolation-filters="sRGB">
<feFlood flood-opacity="0" result="BackgroundImageFix"/>
<feColorMatrix in="SourceAlpha" type="matrix" values="0 0 0 0 0 0 0 0 0 0 0 0 0 0 0 0 0 0 127 0" result="hardAlpha"/>
<feOffset/>
<feGaussianBlur stdDeviation="14.5"/>
<feComposite in2="hardAlpha" operator="out"/>
<feColorMatrix type="matrix" values="0 0 0 0 0 0 0 0 0 0 0 0 0 0 0 0 0 0 0.08 0"/>
<feBlend mode="normal" in2="BackgroundImageFix" result="effect1_dropShadow_396_7216"/>
<feBlend mode="normal" in="SourceGraphic" in2="effect1_dropShadow_396_7216" result="shape"/>
</filter>
</defs>
</svg>
