<svg width="364" height="330" viewBox="0 0 364 330" fill="none" xmlns="http://www.w3.org/2000/svg">
<g filter="url(#filter0_d_396_7213)">
<rect x="29" y="29" width="306" height="272" rx="25" fill="#075A53" fill-opacity="0.8" shape-rendering="crispEdges"/>
<g clip-path="url(#clip0_396_7213)">
<path d="M194.48 125.88C193.093 128.653 191.12 131.693 188.56 135C186.533 137.667 184.347 140.227 182 142.68C179.653 140.227 177.467 137.667 175.44 135C172.88 131.693 170.907 128.653 169.52 125.88C167.813 122.467 166.96 119.453 166.96 116.84C166.96 114.227 167.627 111.773 168.96 109.48C170.293 107.187 172.133 105.373 174.48 104.04C176.827 102.707 179.333 102.04 182 102.04C184.667 102.04 187.173 102.707 189.52 104.04C191.867 105.373 193.707 107.187 195.04 109.48C196.373 111.773 197.04 114.227 197.04 116.84C197.04 119.453 196.187 122.467 194.48 125.88ZM182 147C182.96 146.04 183.92 145.08 184.88 144.12C187.12 141.773 189.147 139.373 190.96 136.92C193.627 133.4 195.707 130.147 197.2 127.16C199.12 123.32 200.08 119.907 200.08 116.92C200.08 113.72 199.253 110.733 197.6 107.96C195.947 105.187 193.76 103 191.04 101.4C188.32 99.8 185.307 99 182 99C178.693 99 175.68 99.8 172.96 101.4C170.24 103 168.053 105.187 166.4 107.96C164.747 110.733 163.92 113.72 163.92 116.92C163.92 119.907 164.88 123.32 166.8 127.16C168.293 130.147 170.373 133.4 173.04 136.92C174.853 139.373 176.88 141.773 179.12 144.12L182 147ZM182 123C180.293 123 178.88 122.413 177.76 121.24C176.64 120.067 176.08 118.653 176.08 117C176.08 115.347 176.64 113.933 177.76 112.76C178.88 111.587 180.293 111 182 111C183.707 111 185.147 111.587 186.32 112.76C187.493 113.933 188.08 115.347 188.08 117C188.08 118.653 187.493 120.067 186.32 121.24C185.147 122.413 183.707 123 182 123ZM182 126.04C184.453 126.04 186.56 125.16 188.32 123.4C190.08 121.64 190.96 119.507 190.96 117C190.96 114.493 190.08 112.36 188.32 110.6C186.56 108.84 184.453 107.96 182 107.96C179.547 107.96 177.44 108.84 175.68 110.6C173.92 112.36 173.04 114.493 173.04 117C173.04 119.507 173.92 121.64 175.68 123.4C177.44 125.16 179.547 126.04 182 126.04Z" fill="white" fill-opacity="0.6"/>
</g>
</g>
<defs>
<filter id="filter0_d_396_7213" x="0" y="0" width="364" height="330" filterUnits="userSpaceOnUse" color-interpolation-filters="sRGB">
<feFlood flood-opacity="0" result="BackgroundImageFix"/>
<feColorMatrix in="SourceAlpha" type="matrix" values="0 0 0 0 0 0 0 0 0 0 0 0 0 0 0 0 0 0 127 0" result="hardAlpha"/>
<feOffset/>
<feGaussianBlur stdDeviation="14.5"/>
<feComposite in2="hardAlpha" operator="out"/>
<feColorMatrix type="matrix" values="0 0 0 0 0 0 0 0 0 0 0 0 0 0 0 0 0 0 0.08 0"/>
<feBlend mode="normal" in2="BackgroundImageFix" result="effect1_dropShadow_396_7213"/>
<feBlend mode="normal" in="SourceGraphic" in2="effect1_dropShadow_396_7213" result="shape"/>
</filter>
<clipPath id="clip0_396_7213">
<rect width="48" height="48" fill="white" transform="matrix(1 0 0 -1 158 147)"/>
</clipPath>
</defs>
</svg>
