<svg width="364" height="330" viewBox="0 0 364 330" fill="none" xmlns="http://www.w3.org/2000/svg">
<g filter="url(#filter0_d_396_7206)">
<rect x="29" y="29" width="306" height="272" rx="25" fill="#075A53" fill-opacity="0.8" shape-rendering="crispEdges"/>
<path d="M182 99C182.32 99 182.613 99.08 182.88 99.24C183.147 99.4 183.333 99.64 183.44 99.96L185.2 104.92H200.08C200.827 104.92 201.493 105.213 202.08 105.8C202.667 106.387 202.96 107.107 202.96 107.96V128.92C202.96 129.773 202.667 130.493 202.08 131.08C201.493 131.667 200.827 131.96 200.08 131.96H194.48L198.48 143.48C198.587 143.907 198.533 144.307 198.32 144.68C198.107 145.053 197.813 145.293 197.44 145.4C197.067 145.507 196.693 145.48 196.32 145.32C195.947 145.16 195.707 144.867 195.6 144.44L191.28 131.96H183.44V140.92C183.44 141.347 183.307 141.72 183.04 142.04C182.773 142.36 182.427 142.52 182 142.52C181.573 142.52 181.227 142.36 180.96 142.04C180.693 141.72 180.56 141.347 180.56 140.92V131.96H172.72L168.4 144.44C168.293 144.867 168.053 145.16 167.68 145.32C167.307 145.48 166.933 145.507 166.56 145.4C166.187 145.293 165.893 145.053 165.68 144.68C165.467 144.307 165.413 143.907 165.52 143.48L169.52 131.96H164.08C163.227 131.96 162.507 131.667 161.92 131.08C161.333 130.493 161.04 129.773 161.04 128.92V107.96C161.04 107.107 161.333 106.387 161.92 105.8C162.507 105.213 163.173 104.92 163.92 104.92H178.8L180.56 99.96C180.667 99.64 180.853 99.4 181.12 99.24C181.387 99.08 181.68 99 182 99ZM164.08 107.96V128.92H200.08V107.96H164.08Z" fill="white" fill-opacity="0.6"/>
</g>
<defs>
<filter id="filter0_d_396_7206" x="0" y="0" width="364" height="330" filterUnits="userSpaceOnUse" color-interpolation-filters="sRGB">
<feFlood flood-opacity="0" result="BackgroundImageFix"/>
<feColorMatrix in="SourceAlpha" type="matrix" values="0 0 0 0 0 0 0 0 0 0 0 0 0 0 0 0 0 0 127 0" result="hardAlpha"/>
<feOffset/>
<feGaussianBlur stdDeviation="14.5"/>
<feComposite in2="hardAlpha" operator="out"/>
<feColorMatrix type="matrix" values="0 0 0 0 0 0 0 0 0 0 0 0 0 0 0 0 0 0 0.08 0"/>
<feBlend mode="normal" in2="BackgroundImageFix" result="effect1_dropShadow_396_7206"/>
<feBlend mode="normal" in="SourceGraphic" in2="effect1_dropShadow_396_7206" result="shape"/>
</filter>
</defs>
</svg>
