<svg width="81" height="80" viewBox="0 0 81 80" fill="none" xmlns="http://www.w3.org/2000/svg">
<path d="M15.5 12.5C15.5 10.5109 16.2902 8.60322 17.6967 7.1967C19.1032 5.79018 21.0109 5 23 5H28C29.9891 5 31.8968 5.79018 33.3033 7.1967C34.7098 8.60322 35.5 10.5109 35.5 12.5V25H45.5V12.5C45.5 10.5109 46.2902 8.60322 47.6967 7.1967C49.1032 5.79018 51.0109 5 53 5H58C59.9891 5 61.8968 5.79018 63.3033 7.1967C64.7098 8.60322 65.5 10.5109 65.5 12.5V24.41C65.5 24.8739 65.6291 25.3286 65.8728 25.7233C66.1165 26.1181 66.4653 26.4372 66.88 26.645L71.355 28.88C72.6009 29.5032 73.6486 30.461 74.3807 31.6462C75.1128 32.8313 75.5004 34.1969 75.5 35.59V72.5C75.5 74.4891 74.7098 76.3968 73.3033 77.8033C71.8968 79.2098 69.9891 80 68 80H53C51.0109 80 49.1032 79.2098 47.6967 77.8033C46.2902 76.3968 45.5 74.4891 45.5 72.5V57.5C45.4994 57.1715 45.5636 56.8461 45.6888 56.5423C45.8141 56.2386 45.998 55.9626 46.23 55.73L50.5 51.465V47.5C50.5 46.837 50.2366 46.2011 49.7678 45.7322C49.2989 45.2634 48.663 45 48 45H33C32.337 45 31.7011 45.2634 31.2322 45.7322C30.7634 46.2011 30.5 46.837 30.5 47.5V51.465L34.77 55.73C35.002 55.9626 35.1859 56.2386 35.3112 56.5423C35.4364 56.8461 35.5006 57.1715 35.5 57.5V72.5C35.5 74.4891 34.7098 76.3968 33.3033 77.8033C31.8968 79.2098 29.9891 80 28 80H13C11.0109 80 9.10322 79.2098 7.6967 77.8033C6.29018 76.3968 5.5 74.4891 5.5 72.5V35.59C5.50005 34.1964 5.88836 32.8304 6.62139 31.6452C7.35442 30.46 8.40317 29.5025 9.65 28.88L14.12 26.645C14.5347 26.4372 14.8835 26.1181 15.1272 25.7233C15.3709 25.3286 15.5 24.8739 15.5 24.41V12.5ZM23 10C22.337 10 21.7011 10.2634 21.2322 10.7322C20.7634 11.2011 20.5 11.837 20.5 12.5V15H30.5V12.5C30.5 11.837 30.2366 11.2011 29.7678 10.7322C29.2989 10.2634 28.663 10 28 10H23ZM30.5 20H20.5V24.41C20.5 25.8036 20.1116 27.1696 19.3786 28.3548C18.6456 29.54 17.5968 30.4975 16.35 31.12L11.88 33.355C11.4653 33.5628 11.1165 33.8819 10.8728 34.2767C10.6291 34.6714 10.5 35.1261 10.5 35.59V65H30.5V58.535L26.23 54.27C25.998 54.0374 25.8141 53.7614 25.6888 53.4577C25.5636 53.1539 25.4994 52.8285 25.5 52.5V47.5C25.5 45.5109 26.2902 43.6032 27.6967 42.1967C29.1032 40.7902 31.0109 40 33 40H48C49.9891 40 51.8968 40.7902 53.3033 42.1967C54.7098 43.6032 55.5 45.5109 55.5 47.5V52.5C55.5006 52.8285 55.4364 53.1539 55.3112 53.4577C55.1859 53.7614 55.002 54.0374 54.77 54.27L50.5 58.535V65H70.5V35.59C70.5 35.1261 70.3709 34.6714 70.1272 34.2767C69.8835 33.8819 69.5347 33.5628 69.12 33.355L64.645 31.12C63.3991 30.4968 62.3514 29.539 61.6193 28.3538C60.8872 27.1687 60.4996 25.8031 60.5 24.41V20H50.5V27.5C50.5 28.163 50.2366 28.7989 49.7678 29.2678C49.2989 29.7366 48.663 30 48 30H33C32.337 30 31.7011 29.7366 31.2322 29.2678C30.7634 28.7989 30.5 28.163 30.5 27.5V20ZM50.5 15H60.5V12.5C60.5 11.837 60.2366 11.2011 59.7678 10.7322C59.2989 10.2634 58.663 10 58 10H53C52.337 10 51.7011 10.2634 51.2322 10.7322C50.7634 11.2011 50.5 11.837 50.5 12.5V15ZM70.5 70H50.5V72.5C50.5 73.163 50.7634 73.7989 51.2322 74.2678C51.7011 74.7366 52.337 75 53 75H68C68.663 75 69.2989 74.7366 69.7678 74.2678C70.2366 73.7989 70.5 73.163 70.5 72.5V70ZM30.5 70H10.5V72.5C10.5 73.163 10.7634 73.7989 11.2322 74.2678C11.7011 74.7366 12.337 75 13 75H28C28.663 75 29.2989 74.7366 29.7678 74.2678C30.2366 73.7989 30.5 73.163 30.5 72.5V70Z" fill="white"/>
</svg>
