<svg width="43" height="33" viewBox="0 0 43 33" fill="none" xmlns="http://www.w3.org/2000/svg">
<path d="M41.0744 23.6807C41.0744 23.6807 41.8906 24.3893 41.3188 25.7C40.7739 26.9767 38.9899 27.1895 38.9899 27.1895C38.9899 27.1895 39.2343 29.2768 35.3439 29.53C35.3613 29.3843 35.3613 29.2374 35.3439 29.0917C35.3439 29.0917 37.1303 29.03 37.1572 26.6149C37.1841 24.1999 35.1045 23.8275 35.1045 23.8275C35.3257 23.5473 35.4698 23.2265 35.5258 22.89C35.5817 22.5535 35.5479 22.2103 35.427 21.887C34.9187 20.5635 33.8435 20.7039 33.8435 20.7039C33.8435 20.7039 34.6231 20.206 34.2809 18.9719C33.9633 17.825 32.9735 17.676 32.9735 17.676C32.9735 17.676 33.7067 16.5355 32.37 14.995C31.0332 13.4545 29.6599 13.6928 29.6599 13.6928C29.6123 12.9329 29.2791 12.2077 28.7117 11.6288C27.7611 10.6649 26.268 10.8011 26.268 10.8011C26.2838 10.3144 26.1778 9.8306 25.9576 9.3831C25.7373 8.93561 25.408 8.53514 24.9924 8.20942C23.5702 7.03913 22.1431 7.09232 22.1431 7.09232C22.1636 6.75745 22.0863 6.4235 21.9183 6.12171C21.7504 5.81992 21.4973 5.56014 21.1827 5.36668C20.8228 5.12221 20.3958 4.96394 19.944 4.90758C19.4921 4.85122 19.0312 4.89872 18.607 5.04538C18.607 5.04538 18.3626 3.53038 16.8573 3.241C14.8901 2.8665 13.9249 3.87934 13.9249 3.87934C13.9249 3.87934 13.27 3.12822 11.772 2.91544C12.3193 2.28954 12.9894 1.75287 13.7514 1.33023C15.5231 0.385481 18.2062 0.98765 18.2062 0.98765C18.8834 0.561006 19.7147 0.361537 20.5473 0.425909C20.9474 0.453229 21.3351 0.558894 21.6817 0.735013C22.0283 0.911132 22.3246 1.15315 22.5487 1.443C22.5487 1.443 23.3698 0.915304 25.359 1.01744C27.3481 1.11957 27.8247 2.48563 27.8247 2.48563C28.8061 2.46157 29.7727 2.69832 30.5958 3.16439C32.062 3.95807 32.062 5.65393 32.062 5.65393C32.062 5.65393 33.8386 5.22837 35.3953 6.63485C36.9519 8.04133 36.2652 9.34993 36.2652 9.34993C36.8469 9.39545 37.4063 9.56638 37.8931 9.8473C38.3799 10.1282 38.7787 10.5103 39.0534 10.959C39.3282 11.4077 39.4703 11.9089 39.4669 12.4174C39.4635 12.9259 39.3147 13.4256 39.0339 13.8715C39.2615 13.9346 39.4694 14.0421 39.6418 14.186C39.8142 14.3298 39.9465 14.5061 40.0285 14.7014C40.3315 15.3801 40.0285 15.7951 40.0285 15.7951C40.0285 15.7951 41.5412 16.3568 41.9346 17.7526C42.328 19.1485 41.5412 19.9762 41.5412 19.9762C41.9359 20.1725 42.2616 20.459 42.483 20.8048C42.7043 21.1506 42.813 21.5424 42.7972 21.938C42.8046 23.3807 41.0744 23.6807 41.0744 23.6807Z" fill="#33C7BB" fill-opacity="0.7"/>
<path opacity="0.05" d="M41.0744 23.6807C41.0744 23.6807 41.8906 24.3893 41.3188 25.7C40.7739 26.9767 38.9899 27.1895 38.9899 27.1895C38.9899 27.1895 39.2343 29.2768 35.3439 29.53C35.3613 29.3843 35.3613 29.2374 35.3439 29.0917C35.3439 29.0917 37.1303 29.03 37.1572 26.6149C37.1841 24.1999 35.1045 23.8275 35.1045 23.8275C35.3257 23.5473 35.4698 23.2265 35.5258 22.89C35.5817 22.5535 35.5479 22.2103 35.427 21.887C34.9187 20.5635 33.8435 20.7039 33.8435 20.7039C33.8435 20.7039 34.6231 20.206 34.2809 18.9719C33.9633 17.825 32.9735 17.676 32.9735 17.676C32.9735 17.676 33.7067 16.5355 32.37 14.995C31.0332 13.4545 29.6599 13.6928 29.6599 13.6928C29.6123 12.9329 29.2791 12.2077 28.7117 11.6288C27.7611 10.6649 26.268 10.8011 26.268 10.8011C26.2838 10.3144 26.1778 9.8306 25.9576 9.3831C25.7373 8.93561 25.408 8.53514 24.9924 8.20942C23.5702 7.03913 22.1431 7.09232 22.1431 7.09232C22.1636 6.75745 22.0863 6.4235 21.9183 6.12171C21.7504 5.81992 21.4973 5.56014 21.1827 5.36668C20.8228 5.12221 20.3958 4.96394 19.944 4.90758C19.4921 4.85122 19.0312 4.89872 18.607 5.04538C18.607 5.04538 18.3626 3.53038 16.8573 3.241C14.8901 2.8665 13.9249 3.87934 13.9249 3.87934C13.7383 3.68914 13.518 3.52608 13.2724 3.39633C13.2309 3.37292 13.1942 3.35377 13.1478 3.33249C12.7242 3.11621 12.2573 2.97181 11.772 2.90693C12.3201 2.28408 12.9902 1.75033 13.7514 1.33023C15.5231 0.385481 18.2062 0.98765 18.2062 0.98765C18.8834 0.561006 19.7147 0.361537 20.5473 0.425909C20.9474 0.453229 21.3351 0.558894 21.6817 0.735013C22.0283 0.911132 22.3246 1.15315 22.5487 1.443C22.5487 1.443 23.3698 0.915304 25.359 1.01744C27.3481 1.11957 27.8247 2.48563 27.8247 2.48563C28.8061 2.46157 29.7727 2.69832 30.5958 3.16439C32.062 3.95807 32.062 5.65393 32.062 5.65393C32.062 5.65393 33.8386 5.22837 35.3953 6.63485C36.9519 8.04133 36.2652 9.34993 36.2652 9.34993C36.8469 9.39545 37.4063 9.56638 37.8931 9.8473C38.3799 10.1282 38.7787 10.5103 39.0534 10.959C39.3282 11.4077 39.4703 11.9089 39.4669 12.4174C39.4635 12.9259 39.3147 13.4256 39.0339 13.8715C39.2615 13.9346 39.4694 14.0421 39.6418 14.186C39.8142 14.3298 39.9465 14.5061 40.0285 14.7014C40.3315 15.3801 40.0285 15.7951 40.0285 15.7951C40.0285 15.7951 41.5412 16.3568 41.9346 17.7526C42.328 19.1485 41.5412 19.9762 41.5412 19.9762C41.9359 20.1725 42.2616 20.459 42.483 20.8048C42.7043 21.1506 42.813 21.5424 42.7972 21.938C42.8046 23.3807 41.0744 23.6807 41.0744 23.6807Z" fill="black"/>
<path opacity="0.2" d="M35.7619 23.6126C36.0562 23.0265 36.091 22.3663 35.8596 21.7593C35.5688 21.0039 35.0801 20.6145 34.6231 20.4315C34.8576 19.9387 34.8938 19.3912 34.7257 18.8782C34.66 18.5801 34.5209 18.2979 34.318 18.0511C34.1151 17.8043 33.8532 17.5986 33.5503 17.4483C33.6994 16.9121 33.7483 15.9227 32.7317 14.7524C31.7151 13.5821 30.6741 13.3331 30.0705 13.2863C29.9386 12.5796 29.588 11.9175 29.0563 11.3713C28.7585 11.0835 28.3979 10.8502 27.9956 10.6847C27.5933 10.5192 27.1573 10.425 26.7128 10.4074C26.6181 9.45583 26.1198 8.56907 25.315 7.92C24.5742 7.28575 23.6256 6.8672 22.6001 6.72205C22.5551 6.3894 22.4307 6.06861 22.2351 5.78024C22.0394 5.49187 21.7767 5.24228 21.4638 5.04746C21.1105 4.81004 20.7024 4.64204 20.2675 4.55499C19.8326 4.46793 19.3812 4.4639 18.9443 4.54317C18.7317 3.98782 18.2112 3.09201 16.96 2.8537C15.4498 2.56431 14.443 3.00477 13.942 3.33032C13.4132 2.94613 12.7837 2.68155 12.1093 2.56006C11.8754 2.78895 11.6576 3.02983 11.4568 3.28138C12.8888 3.41544 13.5193 4.0857 13.5535 4.13251C13.5955 4.17997 13.649 4.21872 13.7103 4.24595C13.7716 4.27318 13.8391 4.28822 13.9078 4.28996C13.9764 4.29136 14.0445 4.27971 14.1074 4.25582C14.1703 4.23193 14.2264 4.19638 14.2719 4.15166C14.3061 4.11761 15.115 3.33032 16.7621 3.64737C17.9302 3.86015 18.1501 5.06449 18.1574 5.11343C18.1684 5.17526 18.1957 5.23404 18.237 5.2852C18.2784 5.33635 18.3328 5.3785 18.3959 5.40836C18.4591 5.43822 18.5293 5.45498 18.6011 5.45734C18.6729 5.4597 18.7443 5.44759 18.8099 5.42196C19.1584 5.30556 19.5357 5.27025 19.9047 5.3195C20.2736 5.36875 20.6215 5.50087 20.9139 5.70283C21.1635 5.85408 21.3656 6.05738 21.5018 6.29414C21.638 6.53091 21.7039 6.7936 21.6935 7.05824C21.6864 7.11546 21.6934 7.17335 21.714 7.22802C21.7347 7.2827 21.7685 7.3329 21.8132 7.37528C21.8556 7.42056 21.91 7.45621 21.9717 7.47918C22.0335 7.50216 22.1006 7.51178 22.1675 7.50721C22.214 7.50721 23.4334 7.48806 24.6821 8.51366C25.0437 8.7993 25.3306 9.14929 25.5233 9.5399C25.7159 9.93052 25.8099 10.3526 25.7989 10.7776C25.7924 10.8367 25.8009 10.8962 25.8237 10.9521C25.8465 11.008 25.8831 11.0588 25.9308 11.1011C25.9796 11.1431 26.0384 11.1753 26.1029 11.1955C26.1675 11.2158 26.2364 11.2235 26.3047 11.2181C26.3169 11.2181 27.5828 11.1202 28.355 11.9033C28.8476 12.4108 29.1405 13.0424 29.1907 13.7055C29.1916 13.7642 29.2072 13.822 29.2363 13.8749C29.2654 13.9278 29.3074 13.9745 29.3594 14.0119C29.4112 14.0492 29.4716 14.0764 29.5365 14.0919C29.6014 14.1073 29.6693 14.1105 29.7357 14.1013C29.7821 14.1013 30.8671 13.9545 31.9961 15.2503C33.1251 16.5461 32.5875 17.4632 32.5655 17.4973C32.5311 17.5529 32.5121 17.6148 32.51 17.6779C32.5079 17.7411 32.5227 17.8038 32.5533 17.8611C32.5847 17.9189 32.631 17.9695 32.6887 18.009C32.7464 18.0485 32.8138 18.0758 32.8856 18.0888C32.9149 18.0888 33.5919 18.2228 33.8264 19.0803C34.0855 20.0145 33.5821 20.3826 33.565 20.3932C33.4835 20.4454 33.4243 20.5198 33.3969 20.6046C33.3695 20.6894 33.3753 20.7797 33.4135 20.8613C33.4514 20.9447 33.5199 21.0149 33.6082 21.061C33.6965 21.1072 33.7998 21.1267 33.9022 21.1167C33.9731 21.1167 34.6353 21.0826 34.9872 22.0252C35.087 22.2865 35.1169 22.5643 35.0745 22.8372C35.0322 23.1101 34.9187 23.3709 34.7428 23.5998C34.6959 23.6537 34.6653 23.7171 34.6537 23.784C34.6422 23.8509 34.6502 23.9193 34.6769 23.9828C34.7042 24.0461 34.7491 24.1025 34.8075 24.147C34.8659 24.1916 34.936 24.2229 35.0116 24.2381C35.0825 24.2509 36.7222 24.5914 36.7027 26.6255C36.6783 28.6002 35.3782 28.7002 35.3293 28.7044C35.2648 28.7074 35.2017 28.722 35.144 28.7474C35.0863 28.7727 35.0353 28.8082 34.9942 28.8516C34.953 28.895 34.9227 28.9454 34.9051 28.9995C34.8875 29.0537 34.883 29.1104 34.8919 29.1661C34.9021 29.2702 34.9021 29.3749 34.8919 29.4789C35.0376 29.5274 35.193 29.5499 35.3489 29.5449C35.5126 29.5449 35.6617 29.5151 35.8132 29.4981C35.8132 29.4726 35.8132 29.4428 35.8132 29.4194C36.4657 29.2236 37.5873 28.6001 37.6118 26.6341C37.6386 24.8765 36.6074 23.9786 35.7619 23.6126Z" fill="black"/>
<path d="M35.339 29.0941C35.339 29.0941 37.1253 29.0324 37.1547 26.6173C37.184 24.2022 35.0995 23.832 35.0995 23.832C35.3202 23.5508 35.4639 23.2292 35.5194 22.892C35.5749 22.5548 35.5407 22.2111 35.4196 21.8872C34.9162 20.5658 33.8386 20.7063 33.8386 20.7063C33.8386 20.7063 34.6181 20.2084 34.276 18.9742C33.9583 17.8252 32.9686 17.6805 32.9686 17.6805C32.9686 17.6805 33.7017 16.5358 32.3626 14.9952C31.0234 13.4547 29.6525 13.693 29.6525 13.693C29.6047 12.9335 29.2725 12.2086 28.7068 11.629C27.7586 10.6673 26.2631 10.8056 26.2631 10.8056C26.28 10.3195 26.1764 9.83602 25.9592 9.38803C25.742 8.94003 25.4164 8.5381 25.0046 8.20966C23.5823 7.03936 22.1577 7.09256 22.1577 7.09256C22.1772 6.75757 22.0993 6.42371 21.9309 6.122C21.7626 5.8203 21.5094 5.56055 21.1948 5.36691C20.8355 5.12243 20.4088 4.96414 19.9574 4.90777C19.5059 4.8514 19.0454 4.89893 18.6216 5.04561C18.6216 5.04561 18.3772 3.53061 16.867 3.24123C14.9121 2.86461 13.9346 3.87957 13.9346 3.87957C13.9346 3.87957 12.6052 2.34755 9.40397 3.02845C6.71589 3.59657 6.52528 5.34563 6.52528 5.34563C6.52528 5.34563 3.76878 4.89666 2.50539 6.54571C1.24199 8.19476 1.63543 10.3268 1.63543 10.3268C1.63543 10.3268 0.0567991 11.2907 0.134998 12.7334C0.153554 13.5392 0.427564 14.325 0.926759 15.0037C0.926759 15.0037 -0.654318 17.3443 0.45268 19.2594C0.754384 19.8123 1.18338 20.3055 1.71304 20.7081C2.24271 21.1107 2.86174 21.4143 3.53174 21.5999C3.53174 21.5999 3.53175 23.6618 4.6363 24.6938C5.74085 25.7258 7.71537 25.6555 7.71537 25.6555C8.07609 26.5822 8.84295 27.347 9.84872 27.7833C11.5056 28.4706 13.243 27.9195 13.243 27.9195C13.76 28.4652 14.445 28.8711 15.2175 29.0898C16.4809 29.4324 18.0596 29.0898 18.0596 29.0898C18.1316 29.4499 18.3296 29.7818 18.6267 30.0401C18.9237 30.2983 19.3052 30.4703 19.7188 30.5325C21.2193 30.807 22.0086 29.9835 22.0086 29.9835C22.0086 29.9835 22.4827 30.8772 23.5872 30.9453C23.9052 30.9682 24.225 30.931 24.5249 30.8362C24.8248 30.7415 25.0976 30.5914 25.3247 30.3963C25.3247 30.3963 25.9576 32.1134 28.5626 32.1836C31.1676 32.2539 31.8078 31.2729 31.8078 31.2729C31.8078 31.2729 33.0639 32.0475 34.3273 31.2219C34.691 30.9723 34.975 30.6455 35.1522 30.273C35.3293 29.9004 35.3936 29.4945 35.339 29.0941Z" fill="#33C7BB" fill-opacity="0.7"/>
<path opacity="0.2" d="M35.339 29.0941C35.339 29.0941 37.1253 29.0324 37.1547 26.6173C37.184 24.2022 35.0995 23.832 35.0995 23.832C35.3202 23.5508 35.4639 23.2292 35.5194 22.892C35.5749 22.5548 35.5407 22.2111 35.4196 21.8872C34.9162 20.5658 33.8386 20.7063 33.8386 20.7063C33.8386 20.7063 34.6181 20.2084 34.276 18.9742C33.9583 17.8252 32.9686 17.6805 32.9686 17.6805C32.9686 17.6805 33.7017 16.5358 32.3626 14.9952C31.0234 13.4547 29.6525 13.693 29.6525 13.693C29.6047 12.9335 29.2725 12.2086 28.7068 11.629C27.7586 10.6673 26.2631 10.8056 26.2631 10.8056C26.28 10.3195 26.1764 9.83602 25.9592 9.38803C25.742 8.94003 25.4164 8.5381 25.0046 8.20966C23.5823 7.03936 22.1577 7.09256 22.1577 7.09256C22.1772 6.75757 22.0993 6.42371 21.9309 6.122C21.7626 5.8203 21.5094 5.56055 21.1948 5.36691C20.8355 5.12243 20.4088 4.96414 19.9574 4.90777C19.5059 4.8514 19.0454 4.89893 18.6216 5.04561C18.6216 5.04561 18.3772 3.53061 16.867 3.24123C14.9121 2.86461 13.9346 3.87957 13.9346 3.87957C13.9346 3.87957 12.6052 2.34755 9.40397 3.02845C6.71589 3.59657 6.52528 5.34563 6.52528 5.34563C6.52528 5.34563 3.76878 4.89666 2.50539 6.54571C1.24199 8.19476 1.63543 10.3268 1.63543 10.3268C1.63543 10.3268 0.0567991 11.2907 0.134998 12.7334C0.153554 13.5392 0.427564 14.325 0.926759 15.0037C0.926759 15.0037 -0.654318 17.3443 0.45268 19.2594C0.754384 19.8123 1.18338 20.3055 1.71304 20.7081C2.24271 21.1107 2.86174 21.4143 3.53174 21.5999C3.53174 21.5999 3.53175 23.6618 4.6363 24.6938C5.74085 25.7258 7.71537 25.6555 7.71537 25.6555C8.07609 26.5822 8.84295 27.347 9.84872 27.7833C11.5056 28.4706 13.243 27.9195 13.243 27.9195C13.76 28.4652 14.445 28.8711 15.2175 29.0898C16.4809 29.4324 18.0596 29.0898 18.0596 29.0898C18.1316 29.4499 18.3296 29.7818 18.6267 30.0401C18.9237 30.2983 19.3052 30.4703 19.7188 30.5325C21.2193 30.807 22.0086 29.9835 22.0086 29.9835C22.0086 29.9835 22.4827 30.8772 23.5872 30.9453C23.9052 30.9682 24.225 30.931 24.5249 30.8362C24.8248 30.7415 25.0976 30.5914 25.3247 30.3963C25.3247 30.3963 25.9576 32.1134 28.5626 32.1836C31.1676 32.2539 31.8078 31.2729 31.8078 31.2729C31.8078 31.2729 33.0639 32.0475 34.3273 31.2219C34.691 30.9723 34.975 30.6455 35.1522 30.273C35.3293 29.9004 35.3936 29.4945 35.339 29.0941Z" fill="white"/>
<g opacity="0.05">
<path d="M14.5233 9.46706C14.2535 9.01095 13.9256 8.58271 13.5459 8.19038C13.2648 7.91164 12.8127 7.49884 12.3509 7.55204C12.214 7.5648 12.302 7.76482 12.3998 7.76482C12.8274 7.83078 13.1329 8.14782 13.3626 8.43933C13.6131 8.75535 13.8384 9.08593 14.037 9.42876C14.5948 10.3244 14.9147 11.3177 14.973 12.3353C15.0121 13.1865 14.7726 14.0567 13.8367 14.478C12.7394 14.9717 11.3221 14.6589 10.2884 14.1993C9.85354 14.0237 9.47559 13.7568 9.18853 13.4225C8.90147 13.0883 8.71428 12.6971 8.64379 12.2843C8.62668 12.1779 8.43607 12.0885 8.44096 12.2438C8.43098 12.7033 8.56262 13.1566 8.82218 13.5567C9.10603 13.9287 9.49143 14.2336 9.94383 14.444C11.0044 14.9845 12.2898 15.2951 13.5092 15.0206C16.3659 14.3865 15.5472 11.1204 14.5233 9.46706Z" fill="black"/>
<path d="M11.4272 10.7864C11.3827 10.4398 11.2481 10.1066 11.0338 9.81191C10.8262 9.51342 10.5627 9.2473 10.2542 9.02462C9.95129 8.78167 9.59097 8.59937 9.19854 8.49055C9.02992 8.45224 9.04214 8.65864 9.14478 8.71609C9.46243 8.86716 9.76418 9.04232 10.0465 9.23953C10.3107 9.44792 10.5344 9.69224 10.7087 9.96299C10.8698 10.2215 10.9679 10.5062 10.9971 10.7992C11.0109 10.956 11.0052 11.1137 10.98 11.2695C10.9556 11.4184 10.9116 11.5588 10.8847 11.7078C10.8725 11.7759 10.9727 11.9206 11.0606 11.844C11.2036 11.7 11.3101 11.5314 11.3733 11.3492C11.4364 11.167 11.4548 10.9752 11.4272 10.7864Z" fill="black"/>
<path d="M12.8202 5.78157C11.9521 5.5781 11.0502 5.50612 10.1541 5.56879C9.30747 5.62501 8.49264 5.87374 7.79103 6.29012C6.54718 7.00719 5.61369 8.07322 5.37909 9.37331C5.24958 10.0904 5.17871 10.9883 5.90693 11.5011C5.9949 11.5607 6.1513 11.5266 6.10487 11.4096C5.9041 11.0073 5.80733 10.5714 5.8214 10.1329C5.8449 9.75944 5.91038 9.38885 6.0169 9.02647C6.26029 8.29056 6.74018 7.63055 7.40003 7.12422C8.08118 6.53884 8.94283 6.13821 9.88039 5.97095C10.3742 5.91031 10.8744 5.8996 11.3711 5.93903C11.8648 5.99882 12.3637 6.01948 12.8617 6.00073C12.9961 5.99435 12.9057 5.80285 12.8202 5.78157Z" fill="black"/>
<path d="M7.26811 13.7972C6.52033 12.7525 5.10298 11.9184 3.66364 11.9439C2.53465 11.9631 0.794734 12.5121 0.956019 13.7398C1.00743 14.045 1.13188 14.3373 1.32132 14.5979C1.51075 14.8585 1.76094 15.0816 2.05569 15.2527C2.18941 15.3279 2.34328 15.3715 2.50221 15.3793C2.66114 15.3872 2.81968 15.3589 2.9623 15.2974C3.29953 15.1293 3.33374 14.759 3.42416 14.4675C3.43882 14.4207 3.37773 14.3164 3.31664 14.3739C3.03805 14.6335 2.7668 15.2718 2.25118 14.9548C1.84141 14.6763 1.55619 14.2819 1.44476 13.8398C1.24193 12.8929 2.498 12.4355 3.36307 12.3291C4.56781 12.178 5.67481 12.7312 6.45924 13.4908C6.96753 13.9845 7.63711 15.008 6.81113 15.5186C6.6769 15.6028 6.52491 15.663 6.36388 15.6959C6.20284 15.7287 6.03594 15.7336 5.87275 15.7101C5.49153 15.6463 5.45488 15.391 5.38401 15.1016C5.34735 14.959 5.05167 14.8995 4.99546 15.0569C4.93745 15.2303 4.95204 15.4159 5.03663 15.5808C5.12123 15.7456 5.27032 15.8789 5.45732 15.957C5.84485 16.115 6.28839 16.1334 6.69139 16.008C6.89461 15.9583 7.08273 15.8701 7.24238 15.7499C7.40203 15.6296 7.52929 15.4802 7.61511 15.3122C7.83016 14.8207 7.56868 14.2186 7.26811 13.7972Z" fill="black"/>
<path d="M18.3723 25.6937C17.7418 24.6298 16.564 23.9085 15.3519 23.4191C15.1491 23.3382 14.9463 23.2616 14.741 23.1914C14.9796 23.0042 15.1876 22.7894 15.3592 22.553C15.7149 22.087 15.9861 21.576 16.1632 21.038C16.2577 20.7799 16.2861 20.5069 16.2464 20.2382C16.2067 19.9694 16.0999 19.7116 15.9335 19.4826C15.7602 19.2531 15.5243 19.0645 15.2468 18.9336C14.9707 18.806 14.5015 18.6655 14.196 18.7868C14.0739 18.8358 14.2107 18.9996 14.2913 19.0102C14.6066 19.0762 14.8827 19.0783 15.1589 19.2507C15.3931 19.4007 15.5682 19.6104 15.6598 19.8507C15.7996 20.2555 15.779 20.6894 15.6012 21.0827C15.4325 21.5196 15.2001 21.9358 14.9096 22.3211C14.7712 22.5081 14.6071 22.6796 14.4209 22.8318C14.3318 22.8975 14.2342 22.9539 14.1301 22.9999C13.089 22.6828 12.0138 22.4467 10.9532 22.1488C9.42593 21.7232 8.0208 21.07 6.95045 20.021C6.28079 19.4112 5.81812 18.6519 5.61375 17.8272C5.54534 17.4823 5.52075 17.132 5.54044 16.7824C5.5551 16.4973 5.58198 16.1207 5.82391 15.9037C5.93876 15.7994 5.71883 15.5887 5.57954 15.6653C5.07369 15.9505 5.09079 16.659 5.09079 17.125C5.08285 17.8614 5.29148 18.5873 5.69683 19.2337C6.52343 20.4814 7.77071 21.4775 9.26953 22.0871C11.8061 23.151 15.0342 23.1659 17.0894 25.0213C17.6413 25.4908 18.0214 26.0919 18.1817 26.7491C18.2648 27.1072 18.2648 27.4761 18.1817 27.8343C18.0962 28.1726 17.8494 28.4152 17.7247 28.7301C17.6905 28.8131 17.8274 28.962 17.93 28.9173C18.5287 28.6684 18.7389 27.9619 18.7829 27.4278C18.8276 26.8282 18.6858 26.2291 18.3723 25.6937Z" fill="black"/>
<path d="M15.1807 25.8193C14.4867 25.3831 13.6388 25.2745 12.825 25.1128C12.0113 24.9511 11.1951 24.8064 10.396 24.5958C9.99765 24.492 9.60678 24.3677 9.22544 24.2234C8.67805 24.0106 8.20153 23.7064 7.66391 23.4957C7.64208 23.4847 7.61674 23.4801 7.59167 23.4826C7.5666 23.4851 7.54313 23.4946 7.52474 23.5097C7.50636 23.5247 7.49403 23.5445 7.48961 23.5662C7.48519 23.5878 7.48889 23.6101 7.50018 23.6298C7.66147 23.9298 8.07445 24.1511 8.38969 24.3192C8.70527 24.4863 9.03729 24.6288 9.38183 24.7447C10.1104 24.9843 10.8586 25.1757 11.6203 25.3171C12.5342 25.5001 13.5264 25.5916 14.4061 25.8746C14.6767 25.9624 14.9312 26.0843 15.1612 26.2363C15.4398 26.4151 15.8479 26.6938 15.8772 27.0151C15.8772 27.1194 16.0922 27.2151 16.1216 27.0683C16.1949 26.5321 15.6426 26.1108 15.1807 25.8193Z" fill="black"/>
<path d="M4.0913 19.9338C3.8456 19.5374 3.52789 19.1781 3.15048 18.8699C2.66173 18.4039 2.30251 17.9146 2.30496 17.2528C2.31949 16.9047 2.37103 16.5585 2.45891 16.2187C2.53466 15.8676 2.66418 15.4633 2.50534 15.1207C2.47846 15.0612 2.38071 15.0122 2.33428 15.0824C2.25507 15.2469 2.20719 15.4216 2.19254 15.5995C2.16078 15.7612 2.12656 15.9187 2.08991 16.0783C2.00812 16.3917 1.94935 16.7094 1.91396 17.0294C1.86271 17.6083 2.06042 18.1832 2.46868 18.6423C2.77903 18.9955 3.16269 19.2912 3.46816 19.6487C3.61347 19.8074 3.71917 19.9908 3.77851 20.187C3.86648 20.519 3.73696 20.8254 3.65144 21.1488C3.65144 21.1978 3.69787 21.3446 3.77851 21.2807C3.98806 21.1142 4.13132 20.8939 4.18755 20.6518C4.24378 20.4096 4.21008 20.1582 4.0913 19.9338Z" fill="black"/>
<path d="M32.4871 17.9551C32.117 18.0598 31.7626 18.2027 31.4314 18.3806C31.0484 18.5429 30.6341 18.6418 30.2095 18.6721C29.452 18.7232 28.7164 18.5083 27.9613 18.5125C27.631 18.5098 27.3037 18.5686 27.0015 18.6849C26.6994 18.8012 26.4292 18.9724 26.2092 19.1871C26.0394 19.3441 25.8932 19.5192 25.7742 19.7084C25.6227 19.5616 25.4639 19.4169 25.2977 19.2828C24.6745 18.7763 23.9396 18.3853 23.1375 18.1338C22.2389 17.8832 21.3125 17.7156 20.3736 17.6338C19.5281 17.5359 18.7095 17.4423 17.9299 17.1039C17.2897 16.8231 16.5444 16.4294 16.3513 15.7826C16.3171 15.6741 16.1069 15.64 16.1314 15.7826C16.1851 16.3401 16.6641 16.7614 17.1455 17.089C17.6768 17.449 18.2898 17.7065 18.9441 17.8444C20.6547 18.1955 22.4777 18.1551 23.9952 19.0211C24.6502 19.3802 25.2129 19.8532 25.6481 20.4105C26.0833 20.9677 26.3817 21.5973 26.5244 22.2596C26.7517 23.381 26.8519 24.7811 25.8353 25.6407C25.114 26.2246 24.3051 26.7206 23.4307 27.1153C23.2279 27.211 23.0055 27.328 22.7905 27.4451C22.9084 27.1111 22.9862 26.7674 23.0226 26.4195C23.1176 25.7096 23.0478 24.9904 22.8173 24.3044C22.5782 23.6575 22.1843 23.0621 21.6615 22.5575C21.0457 21.9575 20.2783 21.5617 19.5403 21.0893C19.0984 20.8188 18.7083 20.4892 18.3845 20.1127C18.0179 19.6871 17.7124 19.1977 17.3874 18.7402C17.3239 18.6509 17.2506 18.7679 17.2848 18.8338C17.6562 19.553 18.0179 20.2765 18.641 20.8638C19.2642 21.451 20.0608 21.8319 20.7304 22.3532C21.3025 22.7993 21.7601 23.3454 22.0733 23.9558C22.3866 24.5663 22.5485 25.2274 22.5485 25.896C22.562 26.3265 22.5044 26.7565 22.3775 27.1727C22.2895 27.4557 22.1551 27.7259 22.0573 28.0047C21.8862 28.1797 21.7715 28.3912 21.725 28.6175C21.7055 28.7239 21.9156 28.8877 22.0158 28.7792C22.267 28.4871 22.5556 28.2208 22.876 27.9855C23.1838 27.788 23.5109 27.6143 23.8535 27.4664C24.6436 27.1051 25.3818 26.6637 26.0528 26.1514C26.5987 25.7595 26.9858 25.2255 27.1574 24.6279C27.3067 24.0231 27.3356 23.4006 27.2429 22.7873C27.19 22.1686 27.0251 21.561 26.7541 20.9872C26.603 20.7047 26.4213 20.4354 26.2116 20.1829C26.2492 20.064 26.2999 19.9485 26.3631 19.8382C26.5116 19.6289 26.6991 19.4426 26.9179 19.2871C27.4286 18.9168 28.1031 18.953 28.7238 19.0254C29.4373 19.1105 30.146 19.1956 30.8547 19.0254C31.2043 18.9436 31.5409 18.8242 31.8566 18.67C32.1578 18.5465 32.4291 18.3739 32.6557 18.1615C32.7168 18.0849 32.597 17.9338 32.4871 17.9551Z" fill="black"/>
<path d="M30.2486 15.6247C29.8307 14.7629 28.7433 14.3991 27.8049 14.1076C26.744 13.8138 25.7281 13.4086 24.7796 12.9011C24.3362 12.653 23.9397 12.3465 23.6042 11.9925C23.115 11.4198 22.8188 10.7397 22.7489 10.0285C22.7318 9.91364 22.4287 9.79449 22.3945 9.95407C22.0158 11.7265 23.6946 13.0011 25.327 13.7288C26.2043 14.1203 27.1353 14.3671 28.0517 14.665C28.797 14.914 29.9578 15.414 29.7941 16.2779C29.7159 16.7035 29.2711 16.829 28.8532 16.9163C28.2912 17.0197 27.7165 17.0612 27.1426 17.0397C25.9557 16.9872 24.779 16.8216 23.6335 16.546C21.5047 16.0747 19.6755 14.8911 18.5433 13.2522C17.9042 12.3032 17.534 11.2354 17.4631 10.1371C17.4273 9.59087 17.46 9.0429 17.5609 8.50291C17.6708 7.86457 17.8053 7.1709 18.2329 6.62405C18.2598 6.58788 18.2329 6.47936 18.1645 6.52618C17.7991 6.87129 17.5549 7.30028 17.4607 7.76243C17.3174 8.24092 17.2104 8.72711 17.1406 9.21785C16.9857 10.3111 17.1366 11.4206 17.5804 12.4521C18.4329 14.2902 20.0775 15.7649 22.1624 16.5609C23.2468 16.9322 24.3793 17.1865 25.5347 17.3184C26.7565 17.4886 28.0468 17.5631 29.2491 17.2737C29.462 17.2381 29.6634 17.1626 29.8394 17.0523C30.0154 16.9421 30.1617 16.7998 30.2681 16.6354C30.3476 16.4754 30.387 16.3025 30.3836 16.1282C30.3802 15.9539 30.3342 15.7822 30.2486 15.6247Z" fill="black"/>
<path d="M26.2142 15.493C25.7792 15.3632 25.3051 15.3227 24.8653 15.1972C24.4159 15.0771 23.9773 14.9285 23.553 14.7525C22.7876 14.4167 22.1141 13.9414 21.5785 13.3588C20.9732 12.7285 20.5516 11.9803 20.3493 11.1778C20.1709 10.3266 20.4397 9.50957 20.4935 8.66696C20.4935 8.59674 20.3566 8.42439 20.298 8.54993C19.8452 9.46253 19.7027 10.4691 19.8874 11.4501C20.1123 12.2784 20.5652 13.0467 21.207 13.6886C21.7923 14.3231 22.5475 14.8229 23.4064 15.144C23.8813 15.3092 24.3719 15.4381 24.8726 15.5291C25.2831 15.6057 25.8501 15.7568 26.2631 15.6525C26.329 15.6334 26.2899 15.5121 26.2142 15.493Z" fill="black"/>
<path d="M33.5648 22.4825C32.6338 21.725 30.9525 21.4995 30.6568 20.2462C30.6373 20.1696 30.4686 20.0866 30.454 20.2079C30.3489 21.2526 31.7736 21.9101 32.6387 22.3676C33.1692 22.6259 33.5836 23.0332 33.8141 23.523C34.0975 24.1294 33.9974 24.6976 33.7579 25.2955C33.731 25.3678 33.8263 25.4827 33.9118 25.4317C35.075 24.7316 34.3859 23.1507 33.5648 22.4825Z" fill="black"/>
<path d="M35.6956 27.0363C35.1947 27.4257 34.6986 27.7236 34.0095 27.7491C33.423 27.7632 32.8428 27.6413 32.3282 27.3959C32.0506 27.2869 31.809 27.1189 31.6254 26.9073C31.4418 26.6958 31.3221 26.4475 31.2774 26.1852C31.2299 25.8675 31.2515 25.5448 31.341 25.2341C31.4464 24.9319 31.5208 24.6221 31.5634 24.3085L31.6122 24.3404C31.9024 24.5767 32.1343 24.862 32.294 25.1787C32.3233 25.2234 32.4455 25.2894 32.4895 25.217C32.6997 24.8745 32.3942 24.5064 32.1156 24.268C31.8132 24.02 31.4767 23.8056 31.1137 23.6297C30.705 23.4287 30.3123 23.2041 29.9383 22.9573C29.7506 22.8269 29.5742 22.6846 29.4104 22.5317C29.1661 22.3083 28.9877 22.053 28.7629 21.8232C28.7213 21.7806 28.6676 21.8232 28.67 21.87C28.6969 22.2764 29.1001 22.6764 29.4153 22.9488C29.781 23.2524 30.1852 23.5187 30.6201 23.7425C30.8131 23.8446 31.0037 23.9552 31.1919 24.0595C31.1717 24.0711 31.1543 24.0861 31.1409 24.1037C31.1275 24.1212 31.1182 24.1409 31.1137 24.1616C31.0428 24.4766 30.906 24.7787 30.8131 25.0872C30.7229 25.3797 30.6858 25.6827 30.7032 25.9852C30.704 26.4756 30.924 26.9464 31.3165 27.298C31.7355 27.625 32.2323 27.8674 32.7713 28.0079C33.3103 28.1484 33.8783 28.1836 34.4347 28.1109C34.7281 28.07 35.01 27.9812 35.2656 27.8491C35.4201 27.7793 35.5553 27.6811 35.6621 27.5613C35.7688 27.4416 35.8444 27.3031 35.8838 27.1555C35.9058 27.0831 35.7836 26.9597 35.6956 27.0363Z" fill="black"/>
<path d="M32.0007 30.4045C31.9781 30.257 31.9295 30.1135 31.8565 29.9789C31.7084 29.6902 31.5223 29.4174 31.3018 29.1661C31.0678 28.9128 30.7735 28.7067 30.4392 28.5618C30.2726 28.4852 30.0984 28.4218 29.9187 28.3724L29.8136 28.3427C29.8752 28.2066 29.9123 28.063 29.9236 27.9171C29.9455 27.4569 29.8794 26.9967 29.7281 26.5553C29.5888 26.1191 29.3639 25.668 28.863 25.468C28.6626 25.3871 28.6528 25.6382 28.7921 25.7148C29.0072 25.8318 29.1171 26.1914 29.1904 26.3872C29.2845 26.6414 29.3499 26.9029 29.3859 27.1681C29.4397 27.5554 29.4812 27.9745 29.2784 28.3235C29.2679 28.3295 29.2592 28.3377 29.2533 28.3474C29.2473 28.3571 29.2442 28.3679 29.2442 28.3788C29.2192 28.4185 29.1914 28.4569 29.1611 28.4937C28.7604 28.9406 28.0932 29.1321 27.5287 29.3789C26.9642 29.6257 26.3411 29.9109 26.2556 30.4939C26.2409 30.5854 26.4046 30.7173 26.4999 30.6215C26.8805 30.2147 27.3639 29.8899 27.9124 29.6725C28.4266 29.4962 28.909 29.2561 29.3444 28.9597C29.4552 28.8716 29.5537 28.7723 29.6376 28.664H29.6767L29.8845 28.7193C30.0227 28.7598 30.1575 28.8088 30.2877 28.8661C30.5389 28.9771 30.7616 29.1313 30.9426 29.3193C31.081 29.4729 31.2075 29.6342 31.3214 29.8023C31.4049 29.9194 31.48 30.041 31.5462 30.1662C31.6099 30.2772 31.6654 30.3916 31.7123 30.5088C31.7319 30.5784 31.7614 30.6456 31.8003 30.7088C31.8199 30.7322 31.859 30.7726 31.8981 30.7556C32.0374 30.6981 32.0129 30.5173 32.0007 30.4045Z" fill="black"/>
<path d="M27.9248 26.1256C27.9248 26.0575 27.8075 25.9788 27.7831 26.0873C27.7168 26.4656 27.5228 26.8181 27.2259 27.1002C26.9288 27.3561 26.6011 27.5836 26.2484 27.7789C25.9021 27.9737 25.5824 28.2021 25.2954 28.4598C25.1473 28.5942 25.0266 28.7497 24.9386 28.9194C24.8534 29.0966 24.838 29.2934 24.8946 29.479C24.8946 29.5173 24.9753 29.6237 25.0339 29.5663C25.1974 29.3775 25.3445 29.1784 25.4738 28.9705C25.5842 28.8201 25.7155 28.6822 25.8648 28.5598C26.1534 28.34 26.4587 28.1374 26.7787 27.9534C27.127 27.7588 27.4304 27.5091 27.6731 27.2172C27.9036 26.891 27.9928 26.504 27.9248 26.1256Z" fill="black"/>
<path d="M15.3763 17.4079C15.0398 17.2677 14.6789 17.1771 14.3084 17.1398C13.2356 17.021 12.1471 17.0715 11.0949 17.2887C10.2418 17.4339 9.411 17.6653 8.61944 17.9781C8.20593 18.1423 7.81493 18.3464 7.45379 18.5867C7.20942 18.7505 6.72068 19.0548 6.85997 19.3633C6.88197 19.4123 6.94795 19.4804 7.01637 19.4633C7.37071 19.374 7.6444 19.0378 7.94009 18.8548C8.25195 18.6595 8.58605 18.4926 8.93712 18.3569C9.63187 18.0849 10.3576 17.8773 11.1022 17.7377C12.0138 17.541 12.9518 17.4537 13.8905 17.4781C14.2138 17.4893 14.5357 17.522 14.8533 17.576C15.1649 17.6372 15.457 17.7578 15.7086 17.9292C15.7159 17.9343 15.7244 17.938 15.7335 17.9401C15.7426 17.9421 15.7521 17.9424 15.7614 17.941C15.7706 17.9396 15.7794 17.9365 15.7872 17.9319C15.7949 17.9273 15.8015 17.9213 15.8064 17.9143C15.9188 17.6738 15.5742 17.4994 15.3763 17.4079Z" fill="black"/>
<path d="M10.2493 15.4717C10.1068 15.5367 9.97986 15.6248 9.87543 15.7313C9.73858 15.8462 9.59929 15.9441 9.45511 16.059C9.16065 16.2703 8.83725 16.449 8.49229 16.591C8.16507 16.7236 7.81914 16.8181 7.46349 16.8718C7.29672 16.8949 7.1287 16.9105 6.96009 16.9186C6.79614 16.9084 6.63136 16.9199 6.47135 16.9527C6.34917 16.991 6.41759 17.1357 6.49823 17.1782C6.81591 17.3463 7.3242 17.2804 7.67121 17.2293C8.06229 17.1685 8.44102 17.0581 8.79531 16.9016C9.14138 16.7501 9.46474 16.5622 9.75813 16.342C9.90745 16.2297 10.0464 16.1073 10.1736 15.976C10.2995 15.8778 10.378 15.7417 10.3935 15.5951C10.4057 15.5313 10.33 15.4419 10.2493 15.4717Z" fill="black"/>
</g>
<g opacity="0.05">
<path d="M28.24 3.09643C28.1985 3.056 28.1496 3.09643 28.1423 3.13473C28.0959 3.34751 28.1423 3.56029 28.1105 3.77307C28.0702 4.05873 27.9726 4.336 27.8222 4.59228C27.5338 5.08805 27.0451 5.59234 26.4146 5.76257C24.8628 6.18813 23.5335 5.30084 22.4582 4.43908C22.396 4.26707 22.3234 4.09803 22.2407 3.93266C22.0175 3.50603 21.72 3.112 21.3586 2.76449C21.0299 2.42934 20.6676 2.1203 20.276 1.84102C20.0744 1.69203 19.8529 1.56485 19.6162 1.46227C19.4266 1.36127 19.2048 1.31579 18.9833 1.33248C18.8586 1.35588 18.9197 1.51972 19.0175 1.54526C19.4129 1.659 19.7698 1.8564 20.0561 2.11977C20.3809 2.38655 20.6861 2.67082 20.97 2.97089C21.2985 3.29208 21.5658 3.65701 21.7618 4.05181C21.8711 4.28881 21.953 4.53473 22.0061 4.78591C22.0306 4.89868 22.0526 5.01145 22.0795 5.1221C22.1243 5.26165 22.1866 5.3965 22.2652 5.52426C22.2921 5.57745 22.3849 5.63703 22.4289 5.56468C22.5214 5.40605 22.5668 5.22974 22.5609 5.05188C22.9327 5.42158 23.3865 5.72195 23.8951 5.93492C24.7008 6.28555 25.6238 6.37384 26.4977 6.18388C27.1837 6.00348 27.7628 5.59847 28.113 5.05401C28.5015 4.48163 28.7899 3.65179 28.24 3.09643Z" fill="black"/>
<path d="M31.6271 7.63295C31.0797 7.27335 30.3784 6.94141 29.6722 6.95843C29.5329 6.95843 29.6306 7.18398 29.7406 7.19036C30.2293 7.22654 30.7743 7.50741 31.1702 7.75849C31.5001 7.97127 32.0132 8.32874 32.001 8.72877C31.9888 9.28838 30.8867 9.37988 30.437 9.36711C29.5677 9.31681 28.7347 9.04444 28.0422 8.58408C27.6783 8.36983 27.3495 8.11357 27.0647 7.82232C26.7373 7.47762 26.598 7.06269 26.3658 6.66905C26.3292 6.60947 26.1923 6.55415 26.1801 6.66905C26.1673 7.15471 26.3391 7.63045 26.6688 8.02234C26.9494 8.37614 27.2973 8.68558 27.6977 8.93729C28.4905 9.47098 29.4531 9.77862 30.4542 9.8182C31.1359 9.83097 32.3627 9.62245 32.5215 8.9075C32.629 8.37768 32.0548 7.91594 31.6271 7.63295Z" fill="black"/>
<path d="M38.5305 13.5522C38.2397 13.4799 37.8829 13.5778 37.5896 13.6161C37.2402 13.6629 36.8907 13.7139 36.5388 13.7459C35.8454 13.8188 35.1428 13.7922 34.4593 13.6671C33.8959 13.5585 33.358 13.3671 32.8684 13.1011C32.3143 12.7697 31.8201 12.3681 31.4022 11.9096C31.3264 11.8351 31.2189 11.867 31.2238 11.967C31.273 12.24 31.4055 12.4965 31.6075 12.7096C31.7914 12.9325 32.013 13.1298 32.2648 13.2948C32.8009 13.6366 33.4073 13.8858 34.0512 14.0289C34.7805 14.1972 35.5383 14.252 36.2896 14.1906C36.708 14.1559 37.124 14.1019 37.5359 14.0289C37.7485 13.9948 37.9562 13.9501 38.1664 13.9097C38.3081 13.882 38.5427 13.8735 38.6282 13.7544C38.6398 13.7359 38.6464 13.7153 38.6476 13.6943C38.6488 13.6733 38.6445 13.6523 38.6351 13.6329C38.6257 13.6134 38.6115 13.5961 38.5933 13.5822C38.5752 13.5682 38.5537 13.558 38.5305 13.5522Z" fill="black"/>
<path d="M36.3628 10.4609C36.2138 10.4609 36.3335 10.6737 36.419 10.6864C36.8076 10.7801 36.9249 11.5014 36.7538 11.7865C36.4972 12.2121 35.703 12.2291 35.2314 12.2333C34.4687 12.2382 33.718 12.0687 33.054 11.7418C32.426 11.429 31.9226 10.9758 31.319 10.6354C31.2164 10.58 31.1919 10.7141 31.2433 10.7694C31.8102 11.3546 32.3991 11.9461 33.1982 12.2802C34.0369 12.6195 34.972 12.7357 35.8863 12.6142C36.4899 12.5355 37.223 12.3036 37.2841 11.6886C37.3501 11.2014 37.03 10.4396 36.3628 10.4609Z" fill="black"/>
<path d="M39.3075 15.578C39.2777 15.5638 39.2467 15.5517 39.2146 15.5418C39.1673 15.5289 39.1191 15.5183 39.0704 15.5099C38.9787 15.493 38.8855 15.4823 38.7919 15.478C38.5874 15.4702 38.3826 15.4816 38.1809 15.512C37.7276 15.5775 37.2857 15.6934 36.8662 15.8567C36.5078 15.9849 36.1895 16.1855 35.9376 16.4419C35.6719 16.7797 35.5288 17.1793 35.5271 17.5888C35.4997 17.8657 35.5651 18.1436 35.7152 18.3888C35.8398 18.5769 36.0173 18.7342 36.2311 18.8459C36.4449 18.9576 36.6879 19.02 36.9371 19.0272C36.9792 19.0279 37.0207 19.0183 37.0568 18.9995C37.0795 18.9793 37.094 18.9533 37.0984 18.9253C37.1028 18.8974 37.0968 18.8689 37.0813 18.8442C37.0471 18.797 37.0022 18.7565 36.9493 18.725C36.7217 18.5859 36.5198 18.4172 36.3506 18.225C36.241 18.0757 36.1666 17.9088 36.1318 17.7342C36.097 17.5596 36.1025 17.3807 36.148 17.208C36.1935 17.0353 36.2781 16.8721 36.3968 16.7282C36.5155 16.5842 36.6659 16.4623 36.8394 16.3695C37.2231 16.1841 37.6342 16.0452 38.0612 15.9567C38.5171 15.8282 39.008 15.8282 39.4639 15.9567C39.477 15.9577 39.4902 15.9562 39.5026 15.9522C39.5149 15.9483 39.5262 15.9421 39.5355 15.934C39.5448 15.9258 39.552 15.9161 39.5565 15.9053C39.561 15.8945 39.5628 15.883 39.5616 15.8716C39.5836 15.7971 39.3735 15.6056 39.3075 15.578Z" fill="black"/>
<path d="M40.4487 20.4506C39.9599 19.5357 38.7772 18.9739 37.6702 18.8122C37.0666 18.7228 36.0133 18.6845 35.6199 19.1824C35.5945 19.2088 35.5799 19.2417 35.5784 19.2761C35.5819 19.3013 35.5943 19.3249 35.6141 19.3436C35.6338 19.3623 35.6598 19.3752 35.6883 19.3803C35.7454 19.3919 35.8048 19.3919 35.8618 19.3803C36.3506 19.3016 36.7831 19.1675 37.2938 19.2016C37.7727 19.2363 38.2378 19.3584 38.6589 19.5601C39.0799 19.7617 39.4475 20.0383 39.7375 20.3719C40.1481 20.9017 40.2556 21.7784 39.7913 22.3146C39.393 22.772 38.6672 22.7742 38.0807 22.6359C37.7449 22.5763 37.4355 22.4345 37.1888 22.2273C36.9811 22.0145 37.1252 21.7826 37.3036 21.589C37.3965 21.4911 37.2279 21.2741 37.0935 21.3507C36.6927 21.5762 36.3604 21.9465 36.6341 22.3635C36.855 22.6402 37.1758 22.8447 37.5455 22.9444C38.3422 23.2125 39.3172 23.2763 40.0235 22.7784C40.7786 22.2507 40.8323 21.1698 40.4487 20.4506Z" fill="black"/>
<path d="M39.3417 24.9084C39.1652 24.5797 38.9073 24.2891 38.5866 24.0573C38.4369 23.9389 38.2604 23.8492 38.0685 23.7938C37.8766 23.7385 37.6734 23.7188 37.4722 23.736C37.3378 23.7573 37.4209 23.9488 37.5284 23.9488C38.22 23.9935 38.6819 24.5744 38.9165 25.085C39.0349 25.3396 39.1058 25.6089 39.1266 25.883C39.1351 26.0143 39.1302 26.146 39.112 26.2766C39.112 26.3234 39.0924 26.3702 39.0851 26.4171C39.0593 26.5067 39.0502 26.5994 39.0582 26.6915C39.0777 26.766 39.1462 26.8469 39.2439 26.815C39.4076 26.7575 39.5249 26.5362 39.5763 26.4022C39.6335 26.2346 39.6558 26.0595 39.6422 25.8851C39.6196 25.5451 39.5173 25.2127 39.3417 24.9084Z" fill="black"/>
</g>
<g opacity="0.2">
<path d="M16.0093 8.58851C15.8382 8.56297 15.6696 8.6566 15.5743 8.92683C15.3544 9.53538 15.5743 10.544 15.6452 11.1653C15.7354 12.0581 15.907 12.9432 16.1584 13.8123C16.3636 14.5166 16.6324 15.2294 17.1701 15.7847C17.7023 16.29 18.3685 16.6742 19.1104 16.904C21.0922 17.5955 23.3233 17.6998 25.2196 18.5658C25.464 18.6722 25.7499 18.7786 25.9527 18.6403C26.0222 18.5786 26.0652 18.498 26.0746 18.412C26.0839 18.326 26.059 18.2398 26.004 18.1679C25.8882 18.0267 25.7289 17.9168 25.5446 17.8508C24.7895 17.5295 23.9489 17.4083 23.1376 17.2125C21.7622 16.915 20.4774 16.3611 19.3718 15.589C18.2699 14.8113 17.4709 13.7559 17.0845 12.5675C16.8573 11.8121 16.8402 11.027 16.7106 10.2567C16.6447 9.8503 16.6764 9.39282 16.4883 9.00981C16.4519 8.91184 16.3896 8.82267 16.3064 8.74949C16.2232 8.67631 16.1214 8.62117 16.0093 8.58851Z" fill="white"/>
<path d="M11.8598 11.6228C11.8106 11.9627 11.6319 12.2784 11.3524 12.5194C11.0729 12.7605 10.7086 12.913 10.3179 12.9527C10.1686 12.9413 10.0197 12.9784 9.9 13.057C9.71183 13.2357 9.96109 13.5059 10.1908 13.6421C10.9532 14.0953 11.8696 14.5188 12.7591 14.3081C13.6902 14.0953 14.2596 13.2123 14.3011 12.3718C14.3378 11.6675 13.8124 7.96724 12.1604 9.09285C11.3858 9.62267 11.9551 10.9143 11.8598 11.6228Z" fill="white"/>
<path d="M10.1152 11.5717C10.7383 9.68219 6.69397 7.56928 6.5498 10.0163C6.50577 10.3379 6.56675 10.6639 6.72574 10.9567C7.34156 11.9079 8.38502 10.4291 9.2452 11.3525C9.33842 11.479 9.44653 11.5967 9.56777 11.7036C9.63047 11.7556 9.713 11.7857 9.79956 11.7881C9.88613 11.7904 9.97066 11.7649 10.037 11.7164C10.075 11.6738 10.1017 11.6244 10.1152 11.5717Z" fill="white"/>
<path d="M19.7311 19.9106C19.867 20.0627 20.0324 20.193 20.2198 20.2957C21.9133 21.3596 23.3502 22.9129 23.5237 24.7237C23.5604 25.113 23.6019 25.596 24.0124 25.745C24.137 25.7775 24.2683 25.786 24.397 25.7698C24.5257 25.7536 24.6488 25.7132 24.7578 25.6514C25.5495 25.2726 25.9967 24.4747 26.0505 23.6895C26.0667 22.8989 25.8541 22.1173 25.4322 21.417C24.9117 20.4404 24.0149 19.5893 22.793 19.302C22.2799 19.1871 18.9051 18.8318 19.7311 19.9106Z" fill="white"/>
<path d="M9.17921 19.553C9.6875 19.6168 10.1909 19.9147 10.7236 19.9636C11.381 20.0254 12.1508 19.9637 12.703 19.6253C12.8798 19.4861 13.0658 19.356 13.2602 19.2359C13.4737 19.1496 13.7135 19.1253 13.944 19.1666C14.1746 19.208 14.3838 19.3129 14.5407 19.4657C14.849 19.7818 15.0025 20.1905 14.9683 20.6041C14.9716 20.8581 14.907 21.1093 14.7798 21.3378C14.6526 21.5664 14.4662 21.7661 14.2352 21.9212C13.5999 22.3 12.7421 22.1595 12.0066 21.968C10.8385 21.6638 9.68017 21.2552 8.7589 20.5616C8.59869 20.4553 8.46971 20.3175 8.38256 20.1594C8.34048 20.0795 8.32615 19.9905 8.34135 19.9036C8.35654 19.8166 8.4006 19.7354 8.4681 19.67C8.59217 19.5856 8.74562 19.5405 8.90307 19.5423C8.9953 19.538 9.08778 19.5416 9.17921 19.553Z" fill="white"/>
<path d="M19.7457 14.0567C20.7574 15.0355 22.1479 15.6589 23.5604 16.1292C24.9044 16.5781 27.0157 17.2314 28.4478 16.7058C28.8876 16.5441 29.2566 16.1547 29.1931 15.744C29.1296 15.3333 28.7239 15.0759 28.3231 14.8929C26.9033 14.2269 25.2661 13.9609 23.8267 13.3311C23.5506 13.2098 23.1742 13.1013 22.9641 13.2992C22.7539 13.4971 22.8883 13.7928 23.1034 13.9609C23.4487 14.2298 23.8342 14.4567 24.2495 14.6354C24.7895 14.8482 25.8623 14.9248 26.2851 15.2738C26.7078 15.6227 26.3437 15.8738 25.8354 15.8079C24.4108 15.6206 22.9861 15.2759 21.7838 14.5844C20.7821 14.029 20.0112 13.2087 19.5844 12.2438C19.4318 11.8913 19.3133 11.5283 19.2301 11.1586C19.1861 10.9458 19.279 10.3479 19.0566 10.1968C18.3553 9.71594 18.4286 11.6012 18.475 11.8395C18.6511 12.6678 19.0915 13.4362 19.7457 14.0567Z" fill="white"/>
<path d="M17.2776 4.6134C17.0703 4.37479 16.7973 4.18555 16.4838 4.06319C16.1702 3.94083 15.8263 3.88929 15.4839 3.91335C14.7968 3.96805 14.1445 4.2016 13.612 4.58361C13.1319 4.2386 12.5735 3.98576 11.9734 3.84166C11.3733 3.69755 10.7451 3.66542 10.1297 3.74738C9.21089 3.86228 8.25784 4.22188 7.68602 4.89852C7.58094 5.02619 7.5003 5.22408 7.64203 5.32408C7.70512 5.36008 7.77923 5.37862 7.85463 5.37728C8.81012 5.41558 9.76806 5.03683 10.7626 5.05385C11.8015 5.04807 12.823 5.28623 13.7195 5.74326C14.2913 6.05179 14.7923 6.4731 15.4301 6.67737C15.7442 6.78042 16.088 6.79331 16.4111 6.71416C16.7343 6.63501 17.0199 6.46796 17.2262 6.23742C17.4326 6.00688 17.5489 5.72492 17.5581 5.43274C17.5673 5.14056 17.469 4.85347 17.2776 4.6134Z" fill="white"/>
<path d="M3.39008 6.87746C2.756 7.56141 2.40098 8.40946 2.38083 9.28827C2.36372 10.2415 2.82802 11.0288 4.04743 11.0352C4.16492 11.0409 4.28226 11.022 4.38955 10.9799C4.72189 10.8267 4.69746 10.416 4.66324 10.0904C4.56572 9.11667 4.82217 8.14083 5.39635 7.30089C5.55764 7.06471 5.75313 6.79873 5.66272 6.53488C5.61553 6.42949 5.53577 6.33753 5.43225 6.26917C5.32874 6.20082 5.20551 6.15875 5.07623 6.14762C4.38711 6.05826 3.80551 6.43062 3.39008 6.87746Z" fill="white"/>
<path d="M21.5322 27.2132C21.6307 26.4725 21.5769 25.7224 21.3734 24.9982C21.0912 23.9268 20.3744 22.9801 19.3549 22.332C18.8343 22.0086 17.8007 21.4809 17.1751 21.8639C16.5495 22.2469 16.7254 22.9874 17.1018 23.4342C17.4781 23.8811 18.0475 24.1896 18.4653 24.6152C18.9758 25.1712 19.2824 25.8481 19.3451 26.5578C19.4208 27.1834 19.1765 27.7175 19.2009 28.309C19.1994 28.4115 19.2256 28.5129 19.2774 28.6049C19.3291 28.697 19.4051 28.7771 19.499 28.8389C19.6283 28.9073 19.778 28.9407 19.9291 28.9346C20.1847 28.9152 20.4305 28.8401 20.644 28.7163C20.8576 28.5925 21.0319 28.4239 21.151 28.226C21.3512 27.9127 21.4806 27.5689 21.5322 27.2132Z" fill="white"/>
<path d="M9.74607 23.8616L13.1893 24.8574C13.8477 25.0231 14.4817 25.2552 15.0782 25.549C15.678 25.848 16.1381 26.321 16.3783 26.8852C16.4809 27.1597 16.5567 27.5023 16.867 27.5981C17.0142 27.6259 17.1681 27.6032 17.2966 27.5346C17.425 27.466 17.518 27.3569 17.5562 27.23C17.6194 26.9721 17.5788 26.7031 17.4413 26.4682C16.8426 25.217 15.4595 24.3744 14.0201 23.851C12.5808 23.3276 11.0437 23.0488 9.60678 22.5254C8.16923 22.0004 6.86093 21.2397 5.75306 20.2848C5.23744 19.8401 4.67295 19.7592 4.72671 20.5274C4.87822 22.5679 7.92551 23.3361 9.74607 23.8616Z" fill="white"/>
<path d="M29.9237 20.6656C29.5547 20.2528 29.0684 20.5656 29.0489 21.1422C29.0293 21.7189 29.5254 22.2529 30.0801 22.5955C30.6349 22.9381 31.28 23.1721 31.7907 23.5594C32.0527 23.7466 32.2874 23.9609 32.4896 24.1977C32.734 24.5127 32.8733 25.5212 33.5404 24.9552C34.0169 24.5531 33.7677 23.619 33.4476 23.2232C33.0517 22.7359 32.4359 22.4295 31.8396 22.1359C31.2067 21.8231 30.3734 21.4188 30.0337 20.8401C30.0019 20.7797 29.9652 20.7214 29.9237 20.6656Z" fill="white"/>
<path d="M32.0791 28.0558C31.7198 27.9434 31.3907 27.7682 31.1121 27.541C30.8334 27.3137 30.6112 27.0392 30.4589 26.7344C30.4149 26.6386 30.3319 26.5216 30.2146 26.545C30.0973 26.5684 30.1095 26.6961 30.1266 26.7876C30.1901 27.1387 30.1975 27.5238 30.4027 27.8345C30.6358 28.1593 30.9308 28.4472 31.2751 28.6856C31.5561 28.8752 31.7855 29.1164 31.9471 29.392C32.0938 29.6814 32.0718 30.0112 32.2868 30.2814C32.4009 30.4208 32.5587 30.5287 32.7413 30.5921C33.0678 30.6977 33.4286 30.6888 33.7477 30.5674C34.0667 30.4459 34.3192 30.2213 34.4519 29.941C35.0433 28.5749 33.2105 28.426 32.0791 28.0558Z" fill="white"/>
<path d="M3.74677 12.6844C3.49725 12.6758 3.24821 12.7098 3.01366 12.7844C2.89657 12.8218 2.79128 12.8827 2.70635 12.9622C2.62142 13.0417 2.55925 13.1375 2.52492 13.2419C2.50588 13.3973 2.54266 13.554 2.63019 13.6904C2.71772 13.8269 2.8517 13.9363 3.01366 14.0036C3.34269 14.1308 3.68811 14.2229 4.04246 14.2781C4.60402 14.4092 5.12495 14.6476 5.56733 14.9761C5.76038 15.1186 6.00231 15.291 6.2369 15.2037C6.32245 15.1571 6.39178 15.0911 6.43742 15.0127C6.48307 14.9344 6.50329 14.8466 6.49593 14.759C6.51869 14.4357 6.43384 14.1136 6.25156 13.8313C5.73106 13.0227 4.75357 12.6802 3.74677 12.6844Z" fill="white"/>
</g>
<path d="M21.8643 2.8072C22.4068 3.44554 22.8638 4.14346 23.548 4.66265C24.2323 5.18183 25.2391 5.48185 26.0601 5.14353C26.3228 5.02702 26.5502 4.8582 26.7239 4.65079C26.8975 4.44338 27.0126 4.20322 27.0596 3.94983C27.1891 3.27319 26.8153 2.32206 26.1555 1.9348C25.7191 1.69226 25.2086 1.57057 24.6912 1.58576C24.1738 1.60096 23.6738 1.75233 23.2572 2.01991C23.2026 2.06555 23.1352 2.09785 23.0617 2.11354C22.9732 2.11216 22.8875 2.08605 22.8174 2.03906C22.3824 1.805 21.4049 1.01984 20.8624 1.18794C20.1048 1.40498 21.6615 2.56676 21.8643 2.8072Z" fill="#33C7BB" fill-opacity="0.7"/>
<path d="M28.6188 5.88382C28.6011 5.91104 28.59 5.94114 28.5862 5.97226C28.5824 6.00338 28.586 6.03484 28.5968 6.06469C28.6173 6.08999 28.6439 6.11109 28.6747 6.12652C28.7055 6.14196 28.7398 6.15135 28.7752 6.15406C29.2444 6.25194 29.7234 6.30513 30.1901 6.41578C31.077 6.62881 31.8832 7.04292 32.5263 7.61586C32.9703 7.96776 33.2554 8.44616 33.3303 8.96489C33.3645 9.48195 32.9857 10.0416 32.4017 10.1309C32.3088 10.3905 32.5923 10.6288 32.8537 10.7693C33.2732 11.0049 33.7175 11.2051 34.1807 11.3672C34.6939 11.5459 35.3854 11.6353 35.7055 11.2438C35.9499 10.9523 35.8228 10.5267 35.5443 10.265C35.2417 10.0229 34.8799 9.84392 34.4861 9.74154C35.1973 9.07341 35.1728 7.95631 34.5546 7.22221C33.9363 6.48812 32.844 6.13278 31.7907 6.1881C31.585 6.22174 31.3723 6.19868 31.1822 6.12214C30.7986 5.90936 30.9819 5.39656 30.9599 5.071C30.9183 4.48798 30.4149 3.60494 29.6158 4.06242C28.9854 4.43053 28.8852 5.33272 28.6188 5.88382Z" fill="#33C7BB" fill-opacity="0.7"/>
<path d="M28.1693 7.32197C28.0741 7.30759 27.9763 7.31536 27.8858 7.34451C27.7952 7.37366 27.7151 7.42314 27.6536 7.48794C27.5363 7.6688 27.7098 7.88797 27.898 8.02628C28.1432 8.21891 28.4168 8.38207 28.7118 8.51142C29.3036 8.771 29.9636 8.88991 30.6252 8.85612C30.7095 8.85549 30.7927 8.83954 30.8695 8.80931C31.4658 8.52631 30.762 7.66668 30.3588 7.53262C29.7381 7.31346 28.8315 7.33261 28.1693 7.32197Z" fill="#33C7BB" fill-opacity="0.7"/>
<path d="M33.6065 14.442C33.5446 14.4276 33.4798 14.4249 33.4166 14.434C33.3534 14.4432 33.2932 14.464 33.24 14.4951C33.1943 14.5403 33.167 14.5972 33.1622 14.6572C33.1573 14.7171 33.1752 14.7768 33.2131 14.8271C33.367 15.0611 33.6163 15.2526 33.78 15.4952C33.9845 15.7893 34.0942 16.126 34.0977 16.4698C34.0977 16.7442 34.0342 17.0379 34.1906 17.2762C34.2761 17.4039 34.4178 17.4996 34.4936 17.6294C34.54 17.7081 34.562 17.7975 34.6084 17.8762C34.6284 17.917 34.6603 17.9525 34.7011 17.979C34.7419 18.0055 34.79 18.0222 34.8406 18.0273C35.0019 18.0273 35.085 17.8656 35.1289 17.7294C35.278 17.2358 35.2658 16.6655 35.5199 16.2059C35.8058 15.6846 36.341 15.5356 36.9031 15.3548C37.5531 15.1314 38.2544 15.0952 38.9289 14.9526C39.0215 14.9356 39.11 14.9046 39.1904 14.8611C39.2305 14.838 39.263 14.8063 39.2848 14.769C39.3067 14.7317 39.3171 14.6902 39.315 14.6484C39.2759 14.3654 38.6234 14.4356 38.4206 14.4569C36.8237 14.6562 35.2018 14.6512 33.6065 14.442Z" fill="#33C7BB" fill-opacity="0.7"/>
<path d="M36.9153 18.0145C36.9153 17.2102 38.1885 16.6463 38.9851 16.6421C39.5976 16.6561 40.1921 16.8254 40.6957 17.1294C41.3359 17.4953 41.573 18.406 41.4068 19.0274C41.3647 19.2203 41.2565 19.3976 41.0965 19.5359C41.0154 19.6034 40.9134 19.6487 40.803 19.6661C40.6926 19.6835 40.5788 19.6723 40.4758 19.6338C40.3511 19.5661 40.2451 19.4753 40.1654 19.3678C39.8685 19.0493 39.4969 18.7896 39.0754 18.6062C38.654 18.4227 38.1925 18.3197 37.7217 18.3039C37.4065 18.289 37.0106 18.2699 36.9153 18.0145Z" fill="#33C7BB" fill-opacity="0.7"/>
<path d="M38.4328 19.9084C37.9622 19.7397 37.4505 19.6768 36.9446 19.7254C36.7493 19.7334 36.5616 19.7936 36.407 19.8978C36.3312 19.9513 36.2801 20.0267 36.2631 20.1104C36.246 20.194 36.2642 20.2802 36.3141 20.3531C36.3744 20.4157 36.4505 20.4652 36.5365 20.4978C36.9481 20.692 37.3426 20.9125 37.7168 21.1574C37.8592 21.2359 37.9748 21.3461 38.0516 21.4766C38.0842 21.6179 38.13 21.7567 38.1885 21.8915C38.2595 21.9629 38.3473 22.0202 38.446 22.0595C38.5446 22.0987 38.6518 22.1191 38.7603 22.1192C38.9044 22.1478 39.0547 22.1419 39.1953 22.1022C39.2801 22.0579 39.3524 21.9976 39.4069 21.9258C39.4615 21.854 39.4969 21.7725 39.5105 21.6873C39.5703 21.4612 39.5705 21.2262 39.5111 21C39.4517 20.7738 39.3342 20.5623 39.1675 20.3813C39.0008 20.2003 38.7892 20.0546 38.5485 19.955C38.3078 19.8554 38.0444 19.8045 37.7779 19.8063" fill="#33C7BB" fill-opacity="0.7"/>
<path d="M27.5826 9.71171C27.5421 9.6995 27.4988 9.69583 27.4563 9.70101C27.4139 9.70619 27.3734 9.72007 27.3383 9.7415C27.3123 9.76951 27.2981 9.80443 27.2981 9.84044C27.2981 9.87645 27.3123 9.91137 27.3383 9.93939C27.3951 9.99296 27.4654 10.0345 27.5435 10.0607C28.1161 10.2633 28.6618 10.5195 29.171 10.8246C29.4244 10.9797 29.64 11.1768 29.8057 11.4047C29.9713 11.6325 30.0837 11.8866 30.1363 12.1523C30.1534 12.2864 30.1632 12.4438 30.2927 12.5162C30.3627 12.546 30.443 12.5519 30.5177 12.5326C30.5924 12.5133 30.656 12.4702 30.6959 12.4119C30.7739 12.2941 30.8151 12.1606 30.8156 12.0246C30.8792 11.4054 31.06 10.4522 30.2218 10.1671C29.9077 10.0965 29.5872 10.0496 29.2639 10.0266C28.7067 9.92662 28.1496 9.80108 27.5826 9.71171Z" fill="#33C7BB" fill-opacity="0.7"/>
<path d="M14.1375 1.88794C13.9396 1.99858 13.7197 2.14753 13.727 2.3518C13.7434 2.44069 13.7917 2.52277 13.865 2.58624C13.9383 2.64971 14.0329 2.6913 14.1351 2.70501C14.3419 2.7244 14.5511 2.7085 14.7509 2.6582C16.1218 2.40712 17.7127 2.51777 18.6804 3.40081C18.8444 3.58048 19.0322 3.74262 19.24 3.88382C19.846 4.22427 20.6451 4.16469 21.3122 4.30938C21.3224 4.18836 21.2882 4.06765 21.2145 3.96468C19.9706 1.88794 16.5372 0.553802 14.1375 1.88794Z" fill="#33C7BB" fill-opacity="0.7"/>
<path d="M39.1658 23.585C39.0167 23.6084 38.8432 23.6658 38.809 23.7978C38.7748 23.9297 38.8872 24.0276 38.985 24.1148L39.4395 24.5127C39.5493 24.6011 39.6469 24.7004 39.7303 24.8085C39.9282 25.0893 39.9258 25.4468 40.004 25.7617C40.0284 25.8596 40.0871 25.9745 40.2019 25.9852C40.2344 25.9839 40.2662 25.9771 40.2956 25.965C40.3249 25.953 40.3512 25.9359 40.373 25.9149C40.7346 25.6341 40.7713 25.1617 40.7689 24.7383C40.7786 23.819 40.2019 23.419 39.1658 23.585Z" fill="#33C7BB" fill-opacity="0.7"/>
<path d="M16.5715 15.9588C16.572 16.046 16.5427 16.1314 16.4874 16.2041C16.4322 16.2768 16.3533 16.3336 16.2609 16.3673C16.1685 16.4009 16.0668 16.41 15.9685 16.3932C15.8702 16.3765 15.7798 16.3347 15.7088 16.2732C15.6379 16.2117 15.5894 16.1332 15.5697 16.0477C15.55 15.9622 15.5599 15.8735 15.5981 15.7929C15.6363 15.7123 15.7011 15.6434 15.7844 15.5949C15.8676 15.5464 15.9655 15.5205 16.0657 15.5205C16.1994 15.5205 16.3277 15.5666 16.4225 15.6488C16.5173 15.7309 16.5709 15.8424 16.5715 15.9588Z" fill="#FAFAFA"/>
<path d="M13.0744 7.54966C13.0749 7.63695 13.0456 7.7224 12.9902 7.79516C12.9348 7.86792 12.8558 7.9247 12.7633 7.9583C12.6708 7.99191 12.5689 8.00081 12.4705 7.98388C12.3722 7.96695 12.2818 7.92496 12.2109 7.86323C12.14 7.80151 12.0918 7.72283 12.0723 7.63719C12.0529 7.55155 12.0631 7.46282 12.1017 7.38225C12.1403 7.30168 12.2055 7.23291 12.2891 7.18468C12.3726 7.13644 12.4708 7.11091 12.571 7.11133C12.7043 7.11189 12.832 7.15825 12.9263 7.24033C13.0205 7.32242 13.0738 7.43358 13.0744 7.54966Z" fill="#FAFAFA"/>
<path d="M8.93235 12.2437C8.93235 12.3309 8.90262 12.4161 8.84693 12.4886C8.79123 12.5611 8.71209 12.6175 8.61951 12.6508C8.52694 12.6841 8.42511 12.6927 8.32691 12.6755C8.22872 12.6583 8.1386 12.6162 8.06795 12.5544C7.9973 12.4926 7.94932 12.4139 7.93008 12.3283C7.91084 12.2427 7.92121 12.1541 7.95987 12.0736C7.99853 11.9932 8.06374 11.9246 8.14725 11.8764C8.23076 11.8283 8.3288 11.8028 8.42895 11.8032C8.49526 11.8032 8.56092 11.8146 8.62216 11.8368C8.68339 11.859 8.739 11.8914 8.78577 11.9324C8.83255 11.9733 8.86958 12.0219 8.89473 12.0753C8.91989 12.1287 8.93267 12.1859 8.93235 12.2437Z" fill="#FAFAFA"/>
<path d="M4.03513 14.6206C4.03513 14.7078 4.0054 14.7931 3.94971 14.8656C3.89402 14.938 3.81487 14.9945 3.72229 15.0278C3.62972 15.061 3.52789 15.0696 3.42969 15.0525C3.3315 15.0353 3.24138 14.9931 3.17073 14.9313C3.10008 14.8695 3.0521 14.7908 3.03286 14.7053C3.01362 14.6197 3.02399 14.531 3.06265 14.4506C3.10131 14.3702 3.16652 14.3015 3.25003 14.2534C3.33354 14.2052 3.43158 14.1798 3.53173 14.1802C3.59804 14.1802 3.6637 14.1916 3.72494 14.2137C3.78617 14.2359 3.84178 14.2684 3.88855 14.3093C3.93533 14.3502 3.97236 14.3988 3.99752 14.4522C4.02267 14.5057 4.03545 14.5629 4.03513 14.6206Z" fill="#FAFAFA"/>
<path d="M14.5847 18.7572C14.5847 18.8439 14.5552 18.9286 14.4998 19.0007C14.4445 19.0728 14.3659 19.129 14.2739 19.1621C14.1819 19.1953 14.0807 19.204 13.9831 19.1871C13.8854 19.1702 13.7957 19.1284 13.7253 19.0671C13.6549 19.0058 13.607 18.9277 13.5876 18.8427C13.5681 18.7577 13.5781 18.6695 13.6162 18.5894C13.6543 18.5093 13.7188 18.4409 13.8016 18.3927C13.8844 18.3446 13.9817 18.3188 14.0813 18.3188C14.2146 18.3194 14.3423 18.3658 14.4365 18.4478C14.5308 18.5299 14.584 18.6411 14.5847 18.7572Z" fill="#FAFAFA"/>
<path d="M6.94577 19.7147C6.94625 19.802 6.91693 19.8874 6.86154 19.9602C6.80614 20.033 6.72716 20.0897 6.63463 20.1233C6.5421 20.1569 6.44019 20.1658 6.34184 20.1489C6.24349 20.132 6.15313 20.09 6.08224 20.0283C6.01135 19.9665 5.96312 19.8879 5.94368 19.8022C5.92424 19.7166 5.93447 19.6279 5.97306 19.5473C6.01164 19.4667 6.07686 19.398 6.16042 19.3497C6.24398 19.3015 6.34211 19.276 6.44237 19.2764C6.57568 19.2769 6.70335 19.3233 6.79762 19.4054C6.89188 19.4875 6.94513 19.5986 6.94577 19.7147Z" fill="#FAFAFA"/>
<path d="M26.1679 20.0147C26.1674 20.1013 26.1375 20.1858 26.0819 20.2576C26.0263 20.3294 25.9475 20.3853 25.8555 20.4181C25.7635 20.451 25.6623 20.4593 25.5648 20.4422C25.4673 20.425 25.3779 20.3831 25.3077 20.3217C25.2376 20.2604 25.1899 20.1823 25.1706 20.0973C25.1514 20.0123 25.1615 19.9243 25.1997 19.8443C25.2379 19.7644 25.3024 19.696 25.3851 19.6479C25.4678 19.5999 25.5651 19.5742 25.6645 19.5742C25.7308 19.5742 25.7965 19.5856 25.8577 19.6078C25.919 19.6299 25.9746 19.6624 26.0214 19.7034C26.0681 19.7443 26.1052 19.7929 26.1303 19.8463C26.1555 19.8997 26.1683 19.9569 26.1679 20.0147Z" fill="#FAFAFA"/>
<path d="M22.5266 28.6109C22.5266 28.6981 22.4969 28.7833 22.4412 28.8558C22.3855 28.9283 22.3063 28.9847 22.2137 29.018C22.1212 29.0513 22.0193 29.0599 21.9212 29.0427C21.823 29.0255 21.7328 28.9834 21.6622 28.9216C21.5915 28.8597 21.5436 28.7811 21.5243 28.6955C21.5051 28.6099 21.5154 28.5213 21.5541 28.4408C21.5928 28.3604 21.658 28.2917 21.7415 28.2436C21.825 28.1955 21.923 28.17 22.0232 28.1704C22.0895 28.1704 22.1552 28.1818 22.2164 28.204C22.2776 28.2261 22.3332 28.2586 22.38 28.2995C22.4268 28.3405 22.4638 28.389 22.489 28.4425C22.5141 28.4959 22.5269 28.5531 22.5266 28.6109Z" fill="#FAFAFA"/>
<path d="M26.9008 15.5462C26.9008 15.6329 26.8713 15.7177 26.816 15.7898C26.7607 15.8618 26.6821 15.918 26.5901 15.9512C26.4981 15.9844 26.3969 15.9931 26.2992 15.9761C26.2016 15.9592 26.1119 15.9175 26.0415 15.8562C25.9711 15.7949 25.9231 15.7168 25.9037 15.6318C25.8843 15.5467 25.8943 15.4586 25.9324 15.3785C25.9705 15.2984 26.035 15.2299 26.1178 15.1818C26.2006 15.1336 26.2979 15.1079 26.3974 15.1079C26.531 15.1079 26.659 15.1541 26.7534 15.2363C26.8478 15.3185 26.9008 15.43 26.9008 15.5462Z" fill="#FAFAFA"/>
<path d="M26.8667 6.6732C26.8672 6.76049 26.8378 6.84594 26.7824 6.9187C26.727 6.99146 26.6481 7.04824 26.5555 7.08184C26.463 7.11544 26.3611 7.12434 26.2627 7.10741C26.1644 7.09049 26.074 7.0485 26.0031 6.98677C25.9323 6.92504 25.884 6.84637 25.8646 6.76073C25.8451 6.67509 25.8554 6.58635 25.894 6.50578C25.9325 6.42522 25.9978 6.35645 26.0813 6.30821C26.1649 6.25998 26.263 6.23445 26.3633 6.23487C26.4966 6.23543 26.6242 6.28179 26.7185 6.36387C26.8128 6.44595 26.866 6.55712 26.8667 6.6732Z" fill="#F0F0F0"/>
<path d="M36.082 12.5479C36.082 12.6351 36.0523 12.7203 35.9966 12.7928C35.9409 12.8653 35.8617 12.9217 35.7692 12.955C35.6766 12.9883 35.5748 12.9969 35.4766 12.9797C35.3784 12.9625 35.2883 12.9204 35.2176 12.8586C35.147 12.7968 35.099 12.7181 35.0797 12.6325C35.0605 12.5469 35.0709 12.4583 35.1095 12.3778C35.1482 12.2974 35.2134 12.2288 35.2969 12.1806C35.3804 12.1325 35.4785 12.107 35.5786 12.1074C35.6449 12.1074 35.7106 12.1188 35.7718 12.141C35.8331 12.1632 35.8887 12.1956 35.9354 12.2366C35.9822 12.2775 36.0192 12.3261 36.0444 12.3795C36.0695 12.4329 36.0823 12.4901 36.082 12.5479Z" fill="#F0F0F0"/>
<path d="M37.4553 19.021C37.4553 19.1082 37.4256 19.1935 37.3699 19.266C37.3142 19.3384 37.235 19.3949 37.1425 19.4282C37.0499 19.4614 36.9481 19.47 36.8499 19.4529C36.7517 19.4357 36.6615 19.3935 36.5909 19.3317C36.5203 19.2699 36.4723 19.1912 36.453 19.1056C36.4338 19.0201 36.4442 18.9314 36.4828 18.851C36.5215 18.7706 36.5867 18.7019 36.6702 18.6538C36.7537 18.6056 36.8517 18.5802 36.9519 18.5806C37.0182 18.5806 37.0839 18.592 37.1451 18.6141C37.2063 18.6363 37.2619 18.6688 37.3087 18.7097C37.3555 18.7506 37.3925 18.7992 37.4177 18.8526C37.4428 18.9061 37.4556 18.9633 37.4553 19.021Z" fill="#F0F0F0"/>
<path d="M20.7966 1.98782C20.7966 2.07493 20.7669 2.16009 20.7114 2.23252C20.6558 2.30496 20.5768 2.36141 20.4843 2.39475C20.3919 2.42808 20.2902 2.43681 20.1921 2.41981C20.094 2.40282 20.0038 2.36087 19.9331 2.29927C19.8623 2.23767 19.8142 2.15919 19.7946 2.07375C19.7751 1.98831 19.7851 1.89975 19.8234 1.81926C19.8617 1.73878 19.9265 1.66999 20.0097 1.62159C20.0929 1.5732 20.1907 1.54736 20.2908 1.54736C20.4249 1.54736 20.5536 1.59377 20.6484 1.67637C20.7433 1.75897 20.7966 1.871 20.7966 1.98782Z" fill="#F0F0F0"/>
<path d="M21.1557 8.63071C21.1557 8.7174 21.1262 8.80215 21.0709 8.87423C21.0156 8.94632 20.937 9.0025 20.845 9.03567C20.753 9.06885 20.6518 9.07753 20.5541 9.06062C20.4565 9.0437 20.3668 9.00196 20.2964 8.94066C20.226 8.87935 20.178 8.80125 20.1586 8.71622C20.1392 8.6312 20.1491 8.54306 20.1872 8.46297C20.2253 8.38288 20.2899 8.31442 20.3727 8.26625C20.4554 8.21809 20.5528 8.19238 20.6523 8.19238C20.7856 8.19294 20.9133 8.2393 21.0076 8.32138C21.1018 8.40347 21.1551 8.51463 21.1557 8.63071Z" fill="#FAFAFA"/>
<path d="M21.3171 22.885C21.5951 22.885 21.8205 22.6887 21.8205 22.4466C21.8205 22.2045 21.5951 22.0083 21.3171 22.0083C21.0391 22.0083 20.8137 22.2045 20.8137 22.4466C20.8137 22.6887 21.0391 22.885 21.3171 22.885Z" fill="#FAFAFA"/>
<path d="M32.1206 24.3319C32.1206 24.4186 32.0911 24.5033 32.0357 24.5754C31.9804 24.6475 31.9018 24.7037 31.8098 24.7368C31.7178 24.77 31.6166 24.7787 31.519 24.7618C31.4213 24.7449 31.3316 24.7031 31.2612 24.6418C31.1908 24.5805 31.1429 24.5024 31.1234 24.4174C31.104 24.3324 31.114 24.2442 31.1521 24.1641C31.1902 24.0841 31.2547 24.0156 31.3375 23.9674C31.4203 23.9193 31.5176 23.8936 31.6172 23.8936C31.7507 23.8936 31.8787 23.9397 31.9731 24.0219C32.0675 24.1041 32.1206 24.2156 32.1206 24.3319Z" fill="#FAFAFA"/>
<path d="M8.19673 23.8637C8.19577 23.9506 8.16528 24.0353 8.10912 24.1072C8.05295 24.1791 7.97361 24.2349 7.8811 24.2675C7.78859 24.3002 7.68704 24.3083 7.58924 24.2909C7.49144 24.2734 7.40176 24.2311 7.33151 24.1693C7.26125 24.1076 7.21355 24.0291 7.19443 23.9438C7.1753 23.8585 7.1856 23.7701 7.22403 23.6899C7.26245 23.6096 7.32729 23.5411 7.41037 23.4929C7.49344 23.4447 7.59104 23.4189 7.69088 23.4189C7.75772 23.4189 7.8239 23.4305 7.8856 23.4529C7.94729 23.4753 8.00327 23.5081 8.05031 23.5495C8.09735 23.5908 8.13451 23.6399 8.15964 23.6938C8.18477 23.7477 8.19738 23.8055 8.19673 23.8637Z" fill="#FAFAFA"/>
<path d="M16.5715 27.0365C16.572 27.1237 16.5427 27.209 16.4874 27.2818C16.4322 27.3545 16.3533 27.4112 16.2609 27.4449C16.1685 27.4786 16.0668 27.4876 15.9685 27.4709C15.8702 27.4541 15.7798 27.4123 15.7088 27.3508C15.6379 27.2893 15.5894 27.2108 15.5697 27.1253C15.55 27.0398 15.5599 26.9511 15.5981 26.8705C15.6363 26.7899 15.7011 26.721 15.7844 26.6725C15.8676 26.624 15.9655 26.5981 16.0657 26.5981C16.1994 26.5981 16.3277 26.6443 16.4225 26.7264C16.5173 26.8085 16.5709 26.92 16.5715 27.0365Z" fill="#FAFAFA"/>
<path d="M30.2048 28.4937C30.2048 28.5808 30.1751 28.666 30.1196 28.7384C30.064 28.8108 29.985 28.8673 29.8925 28.9006C29.8001 28.9339 29.6984 28.9427 29.6003 28.9257C29.5022 28.9087 29.412 28.8667 29.3413 28.8051C29.2705 28.7435 29.2224 28.665 29.2028 28.5796C29.1833 28.4942 29.1933 28.4056 29.2316 28.3251C29.2699 28.2446 29.3347 28.1759 29.4179 28.1275C29.5011 28.0791 29.5989 28.0532 29.699 28.0532C29.8331 28.0532 29.9618 28.0996 30.0567 28.1822C30.1515 28.2648 30.2048 28.3769 30.2048 28.4937Z" fill="#FAFAFA"/>
</svg>
