<svg width="77" height="64" viewBox="0 0 77 64" fill="none" xmlns="http://www.w3.org/2000/svg">
<path d="M12.0312 28C13.3602 28 14.4375 27.1046 14.4375 26C14.4375 24.8954 13.3602 24 12.0312 24C10.7023 24 9.625 24.8954 9.625 26C9.625 27.1046 10.7023 28 12.0312 28Z" fill="white"/>
<path d="M26.4688 40C27.7977 40 28.875 39.1046 28.875 38C28.875 36.8954 27.7977 36 26.4688 36C25.1398 36 24.0625 36.8954 24.0625 38C24.0625 39.1046 25.1398 40 26.4688 40Z" fill="white"/>
<path d="M36.0938 52C37.4227 52 38.5 51.1046 38.5 50C38.5 48.8954 37.4227 48 36.0938 48C34.7648 48 33.6875 48.8954 33.6875 50C33.6875 51.1046 34.7648 52 36.0938 52Z" fill="white"/>
<path d="M40.9062 32C42.2352 32 43.3125 31.1046 43.3125 30C43.3125 28.8954 42.2352 28 40.9062 28C39.5773 28 38.5 28.8954 38.5 30C38.5 31.1046 39.5773 32 40.9062 32Z" fill="white"/>
<path d="M31.2812 24C32.6102 24 33.6875 23.1046 33.6875 22C33.6875 20.8954 32.6102 20 31.2812 20C29.9523 20 28.875 20.8954 28.875 22C28.875 23.1046 29.9523 24 31.2812 24Z" fill="white"/>
<path d="M21.6562 56C22.9852 56 24.0625 55.1046 24.0625 54C24.0625 52.8954 22.9852 52 21.6562 52C20.3273 52 19.25 52.8954 19.25 54C19.25 55.1046 20.3273 56 21.6562 56Z" fill="white"/>
<path d="M7.21875 44C8.54769 44 9.625 43.1046 9.625 42C9.625 40.8954 8.54769 40 7.21875 40C5.88981 40 4.8125 40.8954 4.8125 42C4.8125 43.1046 5.88981 44 7.21875 44Z" fill="white"/>
<path d="M60.1562 60C57.6332 60.0065 55.172 59.3517 53.1224 58.1287C51.0729 56.9057 49.5393 55.1768 48.7399 53.1878C47.9404 51.1988 47.9158 49.0509 48.6693 47.0496C49.4229 45.0482 50.9164 43.2953 52.9375 42.04V30C52.9375 28.4087 53.698 26.8826 55.0518 25.7574C56.4056 24.6321 58.2417 24 60.1562 24C62.0708 24 63.9069 24.6321 65.2607 25.7574C66.6145 26.8826 67.375 28.4087 67.375 30V42.04C69.3961 43.2953 70.8896 45.0482 71.6432 47.0496C72.3967 49.0509 72.3721 51.1988 71.5726 53.1878C70.7732 55.1768 69.2396 56.9057 67.1901 58.1287C65.1405 59.3517 62.6793 60.0065 60.1562 60ZM60.1562 28C59.5181 28 58.906 28.2107 58.4548 28.5858C58.0035 28.9609 57.75 29.4696 57.75 30V44.26L56.5541 44.84C55.4568 45.3581 54.5442 46.1085 53.9089 47.0148C53.2737 47.9211 52.9385 48.9511 52.9375 50C52.9375 51.5913 53.698 53.1174 55.0518 54.2426C56.4056 55.3679 58.2417 56 60.1562 56C62.0708 56 63.9069 55.3679 65.2607 54.2426C66.6145 53.1174 67.375 51.5913 67.375 50C67.3744 48.9508 67.0394 47.9204 66.4042 47.0136C65.7689 46.1069 64.856 45.3563 63.7584 44.838L62.5625 44.26V30C62.5625 29.4696 62.309 28.9609 61.8577 28.5858C61.4065 28.2107 60.7944 28 60.1562 28ZM4.8125 12H72.1875V16H4.8125V12Z" fill="white"/>
</svg>
