<svg width="60" height="56" viewBox="0 0 60 56" fill="none" xmlns="http://www.w3.org/2000/svg">
<g clip-path="url(#clip0_396_7473)">
<path d="M48.75 22.75C50.7384 22.7477 52.6446 22.0094 54.0506 20.6972C55.4566 19.3849 56.2475 17.6058 56.25 15.75V10.5H50.625C48.7053 10.5028 46.8606 11.196 45.4744 12.4355C44.5037 10.7901 43.0778 9.41778 41.3454 8.46174C39.613 7.50571 37.6376 7.00092 35.625 7H30V12.25C30.0035 15.0338 31.1899 17.7026 33.2989 19.671C35.4079 21.6395 38.2674 22.7468 41.25 22.75H43.125V45.5H20.625V36.75H22.5C24.4884 36.7477 26.3946 36.0094 27.8006 34.6972C29.2065 33.3849 29.9975 31.6058 30 29.75V24.5H24.375C22.4553 24.5028 20.6106 25.196 19.2244 26.4355C18.2537 24.7901 16.8278 23.4178 15.0954 22.4617C13.363 21.5057 11.3876 21.0009 9.375 21H3.75V26.25C3.75347 29.0338 4.93985 31.7026 7.04889 33.671C9.15792 35.6395 12.0174 36.7468 15 36.75H16.875V45.5H3.75V49H99V45.5H46.875V22.75H48.75ZM46.875 17.5C46.875 16.5717 47.2701 15.6815 47.9734 15.0251C48.6766 14.3687 49.6304 14 50.625 14H52.5V15.75C52.5 16.6783 52.1049 17.5685 51.4017 18.2249C50.6984 18.8813 49.7446 19.25 48.75 19.25H46.875V17.5ZM20.625 31.5C20.625 30.5717 21.0201 29.6815 21.7234 29.0251C22.4266 28.3687 23.3804 28 24.375 28H26.25V29.75C26.25 30.6783 25.8549 31.5685 25.1517 32.2249C24.4484 32.8813 23.4946 33.25 22.5 33.25H20.625V31.5ZM16.875 33.25H15C13.0116 33.2477 11.1054 32.5094 9.69944 31.1972C8.29345 29.8849 7.50248 28.1058 7.5 26.25V24.5H9.375C11.3634 24.5023 13.2696 25.2406 14.6756 26.5528C16.0815 27.8651 16.8725 29.6442 16.875 31.5V33.25ZM43.125 19.25H41.25C39.2616 19.2477 37.3554 18.5094 35.9494 17.1972C34.5435 15.8849 33.7525 14.1058 33.75 12.25V10.5H35.625C37.6134 10.5023 39.5196 11.2406 40.9256 12.5528C42.3316 13.8651 43.1225 15.6442 43.125 17.5V19.25Z" fill="white"/>
</g>
<defs>
<clipPath id="clip0_396_7473">
<rect width="60" height="56" fill="white"/>
</clipPath>
</defs>
</svg>
