<svg width="16" height="14" viewBox="0 0 16 14" fill="none" xmlns="http://www.w3.org/2000/svg">
<path d="M13 9.625C12.644 9.62673 12.2951 9.71242 11.99 9.87306L10.0835 8.20444C10.3551 7.84772 10.5001 7.42865 10.5001 7C10.5001 6.57135 10.3551 6.15228 10.0835 5.79556L11.357 4.68125C11.6792 4.81703 12.0458 4.84865 12.3921 4.77052C12.7383 4.69239 13.0418 4.50955 13.2487 4.25438C13.4557 3.99921 13.5527 3.6882 13.5227 3.37642C13.4926 3.06465 13.3374 2.77224 13.0846 2.551C12.8317 2.32976 12.4975 2.19397 12.1412 2.16768C11.7849 2.14138 11.4295 2.22629 11.1379 2.40736C10.8462 2.58842 10.6373 2.85396 10.548 3.15693C10.4587 3.4599 10.4948 3.78074 10.65 4.06263L9.3765 5.17694C8.96882 4.93926 8.48989 4.81244 8 4.81244C7.51012 4.81244 7.03118 4.93926 6.6235 5.17694L4.7165 3.50831C4.9 3.24152 4.99794 2.93638 5 2.625C5 2.27888 4.8827 1.94054 4.66294 1.65275C4.44318 1.36497 4.13082 1.14066 3.76537 1.00821C3.39992 0.875758 2.99778 0.841102 2.60982 0.908627C2.22186 0.976151 1.86549 1.14282 1.58579 1.38756C1.30608 1.63231 1.1156 1.94413 1.03843 2.28359C0.96126 2.62306 1.00087 2.97493 1.15224 3.2947C1.30362 3.61447 1.55996 3.88778 1.88886 4.08007C2.21776 4.27237 2.60444 4.375 3 4.375C3.35603 4.37327 3.70495 4.28758 4.01 4.12694L5.9165 5.79556C5.64487 6.15228 5.49993 6.57135 5.49993 7C5.49993 7.42865 5.64487 7.84772 5.9165 8.20444L4.0095 9.87306C3.70459 9.7125 3.35586 9.62681 3 9.625C2.60444 9.625 2.21776 9.72764 1.88886 9.91993C1.55996 10.1122 1.30362 10.3855 1.15224 10.7053C1.00087 11.0251 0.96126 11.3769 1.03843 11.7164C1.1156 12.0559 1.30608 12.3677 1.58579 12.6124C1.86549 12.8572 2.22186 13.0239 2.60982 13.0914C2.99778 13.1589 3.39992 13.1242 3.76537 12.9918C4.13082 12.8593 4.44318 12.635 4.66294 12.3472C4.8827 12.0595 5 11.7211 5 11.375C4.99803 11.0635 4.90009 10.7582 4.7165 10.4913L6.6235 8.82306C6.88959 8.97784 7.18713 9.08656 7.5 9.14331V10.5805C7.16639 10.6837 6.88522 10.8868 6.70619 11.1538C6.52715 11.4209 6.46177 11.7347 6.5216 12.0399C6.58144 12.345 6.76264 12.6219 7.03317 12.8214C7.30371 13.021 7.64616 13.1304 8 13.1304C8.35384 13.1304 8.6963 13.021 8.96683 12.8214C9.23737 12.6219 9.41856 12.345 9.4784 12.0399C9.53823 11.7347 9.47286 11.4209 9.29382 11.1538C9.11478 10.8868 8.83361 10.6837 8.5 10.5805V9.14331C8.81287 9.08656 9.11041 8.97784 9.3765 8.82306L11.2835 10.4917C11.1 10.7585 11.0021 11.0636 11 11.375C11 11.7211 11.1173 12.0595 11.3371 12.3472C11.5568 12.635 11.8692 12.8593 12.2346 12.9918C12.6001 13.1242 13.0022 13.1589 13.3902 13.0914C13.7781 13.0239 14.1345 12.8572 14.4142 12.6124C14.6939 12.3677 14.8844 12.0559 14.9616 11.7164C15.0387 11.3769 14.9991 11.0251 14.8478 10.7053C14.6964 10.3855 14.44 10.1122 14.1111 9.91993C13.7822 9.72764 13.3956 9.625 13 9.625ZM8 5.6875C8.29667 5.6875 8.58668 5.76448 8.83336 5.9087C9.08003 6.05292 9.27229 6.2579 9.38582 6.49773C9.49935 6.73756 9.52906 7.00146 9.47118 7.25606C9.4133 7.51066 9.27044 7.74452 9.06066 7.92808C8.85088 8.11164 8.58361 8.23664 8.29264 8.28728C8.00167 8.33793 7.70006 8.31193 7.42598 8.21259C7.15189 8.11325 6.91762 7.94503 6.7528 7.72919C6.58797 7.51335 6.5 7.25959 6.5 7C6.5004 6.65201 6.65856 6.31837 6.93978 6.07231C7.221 5.82624 7.6023 5.68785 8 5.6875ZM2 2.625C2 2.45194 2.05865 2.28277 2.16853 2.13888C2.27841 1.99498 2.43459 1.88283 2.61732 1.81661C2.80004 1.75038 3.00111 1.73305 3.19509 1.76681C3.38907 1.80058 3.56726 1.88391 3.70711 2.00628C3.84696 2.12865 3.9422 2.28456 3.98079 2.4543C4.01937 2.62403 3.99957 2.79996 3.92388 2.95985C3.84819 3.11973 3.72002 3.25639 3.55557 3.35254C3.39112 3.44868 3.19778 3.5 3 3.5C2.73478 3.5 2.48043 3.40781 2.29289 3.24372C2.10536 3.07963 2 2.85707 2 2.625ZM3 12.25C2.80222 12.25 2.60888 12.1987 2.44443 12.1025C2.27998 12.0064 2.15181 11.8697 2.07612 11.7098C2.00043 11.55 1.98063 11.374 2.01922 11.2043C2.0578 11.0346 2.15304 10.8787 2.29289 10.7563C2.43275 10.6339 2.61093 10.5506 2.80491 10.5168C2.99889 10.4831 3.19996 10.5004 3.38268 10.5666C3.56541 10.6328 3.72159 10.745 3.83147 10.8889C3.94135 11.0328 4 11.2019 4 11.375C4 11.6071 3.89464 11.8296 3.70711 11.9937C3.51957 12.1578 3.26522 12.25 3 12.25ZM13 12.25C12.8022 12.25 12.6089 12.1987 12.4444 12.1025C12.28 12.0064 12.1518 11.8697 12.0761 11.7098C12.0004 11.55 11.9806 11.374 12.0192 11.2043C12.0578 11.0346 12.153 10.8787 12.2929 10.7563C12.4327 10.6339 12.6109 10.5506 12.8049 10.5168C12.9989 10.4831 13.2 10.5004 13.3827 10.5666C13.5654 10.6328 13.7216 10.745 13.8315 10.8889C13.9414 11.0328 14 11.2019 14 11.375C13.9996 11.607 13.8941 11.8293 13.7067 11.9933C13.5192 12.1574 13.2651 12.2497 13 12.25Z" fill="white"/>
</svg>
