<svg width="55" height="55" viewBox="0 0 55 55" fill="none" xmlns="http://www.w3.org/2000/svg">
<path d="M23.7187 22.5017C24.3232 23.3565 24.7009 24.3508 24.8164 25.3915C24.9148 26.4495 24.9461 27.5126 24.9103 28.5746V28.9733C24.9103 30.3483 24.9103 31.5515 24.9241 31.98C25.2037 31.996 25.9278 31.996 27.3189 31.996H29.7458L29.7733 26.8742H26.9408L26.7437 26.6679C26.6887 26.6186 26.6441 26.5588 26.6124 26.4921C26.5807 26.4253 26.5627 26.3529 26.5593 26.2791C26.5559 26.2053 26.5672 26.1316 26.5925 26.0622C26.6179 25.9928 26.6568 25.9292 26.707 25.875L26.888 25.6619L29.8351 25.6481L29.8764 25.3662C29.9847 24.2885 30.3805 23.2597 31.0222 22.3871C31.4831 21.8464 31.8216 21.2124 32.0145 20.5285C32.0718 20.1756 32.0626 20.116 31.6799 19.7356C30.8986 18.9774 29.9066 18.4726 28.8337 18.2873C27.8214 18.164 26.798 18.164 25.7858 18.2873C25.0114 18.4335 24.2738 18.7318 23.6155 19.165C23.2413 19.4195 22.9115 19.7338 22.6393 20.0954C22.6082 20.4032 22.6555 20.7138 22.7768 20.9983C23.0307 21.5347 23.3468 22.0392 23.7187 22.5017ZM29.9955 20.4392C30.2683 20.7531 30.0322 21.2596 29.6541 21.1725C29.5764 21.1309 29.5109 21.0696 29.4643 20.9948C29.4177 20.9201 29.3914 20.8343 29.3883 20.7463C29.3883 20.3956 29.7916 20.2077 29.9955 20.4506V20.4392ZM27.0874 20.4598C27.3533 20.1458 27.8162 20.4598 27.6947 20.8883C27.6709 20.9781 27.6131 21.0551 27.5336 21.103C27.454 21.1509 27.3589 21.166 27.2685 21.145H27.2135C27.1562 21.1133 27.1066 21.0693 27.0683 21.0162C27.03 20.9631 27.0038 20.9022 26.9918 20.8378C26.9798 20.7734 26.9821 20.7072 26.9986 20.6438C27.0151 20.5805 27.0455 20.5215 27.0874 20.4712V20.4598ZM24.6766 20.4598C24.7042 20.4206 24.7404 20.3882 24.7824 20.365C24.8244 20.3418 24.8712 20.3285 24.9191 20.3261C24.967 20.3237 25.0148 20.3322 25.059 20.351C25.1031 20.3698 25.1424 20.3984 25.1739 20.4346C25.227 20.4927 25.2635 20.5641 25.2792 20.6413C25.295 20.7185 25.2895 20.7985 25.2634 20.8728C25.2373 20.9471 25.1916 21.013 25.131 21.0633C25.0704 21.1137 24.9973 21.1467 24.9195 21.1587C24.8691 21.1655 24.8178 21.1569 24.7724 21.134C24.727 21.1111 24.6896 21.075 24.6651 21.0304C24.6011 20.9507 24.5671 20.851 24.5692 20.7488C24.5713 20.6465 24.6093 20.5483 24.6766 20.4712V20.4598ZM30.2178 34.8904H32.6516V32.75C32.2345 32.7271 30.8435 32.7271 27.3235 32.7271C23.8035 32.7271 22.417 32.7271 22.0022 32.7523C21.9862 33.0112 21.9862 33.669 21.9862 34.8927V36.8658H32.6676V36.325H27.3005L27.0714 36.0546C26.9992 35.9826 26.946 35.8938 26.9164 35.7963C26.8868 35.6987 26.8818 35.5954 26.9018 35.4954C26.9284 35.3474 26.995 35.2096 27.0943 35.0967C27.3051 34.8904 27.3051 34.8904 30.2178 34.8904ZM25.7101 36.0615L25.5108 36.2906H23.6155L23.4024 36.0408C23.2974 35.9247 23.2352 35.7763 23.2261 35.62C23.2169 35.4637 23.2613 35.309 23.352 35.1815L23.5399 34.9087H25.5405L25.7353 35.1379C25.8517 35.2651 25.9142 35.4325 25.9095 35.6048C25.9048 35.7771 25.8333 35.9408 25.7101 36.0615ZM50.3937 37.8123L50.3707 37.7573C50.3598 37.7161 50.3376 37.6788 50.3066 37.6496L50.286 37.6175H50.2057C50.176 37.6175 50.153 37.5831 50.121 37.5831H46.546V34.4962L46.7591 34.2671C47.5503 33.3689 48.4655 32.588 49.477 31.9479C49.9812 31.634 50.0912 31.5194 50.0476 31.3269C49.6986 30.7858 49.2394 30.3243 48.7001 29.9725C48.3858 29.7564 48.0137 29.6398 47.6322 29.6379C47.3353 29.6981 47.0616 29.8411 46.8426 30.0503C46.6236 30.2596 46.4683 30.5266 46.3947 30.8204C46.3491 30.9319 46.3123 31.0469 46.2847 31.1642C46.2847 31.1985 46.2664 31.249 46.248 31.249C46.2297 31.249 46.2114 31.2054 46.2114 31.1779C46.103 30.7888 45.9311 30.4202 45.7026 30.0871C45.4962 29.8377 45.2108 29.6663 44.8937 29.6012C44.4552 29.652 44.0326 29.7954 43.6538 30.0217C43.2749 30.2481 42.9484 30.5524 42.696 30.9144C42.4851 31.1573 42.4301 31.2421 42.4301 31.3429C42.4301 31.5354 42.5218 31.6271 42.9755 31.8906C43.9545 32.499 44.8419 33.2436 45.611 34.1021L45.9455 34.4665V36.0202L45.9318 37.5694H37.5374V34.526L37.8399 34.1915C38.6061 33.354 39.48 32.6219 40.4387 32.0144C40.991 31.6798 41.0207 31.6592 41.0207 31.4437C41.0207 31.3017 40.991 31.2512 40.7664 31.0015C40.5277 30.6562 40.2222 30.3623 39.8679 30.1371C39.5136 29.912 39.1178 29.7601 38.7039 29.6906C38.5107 29.6683 38.3162 29.7189 38.1585 29.8327C37.7689 30.0458 37.526 30.4033 37.2418 31.1871L37.2074 31.2948L37.1753 31.1871C37.1287 31.037 37.0744 30.8893 37.0126 30.7448C36.9375 30.4908 36.7969 30.2611 36.6051 30.0785C36.4133 29.8959 36.1768 29.7669 35.9195 29.7044C35.3305 29.5829 34.5101 30.039 33.6737 30.9671C33.2658 31.4254 33.291 31.5881 33.818 31.8837C34.8439 32.5118 35.7746 33.2836 36.5818 34.1754L36.8957 34.5329V37.5648H33.2566V37.551H21.3124L19.5272 37.5648H17.6939V34.4481L18.0216 34.0975C18.804 33.2281 19.7078 32.4764 20.7051 31.8654C21.1635 31.6019 21.2208 31.5308 21.2208 31.3154C21.2208 31.0587 20.3224 30.1696 19.7151 29.8396C19.449 29.636 19.1133 29.5459 18.7811 29.5888C18.4488 29.6317 18.147 29.8043 17.9414 30.0687C17.72 30.3876 17.5506 30.7395 17.4395 31.1115C17.4395 31.2535 17.3776 31.155 17.2928 30.8983C17.2265 30.6399 17.1089 30.3974 16.9471 30.1852C16.7854 29.9731 16.5826 29.7955 16.351 29.6631C16.0336 29.5646 15.6923 29.5751 15.3816 29.6929C14.8112 29.9679 14.3041 30.358 13.892 30.8387C13.4497 31.2971 13.4749 31.4667 14.0387 31.8081C15.0994 32.4667 16.0602 33.2739 16.8918 34.2052L17.1049 34.4344V37.5442H12.8951L8.68076 37.5304V36.0523C8.65999 35.522 8.66994 34.991 8.71055 34.4619C9.557 33.4146 10.5781 32.5214 11.7287 31.8219C12.1595 31.5652 12.187 31.524 12.187 31.3085C12.187 31.1596 12.1549 31.116 11.9739 30.9029C10.8647 29.6792 9.95416 29.2972 9.24222 29.7571C8.92181 30.0076 8.68262 30.3472 8.55472 30.7333L8.38513 31.1619L8.27513 30.841C8.15968 30.4997 7.97826 30.1843 7.74118 29.9129C7.03764 29.2254 6.00409 29.5715 4.80326 30.9121C4.61534 31.1183 4.59014 31.1619 4.59014 31.3177C4.59014 31.5469 4.6268 31.5675 5.07597 31.854C6.12043 32.5108 7.06835 33.3098 7.89243 34.2281L8.07576 34.4206V37.5602H4.87889C4.83976 37.5605 4.80108 37.5685 4.76505 37.5838C4.72902 37.599 4.69635 37.6212 4.6689 37.6491C4.64144 37.677 4.61975 37.71 4.60506 37.7462C4.59037 37.7825 4.58296 37.8213 4.58326 37.8604V38.0277C4.58386 38.1059 4.6152 38.1808 4.67051 38.2361C4.72582 38.2914 4.80067 38.3227 4.87889 38.3233H50.121C50.1992 38.3227 50.274 38.2914 50.3293 38.2361C50.3846 38.1808 50.416 38.1059 50.4166 38.0277V37.8604C50.4166 37.8375 50.3982 37.8237 50.3937 37.8123ZM44.2291 25.3387C44.5499 25.7375 44.6416 25.8085 44.7332 25.8085C44.7984 25.8144 44.8634 25.7968 44.9167 25.759C44.9701 25.7212 45.0082 25.6656 45.0243 25.6023C45.0538 25.524 45.0538 25.4376 45.0243 25.3594C44.8025 24.9958 44.5257 24.6688 44.2039 24.39C44.0228 24.3465 43.8395 24.5252 43.8395 24.7452C43.8395 24.846 43.9082 24.9606 44.2291 25.3456V25.3387ZM46.1037 28.4623C46.1594 28.491 46.2227 28.5014 46.2847 28.4921C46.3535 28.463 46.4136 28.4168 46.4594 28.3578C46.5051 28.2988 46.5349 28.229 46.546 28.1552C46.4793 27.8738 46.3687 27.6047 46.2182 27.3577C46.0487 27.1927 45.7255 27.3715 45.7255 27.6212C45.7888 27.9245 45.9196 28.2096 46.1082 28.4554L46.1037 28.4623ZM36.7605 24.6169C36.7605 24.4679 36.6735 24.3602 36.3228 24.0531C35.8966 23.675 35.7751 23.62 35.6353 23.6979C35.5664 23.743 35.5135 23.8087 35.4843 23.8857C35.455 23.9627 35.451 24.047 35.4726 24.1265C35.7356 24.4297 36.0324 24.7019 36.3572 24.9377C36.4993 25.0248 36.7605 24.8185 36.7605 24.6169ZM41.8297 23.219C41.985 23.3354 42.1544 23.4317 42.3339 23.5054C42.4033 23.4916 42.4667 23.4566 42.5156 23.4053C42.5644 23.3541 42.5961 23.289 42.6066 23.219C42.6432 22.9898 42.5585 22.8844 42.0955 22.5704C41.9278 22.4484 41.7444 22.3497 41.5501 22.2771C41.321 22.2771 41.1789 22.6346 41.3324 22.834C41.4861 22.9772 41.6525 23.1061 41.8297 23.219ZM38.1493 27.4287C38.1846 27.51 38.2292 27.5869 38.2822 27.6579C38.3089 27.6845 38.3407 27.7053 38.3757 27.719C38.4107 27.7328 38.4481 27.7392 38.4857 27.7379C38.5233 27.7366 38.5602 27.7276 38.5942 27.7115C38.6282 27.6954 38.6585 27.6725 38.6832 27.6442C38.7336 27.5529 38.7581 27.4495 38.754 27.3454C38.75 27.2412 38.7176 27.1401 38.6603 27.0529C38.5248 26.75 38.3532 26.4645 38.1493 26.2027C38.093 26.1758 38.0291 26.1688 37.9683 26.183C37.9075 26.1972 37.8533 26.2316 37.8147 26.2806C37.6772 26.4387 37.6932 26.5946 37.9064 26.9681C37.9919 27.1163 38.0729 27.2699 38.1493 27.4287ZM39.0247 21.679V21.6927C39.2078 21.7823 39.402 21.847 39.6022 21.8852C39.6687 21.8504 39.7256 21.7998 39.7679 21.7379C39.8103 21.676 39.8368 21.6046 39.8451 21.53C39.8392 21.4532 39.814 21.3791 39.7718 21.3146C39.4394 21.0972 39.0774 20.9289 38.697 20.815C38.6346 20.827 38.5772 20.8574 38.532 20.9021C38.4966 20.934 38.4694 20.974 38.4526 21.0187C38.4359 21.0634 38.4301 21.1114 38.4357 21.1587C38.4386 21.2373 38.4548 21.3148 38.4839 21.3879C38.6503 21.5088 38.8322 21.6067 39.0247 21.679ZM36.0501 20.6523L36.1097 20.5881C36.5955 20.7165 36.662 20.7233 36.7766 20.6156C36.8438 20.5471 36.8814 20.4549 36.8814 20.359C36.8814 20.263 36.8438 20.1708 36.7766 20.1023C36.4595 19.9427 36.1165 19.841 35.7637 19.8021C35.601 19.7815 35.5643 19.7883 35.4795 19.896C35.4296 19.9483 35.3974 20.0149 35.3875 20.0865C35.3777 20.1581 35.3906 20.231 35.4245 20.2948C35.4726 20.4369 35.5574 20.5079 36.0501 20.6523ZM8.75409 28.0773C8.96034 27.5915 8.89388 27.2935 8.58909 27.2935C8.42638 27.2935 8.41951 27.3073 8.23847 27.6923C8.05743 28.0773 8.05513 28.3477 8.26826 28.4554C8.48138 28.5631 8.58451 28.4829 8.75409 28.0773ZM18.5349 23.8537C18.3202 24.0213 18.1208 24.2077 17.9391 24.4106C17.8931 24.4975 17.8789 24.5978 17.899 24.694C17.9191 24.7903 17.9722 24.8765 18.0491 24.9377C18.1889 25.0019 18.2783 24.9675 18.6976 24.61C19.2018 24.1815 19.2751 24.0394 19.1101 23.7827C18.9887 23.604 18.8076 23.6337 18.5349 23.8537ZM9.87701 25.8154C9.99159 25.8154 10.0466 25.765 10.3995 25.3571C10.7524 24.9492 10.7868 24.8987 10.7868 24.7521C10.7868 24.5435 10.6722 24.4015 10.5026 24.4015C10.3926 24.4015 10.3262 24.4519 10.1268 24.6719C9.58597 25.2723 9.50118 25.4579 9.66847 25.6985C9.68678 25.7373 9.71671 25.7693 9.75408 25.7903C9.79145 25.8112 9.83441 25.82 9.87701 25.8154ZM15.943 27.6281C15.9686 27.6605 16.0014 27.6865 16.0388 27.7039C16.0763 27.7213 16.1173 27.7296 16.1585 27.7283C16.1997 27.727 16.2401 27.716 16.2763 27.6962C16.3125 27.6764 16.3436 27.6484 16.367 27.6144C16.5924 27.2654 16.782 26.8945 16.933 26.5075C16.9202 26.4322 16.8887 26.3613 16.8414 26.3012C16.6283 26.0079 16.4174 26.166 16.053 26.8787C15.8124 27.3142 15.8124 27.4631 15.943 27.6281ZM17.8612 20.6592C17.908 20.7136 17.9718 20.7507 18.0422 20.7646C18.4224 20.7071 18.7926 20.5968 19.1422 20.4369C19.1931 20.3665 19.2205 20.2819 19.2205 20.1951C19.2205 20.1083 19.1931 20.0237 19.1422 19.9533C19.0322 19.8158 18.8993 19.8158 18.3516 19.9808C18.0239 20.0656 17.8933 20.1229 17.8428 20.194C17.7977 20.2629 17.7755 20.3445 17.7797 20.4269C17.7838 20.5092 17.8139 20.5882 17.8658 20.6523L17.8612 20.6592ZM12.093 23.3977C12.14 23.4524 12.2051 23.4882 12.2764 23.4985C12.6056 23.3493 12.9138 23.1575 13.193 22.9279C13.2411 22.8983 13.2797 22.8557 13.3045 22.805C13.3292 22.7542 13.3391 22.6975 13.3328 22.6415C13.3328 22.4994 13.3145 22.449 13.2228 22.3779C13.1681 22.3288 13.1005 22.2963 13.028 22.284C12.6808 22.4477 12.3614 22.665 12.0816 22.9279C12.0282 22.9946 11.9991 23.0774 11.9991 23.1628C11.9991 23.2482 12.0282 23.331 12.0816 23.3977H12.093ZM21.0351 19.9946C21.0812 20.0172 21.1308 20.0319 21.1818 20.0381C21.3479 20.002 21.5164 19.9783 21.686 19.9671C21.8663 19.9551 22.044 19.9165 22.213 19.8525C22.2522 19.814 22.2826 19.7676 22.3022 19.7163C22.3218 19.665 22.3301 19.6101 22.3266 19.5554C22.3232 19.5006 22.308 19.4472 22.282 19.3988C22.2561 19.3505 22.2201 19.3082 22.1764 19.275C22.0916 19.2177 22.0137 19.2177 21.5874 19.275C21.0535 19.3392 20.932 19.3896 20.8724 19.5958C20.8523 19.6743 20.8572 19.7571 20.8864 19.8327C20.9155 19.9082 20.9675 19.9729 21.0351 20.0175V19.9946ZM32.4064 19.8594C32.5866 19.9064 32.7695 19.9423 32.9541 19.9671V19.9808C33.1308 20.0104 33.3091 20.0295 33.488 20.0381C33.513 20.0291 33.5394 20.0244 33.566 20.0244C33.6462 20.0244 33.7493 19.8456 33.7493 19.7035C33.7493 19.4377 33.6691 19.3667 33.2337 19.2956C32.7982 19.2246 32.5095 19.2177 32.4247 19.2956C32.3631 19.3461 32.3184 19.4142 32.2967 19.4908C32.275 19.5674 32.2773 19.6489 32.3032 19.7242C32.3124 19.7883 32.3697 19.8594 32.4064 19.8594ZM32.7226 22.5567C32.8679 22.6815 33.0318 22.7828 33.2085 22.8569C33.6805 23.086 33.8524 23.1067 33.9739 22.9783C34.0209 22.9116 34.0471 22.8325 34.0491 22.7509C34.0512 22.6693 34.029 22.589 33.9853 22.52C33.6886 22.312 33.3657 22.144 33.0251 22.0204C32.9592 22.0108 32.8919 22.0213 32.8321 22.0507C32.7723 22.08 32.7227 22.1268 32.69 22.1848C32.6573 22.2428 32.6429 22.3094 32.6487 22.3758C32.6545 22.4422 32.6803 22.5052 32.7226 22.5567ZM20.7624 23.07V23.0127C20.8541 23.0494 20.9641 23.0127 21.4728 22.7835C21.867 22.614 21.977 22.4994 21.977 22.3252C21.977 22.151 21.9358 22.0548 21.8143 22.0112C21.6928 21.9677 21.498 22.0112 20.9939 22.2977C20.6547 22.4742 20.5699 22.5681 20.5699 22.756C20.5755 22.8197 20.5958 22.8812 20.6292 22.9357C20.6626 22.9902 20.7082 23.0362 20.7624 23.07ZM15.0928 21.8921L15.5833 21.679C16.1951 21.4223 16.2937 21.3077 16.1722 21.0075C16.1488 20.9551 16.1126 20.9094 16.067 20.8746C16.0213 20.8397 15.9677 20.8169 15.911 20.8081C15.5535 20.9279 15.2082 21.0814 14.8797 21.2665C14.8458 21.3092 14.8213 21.3586 14.8077 21.4115C14.7942 21.4643 14.7919 21.5194 14.8009 21.5732C14.81 21.627 14.8303 21.6783 14.8604 21.7237C14.8906 21.7692 14.9299 21.8078 14.976 21.8371L15.0928 21.8921Z" fill="white"/>
</svg>
