<svg width="150" height="138" viewBox="0 0 150 138" fill="none" xmlns="http://www.w3.org/2000/svg">
<path d="M98.2373 95.4386L98.3873 110.486L137.094 84.4216L136.994 73.3759L98.2373 95.4386ZM28.2623 65.4351C28.8389 65.5072 29.3678 65.7687 29.7514 66.1713C30.1351 66.5739 30.3476 67.0905 30.3498 67.6259V67.7639L95.7436 79.4766L95.7123 69.1266L14.5748 55.1426L14.1748 64.8716L25.8936 66.9704V66.9186C25.9217 66.6689 26.0088 66.4279 26.1487 66.2124C26.2885 65.9968 26.4779 65.812 26.7034 65.6707C26.929 65.5295 27.1853 65.4352 27.4546 65.3945C27.7238 65.3538 27.9995 65.3677 28.2623 65.4351ZM75.2123 70.7884C75.2361 70.5324 75.319 70.284 75.4554 70.0599C75.5919 69.8358 75.7787 69.641 76.0035 69.4886C76.2283 69.3362 76.4859 69.2297 76.759 69.1762C77.0321 69.1227 77.3145 69.1234 77.5873 69.1784C78.1766 69.269 78.7111 69.5508 79.094 69.9727C79.477 70.3946 79.683 70.9288 79.6748 71.4784C79.6522 71.7346 79.57 71.9833 79.4337 72.2077C79.2975 72.4322 79.1105 72.627 78.8853 72.7792C78.6601 72.9313 78.4019 73.0371 78.1284 73.0895C77.8549 73.1418 77.5723 73.1395 77.2998 73.0826C76.7116 72.9921 76.1779 72.7112 75.7951 72.2905C75.4123 71.8697 75.2056 71.337 75.2123 70.7884ZM43.9998 65.9929C44.0312 65.7425 44.1199 65.5011 44.2602 65.2845C44.4005 65.068 44.589 64.8813 44.8135 64.7368C45.0379 64.5922 45.2931 64.4931 45.5623 64.446C45.8314 64.3989 46.1083 64.4048 46.3748 64.4634C46.9535 64.5406 47.4828 64.8067 47.866 65.2131C48.2492 65.6195 48.4609 66.1391 48.4623 66.6771C48.4345 66.9286 48.3484 67.1716 48.2097 67.3897C48.071 67.6079 47.883 67.7961 47.6584 67.9417C47.4339 68.0872 47.1779 68.1867 46.908 68.2334C46.638 68.2801 46.3603 68.2729 46.0936 68.2124C45.5126 68.1362 44.981 67.8698 44.5964 67.4621C44.2118 67.0544 44 66.5327 43.9998 65.9929ZM62.3811 91.5976C62.5191 93.5354 63.3831 95.3692 64.8258 96.7867C66.2686 98.2042 68.2009 99.1177 70.2936 99.3716C71.1521 99.5208 72.0345 99.51 72.8885 99.3398C73.7424 99.1696 74.5505 98.8435 75.265 98.3807C75.9795 97.918 76.5858 97.3281 77.0481 96.646C77.5103 95.9638 77.8191 95.2033 77.9561 94.4094C77.9772 93.7223 77.8866 93.0363 77.6873 92.3739L63.0248 89.6024C62.6801 90.2259 62.4619 90.902 62.3811 91.5976ZM82.2998 93.2479C82.3959 93.8975 82.4315 94.5534 82.4061 95.2086C82.2549 96.574 81.7768 97.8917 81.0063 99.0669C80.2357 100.242 79.1917 101.246 77.9493 102.005C76.7069 102.765 75.297 103.262 73.821 103.461C72.3449 103.66 70.8393 103.555 69.4123 103.155C66.2402 102.633 63.3626 101.116 61.2693 98.8623C59.176 96.6083 57.9963 93.7567 57.9311 90.7926C58.0028 90.0901 58.1622 89.3974 58.4061 88.7284L24.5186 82.3171C24.2823 82.6057 23.959 82.8239 23.5889 82.9446C23.2188 83.0652 22.8183 83.083 22.4373 82.9956C22.0074 82.9234 21.6038 82.7536 21.2633 82.5016C20.9228 82.2495 20.6561 81.9233 20.4873 81.5524L14.1748 80.3621V93.8631L96.0873 110.601L95.9373 95.8239L82.2998 93.2479ZM37.2998 95.0879C37.2713 95.3353 37.1835 95.5739 37.0428 95.7865C36.9021 95.999 36.712 96.1802 36.4861 96.3171C36.2603 96.454 36.0042 96.5432 35.7364 96.5782C35.4686 96.6132 35.1957 96.5932 34.9373 96.5196C34.3535 96.4183 33.8261 96.1335 33.4453 95.714C33.0645 95.2944 32.854 94.7662 32.8498 94.2196C32.8794 93.9726 32.9678 93.7346 33.1088 93.5226C33.2498 93.3106 33.4398 93.1298 33.6654 92.9931C33.891 92.8564 34.1466 92.7671 34.414 92.7316C34.6813 92.6962 34.9539 92.7154 35.2123 92.7879C35.8023 92.8803 36.3375 93.1621 36.7231 93.5831C37.1087 94.0042 37.3197 94.5373 37.3186 95.0879H37.2998ZM50.9373 93.8401C50.9081 94.0887 50.8206 94.3284 50.6807 94.5427C50.5409 94.7571 50.3521 94.9409 50.1274 95.0814C49.9027 95.222 49.6474 95.3159 49.3794 95.3568C49.1113 95.3976 48.8368 95.3843 48.5748 95.3179C47.9921 95.2154 47.4662 94.9301 47.0866 94.5107C46.7071 94.0912 46.4975 93.5636 46.4936 93.0179C46.5236 92.7698 46.6117 92.5307 46.7519 92.3171C46.8921 92.1034 47.081 91.9203 47.3056 91.7804C47.5302 91.6404 47.7852 91.547 48.0529 91.5065C48.3205 91.466 48.5946 91.4794 48.8561 91.5459C49.4431 91.6376 49.9753 91.9191 50.3568 92.3397C50.7384 92.7603 50.9442 93.2923 50.9373 93.8401ZM20.3498 80.7819C20.3847 80.5369 20.4764 80.3016 20.6187 80.0921C20.761 79.8825 20.9506 79.7035 21.1746 79.5672C21.3986 79.4309 21.6518 79.3405 21.9171 79.302C22.1824 79.2636 22.4536 79.278 22.7123 79.3444C23.2868 79.4327 23.8098 79.7027 24.1909 80.108C24.572 80.5132 24.7874 81.0281 24.7998 81.5639L24.7561 81.8226L58.6061 88.2224C59.0061 87.3107 59.5726 86.4686 60.2811 85.7326L69.1061 76.7511C69.6143 76.294 70.2952 76.0356 71.006 76.0302C71.7168 76.0249 72.4022 76.2729 72.9186 76.7224C73.1936 76.937 73.4262 77.1938 73.6061 77.4814L80.7436 89.0849C81.4324 90.2059 81.9219 91.4211 82.1936 92.6844L95.9436 95.2834L95.8248 82.8979L95.7498 80.0229L30.1436 68.2699C29.9256 68.6005 29.6 68.8595 29.2129 69.0102C28.8258 69.1609 28.397 69.1956 27.9873 69.1094C27.5253 69.0397 27.093 68.855 26.7371 68.5752C26.3812 68.2954 26.1154 67.9313 25.9686 67.5224L14.1748 65.4121V79.8216L20.3498 80.9716V80.7819ZM52.3561 74.9284C52.3828 74.6765 52.4683 74.433 52.6067 74.2143C52.7451 73.9957 52.9332 73.8071 53.158 73.6613C53.3829 73.5156 53.6392 73.4162 53.9096 73.3699C54.18 73.3236 54.458 73.3316 54.7248 73.3931C55.3066 73.4827 55.8353 73.7586 56.2173 74.1721C56.5993 74.5857 56.8101 75.1102 56.8123 75.6529C56.7855 75.9047 56.7 76.1482 56.5616 76.3669C56.4232 76.5856 56.2352 76.7742 56.0104 76.9199C55.7855 77.0656 55.5292 77.165 55.2588 77.2113C54.9884 77.2576 54.7103 77.2497 54.4436 77.1881C53.8617 77.0986 53.3331 76.8226 52.9511 76.4091C52.5691 75.9956 52.3583 75.4711 52.3561 74.9284ZM38.4311 80.2011C38.4594 79.9521 38.5463 79.7117 38.6858 79.4967C38.8253 79.2816 39.014 79.0971 39.2388 78.956C39.4637 78.8148 39.7192 78.7204 39.9877 78.6792C40.2561 78.638 40.5311 78.6511 40.7936 78.7176C41.3733 78.8068 41.9003 79.0811 42.282 79.4922C42.6638 79.9034 42.8759 80.4251 42.8811 80.9659C42.8527 81.2149 42.7658 81.4553 42.6263 81.6703C42.4868 81.8853 42.2981 82.0698 42.0733 82.211C41.8485 82.3522 41.5929 82.4466 41.3245 82.4878C41.056 82.5289 40.781 82.5158 40.5186 82.4494C39.9388 82.3602 39.4118 82.0859 39.0301 81.6747C38.6483 81.2636 38.4362 80.7418 38.4311 80.2011ZM71.0561 81.1441L63.8936 88.4409C63.6861 88.6519 63.496 88.8767 63.3248 89.1136L77.4811 91.7931C77.3166 91.3506 77.1073 90.9232 76.8561 90.5166L71.0561 81.1441ZM54.8936 44.1486L52.5873 43.7749L52.3686 43.7404L50.4373 44.6604L28.6436 55.0449L97.2998 66.9704L122.337 55.0736L54.8936 44.1486ZM99.2686 64.4289L99.2186 64.4864C99.132 64.5815 99.0112 64.6449 98.8781 64.6649C98.745 64.685 98.6086 64.6604 98.4936 64.5956C97.9516 64.2664 97.3367 64.0523 96.6936 63.9689C95.9067 63.9524 95.1198 64.0044 94.3436 64.1241L93.1748 64.2564C92.4951 64.4085 91.7857 64.4085 91.1061 64.2564C90.7498 64.1583 90.4256 63.9805 90.1623 63.7389C89.8877 63.5129 89.5833 63.3197 89.2561 63.1639C88.4284 62.6764 87.4699 62.4096 86.4873 62.3934C85.9647 62.4511 85.4483 62.5492 84.9436 62.6866C84.3811 62.8074 83.9811 62.9166 83.6561 63.0029C83.1505 63.2071 82.5857 63.2515 82.0498 63.1294C81.8171 63.0537 81.6029 62.9366 81.4195 62.7846C81.2361 62.6327 81.0871 62.4489 80.9811 62.2439C80.839 62.016 80.6692 61.8038 80.4748 61.6114C79.5549 60.8083 78.3589 60.3262 77.0936 60.2486C76.5418 60.1799 75.9803 60.2251 75.4498 60.3809C74.7367 60.5858 73.9895 60.6715 73.2436 60.6339C71.8355 60.5681 70.4514 60.2721 69.1561 59.7599C68.3339 59.4909 67.551 59.1297 66.8248 58.6846C66.4343 58.4406 66.0149 58.238 65.5748 58.0809C64.3711 57.693 63.0598 57.693 61.8561 58.0809C60.3586 58.4901 58.7711 58.5337 57.2498 58.2074C56.4586 58.0429 55.7054 57.7509 55.0248 57.3449C54.4396 56.9847 53.7685 56.7599 53.0686 56.6894C52.1915 56.5692 51.2967 56.6221 50.4436 56.8446C49.4688 57.1059 48.4366 57.1277 47.4498 56.9079C46.7113 56.7496 46.0103 56.469 45.3811 56.0799C44.7084 55.6376 43.938 55.3373 43.1248 55.2001C42.6915 55.1257 42.2528 55.0815 41.8123 55.0679C41.2195 55.0648 40.631 54.9755 40.0686 54.8034C39.5311 54.6524 39.0084 54.4601 38.5061 54.2284C38.0489 53.9713 37.5328 53.8162 36.9989 53.7752C36.465 53.7343 35.9281 53.8087 35.4311 53.9926C35.2869 54.0375 35.13 54.0325 34.9896 53.9785C34.8492 53.9245 34.7351 53.8253 34.6686 53.6994C34.6361 53.6372 34.6181 53.5694 34.6158 53.5005C34.6135 53.4315 34.6269 53.3629 34.6552 53.299C34.6835 53.2351 34.7259 53.1773 34.7799 53.1294C34.8339 53.0815 34.8981 53.0445 34.9686 53.0209C35.6585 52.7748 36.3992 52.6727 37.1373 52.7219C37.7977 52.7968 38.4351 52.9923 39.0123 53.2969C39.4593 53.5117 39.9256 53.6907 40.4061 53.8316C40.8686 53.9779 41.3545 54.0517 41.8436 54.0501C42.3452 54.0605 42.845 54.1105 43.3373 54.1996C44.3015 54.3493 45.2198 54.6865 46.0311 55.1886C46.5548 55.5196 47.1424 55.7558 47.7623 55.8844C48.5705 56.0522 49.4132 56.0145 50.1998 55.7751C51.1908 55.5265 52.2268 55.4677 53.2436 55.6026C54.1071 55.6855 54.9355 55.9619 55.6561 56.4076C56.2276 56.7539 56.863 57.0014 57.5311 57.1379C58.8774 57.4274 60.2828 57.3858 61.6061 57.0171C63.0316 56.5907 64.5708 56.613 65.9811 57.0804C66.5026 57.2551 66.9965 57.4929 67.4498 57.7876C68.1007 58.1994 68.8092 58.5282 69.5561 58.7651C70.7423 59.2413 72.0132 59.5142 73.3061 59.5701C73.9405 59.6076 74.5768 59.5334 75.1811 59.3516C75.8607 59.1613 76.5766 59.1064 77.2811 59.1906C78.8191 59.2921 80.2679 59.8933 81.3686 60.8869C81.6011 61.1345 81.8101 61.4 81.9936 61.6804C82.1998 61.9909 82.2623 62.0656 82.4436 62.1174C82.6248 62.1691 82.7436 62.1174 83.3623 61.9794C83.6748 61.8912 84.1206 61.78 84.6998 61.6459C85.2819 61.491 85.8781 61.3852 86.4811 61.3296C87.6774 61.329 88.8488 61.6444 89.8561 62.2381C90.2615 62.4335 90.6358 62.6793 90.9686 62.9684C91.1084 63.1115 91.291 63.2135 91.4936 63.2616C91.8123 63.3594 91.9686 63.3479 93.0623 63.2214L94.2373 63.0891C95.107 62.9441 95.9923 62.894 96.8748 62.9396C97.6882 63.044 98.4668 63.3109 99.1561 63.7216C99.215 63.7604 99.265 63.8096 99.303 63.8664C99.3409 63.9232 99.3662 63.9863 99.3773 64.0522C99.3883 64.1181 99.385 64.1854 99.3674 64.2501C99.3498 64.3148 99.3121 64.3755 99.2686 64.4289ZM105.219 61.5539L105.169 61.6114C105.082 61.7051 104.963 61.7675 104.831 61.7875C104.699 61.8075 104.564 61.7838 104.45 61.7206C103.906 61.3906 103.289 61.1764 102.644 61.0939C101.856 61.0653 101.068 61.1174 100.294 61.2491L99.1248 61.3814C98.4471 61.5326 97.74 61.5326 97.0623 61.3814C96.7038 61.2841 96.3773 61.1063 96.1123 60.8639C95.8397 60.6383 95.5373 60.4451 95.2123 60.2889C94.3815 59.8031 93.4215 59.5366 92.4373 59.5184C91.9167 59.5842 91.4011 59.6803 90.8936 59.8059C90.3311 59.9324 89.9311 60.0416 89.6061 60.1279C89.1005 60.3321 88.5357 60.3765 87.9998 60.2544C87.7671 60.1787 87.5529 60.0616 87.3695 59.9096C87.1861 59.7577 87.0371 59.5739 86.9311 59.3689C86.7802 59.1478 86.6131 58.9365 86.4311 58.7364C85.5096 57.932 84.3111 57.4499 83.0436 57.3736C82.4921 57.2943 81.9279 57.3397 81.3998 57.5059C80.6867 57.7108 79.9395 57.7965 79.1936 57.7589C77.7855 57.6931 76.4014 57.3971 75.1061 56.8849C74.2839 56.6159 73.501 56.2547 72.7748 55.8096C72.3843 55.5656 71.9649 55.363 71.5248 55.2059C70.3246 54.8087 69.0133 54.7985 67.8061 55.1771C66.3086 55.5863 64.7211 55.6299 63.1998 55.3036C62.4104 55.1367 61.6593 54.8428 60.9811 54.4354C60.394 54.0744 59.7206 53.8495 59.0186 53.7799C58.1411 53.6616 57.2462 53.7165 56.3936 53.9409C55.4207 54.2011 54.3909 54.2229 53.4061 54.0041C52.6654 53.8465 51.9622 53.5659 51.3311 53.1761C50.6464 52.7402 49.8651 52.4495 49.0436 52.3251C48.6107 52.2483 48.1717 52.2041 47.7311 52.1929C47.1383 52.1898 46.5498 52.1005 45.9873 51.9284C45.4498 51.7774 44.9272 51.5851 44.4248 51.3534C43.9677 51.0963 43.4516 50.9412 42.9177 50.9002C42.3838 50.8593 41.8469 50.9337 41.3498 51.1176C41.2063 51.1507 41.0548 51.136 40.922 51.076C40.7893 51.016 40.684 50.9146 40.6248 50.7899C40.5911 50.7278 40.5721 50.6599 40.5688 50.5905C40.5655 50.5212 40.5782 50.452 40.6059 50.3875C40.6336 50.323 40.6757 50.2645 40.7296 50.2159C40.7835 50.1674 40.8479 50.1298 40.9186 50.1056C41.609 49.8615 42.3497 49.7613 43.0873 49.8124C43.7477 49.8873 44.3851 50.0828 44.9623 50.3874C45.4105 50.5998 45.8766 50.7786 46.3561 50.9221C46.8231 51.0597 47.3095 51.1333 47.7998 51.1406C48.2994 51.1513 48.797 51.2013 49.2873 51.2901C50.2536 51.439 51.1742 51.7762 51.9873 52.2791C52.5092 52.6095 53.0946 52.8456 53.7123 52.9749C54.5171 53.1539 55.3597 53.1281 56.1498 52.9001C57.1428 52.6507 58.181 52.5919 59.1998 52.7276C60.0612 52.8115 60.8873 53.0878 61.6061 53.5326C62.1776 53.8789 62.813 54.1264 63.4811 54.2629C64.8274 54.5524 66.2328 54.5108 67.5561 54.1421C68.9816 53.7157 70.5208 53.738 71.9311 54.2054C72.4526 54.3801 72.9465 54.6179 73.3998 54.9126C74.0544 55.3187 74.762 55.6472 75.5061 55.8901C76.6923 56.3663 77.9632 56.6392 79.2561 56.6951C79.8905 56.7326 80.5268 56.6584 81.1311 56.4766C81.8087 56.277 82.5268 56.222 83.2311 56.3156C84.77 56.4206 86.2194 57.0212 87.3248 58.0119C87.5573 58.2595 87.7664 58.525 87.9498 58.8054C88.1561 59.1159 88.2186 59.1906 88.3998 59.2424C88.5811 59.2941 88.6998 59.2711 89.3248 59.1044C89.6331 59.0162 90.079 58.905 90.6623 58.7709C91.2424 58.6164 91.8365 58.5105 92.4373 58.4546C93.6336 58.454 94.805 58.7694 95.8123 59.3631C96.2177 59.5585 96.5921 59.8043 96.9248 60.0934C97.0646 60.2365 97.2472 60.3385 97.4498 60.3866C97.7748 60.4844 97.9248 60.4729 99.0186 60.3464L100.2 60.2141C101.068 60.0772 101.95 60.0251 102.831 60.0589C103.645 60.165 104.424 60.4338 105.112 60.8466C105.173 60.8859 105.224 60.936 105.262 60.9939C105.301 61.0519 105.326 61.1165 105.337 61.1837C105.347 61.251 105.343 61.3195 105.323 61.3851C105.304 61.4507 105.271 61.5121 105.225 61.5654L105.219 61.5539ZM110.6 59.3401L110.55 59.3976C110.468 59.4967 110.348 59.5631 110.214 59.5834C110.08 59.6037 109.943 59.5764 109.831 59.5069C109.287 59.1789 108.67 58.9667 108.025 58.8859C107.238 58.8573 106.449 58.9094 105.675 59.0411L104.506 59.1676C103.826 59.3198 103.117 59.3198 102.437 59.1676C102.08 59.0679 101.756 58.8881 101.494 58.6444C101.219 58.4184 100.915 58.2252 100.587 58.0694C99.761 57.5791 98.8017 57.3121 97.8186 57.2989C97.2979 57.3647 96.7823 57.4608 96.2748 57.5864C95.7123 57.7129 95.3123 57.8221 94.9873 57.9084C94.4818 58.1126 93.917 58.157 93.3811 58.0349C93.1483 57.9592 92.9341 57.8421 92.7507 57.6901C92.5673 57.5382 92.4183 57.3544 92.3123 57.1494C92.1667 56.9219 91.9972 56.7081 91.8061 56.5111C90.8853 55.7101 89.6893 55.2301 88.4248 55.1541C87.8733 55.0748 87.3092 55.1202 86.7811 55.2864C86.068 55.4913 85.3207 55.577 84.5748 55.5394C83.1667 55.4736 81.7826 55.1776 80.4873 54.6654C79.6649 54.3946 78.8819 54.0315 78.1561 53.5844C77.7641 53.3503 77.3448 53.1574 76.9061 53.0094C75.6929 52.6147 74.3693 52.6147 73.1561 53.0094C71.6585 53.4193 70.0703 53.461 68.5498 53.1301C67.7564 52.9777 67.0029 52.6847 66.3311 52.2676C65.744 51.9066 65.0706 51.6817 64.3686 51.6121C63.4915 51.492 62.5967 51.5449 61.7436 51.7674C60.7721 52.0359 59.7399 52.0577 58.7561 51.8306C58.0154 51.673 57.3122 51.3924 56.6811 51.0026C55.9903 50.5664 55.2024 50.2776 54.3748 50.1574C53.9436 50.0708 53.5037 50.0264 53.0623 50.0251C52.4704 50.0134 51.8833 49.9243 51.3186 49.7606C50.7811 49.6097 50.2584 49.4173 49.7561 49.1856C49.3057 48.9438 48.8055 48.791 48.2873 48.7371C47.7419 48.6975 47.1936 48.7681 46.6811 48.9441C46.5385 48.9878 46.3836 48.9829 46.2447 48.9301C46.1058 48.8772 45.9922 48.7802 45.9248 48.6566C45.8759 48.5901 45.8453 48.5136 45.8358 48.4337C45.8262 48.3539 45.8379 48.2731 45.8699 48.1983C45.9019 48.1236 45.9533 48.0572 46.0195 48.0048C46.0856 47.9524 46.1647 47.9156 46.2498 47.8976C46.9018 47.6545 47.6055 47.5515 48.3073 47.5963C49.0091 47.6411 49.6906 47.8327 50.2998 48.1564C50.7466 48.3732 51.2129 48.554 51.6936 48.6969C52.1606 48.8344 52.647 48.9081 53.1373 48.9154C53.6369 48.926 54.1345 48.976 54.6248 49.0649C55.589 49.2146 56.5073 49.5517 57.3186 50.0539C57.8423 50.3849 58.4299 50.621 59.0498 50.7496C59.8618 50.9337 60.7128 50.9119 61.5123 50.6864C62.5049 50.435 63.5431 50.3743 64.5623 50.5081C65.421 50.6027 66.2444 50.8782 66.9686 51.3131C67.5396 51.6615 68.1751 51.9109 68.8436 52.0491C70.191 52.3282 71.5935 52.2866 72.9186 51.9284C74.3441 51.5019 75.8833 51.5242 77.2936 51.9916C77.8151 52.1663 78.309 52.4042 78.7623 52.6989C79.4172 53.103 80.1248 53.4295 80.8686 53.6706C82.0447 54.1454 83.3047 54.4201 84.5873 54.4814C85.2212 54.5063 85.8552 54.4325 86.4623 54.2629C87.14 54.0633 87.8581 54.0082 88.5623 54.1019C90.1012 54.2069 91.5507 54.8075 92.6561 55.7981C92.8886 56.0458 93.0976 56.3112 93.2811 56.5916C93.4873 56.9021 93.5498 56.9711 93.7311 57.0286C93.9123 57.0861 94.0311 57.0574 94.6561 56.8906C94.9644 56.8024 95.4081 56.6913 95.9873 56.5571C96.5692 56.4003 97.1654 56.2925 97.7686 56.2351C98.9634 56.2439 100.132 56.5585 101.144 57.1436C101.549 57.3408 101.924 57.5885 102.256 57.8796C102.402 58.016 102.582 58.1168 102.781 58.1729C103.1 58.2706 103.256 58.2534 104.35 58.1269L105.525 58.0004C106.396 57.863 107.28 57.811 108.162 57.8451C108.976 57.9512 109.755 58.2201 110.444 58.6329C110.51 58.6663 110.568 58.7123 110.614 58.7678C110.66 58.8233 110.692 58.887 110.709 58.9549C110.726 59.0228 110.728 59.0932 110.713 59.1615C110.699 59.2299 110.668 59.2947 110.625 59.3516L110.6 59.3401ZM115.444 56.8389C115.36 56.9383 115.239 57.0049 115.105 57.0252C114.97 57.0455 114.832 57.018 114.719 56.9481C114.176 56.6209 113.561 56.4088 112.919 56.3271C112.131 56.2986 111.343 56.3506 110.569 56.4824L109.4 56.6089C108.72 56.761 108.011 56.761 107.331 56.6089C106.975 56.5108 106.651 56.333 106.387 56.0914C106.113 55.8654 105.808 55.6722 105.481 55.5164C104.655 55.0261 103.695 54.7591 102.712 54.7459C102.19 54.8017 101.673 54.8979 101.169 55.0334C100.606 55.1599 100.206 55.2691 99.8811 55.3554C99.3755 55.5596 98.8107 55.604 98.2748 55.4819C98.0421 55.4062 97.8279 55.2891 97.6445 55.1371C97.4611 54.9852 97.3121 54.8014 97.2061 54.5964C97.0605 54.3689 96.8909 54.1551 96.6998 53.9581C95.779 53.1571 94.5831 52.6771 93.3186 52.6011C92.7671 52.5218 92.2029 52.5672 91.6748 52.7334C90.9617 52.9383 90.2145 53.024 89.4686 52.9864C88.0605 52.9206 86.6764 52.6246 85.3811 52.1124C84.5586 51.8416 83.7756 51.4785 83.0498 51.0314C82.6578 50.7973 82.2385 50.6044 81.7998 50.4564C80.5961 50.0685 79.2848 50.0685 78.0811 50.4564C76.5835 50.8663 74.9953 50.908 73.4748 50.5771C72.6836 50.4126 71.9304 50.1206 71.2498 49.7146C70.6646 49.3545 69.9935 49.1296 69.2936 49.0591C68.4165 48.939 67.5217 48.9919 66.6686 49.2144C65.6952 49.4839 64.6606 49.5058 63.6748 49.2776C62.9363 49.1193 62.2353 48.8388 61.6061 48.4496C60.9153 48.0134 60.1274 47.7246 59.2998 47.6044C58.8686 47.5178 58.4287 47.4734 57.9873 47.4721C57.3945 47.4413 56.8094 47.3328 56.2498 47.1501C55.7155 46.991 55.1935 46.7989 54.6873 46.5751C54.2369 46.3333 53.7367 46.1805 53.2186 46.1266C52.6731 46.087 52.1249 46.1576 51.6123 46.3336C51.4646 46.3726 51.3065 46.3601 51.1681 46.2986C51.0298 46.2371 50.9209 46.1308 50.8623 46.0001C50.8298 45.9375 50.8118 45.8694 50.8094 45.8C50.8071 45.7307 50.8204 45.6616 50.8486 45.5972C50.8768 45.5329 50.9193 45.4746 50.9733 45.4262C51.0273 45.3778 51.0917 45.3402 51.1623 45.3159C51.8143 45.0728 52.518 44.9697 53.2198 45.0146C53.9216 45.0594 54.6031 45.2509 55.2123 45.5746C55.6591 45.7915 56.1254 45.9723 56.6061 46.1151C57.0711 46.2521 57.5554 46.3257 58.0436 46.3336C58.5452 46.3439 59.045 46.394 59.5373 46.4831C60.501 46.6311 61.4193 46.9663 62.2311 47.4664C62.7544 47.7994 63.342 48.0375 63.9623 48.1679C64.7749 48.3464 65.6243 48.3246 66.4248 48.1046C67.4154 47.854 68.4514 47.7934 69.4686 47.9264C70.3316 48.0116 71.1593 48.2878 71.8811 48.7314C72.4521 49.0797 73.0875 49.3291 73.7561 49.4674C75.1029 49.755 76.5083 49.7114 77.8311 49.3409C79.2586 48.9249 80.7948 48.9491 82.2061 49.4099C82.7276 49.5846 83.2215 49.8224 83.6748 50.1171C84.3297 50.5212 85.0373 50.8477 85.7811 51.0889C86.9572 51.5637 88.2171 51.8384 89.4998 51.8996C90.1337 51.9246 90.7677 51.8507 91.3748 51.6811C92.0501 51.4708 92.771 51.4156 93.4748 51.5201C95.0129 51.6216 96.4616 52.2228 97.5623 53.2164C97.7948 53.464 98.0039 53.7295 98.1873 54.0099C98.3936 54.3204 98.4561 54.3894 98.6373 54.4469C98.8186 54.5044 98.9373 54.4469 99.5561 54.3089C99.8686 54.2207 100.314 54.1095 100.894 53.9754C101.475 53.8186 102.072 53.7108 102.675 53.6534C103.87 53.6622 105.038 53.9767 106.05 54.5619C106.456 54.7591 106.83 55.0067 107.162 55.2979C107.308 55.4343 107.489 55.5351 107.687 55.5911C108.006 55.6831 108.162 55.6716 109.256 55.5451L110.431 55.4129C111.302 55.2774 112.186 55.2273 113.069 55.2634C113.882 55.3695 114.661 55.6383 115.35 56.0511C115.413 56.0875 115.468 56.1356 115.51 56.1925C115.552 56.2494 115.581 56.3137 115.594 56.3813C115.608 56.4489 115.606 56.5184 115.588 56.5853C115.571 56.6522 115.539 56.7151 115.494 56.7699L115.444 56.8389ZM133.937 49.5594L52.6373 35.7019L52.5873 35.6961V43.7749L54.8936 44.1486V38.2434L130.6 51.1464L133.937 49.5594ZM16.6186 52.9576L20.2686 53.5901L50.3748 39.0886L50.4373 44.6604L52.3686 43.7404L52.5873 43.7749V35.6961L52.6373 35.7019V35.6099L16.6186 52.9576ZM136.45 59.5989L136.725 60.0646L98.0811 79.6089L98.2311 94.8234L136.944 72.7779L136.987 72.8469L136.787 50.5944L97.9748 69.0346L98.0748 79.0051L136.45 59.5989Z" fill="white"/>
</svg>
