<svg width="16" height="29" viewBox="0 0 16 29" fill="none" xmlns="http://www.w3.org/2000/svg">
<path d="M7.78376 8.90576L4.94662 9.07599L4.84888 9.18876L7.28036 13.3571L9.98065 12.9656L7.78376 8.90576Z" fill="#33C7BB" fill-opacity="0.7"/>
<path opacity="0.3" d="M7.78376 8.90576L4.94662 9.07599L4.84888 9.18876L7.28036 13.3571L9.98065 12.9656L7.78376 8.90576Z" fill="black"/>
<path d="M7.87922 8.79297L4.94678 9.07597L7.37826 13.2443L10.0786 12.8549L7.87922 8.79297Z" fill="#33C7BB" fill-opacity="0.7"/>
<path d="M7.86193 9.18896L5.40112 9.42728L7.4294 12.8382L9.69471 12.5105L7.86193 9.18896Z" fill="#F0F0F0"/>
<path opacity="0.15" d="M7.37823 9.35692L7.27805 9.1867C7.22184 9.09095 6.99213 9.03137 6.76731 9.05265L6.33233 9.09095C6.10506 9.11222 5.96578 9.20372 6.02198 9.30373L6.12217 9.47396L7.37823 9.35692Z" fill="black"/>
<path d="M7.14346 8.74832C7.11779 8.71707 7.08288 8.69246 7.04243 8.6771C7.00199 8.66174 6.95752 8.6562 6.91375 8.66107L6.74514 8.68235C6.68609 8.58132 6.59822 8.4952 6.48996 8.43223C6.3817 8.36926 6.25668 8.33156 6.12688 8.32275C5.72856 8.33552 5.94605 8.74832 5.94605 8.74832L5.76766 8.77172C5.66991 8.78448 5.61371 8.84194 5.64303 8.89939L5.69679 9.00365L7.20945 8.85684L7.14346 8.74832Z" fill="#37474F"/>
<path d="M7.01418 8.86768C6.87244 8.86768 6.81869 8.88683 6.90422 9.03152C6.98975 9.17621 7.08505 9.32304 7.08505 9.32304L6.41791 9.389C6.41791 9.389 6.29573 9.17621 6.24686 9.09748C6.19798 9.01876 6.12711 8.95492 6.02203 8.96556L5.9585 8.89535L7.01906 8.80811L7.01418 8.86768Z" fill="#263238"/>
<path d="M7.41485 9.38058L7.31466 9.20822C7.24838 9.15305 7.16778 9.11263 7.07971 9.0904C6.99164 9.06817 6.89871 9.0648 6.80881 9.08055L6.37628 9.12098C6.14902 9.14013 6.00972 9.23376 6.06593 9.33376L6.16612 9.50612L7.41485 9.38058Z" fill="#37474F"/>
<path d="M8.85166 10.7952C8.85166 10.7952 8.92742 10.4164 8.7979 10.2866C8.66839 10.1568 8.13077 10.1739 7.86685 10.0739C7.60293 9.97385 7.62248 10.2483 7.76177 10.3377C8.06479 10.5292 8.66594 10.6186 8.85166 10.7952Z" fill="#F28F8F"/>
<path d="M13.3262 5.82275C13.7612 5.8419 14.162 6.12277 14.6043 7.07816C15.0466 8.03354 15.9556 10.1273 15.809 10.4826C15.7088 10.7295 12.4562 11.47 12.4562 11.47L11.9871 10.6039L14.1448 9.75281L12.923 7.29519L13.3262 5.82275Z" fill="#E0E0E0"/>
<path d="M10.5012 26.4795C10.5619 26.6403 10.6132 26.8036 10.6551 26.9689C10.7212 27.1711 10.7313 27.384 10.6844 27.5902C10.6111 27.7264 10.3277 27.8136 9.88535 27.803C9.51826 27.8429 9.16509 27.9502 8.84922 28.1179C8.43848 28.2697 7.99133 28.3318 7.54672 28.2988C7.15328 28.2583 6.74763 28.0605 6.68409 27.9179C6.62056 27.7753 6.5668 27.5817 7.62981 27.2795C7.62981 27.2795 8.9152 26.9157 9.3624 26.4859L10.5012 26.4795Z" fill="#33C7BB" fill-opacity="0.7"/>
<path opacity="0.4" d="M10.5012 26.4795C10.5619 26.6403 10.6132 26.8036 10.6551 26.9689C10.7212 27.1711 10.7313 27.384 10.6844 27.5902C10.6111 27.7264 10.3277 27.8136 9.88535 27.803C9.51826 27.8429 9.16509 27.9502 8.84922 28.1179C8.43848 28.2697 7.99133 28.3318 7.54672 28.2988C7.15328 28.2583 6.74763 28.0605 6.68409 27.9179C6.62056 27.7753 6.5668 27.5817 7.62981 27.2795C7.62981 27.2795 8.9152 26.9157 9.3624 26.4859L10.5012 26.4795Z" fill="black"/>
<path d="M10.5013 26.5052L10.2984 26.4839L9.3625 26.5009C8.9153 26.9265 7.63968 27.2925 7.62991 27.2946L7.45886 27.3456C7.27558 27.4733 7.43198 27.6946 7.87184 27.7287C8.31171 27.7627 9.67529 27.3627 9.97831 27.235C10.1376 27.1709 10.2719 27.0676 10.3648 26.938C10.4577 26.8084 10.5051 26.6579 10.5013 26.5052Z" fill="#FFA8A7"/>
<path d="M10.5013 26.1562V26.5052C10.5013 26.6329 10.3302 26.8223 9.88305 26.8095C9.57025 26.7988 9.35033 26.7244 9.36255 26.501V26.1754L10.5013 26.1562Z" fill="#FFA8A7"/>
<path d="M13.502 25.0176C13.5826 25.0453 13.5997 25.1814 13.6022 25.4432C13.6022 25.6453 13.6462 26.0006 13.37 26.0645C13.2246 26.1032 13.0699 26.1072 12.922 26.0761C12.7742 26.0451 12.6386 25.9801 12.5294 25.8879C12.3168 25.6453 12.1775 25.4304 11.8745 25.1325C11.613 24.875 11.3271 24.6325 11.2293 24.2814C11.1414 23.9601 11.2293 23.8218 11.4737 23.7345C11.7181 23.6473 11.9625 23.7196 12.307 23.975C12.404 24.0325 12.5081 24.0804 12.6174 24.1175C12.8569 24.1877 13.4214 24.9878 13.502 25.0176Z" fill="#33C7BB" fill-opacity="0.7"/>
<path opacity="0.4" d="M13.502 25.0176C13.5826 25.0453 13.5997 25.1814 13.6022 25.4432C13.6022 25.6453 13.6462 26.0006 13.37 26.0645C13.2246 26.1032 13.0699 26.1072 12.922 26.0761C12.7742 26.0451 12.6386 25.9801 12.5294 25.8879C12.3168 25.6453 12.1775 25.4304 11.8745 25.1325C11.613 24.875 11.3271 24.6325 11.2293 24.2814C11.1414 23.9601 11.2293 23.8218 11.4737 23.7345C11.7181 23.6473 11.9625 23.7196 12.307 23.975C12.404 24.0325 12.5081 24.0804 12.6174 24.1175C12.8569 24.1877 13.4214 24.9878 13.502 25.0176Z" fill="black"/>
<path d="M13.5095 24.7687V25.0985C13.5095 25.0985 13.2651 25.524 12.554 25.0985C12.5394 25.0644 12.4758 24.4282 12.4758 24.4282L13.5095 24.7687Z" fill="#FFA8A7"/>
<path d="M12.6247 24.1175C12.5154 24.0804 12.4113 24.0325 12.3144 23.975C12.0309 23.8962 11.4347 23.9877 11.7035 24.3452C11.9268 24.64 12.212 24.8956 12.5441 25.0984C12.8618 25.2346 12.9742 25.0644 12.9742 25.0644L12.8618 24.2941C12.7987 24.2208 12.7177 24.1604 12.6247 24.1175Z" fill="#FFA8A7"/>
<path d="M14.0225 20.2172C13.9599 19.6383 13.823 19.0673 13.6144 18.5149C13.6144 18.5149 13.8588 17.0638 14.0396 15.67C14.4795 12.3996 14.1863 12.3464 13.656 11.2016C13.656 11.2016 8.83943 10.6612 8.63905 12.406C8.39468 14.5763 8.5022 18.7894 8.54375 19.5575C8.58529 20.3257 8.6586 20.6768 8.92008 22.2896C9.12046 23.5174 9.30863 26.2027 9.30863 26.2027C9.50201 26.2906 9.71889 26.3318 9.93677 26.3221C10.1546 26.3124 10.3655 26.252 10.5476 26.1474C10.5476 26.1474 11.1512 22.845 11.1365 21.9577C11.1253 21.2999 11.016 20.6462 10.8115 20.0129C10.8115 20.0129 11.2196 16.4743 11.3247 15.9105C11.3247 15.9105 11.442 17.0403 11.4835 17.8106C11.5251 18.5809 11.7645 19.3213 11.9723 20.7534C12.1555 21.9981 12.461 24.5941 12.461 24.5941C13.0939 24.9111 13.5338 24.7664 13.5338 24.7664C13.5338 24.7664 14.1618 21.296 14.0225 20.2172Z" fill="#33C7BB" fill-opacity="0.7"/>
<path opacity="0.1" d="M11.3247 15.9194L11.5886 14.4618C12.1152 14.4056 12.6218 14.2518 13.0744 14.0107C12.7732 14.3312 12.3501 14.5471 11.8819 14.6193L11.6131 16.3215L11.5055 18.0919L11.3247 15.9194Z" fill="black"/>
<path d="M10.5916 5.00346L10.7699 6.63336L12.4146 6.54186L12.2826 4.73535L10.5916 5.00346Z" fill="#FFA8A7"/>
<path d="M13.8957 6.4015C13.7295 5.97594 13.3874 5.71847 12.6347 5.70996H12.3586C12.3048 5.9504 11.496 6.13552 10.6944 5.89933C10.582 5.92274 10.2741 5.97381 10.0982 5.99296L9.71694 6.0419C9.1329 6.20787 8.87631 7.08878 8.82011 8.48675C8.7639 9.88471 8.52441 12.87 8.52441 12.87C8.52441 12.87 9.77803 13.4552 11.755 13.2275C12.6623 13.1469 13.5094 12.795 14.1523 12.2317C13.9439 11.4583 13.6374 10.7075 13.2383 9.99324C14.1645 8.0165 14.14 7.04197 13.8957 6.4015Z" fill="#455A64"/>
<path d="M10.77 13.2894C11.0969 13.2915 11.4235 13.2737 11.7475 13.2362C12.6578 13.1608 13.5071 12.8046 14.1423 12.2319C13.9335 11.4617 13.6278 10.7139 13.2308 10.002C13.6048 9.25974 13.8644 8.47774 14.003 7.67627C13.9273 8.10183 13.2186 9.71258 12.2924 10.1977C12.6938 10.2866 13.0424 10.5029 13.2699 10.8041C13.7122 11.3404 13.3432 13.1745 10.77 13.2894Z" fill="#37474F"/>
<path d="M9.7412 2.97981C9.7412 2.97981 9.11806 2.34147 9.6068 1.70313C10.1811 0.962654 11.1903 0.711577 12.439 1.035C13.0598 1.19459 13.9664 1.93932 14.0128 2.98407C14.0495 3.78838 11.4567 4.32034 11.4982 4.87144L9.7412 2.97981Z" fill="#263238"/>
<path d="M9.37224 3.21631C9.37224 3.21631 9.00813 3.69506 9.057 3.74613C9.14189 3.79522 9.23627 3.83054 9.33558 3.8504L9.37224 3.21631Z" fill="#F28F8F"/>
<path d="M10.4865 1.69695C10.1322 1.85654 9.50904 2.15018 9.36242 3.28643C9.2158 4.42267 9.49927 4.85675 9.68255 5.00782C9.80473 5.11208 10.4401 5.14826 10.7724 5.05889C11.1854 4.94825 12.0847 4.56098 12.5075 3.95881C12.9962 3.25238 13.1037 2.30764 12.5319 1.93953C12.2423 1.75188 11.9028 1.63121 11.5451 1.58879C11.1874 1.54637 10.8232 1.58358 10.4865 1.69695Z" fill="#FFA8A7"/>
<path d="M10.3816 1.74604C10.3816 1.74604 10.0737 2.80994 10.4427 3.4802C10.4427 3.4802 10.6578 3.06528 11.0683 3.18444C11.4788 3.3036 11.4422 3.78235 11.1172 4.03556C11.0345 4.10565 10.9308 4.15401 10.818 4.17509C10.7052 4.19617 10.5878 4.1891 10.4794 4.15472C10.4861 4.32459 10.5441 4.48992 10.6475 4.6341C10.7508 4.77827 10.896 4.89621 11.0683 4.97605C11.0683 4.97605 12.2755 5.47821 13.3654 4.46325C14.3551 3.54191 14.228 1.89073 12.7691 1.4673C12.3763 1.33549 11.9517 1.29194 11.5344 1.34065C11.1172 1.38937 10.7207 1.52878 10.3816 1.74604Z" fill="#263238"/>
<path d="M14.8169 1.79696C14.8169 2.01832 14.7415 2.23471 14.6002 2.41877C14.459 2.60282 14.2583 2.74628 14.0234 2.83099C13.7885 2.9157 13.5301 2.93786 13.2807 2.89468C13.0314 2.85149 12.8023 2.7449 12.6226 2.58837C12.4428 2.43184 12.3204 2.23242 12.2708 2.01531C12.2212 1.7982 12.2466 1.57316 12.3439 1.36865C12.4412 1.16414 12.606 0.989341 12.8174 0.866359C13.0287 0.743377 13.2773 0.677734 13.5315 0.677734C13.8724 0.677734 14.1993 0.795653 14.4404 1.00555C14.6814 1.21544 14.8169 1.50012 14.8169 1.79696Z" fill="#263238"/>
<path d="M9.44077 1.26712C8.89827 1.74801 8.8665 3.13959 10.4427 3.48004L11.4715 1.0203C10.8728 0.679848 9.92707 0.837306 9.44077 1.26712Z" fill="#263238"/>
<path d="M10.2836 3.86093C10.2062 3.83667 10.143 3.78661 10.1079 3.72176C10.0729 3.65692 10.0688 3.5826 10.0967 3.51517C10.1246 3.44773 10.1821 3.39269 10.2565 3.36217C10.331 3.33164 10.4164 3.32812 10.4938 3.35239L10.2836 3.86093Z" fill="#263238"/>
<path d="M9.83169 6.03536C9.83169 6.03536 9.5751 6.00345 8.60983 6.229C7.64457 6.45454 5.36948 6.90777 5.36948 6.90777C5.36948 6.90777 2.69852 5.78641 2.58122 5.66513C2.46392 5.54384 2.5299 5.29701 2.56167 5.16083C2.59344 5.02465 2.64719 4.72251 2.68141 4.63739C2.7425 4.49058 2.4908 4.531 2.34418 4.66931C2.19756 4.80762 2.12913 5.07785 2.05582 5.12466C1.98251 5.17148 1.42046 4.60761 1.14676 4.33525C0.873066 4.06289 0.745997 3.87351 0.562719 3.98629C0.430759 4.06714 0.516285 4.22673 0.711782 4.46079C0.801923 4.55821 0.883606 4.66133 0.956152 4.76932C0.980589 4.80975 0.907278 4.84379 0.880398 4.8672C0.853517 4.89061 0.731331 4.97572 0.726443 5.03955C0.728947 5.07498 0.728947 5.11051 0.726443 5.14594C0.699562 5.22254 0.589603 5.25871 0.557834 5.33531C0.526066 5.41192 0.557834 5.45022 0.557834 5.50767C0.557834 5.56512 0.526065 5.57789 0.518734 5.61619C0.51637 5.65304 0.522985 5.68992 0.538146 5.72439C0.553308 5.75886 0.57667 5.79015 0.606704 5.8162C0.81053 5.9856 1.04933 6.11988 1.31049 6.21197C1.52065 6.31198 1.7357 6.35454 1.97763 6.44816C2.21955 6.54178 5.00293 8.26956 5.50389 8.23126C6.07083 8.18871 9.52867 7.65037 9.52867 7.65037C10.4255 7.11203 9.83169 6.03536 9.83169 6.03536Z" fill="#FFA8A7"/>
<path d="M12.6296 5.71022C12.9091 5.6974 13.1883 5.74034 13.4458 5.83576C13.8295 5.99322 14.0641 6.36559 14.0836 7.1933C14.1032 8.02102 13.3505 10.0488 13.3505 10.0488C13.3505 10.0488 14.152 11.6957 14.3011 12.4192C14.4502 13.1426 14.2449 15.2981 14.2449 15.2981C14.2449 15.2981 12.6711 16.4195 9.53832 15.9365C9.47478 15.9258 9.42346 13.3725 9.35993 13.3618C9.29639 13.3512 9.23774 15.8854 9.18153 15.8748C8.88503 15.8194 8.57712 15.7485 8.25781 15.662C8.25781 15.662 8.32379 13.5342 8.33357 12.6149C8.34334 11.6957 8.4191 8.19762 8.77099 7.29543C8.93964 6.80885 9.22537 6.35913 9.60918 5.9762H10.2788L12.6296 5.71022Z" fill="#F5F5F5"/>
<path d="M10.0785 5.98256C8.70267 5.8932 6.96274 6.55495 5.36945 6.90816L3.17012 5.95703C3.17012 5.95703 2.481 6.59537 2.87932 7.05923C2.87932 7.05923 4.91981 8.33592 5.40611 8.42103C5.89241 8.50614 9.48709 7.86993 9.48709 7.86993C9.7092 7.78763 9.90138 7.65423 10.043 7.48405C10.1847 7.31386 10.2704 7.11331 10.2911 6.9039C10.3913 6.14853 10.0785 5.98256 10.0785 5.98256Z" fill="#E0E0E0"/>
<path d="M10.6454 5.48254C10.6129 5.48519 10.5818 5.49524 10.5552 5.51167C10.5286 5.52811 10.5074 5.55035 10.4938 5.57617C10.4376 5.66979 10.2861 5.9762 10.2861 5.9762C10.2861 5.9762 10.6625 6.40175 11.5495 6.306C12.4366 6.21025 12.6296 5.71022 12.6296 5.71022C12.6296 5.71022 12.5392 5.26764 12.3217 5.28466V5.36977C12.3217 5.36977 12.2386 5.54 11.7108 5.59958C10.963 5.67618 10.6454 5.48254 10.6454 5.48254Z" fill="#E0E0E0"/>
<path d="M10.5916 10.1763C10.5916 10.1763 12.1385 10.5146 13.0818 10.0273C13.226 10.1401 13.2162 10.2678 13.0818 10.4827C13.0818 10.4827 12.1581 10.9593 10.599 10.6125C10.5379 10.5526 10.5036 10.4756 10.5022 10.3956C10.5009 10.3155 10.5326 10.2377 10.5916 10.1763Z" fill="#F0F0F0"/>
<path d="M10.8777 10.4209C10.8782 10.445 10.8704 10.4687 10.8554 10.4889C10.8404 10.5091 10.8188 10.525 10.7934 10.5345C10.768 10.544 10.7399 10.5467 10.7127 10.5423C10.6856 10.5378 10.6605 10.5265 10.6408 10.5096C10.6211 10.4927 10.6076 10.4711 10.602 10.4475C10.5964 10.4239 10.599 10.3994 10.6095 10.3772C10.62 10.3549 10.6378 10.3358 10.6608 10.3224C10.6837 10.309 10.7107 10.3018 10.7384 10.3018C10.7566 10.3015 10.7746 10.3044 10.7915 10.3102C10.8084 10.3161 10.8238 10.3248 10.8367 10.3359C10.8497 10.347 10.86 10.3602 10.867 10.3748C10.8741 10.3894 10.8777 10.4051 10.8777 10.4209Z" fill="#E0E0E0"/>
<path d="M13.094 10.3019C13.094 10.3176 13.0905 10.3331 13.0836 10.3475C13.0767 10.362 13.0666 10.3751 13.0539 10.3862C13.0412 10.3973 13.0261 10.406 13.0095 10.412C12.9929 10.418 12.9751 10.4211 12.9572 10.4211C12.9206 10.4211 12.8856 10.4086 12.8595 10.3863C12.8335 10.364 12.8185 10.3337 12.8179 10.3019C12.8185 10.2699 12.8334 10.2394 12.8594 10.2168C12.8854 10.1942 12.9204 10.1812 12.9572 10.1807C12.9937 10.1812 13.0285 10.1942 13.0541 10.2169C13.0797 10.2396 13.094 10.2701 13.094 10.3019Z" fill="#E0E0E0"/>
</svg>
