<svg width="14" height="28" viewBox="0 0 14 28" fill="none" xmlns="http://www.w3.org/2000/svg">
<path d="M1.17635 24.1238C1.09815 24.1515 1.08105 24.2855 1.07616 24.5494C1.07616 24.7494 1.03217 25.1005 1.30098 25.1643C1.44468 25.2033 1.59775 25.208 1.74429 25.1781C1.89082 25.1482 2.02548 25.0846 2.13428 24.9941C2.33609 24.7369 2.55306 24.4891 2.78431 24.2515C3.07603 24.0188 3.29615 23.7262 3.42456 23.4003C3.51254 23.0833 3.42456 22.9471 3.18019 22.8599C2.83807 22.7407 2.31512 23.1642 2.04876 23.2344C1.81905 23.3046 1.26921 24.1004 1.17635 24.1238Z" fill="#33C7BB" fill-opacity="0.7"/>
<path opacity="0.4" d="M1.16899 24.1238C1.0908 24.1515 1.07369 24.2855 1.06636 24.5494C1.06636 24.7494 1.02237 25.1005 1.29362 25.1643C1.43738 25.2028 1.59032 25.2074 1.73675 25.1774C1.88319 25.1475 2.01785 25.0842 2.12693 24.9941C2.32802 24.737 2.54417 24.4892 2.77451 24.2515C3.06776 24.0195 3.28885 23.7267 3.4172 23.4003C3.50517 23.0833 3.4172 22.9471 3.17283 22.8599C2.83071 22.7407 2.30532 23.1642 2.0414 23.2344C1.77748 23.3046 1.24964 24.1046 1.16899 24.1238Z" fill="black"/>
<path d="M1.17163 23.8836V24.2092C1.314 24.2838 1.47706 24.3233 1.64327 24.3233C1.80947 24.3233 1.97254 24.2838 2.1149 24.2092C2.12956 24.1772 2.20043 23.7432 2.20043 23.7432L1.17163 23.8836Z" fill="#FFA8A7"/>
<path d="M4.24564 25.939C4.18485 26.1147 4.13429 26.2929 4.09413 26.473C4.02736 26.6929 4.02233 26.9235 4.07947 27.1454C4.16256 27.2901 4.47291 27.3795 4.94943 27.3689C5.3474 27.4033 5.73232 27.5114 6.07842 27.6859C6.52694 27.8426 7.01299 27.9003 7.49333 27.854C7.91609 27.8029 8.35107 27.5795 8.41705 27.4284C8.48303 27.2774 8.38528 27.1178 7.37603 26.7646C7.37603 26.7646 5.97334 26.3986 5.47727 25.9411L4.24564 25.939Z" fill="#33C7BB" fill-opacity="0.7"/>
<path opacity="0.4" d="M4.24564 25.939C4.18485 26.1147 4.13429 26.2929 4.09413 26.473C4.02736 26.6929 4.02233 26.9235 4.07947 27.1454C4.16256 27.2901 4.47291 27.3795 4.94943 27.3689C5.3474 27.4033 5.73232 27.5114 6.07842 27.6859C6.52694 27.8426 7.01299 27.9003 7.49333 27.854C7.91609 27.8029 8.35107 27.5795 8.41705 27.4284C8.48303 27.2774 8.38528 27.1178 7.37603 26.7646C7.37603 26.7646 5.97334 26.3986 5.47727 25.9411L4.24564 25.939Z" fill="black"/>
<path d="M4.23584 25.5897C4.23584 25.5897 4.23584 25.8301 4.23584 25.9663C4.23584 26.1025 4.42889 26.3068 4.91275 26.2812C5.25242 26.2642 5.48701 26.1812 5.46746 25.9365V25.5854L4.23584 25.5897Z" fill="#FFA8A7"/>
<path d="M0.817309 19.5791C0.959044 18.5152 1.0348 17.8577 1.0348 17.8577C1.0348 17.8577 0.858851 16.581 0.761103 15.1937C0.651137 13.7042 0.673131 11.9275 0.817309 11.2977C0.817309 11.2977 6.32786 10.2146 6.47204 11.936C6.61622 13.6574 6.41095 18.062 6.36452 18.8216C6.31809 19.5812 6.18613 20.2557 6.0395 21.4899C5.89288 22.724 5.46768 25.5816 5.46768 25.5816C5.27941 25.6683 5.06969 25.7136 4.85675 25.7136C4.64381 25.7136 4.43409 25.6683 4.24582 25.5816C4.24582 25.5816 3.75708 22.1346 3.78396 21.2579C3.80013 20.6098 3.91182 19.9662 4.11631 19.3429C4.11631 19.3429 3.97457 17.9215 3.84994 16.6832C3.72532 15.4448 3.60558 14.8532 3.57625 14.3149L3.45651 14.266C3.45651 14.266 3.39053 16.4065 3.3441 17.1662C3.29767 17.9258 3.17792 18.6556 2.96288 20.0706C2.77471 21.2962 2.19067 23.9007 2.19067 23.9007C1.56753 24.2113 1.18142 23.8815 1.18142 23.8815C1.18142 23.8815 0.673131 20.643 0.817309 19.5791Z" fill="#33C7BB" fill-opacity="0.7"/>
<path opacity="0.1" d="M3.56637 14.3212C3.56637 14.3212 2.20767 13.7723 1.52344 13.2573C1.91608 13.7051 2.41654 14.0726 2.98966 14.334C2.98966 14.334 3.35133 16.9831 3.34644 16.9299L3.44908 14.3127L3.56637 14.3212Z" fill="black"/>
<path d="M4.50718 4.47602L4.22126 6.05272L2.58887 5.98038L2.77948 4.1377L4.50718 4.47602Z" fill="#FFA8A7"/>
<path d="M2.24681 5.08223C2.24681 5.08223 1.11293 4.82902 0.629074 5.53545C0.14522 6.24189 0.594862 7.76965 0.594862 7.76965L2.24681 5.08223Z" fill="#E0E0E0"/>
<path d="M0.665831 6.05277C0.814897 5.62721 1.62621 4.98886 2.2518 5.08249L2.677 5.14419C2.75031 5.41016 3.53229 5.61443 4.33139 5.45059C4.57576 5.50592 4.79325 5.56337 4.99363 5.62082C5.5679 5.78679 6.09818 6.20597 6.18616 7.83587C6.18616 7.83587 6.69445 12.6681 6.69934 15.1023C6.37152 15.2208 6.03099 15.3106 5.68275 15.3704C5.6461 15.3704 5.49948 12.4107 5.46282 12.417C5.42617 12.4234 5.46282 15.396 5.40906 15.413C4.51784 15.5272 3.61221 15.5272 2.72099 15.413C1.92581 15.3182 1.16557 15.0679 0.497215 14.681C0.497215 14.681 0.497215 11.5702 0.741585 10.0339C0.626731 8.98275 0.602296 8.28271 0.548534 7.90608C0.409243 6.86984 0.563195 6.34853 0.665831 6.05277Z" fill="#F5F5F5"/>
<path d="M3.50781 10.4825C3.50781 10.4825 1.92185 10.6081 1.06411 9.99951C0.902826 10.091 0.890607 10.2123 0.990799 10.4485C0.990799 10.4485 1.82166 11.0443 3.42228 10.9123C3.4942 10.8621 3.54257 10.7906 3.55831 10.7115C3.57406 10.6324 3.55611 10.551 3.50781 10.4825Z" fill="#F0F0F0"/>
<path d="M3.18265 10.6867C3.17862 10.7105 3.18275 10.7347 3.19451 10.7563C3.20627 10.778 3.22513 10.7961 3.24873 10.8085C3.27232 10.8208 3.29958 10.8268 3.32707 10.8257C3.35456 10.8245 3.38105 10.8163 3.40319 10.8021C3.42533 10.7878 3.44213 10.7682 3.45147 10.7457C3.46081 10.7231 3.46227 10.6987 3.45567 10.6754C3.44907 10.6522 3.4347 10.6311 3.41438 10.6149C3.39406 10.5988 3.3687 10.5882 3.34149 10.5846C3.30496 10.5803 3.26794 10.5886 3.23829 10.6076C3.20863 10.6267 3.18868 10.6551 3.18265 10.6867Z" fill="#E0E0E0"/>
<path d="M1.02496 10.2678C1.02002 10.2996 1.0295 10.3319 1.0514 10.3577C1.0733 10.3835 1.10589 10.4009 1.14226 10.4061C1.16008 10.4086 1.17827 10.4079 1.19578 10.4042C1.2133 10.4004 1.2298 10.3937 1.24434 10.3844C1.25887 10.3751 1.27115 10.3634 1.28047 10.35C1.28979 10.3366 1.29598 10.3217 1.29866 10.3061C1.30364 10.2897 1.30462 10.2726 1.30154 10.2559C1.29847 10.2392 1.2914 10.2232 1.28079 10.209C1.27019 10.1948 1.25629 10.1827 1.23998 10.1734C1.22367 10.1642 1.20532 10.158 1.18611 10.1553C1.1669 10.1527 1.14725 10.1535 1.12844 10.1578C1.10962 10.1622 1.09206 10.1699 1.07688 10.1805C1.0617 10.1911 1.04923 10.2043 1.04029 10.2194C1.03135 10.2344 1.02613 10.2509 1.02496 10.2678Z" fill="#E0E0E0"/>
<path d="M4.42157 4.95466C4.42157 4.95466 4.49977 4.93551 4.55598 5.02913C4.62132 5.1972 4.67197 5.36933 4.70749 5.54406C4.70749 5.54406 4.36293 5.88664 3.48564 5.79301C2.60835 5.69939 2.40308 5.13552 2.40308 5.13552C2.40308 5.13552 2.51549 4.68017 2.73053 4.69932L2.71587 4.8589C2.71587 4.8589 2.79896 5.02913 3.3268 5.08871C4.05991 5.17169 4.42157 4.95466 4.42157 4.95466Z" fill="#E0E0E0"/>
<path d="M9.67325 3.30371L13.07 4.84637L11.3814 8.86792L8.20947 7.32101L9.67325 3.30371Z" fill="#33C7BB" fill-opacity="0.7"/>
<path opacity="0.3" d="M9.67325 3.30371L13.07 4.84637L11.3814 8.86792L8.20947 7.32101L9.67325 3.30371Z" fill="black"/>
<path d="M9.52652 3.23926L12.9257 4.78192L11.2371 8.80347L8.06519 7.25656L9.52652 3.23926Z" fill="#33C7BB" fill-opacity="0.7"/>
<path d="M9.72217 3.64404L12.574 4.93988L11.0784 8.39543L8.41724 7.0996L9.72217 3.64404Z" fill="#F5F5F5"/>
<path opacity="0.15" d="M10.4307 4.06952L10.4844 3.94611C10.5162 3.87802 10.7532 3.91845 11.0147 4.03761L11.5157 4.26315C11.7796 4.38018 11.9678 4.53126 11.936 4.59935L11.8822 4.72276L10.4307 4.06952Z" fill="black"/>
<path d="M10.4844 3.57765C10.504 3.5351 10.6066 3.54148 10.7141 3.59255L10.9121 3.68404C10.9121 3.68404 11.0318 3.42019 11.4839 3.60318C11.936 3.78618 11.8333 4.09471 11.8333 4.09471L12.0435 4.19471C12.1583 4.25004 12.239 4.33089 12.2268 4.37345L12.1999 4.45218L10.4502 3.65638C10.4502 3.65638 10.4649 3.62021 10.4844 3.57765Z" fill="#37474F"/>
<path d="M10.6726 3.75646C10.8364 3.82455 10.8999 3.8586 10.8535 3.96924C10.807 4.07989 10.7508 4.18202 10.7508 4.18202L11.5255 4.53524C11.5255 4.53524 11.589 4.38204 11.6183 4.32246C11.6477 4.26288 11.7014 4.23522 11.8261 4.29054L11.8725 4.24798L10.6506 3.70752L10.6726 3.75646Z" fill="#263238"/>
<path d="M10.3965 4.07587L10.4502 3.95246C10.482 3.88437 10.7191 3.9248 10.9805 4.04396L11.4839 4.2695C11.7454 4.38653 11.9336 4.5376 11.9042 4.60569L11.848 4.72911L10.3965 4.07587Z" fill="#37474F"/>
<path d="M5.08887 5.65479C5.73889 5.82501 6.13477 5.8548 6.85322 6.81657C7.57167 7.77833 9.19673 9.58271 9.35313 9.81251C9.46234 9.97807 9.52562 10.1636 9.53792 10.3542C9.55022 10.5448 9.51121 10.7353 9.424 10.9105C9.24805 11.1828 8.82773 11.0232 8.11417 10.4849C7.40061 9.94657 5.97104 8.5103 5.97104 8.5103C5.52011 7.60056 5.22297 6.63873 5.08887 5.65479Z" fill="#FFA8A7"/>
<path d="M9.20401 11.0445C9.80516 10.9806 11.1028 9.39755 11.5035 8.85496C11.8202 8.41469 12.2358 8.03471 12.7254 7.73786C13.3608 7.32719 13.2679 6.69949 12.9918 6.12285C12.894 5.92284 12.569 6.05264 12.569 6.05264L12.4541 6.32712L12.2538 6.79949C12.1193 6.90801 12.0436 6.94419 12.0338 6.91227C12.024 6.88035 12.134 6.59523 12.1316 6.33138C12.1316 6.01008 11.8701 6.22074 11.7943 6.33138C11.6884 6.50093 11.5978 6.67735 11.5231 6.85907C11.3936 7.1442 11.4473 7.43359 11.2909 7.62934C11.1345 7.8251 9.04028 9.57203 9.04028 9.57203L9.20401 11.0445Z" fill="#FFA8A7"/>
<path d="M4.9936 5.61182C5.33364 5.66038 5.66322 5.75365 5.97108 5.88843C6.4867 6.1161 6.65776 6.50124 7.40553 7.34385C8.15331 8.18646 9.11613 9.34186 9.11613 9.34186L10.8585 8.00773C10.9077 8.16915 11.0088 8.31498 11.1499 8.42807C11.291 8.54116 11.4663 8.61679 11.6551 8.64607C11.2482 9.34747 10.7416 10.0016 10.1474 10.593C9.28474 11.3994 9.27985 11.359 8.49298 10.9569C7.70611 10.5547 5.89777 8.61628 5.89777 8.61628C5.89777 8.61628 4.10165 7.39066 4.9936 5.61182Z" fill="#E0E0E0"/>
<path d="M5.71436 2.5415C5.71436 2.5415 6.142 3.1075 6.09313 3.16282C6.04426 3.21814 5.73146 3.26709 5.73146 3.26709L5.71436 2.5415Z" fill="#F28F8F"/>
<path d="M5.00562 2.46082C5.00562 2.37277 5.03563 2.28671 5.09186 2.21353C5.14809 2.14035 5.228 2.08335 5.32147 2.04976C5.41494 2.01616 5.51775 2.00748 5.61689 2.02482C5.71603 2.04215 5.80703 2.08472 5.87836 2.14712C5.94969 2.20953 5.99814 2.28897 6.01757 2.37537C6.037 2.46178 6.02654 2.55126 5.9875 2.63248C5.94847 2.7137 5.88263 2.78301 5.79832 2.83162C5.71401 2.88023 5.61502 2.90595 5.51391 2.90553C5.37887 2.90497 5.2496 2.85787 5.15434 2.77453C5.05909 2.69119 5.00561 2.5784 5.00562 2.46082ZM5.11803 2.46082C5.11754 2.5296 5.14056 2.59695 5.18414 2.65431C5.22772 2.71167 5.2899 2.75645 5.36279 2.78296C5.43567 2.80948 5.51596 2.81653 5.59346 2.80321C5.67095 2.7899 5.74215 2.75682 5.798 2.70818C5.85385 2.65955 5.89184 2.59756 5.90713 2.53009C5.92243 2.46261 5.91433 2.3927 5.88388 2.32923C5.85343 2.26577 5.802 2.21163 5.73612 2.17368C5.67024 2.13573 5.59289 2.11569 5.51391 2.11612C5.40891 2.11612 5.30822 2.15243 5.23398 2.21708C5.15974 2.28172 5.11803 2.3694 5.11803 2.46082Z" fill="#263238"/>
<path d="M4.52679 0.977673C5.39186 1.13726 5.64356 1.46919 5.7242 2.66502C5.80973 3.9183 5.66311 4.30982 5.47983 4.48004C5.35276 4.59281 4.64408 4.61409 4.2873 4.52685C3.84011 4.42046 2.82108 4.10129 2.35433 3.47997C1.79717 2.73737 1.65299 1.73517 2.24925 1.32238C3.08256 0.743613 4.17489 0.913838 4.52679 0.977673Z" fill="#FFA8A7"/>
<path d="M5.97581 2.36719L4.43872 2.54167L4.49981 2.63529L5.97581 2.46932V2.36719Z" fill="#263238"/>
<path d="M5.81938 1.36905L5.79494 1.39033C5.62633 1.52863 5.41372 1.61587 5.24022 1.74567C5.05048 1.89053 4.91369 2.08065 4.84678 2.29251C4.78814 2.46487 4.76614 2.67126 4.55109 2.75212C4.55109 2.75212 4.41425 2.28826 3.96461 2.34571C3.51497 2.40316 3.45388 2.90532 3.73734 3.2096C4.02081 3.51387 4.28718 3.39685 4.28718 3.39685C4.28718 3.39685 4.27251 4.05859 3.93773 4.43309C3.57822 4.5003 3.20553 4.49228 2.85028 4.40968C2.41774 4.32883 1.80437 3.85858 1.54778 3.35855C1.00284 2.29464 0.966183 1.35415 1.73839 1.06903C1.82148 0.583886 2.26135 0.364722 2.76231 0.264715C3.51252 0.115768 4.21387 0.50303 4.96164 0.358339C5.11804 0.32855 5.26954 0.279607 5.42594 0.262585C5.4433 0.257053 5.46235 0.257053 5.4797 0.262585C5.5188 0.279607 5.51636 0.326424 5.50414 0.360469C5.46496 0.490336 5.39035 0.610044 5.28665 0.709426C5.57093 0.723839 5.85583 0.692831 6.12729 0.617932C6.14213 0.755116 6.12226 0.893466 6.06906 1.02324C6.01586 1.15301 5.93063 1.27105 5.81938 1.36905Z" fill="#263238"/>
<path d="M1.72632 1.23272L1.20825 0.966741C1.22831 0.937122 1.25487 0.911227 1.28642 0.890546C1.31796 0.869865 1.35388 0.854797 1.39212 0.846202C1.43035 0.837607 1.47016 0.835655 1.50926 0.840455C1.54837 0.845255 1.586 0.856712 1.62002 0.874176C1.65403 0.89164 1.68377 0.914772 1.70752 0.942241C1.73127 0.969711 1.74858 1.00098 1.75845 1.03427C1.76832 1.06757 1.77056 1.10223 1.76505 1.13627C1.75953 1.17032 1.74637 1.2031 1.72632 1.23272Z" fill="#263238"/>
<path d="M4.56105 3.01629L4.54395 2.49072C4.61972 2.49448 4.69112 2.52287 4.74401 2.57026C4.79691 2.61766 4.82745 2.68061 4.8296 2.74667C4.83175 2.81273 4.80535 2.87709 4.75563 2.92702C4.7059 2.97694 4.63646 3.0088 4.56105 3.01629Z" fill="#263238"/>
</svg>
