<svg width="33" height="37" viewBox="0 0 33 37" fill="none" xmlns="http://www.w3.org/2000/svg">
<path d="M1.36205 15.567L31.5418 0.491507C31.9645 0.278726 32.3091 0.451078 32.3091 0.878767V20.3141C32.2936 20.5458 32.2162 20.7711 32.0829 20.9721C31.9497 21.173 31.7644 21.3441 31.5418 21.4717L1.36205 36.5472C0.936847 36.76 0.592285 36.5876 0.592285 36.162V16.7267C0.607695 16.4945 0.685346 16.2686 0.819017 16.0672C0.952689 15.8659 1.13867 15.6946 1.36205 15.567Z" fill="#33C7BB" fill-opacity="0.7"/>
<path opacity="0.9" d="M1.36205 15.567L31.5418 0.491507C31.9645 0.278726 32.3091 0.451078 32.3091 0.878767V20.3141C32.2936 20.5458 32.2162 20.7711 32.0829 20.9721C31.9497 21.173 31.7644 21.3441 31.5418 21.4717L1.36205 36.5472C0.936847 36.76 0.592285 36.5876 0.592285 36.162V16.7267C0.607695 16.4945 0.685346 16.2686 0.819017 16.0672C0.952689 15.8659 1.13867 15.6946 1.36205 15.567Z" fill="white"/>
<path opacity="0.3" d="M31.8839 0.612683C32.0403 0.612683 32.0647 0.778652 32.0647 0.878659V20.314C32.0507 20.5085 31.9852 20.6975 31.8733 20.8662C31.7613 21.0349 31.6061 21.1787 31.4196 21.2864L1.23987 36.3641C1.17298 36.4008 1.09644 36.422 1.01749 36.4258C0.861092 36.4258 0.836656 36.2598 0.836656 36.1619V16.7266C0.850485 16.5318 0.915928 16.3424 1.02785 16.1734C1.13978 16.0043 1.29515 15.8601 1.48179 15.752L31.664 0.676518C31.7293 0.638308 31.8053 0.616245 31.8839 0.612683ZM31.8839 0.399902C31.7627 0.403931 31.6447 0.435471 31.5418 0.491398L1.36205 15.5669C1.13867 15.6944 0.952689 15.8658 0.819017 16.0671C0.685346 16.2685 0.607695 16.4944 0.592285 16.7266V36.1619C0.592285 36.4641 0.765788 36.6386 1.01749 36.6386C1.13946 36.6343 1.25812 36.6028 1.36205 36.5471L31.5418 21.4716C31.7644 21.344 31.9497 21.1729 32.0829 20.972C32.2162 20.771 32.2936 20.5457 32.3091 20.314V0.878659C32.3091 0.574382 32.1356 0.399902 31.8839 0.399902Z" fill="#33C7BB" fill-opacity="0.7"/>
<g opacity="0.3">
<path d="M4.21387 32.5065C4.24317 30.9727 4.36635 29.4414 4.58287 27.919C4.80769 26.2636 5.26955 23.474 7.10232 22.5527C8.9351 21.6313 9.62178 23.2953 9.8857 24.1145C10.2303 25.1784 12.0215 24.506 12.2732 22.7527C12.5249 20.9994 12.6837 15.416 14.8293 14.3372C16.9749 13.2584 17.6713 15.865 17.9157 16.582C18.4045 18.0055 19.8071 17.614 20.2666 16.6693C20.726 15.7245 21.9771 15.4947 22.4537 16.8225C22.9302 18.1502 23.2234 19.6737 24.7581 18.8907C26.1046 18.2056 25.4912 16.9523 26.801 16.3607C27.8396 15.8905 28.321 18.1247 28.321 20.3866L4.21387 32.5065Z" fill="#33C7BB" fill-opacity="0.7"/>
<path d="M4.4314 21.4188C4.4314 21.6635 4.67577 21.7337 4.991 21.5784L8.03342 20.0527C8.18464 19.9786 8.31396 19.8748 8.41109 19.7496C8.50823 19.6244 8.57052 19.4812 8.59302 19.3314C8.59302 19.0867 8.34865 19.0165 8.03342 19.1718L4.991 20.6974C4.84014 20.7719 4.71112 20.8758 4.61404 21.001C4.51696 21.1261 4.45445 21.2691 4.4314 21.4188Z" fill="#33C7BB" fill-opacity="0.7"/>
<path d="M12.9453 13.5903C12.9453 13.8329 13.1897 13.9031 13.5074 13.7477L16.5473 12.2242C16.6987 12.1495 16.8282 12.0453 16.9257 11.9199C17.0232 11.7944 17.0861 11.6509 17.1094 11.5008C17.1094 11.2582 16.865 11.1859 16.5473 11.3412L13.5171 12.8668C13.3636 12.9402 13.2319 13.0438 13.1326 13.1694C13.0333 13.2951 12.9691 13.4392 12.9453 13.5903Z" fill="#33C7BB" fill-opacity="0.7"/>
<path d="M18.9299 14.6097C18.9299 14.8544 19.1743 14.9246 19.492 14.7693L22.532 13.2436C22.6834 13.1695 22.813 13.0658 22.9105 12.9406C23.0081 12.8154 23.0709 12.6722 23.094 12.5223C23.094 12.2776 22.8496 12.2074 22.532 12.3627L19.492 13.8884C19.3405 13.9625 19.2109 14.0662 19.1134 14.1914C19.0159 14.3166 18.9531 14.4598 18.9299 14.6097Z" fill="#33C7BB" fill-opacity="0.7"/>
<path d="M24.5259 15.7289C24.5259 15.9715 24.7702 16.0438 25.0855 15.8863L28.1279 14.3628C28.2794 14.2885 28.4089 14.1844 28.5061 14.0588C28.6032 13.9332 28.6654 13.7896 28.6875 13.6394C28.6875 13.3968 28.4431 13.3245 28.1279 13.4819L25.0855 15.0139C24.9355 15.0878 24.8071 15.1907 24.71 15.3147C24.613 15.4386 24.55 15.5803 24.5259 15.7289Z" fill="#33C7BB" fill-opacity="0.7"/>
</g>
<path d="M7.10217 22.8719C7.06976 22.8719 7.03868 22.8606 7.01577 22.8407C6.99285 22.8207 6.97998 22.7937 6.97998 22.7655V22.5527C6.97998 22.5245 6.99285 22.4974 7.01577 22.4775C7.03868 22.4575 7.06976 22.4463 7.10217 22.4463C7.13457 22.4463 7.16565 22.4575 7.18856 22.4775C7.21148 22.4974 7.22435 22.5245 7.22435 22.5527V22.7655C7.22373 22.7935 7.21065 22.8203 7.18787 22.8401C7.16509 22.8599 7.13438 22.8713 7.10217 22.8719Z" fill="white"/>
<path d="M7.10217 30.1766C7.06976 30.1766 7.03868 30.1654 7.01577 30.1454C6.99285 30.1255 6.97998 30.0984 6.97998 30.0702V29.6638C6.97998 29.6356 6.99285 29.6085 7.01577 29.5885C7.03868 29.5686 7.06976 29.5574 7.10217 29.5574C7.13438 29.5579 7.16509 29.5693 7.18787 29.5891C7.21065 29.609 7.22373 29.6357 7.22435 29.6638V30.0702C7.22435 30.0984 7.21148 30.1255 7.18856 30.1454C7.16565 30.1654 7.13457 30.1766 7.10217 30.1766ZM7.10217 28.9595C7.06976 28.9595 7.03868 28.9483 7.01577 28.9283C6.99285 28.9084 6.97998 28.8813 6.97998 28.8531V28.4467C6.97998 28.4184 6.99285 28.3914 7.01577 28.3714C7.03868 28.3515 7.06976 28.3403 7.10217 28.3403C7.13457 28.3403 7.16565 28.3515 7.18856 28.3714C7.21148 28.3914 7.22435 28.4184 7.22435 28.4467V28.8446C7.22534 28.8592 7.22293 28.8738 7.21727 28.8876C7.2116 28.9013 7.2028 28.914 7.19139 28.9247C7.17997 28.9354 7.16619 28.944 7.15085 28.95C7.13552 28.956 7.11896 28.9592 7.10217 28.9595ZM7.10217 27.7424C7.06976 27.7424 7.03868 27.7312 7.01577 27.7112C6.99285 27.6912 6.97998 27.6642 6.97998 27.636V27.2296C6.97998 27.2013 6.99285 27.1743 7.01577 27.1543C7.03868 27.1344 7.06976 27.1232 7.10217 27.1232C7.13457 27.1232 7.16565 27.1344 7.18856 27.1543C7.21148 27.1743 7.22435 27.2013 7.22435 27.2296V27.636C7.22373 27.664 7.21065 27.6908 7.18787 27.7106C7.16509 27.7304 7.13438 27.7418 7.10217 27.7424ZM7.10217 26.5231C7.06976 26.5231 7.03868 26.5119 7.01577 26.492C6.99285 26.472 6.97998 26.445 6.97998 26.4167V26.0125C6.97998 25.9842 6.99285 25.9572 7.01577 25.9372C7.03868 25.9173 7.06976 25.9061 7.10217 25.9061C7.13457 25.9061 7.16565 25.9173 7.18856 25.9372C7.21148 25.9572 7.22435 25.9842 7.22435 26.0125V26.4167C7.22435 26.445 7.21148 26.472 7.18856 26.492C7.16565 26.5119 7.13457 26.5231 7.10217 26.5231ZM7.10217 25.306C7.06976 25.306 7.03868 25.2948 7.01577 25.2749C6.99285 25.2549 6.97998 25.2278 6.97998 25.1996V24.8017C6.97998 24.7735 6.99285 24.7465 7.01577 24.7265C7.03868 24.7066 7.06976 24.6953 7.10217 24.6953C7.13438 24.6959 7.16509 24.7073 7.18787 24.7271C7.21065 24.7469 7.22373 24.7737 7.22435 24.8017V25.2081C7.22189 25.2349 7.20794 25.2598 7.18528 25.2779C7.16263 25.2961 7.13295 25.3061 7.10217 25.306ZM7.10217 24.0889C7.06976 24.0889 7.03868 24.0777 7.01577 24.0578C6.99285 24.0378 6.97998 24.0107 6.97998 23.9825V23.5761C6.97998 23.5479 6.99285 23.5208 7.01577 23.5009C7.03868 23.4809 7.06976 23.4697 7.10217 23.4697C7.13457 23.4697 7.16565 23.4809 7.18856 23.5009C7.21148 23.5208 7.22435 23.5479 7.22435 23.5761V23.9825C7.22373 24.0106 7.21065 24.0373 7.18787 24.0572C7.16509 24.077 7.13438 24.0884 7.10217 24.0889Z" fill="white"/>
<path d="M7.10217 31.2024C7.06976 31.2024 7.03868 31.1912 7.01577 31.1713C6.99285 31.1513 6.97998 31.1242 6.97998 31.096V30.8832C6.97998 30.855 6.99285 30.828 7.01577 30.808C7.03868 30.7881 7.06976 30.7769 7.10217 30.7769C7.13457 30.7769 7.16565 30.7881 7.18856 30.808C7.21148 30.828 7.22435 30.855 7.22435 30.8832V31.096C7.22373 31.1241 7.21065 31.1508 7.18787 31.1707C7.16509 31.1905 7.13438 31.2019 7.10217 31.2024Z" fill="white"/>
<path d="M21.2733 16.2908C21.2409 16.2908 21.2098 16.2796 21.1869 16.2596C21.164 16.2397 21.1511 16.2126 21.1511 16.1844V15.9716C21.1511 15.9434 21.164 15.9163 21.1869 15.8964C21.2098 15.8764 21.2409 15.8652 21.2733 15.8652C21.3057 15.8652 21.3368 15.8764 21.3597 15.8964C21.3826 15.9163 21.3955 15.9434 21.3955 15.9716V16.1844C21.3955 16.2126 21.3826 16.2397 21.3597 16.2596C21.3368 16.2796 21.3057 16.2908 21.2733 16.2908Z" fill="white"/>
<path d="M21.2733 22.9572C21.2409 22.9572 21.2098 22.946 21.1869 22.9261C21.164 22.9061 21.1511 22.8791 21.1511 22.8508V22.4061C21.1511 22.3779 21.164 22.3509 21.1869 22.3309C21.2098 22.311 21.2409 22.2997 21.2733 22.2997C21.3055 22.3003 21.3362 22.3117 21.359 22.3315C21.3818 22.3513 21.3949 22.3781 21.3955 22.4061V22.8508C21.3955 22.8791 21.3826 22.9061 21.3597 22.9261C21.3368 22.946 21.3057 22.9572 21.2733 22.9572ZM21.2733 21.6231C21.2409 21.6231 21.2098 21.6119 21.1869 21.5919C21.164 21.572 21.1511 21.5449 21.1511 21.5167V21.0741C21.1511 21.0459 21.164 21.0188 21.1869 20.9989C21.2098 20.9789 21.2409 20.9677 21.2733 20.9677C21.3057 20.9677 21.3368 20.9789 21.3597 20.9989C21.3826 21.0188 21.3955 21.0459 21.3955 21.0741V21.5167C21.3955 21.5449 21.3826 21.572 21.3597 21.5919C21.3368 21.6119 21.3057 21.6231 21.2733 21.6231ZM21.2733 20.2911C21.2409 20.2911 21.2098 20.2799 21.1869 20.2599C21.164 20.24 21.1511 20.2129 21.1511 20.1847V19.74C21.1511 19.7118 21.164 19.6847 21.1869 19.6648C21.2098 19.6448 21.2409 19.6336 21.2733 19.6336C21.3057 19.6336 21.3368 19.6448 21.3597 19.6648C21.3826 19.6847 21.3955 19.7118 21.3955 19.74V20.1847C21.3949 20.2127 21.3818 20.2395 21.359 20.2593C21.3362 20.2792 21.3055 20.2905 21.2733 20.2911ZM21.2733 18.957C21.2409 18.957 21.2098 18.9458 21.1869 18.9258C21.164 18.9058 21.1511 18.8788 21.1511 18.8506V18.4059C21.1511 18.3776 21.164 18.3506 21.1869 18.3306C21.2098 18.3107 21.2409 18.2995 21.2733 18.2995C21.3057 18.2995 21.3368 18.3107 21.3597 18.3306C21.3826 18.3506 21.3955 18.3776 21.3955 18.4059V18.8442C21.3961 18.8586 21.3935 18.873 21.3877 18.8865C21.3819 18.9001 21.373 18.9124 21.3616 18.9229C21.3502 18.9334 21.3366 18.9418 21.3214 18.9477C21.3062 18.9535 21.2899 18.9567 21.2733 18.957ZM21.2733 17.6228C21.2409 17.6228 21.2098 17.6116 21.1869 17.5917C21.164 17.5717 21.1511 17.5446 21.1511 17.5164V17.0717C21.1511 17.0435 21.164 17.0164 21.1869 16.9965C21.2098 16.9765 21.2409 16.9653 21.2733 16.9653C21.3057 16.9653 21.3368 16.9765 21.3597 16.9965C21.3826 17.0164 21.3955 17.0435 21.3955 17.0717V17.5164C21.3955 17.5446 21.3826 17.5717 21.3597 17.5917C21.3368 17.6116 21.3057 17.6228 21.2733 17.6228Z" fill="white"/>
<path d="M21.2733 24.0594C21.2409 24.0594 21.2098 24.0481 21.1869 24.0282C21.164 24.0082 21.1511 23.9812 21.1511 23.953V23.7402C21.1511 23.712 21.164 23.6849 21.1869 23.665C21.2098 23.645 21.2409 23.6338 21.2733 23.6338C21.3055 23.6343 21.3362 23.6457 21.359 23.6656C21.3818 23.6854 21.3949 23.7121 21.3955 23.7402V23.953C21.3955 23.9812 21.3826 24.0082 21.3597 24.0282C21.3368 24.0481 21.3057 24.0594 21.2733 24.0594Z" fill="white"/>
<path d="M26.8058 16.68C26.7736 16.6794 26.7429 16.668 26.7201 16.6482C26.6973 16.6284 26.6842 16.6016 26.6836 16.5736V16.3608C26.6836 16.3326 26.6965 16.3055 26.7194 16.2856C26.7423 16.2656 26.7734 16.2544 26.8058 16.2544C26.8382 16.2544 26.8693 16.2656 26.8922 16.2856C26.9151 16.3055 26.928 16.3326 26.928 16.3608V16.5736C26.928 16.6018 26.9151 16.6288 26.8922 16.6488C26.8693 16.6687 26.8382 16.68 26.8058 16.68Z" fill="white"/>
<path d="M26.8131 20.2629C26.7807 20.2629 26.7496 20.2517 26.7267 20.2317C26.7038 20.2118 26.6909 20.1847 26.6909 20.1565V19.7586C26.6909 19.7304 26.7038 19.7033 26.7267 19.6834C26.7496 19.6634 26.7807 19.6522 26.8131 19.6522C26.8455 19.6522 26.8766 19.6634 26.8995 19.6834C26.9224 19.7033 26.9353 19.7304 26.9353 19.7586V20.1565C26.9353 20.1847 26.9224 20.2118 26.8995 20.2317C26.8766 20.2517 26.8455 20.2629 26.8131 20.2629ZM26.8131 19.0692C26.7809 19.0687 26.7502 19.0573 26.7274 19.0374C26.7046 19.0176 26.6915 18.9909 26.6909 18.9628V18.5649C26.6909 18.5367 26.7038 18.5096 26.7267 18.4897C26.7496 18.4697 26.7807 18.4585 26.8131 18.4585C26.829 18.4582 26.8449 18.4607 26.8597 18.4658C26.8745 18.471 26.888 18.4786 26.8994 18.4883C26.9107 18.498 26.9198 18.5096 26.9259 18.5224C26.9321 18.5352 26.9353 18.5489 26.9353 18.5628V18.9628C26.9353 18.991 26.9224 19.0181 26.8995 19.038C26.8766 19.058 26.8455 19.0692 26.8131 19.0692ZM26.8131 17.8734C26.7807 17.8734 26.7496 17.8622 26.7267 17.8422C26.7038 17.8223 26.6909 17.7952 26.6909 17.767V17.3691C26.6915 17.341 26.7046 17.3143 26.7274 17.2945C26.7502 17.2746 26.7809 17.2632 26.8131 17.2627C26.8455 17.2627 26.8766 17.2739 26.8995 17.2939C26.9224 17.3138 26.9353 17.3409 26.9353 17.3691V17.767C26.9353 17.7952 26.9224 17.8223 26.8995 17.8422C26.8766 17.8622 26.8455 17.8734 26.8131 17.8734Z" fill="white"/>
<path d="M26.8155 21.2737C26.7833 21.2732 26.7526 21.2618 26.7298 21.2419C26.7071 21.2221 26.694 21.1954 26.6934 21.1673V20.9545C26.6934 20.9263 26.7062 20.8993 26.7291 20.8793C26.7521 20.8594 26.7831 20.8481 26.8155 20.8481C26.8472 20.8501 26.877 20.862 26.8994 20.8815C26.9219 20.901 26.9355 20.927 26.9377 20.9545V21.1673C26.9377 21.1955 26.9249 21.2226 26.9019 21.2425C26.879 21.2625 26.848 21.2737 26.8155 21.2737Z" fill="white"/>
<path d="M15.3155 14.4671C15.2831 14.4671 15.2521 14.4559 15.2291 14.4359C15.2062 14.416 15.1934 14.3889 15.1934 14.3607V14.1479C15.194 14.1198 15.2071 14.0931 15.2298 14.0733C15.2526 14.0534 15.2833 14.042 15.3155 14.0415C15.348 14.0415 15.379 14.0527 15.4019 14.0727C15.4249 14.0926 15.4377 14.1197 15.4377 14.1479V14.3607C15.4377 14.3889 15.4249 14.416 15.4019 14.4359C15.379 14.4559 15.348 14.4671 15.3155 14.4671Z" fill="white"/>
<path d="M15.3155 25.9871C15.2831 25.9871 15.2521 25.9759 15.2291 25.9559C15.2062 25.936 15.1934 25.9089 15.1934 25.8807V25.4551C15.1934 25.4269 15.2062 25.3998 15.2291 25.3799C15.2521 25.3599 15.2831 25.3487 15.3155 25.3487C15.348 25.3487 15.379 25.3599 15.4019 25.3799C15.4249 25.3998 15.4377 25.4269 15.4377 25.4551V25.8807C15.4377 25.9089 15.4249 25.936 15.4019 25.9559C15.379 25.9759 15.348 25.9871 15.3155 25.9871ZM15.3155 24.7104C15.2833 24.7098 15.2526 24.6985 15.2298 24.6786C15.2071 24.6588 15.194 24.632 15.1934 24.604V24.1784C15.194 24.1504 15.2071 24.1236 15.2298 24.1038C15.2526 24.084 15.2833 24.0726 15.3155 24.072C15.348 24.072 15.379 24.0832 15.4019 24.1032C15.4249 24.1232 15.4377 24.1502 15.4377 24.1784V24.604C15.4371 24.6318 15.4239 24.6584 15.4011 24.6778C15.3782 24.6973 15.3475 24.7083 15.3155 24.7083V24.7104ZM15.3155 23.4337C15.2831 23.4337 15.2521 23.4225 15.2291 23.4025C15.2062 23.3826 15.1934 23.3555 15.1934 23.3273V22.9017C15.1934 22.8735 15.2062 22.8465 15.2291 22.8265C15.2521 22.8066 15.2831 22.7954 15.3155 22.7954C15.348 22.7954 15.379 22.8066 15.4019 22.8265C15.4249 22.8465 15.4377 22.8735 15.4377 22.9017V23.3273C15.4359 23.3544 15.4222 23.3798 15.3994 23.3984C15.3767 23.417 15.3467 23.4274 15.3155 23.4273V23.4337ZM15.3155 22.157C15.2833 22.1565 15.2526 22.1451 15.2298 22.1252C15.2071 22.1054 15.194 22.0787 15.1934 22.0506V21.6251C15.194 21.597 15.2071 21.5703 15.2298 21.5504C15.2526 21.5306 15.2833 21.5192 15.3155 21.5187C15.348 21.5187 15.379 21.5299 15.4019 21.5498C15.4249 21.5698 15.4377 21.5968 15.4377 21.6251V22.0506C15.4353 22.0773 15.4213 22.1023 15.3987 22.1204C15.376 22.1386 15.3463 22.1486 15.3155 22.1485V22.157ZM15.3155 20.8803C15.2831 20.8803 15.2521 20.8691 15.2291 20.8492C15.2062 20.8292 15.1934 20.8022 15.1934 20.7739V20.3484C15.1934 20.3202 15.2062 20.2931 15.2291 20.2731C15.2521 20.2532 15.2831 20.242 15.3155 20.242C15.348 20.242 15.379 20.2532 15.4019 20.2731C15.4249 20.2931 15.4377 20.3202 15.4377 20.3484V20.7739C15.4341 20.7999 15.4197 20.8238 15.3971 20.841C15.3746 20.8583 15.3456 20.8677 15.3155 20.8676V20.8803ZM15.3155 19.6036C15.2833 19.6031 15.2526 19.5917 15.2298 19.5719C15.2071 19.552 15.194 19.5253 15.1934 19.4973V19.0717C15.1934 19.0435 15.2062 19.0164 15.2291 18.9965C15.2521 18.9765 15.2831 18.9653 15.3155 18.9653C15.348 18.9653 15.379 18.9765 15.4019 18.9965C15.4249 19.0164 15.4377 19.0435 15.4377 19.0717V19.4973C15.4336 19.5228 15.4189 19.5462 15.3964 19.563C15.3739 19.5799 15.3452 19.589 15.3155 19.5888V19.6036ZM15.3155 18.327C15.2831 18.327 15.2521 18.3158 15.2291 18.2958C15.2062 18.2758 15.1934 18.2488 15.1934 18.2206V17.795C15.194 17.767 15.2071 17.7402 15.2298 17.7204C15.2526 17.7005 15.2833 17.6892 15.3155 17.6886C15.348 17.6886 15.379 17.6998 15.4019 17.7198C15.4249 17.7397 15.4377 17.7668 15.4377 17.795V18.2206C15.4325 18.2454 15.4174 18.2677 15.395 18.2837C15.3726 18.2997 15.3445 18.3082 15.3155 18.3078V18.327ZM15.3155 17.0503C15.2831 17.0503 15.2521 17.0391 15.2291 17.0191C15.2062 16.9992 15.1934 16.9721 15.1934 16.9439V16.5183C15.1934 16.4901 15.2062 16.463 15.2291 16.4431C15.2521 16.4231 15.2831 16.4119 15.3155 16.4119C15.348 16.4119 15.379 16.4231 15.4019 16.4431C15.4249 16.463 15.4377 16.4901 15.4377 16.5183V16.9439C15.4315 16.9679 15.416 16.9893 15.3937 17.0044C15.3714 17.0195 15.3438 17.0275 15.3155 17.0269V17.0503ZM15.3155 15.7736C15.2833 15.7731 15.2526 15.7617 15.2298 15.7418C15.2071 15.722 15.194 15.6953 15.1934 15.6672V15.2416C15.194 15.2136 15.2071 15.1869 15.2298 15.167C15.2526 15.1472 15.2833 15.1358 15.3155 15.1353C15.348 15.1353 15.379 15.1465 15.4019 15.1664C15.4249 15.1864 15.4377 15.2134 15.4377 15.2416V15.6672C15.431 15.6908 15.4153 15.7117 15.393 15.7264C15.3708 15.7411 15.3435 15.7488 15.3155 15.7481V15.7736Z" fill="white"/>
<path d="M15.3155 27.053C15.2831 27.053 15.2521 27.0418 15.2291 27.0218C15.2062 27.0019 15.1934 26.9748 15.1934 26.9466V26.7338C15.194 26.7058 15.2071 26.679 15.2298 26.6592C15.2526 26.6394 15.2833 26.628 15.3155 26.6274C15.348 26.6274 15.379 26.6386 15.4019 26.6586C15.4249 26.6786 15.4377 26.7056 15.4377 26.7338V26.9466C15.4377 26.9748 15.4249 27.0019 15.4019 27.0218C15.379 27.0418 15.348 27.053 15.3155 27.053Z" fill="white"/>
</svg>
