<svg width="115" height="58" viewBox="0 0 115 58" fill="none" xmlns="http://www.w3.org/2000/svg">
<path d="M57.4564 58.0015C89.1886 58.0015 114.913 45.0702 114.913 29.1187C114.913 13.1671 89.1886 0.23584 57.4564 0.23584C25.7241 0.23584 0 13.1671 0 29.1187C0 45.0702 25.7241 58.0015 57.4564 58.0015Z" fill="#455A64"/>
<path d="M10.2171 34.1617L18.5966 29.9486L18.4744 29.7656L10.1634 33.9489H6.46606L1.79858 36.2895C1.83035 36.3533 1.86212 36.4193 1.89633 36.4852L6.53937 34.1553L10.2171 34.1617Z" fill="#33C7BB" fill-opacity="0.7"/>
<path d="M12.7072 38.3194L12.585 38.1343L6.96446 40.9558H5.03149L5.2221 41.1685H7.03533L12.7072 38.3194Z" fill="#33C7BB" fill-opacity="0.7"/>
<path d="M18.5869 32.6593L18.4721 32.4849L4.01514 39.7386C4.06157 39.7981 4.10555 39.8577 4.15198 39.9152L18.5869 32.6593Z" fill="#33C7BB" fill-opacity="0.7"/>
<path d="M60.1639 8.15977L73.6165 1.39761L73.2353 1.34229L60.0393 7.97466L60.1639 8.15977Z" fill="#33C7BB" fill-opacity="0.7"/>
<path d="M69.3132 0.85537L68.91 0.814941L65.9214 2.31717L66.0436 2.50016L69.3132 0.85537Z" fill="#33C7BB" fill-opacity="0.7"/>
<path d="M42.2908 4.06605L38.1756 6.13428C37.9227 6.07395 37.6545 6.08361 37.4083 6.16194L31.6998 3.29366L31.3772 3.37664L37.1786 6.29173C37.1505 6.31386 37.1279 6.34065 37.1119 6.37052C37.096 6.40039 37.0871 6.43273 37.0857 6.46565C37.0843 6.49857 37.0905 6.53139 37.104 6.56218C37.1174 6.59298 37.1378 6.62112 37.1639 6.64495L33.8429 8.31315L39.1506 10.9814L39.2728 10.7984L34.3316 8.31315L37.3838 6.779C37.6454 6.87118 37.9355 6.88171 38.2049 6.80879L42.8284 9.13236L42.9506 8.94936L38.4639 6.69389C38.507 6.6691 38.5419 6.63508 38.5655 6.59511C38.589 6.55515 38.6004 6.51057 38.5984 6.46569C38.5964 6.4208 38.5812 6.37711 38.5543 6.33882C38.5273 6.30053 38.4894 6.26892 38.4444 6.24705L42.7795 4.06605L38.398 1.86377L38.0412 1.92973L42.2908 4.06605Z" fill="#33C7BB" fill-opacity="0.7"/>
<path d="M48.4269 3.75975V0.595703L48.1826 0.614853V3.62995L42.281 6.60888C42.1289 6.56269 41.9676 6.54359 41.8068 6.55273C41.6461 6.56187 41.489 6.59906 41.3451 6.66208C41.2801 6.68112 41.2236 6.71745 41.1836 6.76593C41.1436 6.81441 41.1221 6.87261 41.1221 6.93231C41.1221 6.99201 41.1436 7.05021 41.1836 7.09869C41.2236 7.14717 41.2801 7.18349 41.3451 7.20254C41.5117 7.27601 41.6959 7.3143 41.8827 7.3143C42.0695 7.3143 42.2537 7.27601 42.4203 7.20254C42.6647 7.07274 42.7087 6.87699 42.5254 6.73017L48.3658 3.7938L48.4269 3.75975Z" fill="#33C7BB" fill-opacity="0.7"/>
<path d="M106.526 44.1539L106.709 44.0007L103.696 42.4857V39.211L77.502 26.042L77.3945 25.8803L77.287 25.9335L77.1795 25.8803L77.1526 25.8654H71.1802L77.2894 22.795L110.927 39.7068L111.064 39.5302L77.7073 22.7609C78.7434 22.729 81.4242 22.7609 83.1885 22.8035H83.2301L83.6406 22.5907L112.645 37.1704C112.682 37.1066 112.718 37.0428 112.752 36.9789L83.8777 22.4843L85.989 21.4204L86.3849 21.6204L86.4045 21.6311L106.445 31.653C106.267 31.7999 106.301 31.9935 106.555 32.1212C106.721 32.1946 106.905 32.2329 107.092 32.2329C107.278 32.2329 107.462 32.1946 107.628 32.1212C107.693 32.1021 107.749 32.0658 107.789 32.0173C107.83 31.9688 107.851 31.9106 107.851 31.8509C107.851 31.7912 107.83 31.733 107.789 31.6845C107.749 31.6361 107.693 31.5997 107.628 31.5807C107.483 31.5175 107.325 31.4805 107.164 31.4717C107.002 31.4629 106.84 31.4826 106.687 31.5296L86.8956 21.6332H92.5968V21.6481L92.6261 21.6332H95.8885L112.506 29.9806V34.7022L113.6 35.2533C113.63 35.1852 113.657 35.1171 113.684 35.0405L112.75 34.5703V29.8529L106.641 26.7782L107.643 26.2761V23.8993L112.774 21.3183C112.74 21.2544 112.704 21.1906 112.667 21.1268L107.457 23.7461L107.396 23.7759V26.1527L106.394 26.6569L101.902 24.3993V22.5971L106.201 20.4374L106.262 20.4055V16.9286L108.476 15.8136L108.31 15.6519L96.4065 21.6332L96.0033 21.4311L95.974 21.4162H93.0684L106.949 14.4391L106.765 14.2859L92.5797 21.4204H86.4704L86.2261 21.297L93.738 17.5244L93.6158 17.3393L86.0012 21.1693L82.2233 19.2713H82.541L92.8265 14.0986H97.6431C97.686 14.1681 97.7514 14.2251 97.8312 14.2625C97.9979 14.336 98.182 14.3742 98.3688 14.3742C98.5556 14.3742 98.7398 14.336 98.9064 14.2625C99.1508 14.1348 99.1948 13.939 99.0115 13.7922L103.246 11.6644L103.036 11.524L98.7671 13.6688C98.615 13.6227 98.4538 13.6037 98.293 13.6129C98.1322 13.622 97.9752 13.6591 97.8312 13.722C97.7523 13.7604 97.6872 13.8171 97.6431 13.8859H92.7605L82.4725 19.0585H81.7883L77.5314 16.918L89.3589 10.9729H96.3723L99.4636 9.41746L99.2192 9.29192L96.2868 10.7601H89.2734L77.265 16.7946L73.6996 14.9923L88.6062 7.50243C88.8717 7.58491 89.1618 7.58491 89.4273 7.50243L93.3519 9.47491L96.4505 7.91736L96.2062 7.80033L93.3617 9.23022L89.6644 7.37689C89.6968 7.35257 89.7227 7.32225 89.74 7.28813C89.7574 7.25402 89.7658 7.21696 89.7646 7.17967C89.7634 7.14238 89.7527 7.10578 89.7333 7.07254C89.7138 7.0393 89.6861 7.01025 89.6521 6.98751L91.7268 5.94488L91.4483 5.83849L89.4078 6.86409C89.155 6.79386 88.8834 6.79386 88.6307 6.86409L84.4764 4.77033L85.9279 4.0405C85.8253 4.01071 85.7227 3.97879 85.6176 3.95113L84.232 4.64692L82.4408 3.74686C82.6069 3.60217 82.5678 3.41279 82.321 3.28938C82.1547 3.2149 81.9704 3.17605 81.7834 3.17605C81.5964 3.17605 81.4121 3.2149 81.2458 3.28938C81.0014 3.41705 80.9574 3.61281 81.1407 3.75962L66.2341 11.2495L65.3104 10.7814L65.2811 10.7686H60.3766L68.475 6.696H72.1625L80.2805 2.61486L79.936 2.54252L72.0966 6.48322H68.409L60.032 10.6963L60.0784 10.7686H58.2677L53.869 8.55144L62.0383 4.44478L62.0994 4.41499V0.331728H61.855V4.29158L53.6246 8.42803L52.8671 8.04715L52.7449 8.23227L53.3802 8.55144L49.507 10.4899L48.747 10.1069L48.6248 10.292L49.2626 10.6112L45.0863 12.7113L45.0252 12.7411V12.8773L44.1308 12.4283L44.0086 12.6113L45.0252 13.1241V15.02L42.9334 13.9561L42.8112 14.1412L45.0252 15.254V15.5179L41.5772 17.252L38.4639 15.686L38.3417 15.869L41.323 17.3776L37.9018 19.1032L34.7861 17.5393L34.6639 17.7223L37.6575 19.2266L22.9488 26.6208H17.4285L7.47527 31.6339V28.4422L56.7917 3.65536L56.8527 3.62557V0.240234H56.6084V3.50216L18.0638 22.8801H10.4077L0.0415223 28.0953C0.0415223 28.1805 0.0268601 28.2656 0.0219727 28.3507L10.4835 23.0929H17.6411L7.29199 28.2954L7.2309 28.3251V31.7552L1.12164 34.8256L1.20473 35.0384L17.4945 26.8399H23.005L37.892 19.3564L39.6026 20.2076L35.4826 22.2801C35.3258 22.2261 35.1578 22.2014 34.9894 22.2076C34.821 22.2139 34.656 22.2509 34.5051 22.3162C34.4401 22.3353 34.3836 22.3716 34.3436 22.4201C34.3036 22.4686 34.2821 22.5268 34.2821 22.5865C34.2821 22.6462 34.3036 22.7043 34.3436 22.7528C34.3836 22.8013 34.4401 22.8376 34.5051 22.8567C34.6497 22.9191 34.8071 22.9559 34.9682 22.965C35.1292 22.9742 35.2908 22.9554 35.4435 22.9099L36.4698 23.4269L33.4445 24.9483L33.3834 24.9781V27.7655L16.6001 36.2002L16.539 36.2299V40.3387L12.7634 42.2367C12.6113 42.1905 12.4501 42.1715 12.2893 42.1806C12.1285 42.1897 11.9715 42.2269 11.8275 42.2899C11.7477 42.3273 11.6822 42.3843 11.6393 42.4538H6.47579C6.54911 42.524 6.62242 42.5963 6.69817 42.6666H11.6296C11.6493 42.702 11.6767 42.7337 11.7102 42.7602L8.59937 44.3305L8.78754 44.4816L11.9644 42.8836C12.1165 42.9298 12.2777 42.9489 12.4385 42.9397C12.5993 42.9306 12.7563 42.8934 12.9003 42.8304C13.1447 42.7027 13.1911 42.507 13.0078 42.3602L16.7222 40.4919L16.7833 40.4621V36.3534L33.552 27.923L33.6131 27.8932V25.1058L36.6995 23.5482L42.6206 26.5271L21.8491 36.9747L21.788 37.0045V41.5133L11.6931 46.586L11.9033 46.7264L21.9591 41.6729L22.0202 41.641V37.1321L42.865 26.6527L45.5213 27.989L41.8777 29.821L41.8166 29.8529V34.5724L16.8053 47.1456L21.1429 49.3266C21.0978 49.3482 21.0599 49.3796 21.0329 49.4177C21.0059 49.4558 20.9906 49.4994 20.9886 49.5441C20.9867 49.5889 20.998 49.6333 21.0217 49.6732C21.0453 49.713 21.0803 49.7468 21.1234 49.7713L19.2735 50.7012L19.5349 50.8161L21.3824 49.8883C21.6511 49.9607 21.9402 49.9502 22.201 49.8585L25.2532 51.3927L23.33 52.3608L23.611 52.4651L25.742 51.4012L22.4234 49.7202C22.4498 49.6965 22.4705 49.6684 22.4841 49.6376C22.4977 49.6068 22.504 49.5739 22.5027 49.5409C22.5013 49.5079 22.4923 49.4755 22.4761 49.4456C22.46 49.4157 22.4371 49.389 22.4087 49.367L29.0947 46.0072L29.1558 45.9753V43.6028L52.8597 31.6871L55.9852 33.2595L34.7055 43.956L34.6444 43.9858V47.1775L30.3581 49.333L30.297 49.3628V52.8417L28.0684 53.961L28.3738 54.0524L51.0514 42.6517L51.1125 42.6219V39.3344L59.597 35.0682L59.8243 35.1831V39.9047L63.1942 41.6069L59.0594 43.6858H56.1563L33.0755 55.2908L33.4079 55.3674L56.2223 43.8986H59.1352L63.4483 41.7303L66.5714 43.3006L59.2818 46.9541C59.0496 46.986 56.7721 47.003 55.5796 47.003H55.5478L37.2811 56.1632L37.6403 56.2271L55.6113 47.2158C56.1001 47.2158 59.2525 47.2158 59.3893 47.1456L66.8255 43.407L69.9534 44.9795L59.0081 50.482H54.4579L47.0633 54.2354H45.079L40.2209 56.6782L40.5948 56.7356L45.1498 54.4482H47.1341L54.519 50.7012H59.0619L70.1856 45.1093L76.1971 48.1308H68.3968L57.9695 53.3716C57.817 53.3266 57.6558 53.3084 57.4952 53.3179C57.3346 53.3274 57.1777 53.3644 57.0336 53.4269C56.9695 53.4464 56.9139 53.4828 56.8746 53.531C56.8353 53.5792 56.8141 53.6369 56.8141 53.696C56.8141 53.7552 56.8353 53.8129 56.8746 53.8611C56.9139 53.9093 56.9695 53.9457 57.0336 53.9652C57.1999 54.0397 57.3842 54.0785 57.5712 54.0785C57.7582 54.0785 57.9425 54.0397 58.1088 53.9652C58.3532 53.8375 58.3972 53.6418 58.2139 53.495L68.4628 48.3435H83.2716L75.9943 52.0012H68.3479L57.5077 57.4506L57.6298 57.6335L68.4139 52.214H75.5715L65.22 57.4165L65.3422 57.6016L83.7604 48.3435H86.1137L87.4308 49.0053L83.5013 50.9799C83.3492 50.9337 83.1879 50.9146 83.0272 50.9238C82.8664 50.9329 82.7093 50.9701 82.5654 51.0331C82.5004 51.0521 82.4439 51.0885 82.4039 51.1369C82.3639 51.1854 82.3424 51.2436 82.3424 51.3033C82.3424 51.363 82.3639 51.4212 82.4039 51.4697C82.4439 51.5182 82.5004 51.5545 82.5654 51.5736C82.7316 51.647 82.9154 51.6853 83.1018 51.6853C83.2882 51.6853 83.472 51.647 83.6382 51.5736C83.8948 51.4459 83.929 51.2501 83.7457 51.1033L87.6752 49.1287L93.0049 51.8097L93.2761 51.7012L86.2016 48.1435H86.1821L68.8122 39.4302C68.9931 39.2834 68.9589 39.0876 68.7047 38.9599C68.5385 38.8865 68.3547 38.8482 68.1683 38.8482C67.9819 38.8482 67.7981 38.8865 67.6319 38.9599C67.5669 38.979 67.5105 39.0153 67.4705 39.0638C67.4304 39.1123 67.4089 39.1705 67.4089 39.2302C67.4089 39.2899 67.4304 39.348 67.4705 39.3965C67.5105 39.445 67.5669 39.4813 67.6319 39.5004C67.7759 39.5634 67.9329 39.6006 68.0937 39.6097C68.2545 39.6189 68.4157 39.5998 68.5679 39.5536L85.6958 48.1308H76.6858L60.0687 39.7813V35.0618L59.8414 34.9469L62.0016 33.8596L95.4804 50.6863L95.5072 50.7012H95.6319L96.1035 50.4884H95.5732L62.2558 33.7362L65.3837 32.1637L95.1969 47.152C95.4413 47.2754 99.4343 47.2052 101.177 47.1669L101.807 47.4839L102.029 47.3499L101.24 46.9541H101.206C99.0653 47.0009 95.5708 47.0435 95.3191 46.969L65.6354 32.0424L68.365 30.67C68.4019 30.7032 68.4439 30.7318 68.4897 30.7551C68.6336 30.8181 68.7906 30.8553 68.9514 30.8644C69.1122 30.8736 69.2735 30.8545 69.4256 30.8083L95.4193 43.8773L95.4486 43.89H101.751L104.852 45.4646L105.047 45.3178L101.836 43.7028L101.807 43.6879H95.5072L72.1968 31.9701H79.1882L92.8852 38.8557C92.7019 39.0025 92.7385 39.1982 92.9927 39.3259C93.1589 39.3994 93.3427 39.4376 93.5291 39.4376C93.7155 39.4376 93.8992 39.3994 94.0655 39.3259C94.1296 39.3064 94.1852 39.27 94.2245 39.2218C94.2638 39.1736 94.2849 39.1159 94.2849 39.0567C94.2849 38.9976 94.2638 38.9399 94.2245 38.8917C94.1852 38.8435 94.1296 38.8071 94.0655 38.7876C93.9219 38.7237 93.7649 38.6859 93.604 38.6764C93.4431 38.6669 93.2817 38.6859 93.1295 38.7322L79.2835 31.7616L79.2542 31.7467H71.774L69.6626 30.6828C69.8459 30.5359 69.8093 30.3402 69.5551 30.2125C69.5013 30.1872 69.4449 30.1666 69.3865 30.1508L77.287 26.1782L103.452 39.3323V42.607L106.526 44.1539ZM101.658 24.2717L100.111 23.4929L101.658 22.7162V24.2717ZM106.008 17.052V20.2842L99.8668 23.3716L96.6509 21.7545L106.008 17.052ZM70.7672 25.8271L67.6393 24.2547L70.9358 22.5971L71.3195 22.7886L71.3488 22.8035H71.383C73.1522 22.7652 75.8428 22.729 76.8667 22.7588L70.7672 25.8271ZM51.5572 22.0354L47.1586 24.2419V23.7759L41.6993 21.0332L48.2973 17.7095V20.4055L51.5572 22.0354ZM49.0964 17.3201L55.0175 20.2991L51.8041 21.9162L48.5637 20.2884V17.5904L49.0964 17.3201ZM48.5637 17.3414V17.052L48.8521 17.1967L48.5637 17.3414ZM53.2874 25.4271C53.1715 25.3722 53.0446 25.3376 52.9135 25.3249V24.5206L54.7047 23.6206L61.5618 27.0676L58.6293 28.5358L53.3998 25.8888C53.5806 25.7462 53.5464 25.5505 53.2923 25.4228L53.2874 25.4271ZM61.5056 21.4204H58.6024L58.1675 21.6332L55.5112 20.2969L57.3977 19.3501L61.5056 21.4204ZM57.6421 19.2309L60.5745 17.7627H61.3223L68.3528 21.297L68.1084 21.4204H61.9992L57.6421 19.2309ZM57.9231 21.7609L54.7096 23.378L52.0533 22.0417L55.2668 20.4246L57.9231 21.7609ZM54.4652 23.4993L52.9282 24.2717V22.7162L54.4652 23.4993ZM54.954 23.4993L58.1675 21.8843L65.0269 25.3313L61.811 26.9463L54.954 23.4993ZM58.4118 21.7609L58.6562 21.6332H61.921L67.1456 24.261L65.2615 25.2079L58.4118 21.7609ZM62.4171 21.6332H68.1622L68.5874 21.4204L70.6963 22.4843L67.3998 24.1419L62.4171 21.6332ZM68.8318 21.297L72.8517 19.2756H77.006L77.0353 19.2905L70.926 22.3566L68.8318 21.297ZM68.5874 21.1736L61.7988 17.7691H68.2111L68.6241 17.5563L72.0184 19.2586L72.0453 19.2735H72.3629L68.5874 21.1736ZM68.6241 17.3095L65.044 15.5094L69.6382 13.2007L73.2109 14.9923L68.6241 17.3095ZM68.3797 17.4308L68.1353 17.5499H61.3663L61.1732 17.4521L64.7899 15.6328L68.3797 17.4308ZM57.3977 19.1096L51.4766 16.1307L55.4965 14.1071C55.5403 14.1737 55.6046 14.2283 55.6822 14.2646C55.8484 14.3381 56.0322 14.3763 56.2186 14.3763C56.405 14.3763 56.5888 14.3381 56.755 14.2646C56.836 14.2279 56.9024 14.1708 56.9456 14.1008H61.7597L64.5553 15.5072L57.3977 19.1096ZM57.1533 19.2309L55.2668 20.1799L49.3457 17.201L51.2322 16.252L57.1533 19.2309ZM47.1732 24.493L51.8163 22.1524L52.6838 22.5886V24.3993L48.1825 26.6612L47.183 26.1569L47.1732 24.493ZM52.674 24.6462V25.3207C52.5145 25.3276 52.3585 25.3646 52.217 25.4292C52.1521 25.4482 52.0956 25.4846 52.0556 25.5331C52.0156 25.5815 51.994 25.6397 51.994 25.6994C51.994 25.7591 52.0156 25.8173 52.0556 25.8658C52.0956 25.9143 52.1521 25.9506 52.217 25.9697C52.3617 26.0321 52.5191 26.0689 52.6801 26.078C52.8412 26.0871 53.0027 26.0684 53.1554 26.0229L58.4021 28.655L55.2766 30.2274L48.4171 26.7782L52.674 24.6462ZM58.6464 28.7847L61.7744 30.3572L58.6464 31.9297L55.5209 30.3572L58.6464 28.7847ZM58.8908 28.6613L61.8232 27.1932L63.2162 27.8932L63.3383 27.7081L62.0676 27.0697L65.2835 25.4547L68.409 27.0251L62.031 30.2338L58.8908 28.6613ZM65.5157 25.3313L67.3998 24.3844L70.5277 25.9548L68.6412 26.9038L65.5157 25.3313ZM83.1592 22.5971C81.539 22.5609 77.981 22.4971 77.2943 22.5971C76.6028 22.5056 73.0447 22.5694 71.4294 22.5971L71.1997 22.4801L77.309 19.4118L83.4182 22.4801L83.1592 22.5971ZM85.7447 21.297L83.6333 22.3609L77.524 19.2947L77.5558 19.2798H81.7101L85.7447 21.297ZM77.287 17.0414L81.2996 19.0585H77.4972L77.287 19.1628L77.1062 19.0713L77.0793 19.0585H73.2769L77.287 17.0414ZM77.0426 16.918L72.7881 19.0585H72.1112L68.8684 17.4265L73.4553 15.1157L77.0426 16.918ZM71.3977 12.3113V8.87913L81.3753 3.86601C81.6408 3.94849 81.9309 3.94849 82.1964 3.86601L88.3765 6.97474C88.3406 6.99764 88.3111 7.02737 88.2903 7.06167C88.2695 7.09597 88.258 7.13394 88.2566 7.1727C88.2552 7.21147 88.2639 7.25 88.2822 7.28538C88.3004 7.32076 88.3277 7.35206 88.3619 7.37689L73.4553 14.8668L69.8752 13.0688L71.3292 12.3368L71.3977 12.3113ZM71.1533 9.00466V12.1964L69.6382 12.9581L66.4736 11.3665L71.1533 9.00466ZM66.2292 11.4814L69.3938 13.073L64.7997 15.3817L61.855 13.8922L61.8257 13.8773H61.4445L66.2292 11.4814ZM53.6148 8.66634L58.2017 10.9729H65.2151L65.9849 11.358L61.1341 13.7965H56.8674C56.8333 13.768 56.7956 13.743 56.755 13.722C56.611 13.659 56.454 13.6218 56.2932 13.6127C56.1325 13.6035 55.9712 13.6226 55.8191 13.6688L49.7513 10.6112L53.6148 8.66634ZM45.2598 12.8666L49.4972 10.7388L55.5747 13.7944C55.5517 13.8121 55.5312 13.8321 55.5136 13.8539L51.2322 16.0073L45.2598 13.0049V12.8666ZM45.2598 13.2496L50.9879 16.1286L49.1013 17.0754L45.2598 15.1434V13.2496ZM45.1987 15.6753L45.2598 15.6455V15.3817L48.3242 16.9222V17.4584L41.4819 20.9034L40.0963 20.2054L43.7618 18.3585L41.8069 17.3776L45.1987 15.6753ZM38.1364 19.2266L41.5576 17.501L43.2682 18.3521L39.847 20.0778L38.1364 19.2266ZM35.6732 22.7843C35.7055 22.7627 35.7322 22.7353 35.7514 22.7039C35.7706 22.6725 35.7818 22.6379 35.7844 22.6024C35.7869 22.5669 35.7807 22.5314 35.7662 22.4982C35.7516 22.465 35.7291 22.4348 35.7 22.4098L39.8397 20.3288L41.2253 21.0268L36.6995 23.3014L35.6732 22.7843ZM36.9439 23.4227L41.4696 21.1481L46.9289 23.8908V24.3568L42.865 26.3995L36.9439 23.4227ZM43.1094 26.5271L46.9289 24.6121V26.2782L47.9283 26.7804L45.7657 27.8677L43.1094 26.5271ZM28.9799 43.4496L28.9188 43.4815V45.8583L22.1864 49.2415C21.9392 49.1631 21.6703 49.1535 21.4166 49.2138L17.2941 47.1456L41.9999 34.7256L42.061 34.6958V29.9742L45.7657 28.1124L52.6251 31.5594L28.9799 43.4496ZM46.0174 27.989L48.18 26.9016L55.0322 30.3572L52.8695 31.4445L46.0174 27.989ZM53.1212 31.5594L55.2839 30.4721L58.4094 32.0445L56.2394 33.1233L53.1212 31.5594ZM50.9463 39.1791L50.8852 39.211V42.4857L30.5585 52.6992V49.4734L45.3087 42.0601L45.1865 41.8771L34.8985 47.0477V44.1113L56.2394 33.3829L59.3624 34.9533L50.9463 39.1791ZM59.6068 34.8256L56.4837 33.2553L58.6464 32.1701L61.767 33.7383L59.6068 34.8256ZM62.0114 33.6149L58.8908 32.0467L62.0187 30.4742L65.1467 32.0424L62.0114 33.6149ZM68.8978 30.1104C68.7523 30.1205 68.6109 30.1567 68.4823 30.2168C68.4237 30.24 68.3727 30.2758 68.3343 30.3208C68.2958 30.3658 68.2711 30.4186 68.2624 30.4742L65.391 31.919L62.2631 30.3572L68.6412 27.1506L68.8978 27.2783V30.1104ZM69.1421 30.0316V27.1485L68.8855 27.0187L70.7721 26.0718H70.7867H77.0011L69.1421 30.0316Z" fill="#33C7BB" fill-opacity="0.7"/>
<path d="M12.1182 15.8134L2.53891 20.6286C2.46804 20.7477 2.39473 20.8648 2.32631 20.9818L12.3944 15.9197H19.3345L22.719 17.622L20.3926 18.7902C20.2404 18.7441 20.0792 18.7251 19.9184 18.7342C19.7577 18.7433 19.6007 18.7805 19.4567 18.8434C19.3778 18.8818 19.3126 18.9385 19.2685 19.0072H10.4712L0.992044 23.7714C0.955389 23.8714 0.918733 23.9714 0.884521 24.0714L10.5323 19.22H19.2685C19.3114 19.2895 19.3768 19.3465 19.4567 19.3838C19.6233 19.4573 19.8075 19.4956 19.9943 19.4956C20.1811 19.4956 20.3653 19.4573 20.5319 19.3838C20.7763 19.2561 20.8203 19.0604 20.637 18.9136L22.9634 17.7433L24.7473 18.6412L24.8695 18.4561L23.2078 17.622L27.0835 15.6751L28.8649 16.573L28.9871 16.3879L27.3254 15.5538L31.6996 13.3536L33.4835 14.2516L33.6057 14.0664L31.944 13.2323L33.8305 12.2833L34.6809 12.7089L34.8031 12.5238L34.07 12.1578L36.7581 10.8109L36.6359 10.6279L33.8379 12.0344L30.5926 10.4024C30.7906 10.2555 30.7612 10.0513 30.4998 9.91934C30.3517 9.85536 30.1902 9.81823 30.0251 9.81018C29.86 9.80214 29.6948 9.82334 29.5394 9.87253L29.295 9.74699V6.27015L26.3895 4.82324L26.0913 4.92112L29.0238 6.39995V9.63209L22.3329 6.25738L22.0617 6.3659L29.2975 10.0045C29.1313 10.1491 29.1704 10.3385 29.4172 10.4619C29.6997 10.5867 30.0275 10.6088 30.3287 10.5236L33.5862 12.1599L31.6996 13.1068L19.9894 7.22128L19.7304 7.33618L31.4601 13.2302L27.0884 15.4282L21.4507 12.594L21.4214 12.5791H16.5169C16.4731 12.5188 16.4126 12.469 16.3409 12.4344C16.0578 12.3113 15.7305 12.2899 15.4294 12.3748L12.7047 10.9939L12.4897 11.1301L15.1777 12.4833C14.9798 12.6323 15.0091 12.8344 15.2706 12.9664C15.4373 13.0398 15.6214 13.0781 15.8082 13.0781C15.995 13.0781 16.1792 13.0398 16.3458 12.9664C16.4332 12.9261 16.5028 12.8617 16.5438 12.7834H21.353L26.8391 15.5495L22.9634 17.4965L19.4005 15.707H12.387L8.67994 13.843L8.49421 13.9962L12.1182 15.8134Z" fill="#33C7BB" fill-opacity="0.7"/>
<path d="M16.0429 9.5048C16.2096 9.57828 16.3938 9.61656 16.5805 9.61656C16.7673 9.61656 16.9515 9.57828 17.1182 9.5048C17.1831 9.48576 17.2396 9.44943 17.2796 9.40095C17.3196 9.35247 17.3412 9.29427 17.3412 9.23457C17.3412 9.17487 17.3196 9.11667 17.2796 9.06819C17.2396 9.01971 17.1831 8.98338 17.1182 8.96434C16.9373 8.88343 16.7346 8.84667 16.5317 8.85795L15.8254 9.2218C15.827 9.2821 15.8483 9.34076 15.8868 9.39088C15.9254 9.44101 15.9795 9.48053 16.0429 9.5048Z" fill="#33C7BB" fill-opacity="0.7"/>
<g opacity="0.5">
<path d="M10.2171 34.1617L18.5966 29.9486L18.4744 29.7656L10.1634 33.9489H6.46606L1.79858 36.2895C1.83035 36.3533 1.86212 36.4193 1.89633 36.4852L6.53937 34.1553L10.2171 34.1617Z" fill="black"/>
<path d="M12.7072 38.3194L12.585 38.1343L6.96446 40.9558H5.03149L5.2221 41.1685H7.03533L12.7072 38.3194Z" fill="black"/>
<path d="M18.5867 32.6593L18.4718 32.4849L4.01489 39.7386C4.06132 39.7981 4.10531 39.8577 4.15174 39.9152L18.5867 32.6593Z" fill="black"/>
<path d="M60.1639 8.15977L73.6165 1.39761L73.2353 1.34229L60.0393 7.97466L60.1639 8.15977Z" fill="black"/>
<path d="M69.3132 0.85537L68.91 0.814941L65.9214 2.31717L66.0436 2.50016L69.3132 0.85537Z" fill="black"/>
<path d="M42.2908 4.06605L38.1756 6.13428C37.9227 6.07395 37.6545 6.08361 37.4083 6.16194L31.6998 3.29366L31.3772 3.37664L37.1786 6.29173C37.1505 6.31386 37.1279 6.34065 37.1119 6.37052C37.096 6.40039 37.0871 6.43273 37.0857 6.46565C37.0843 6.49857 37.0905 6.53139 37.104 6.56218C37.1174 6.59298 37.1378 6.62112 37.1639 6.64495L33.8429 8.31315L39.1506 10.9814L39.2728 10.7984L34.3316 8.31315L37.3838 6.779C37.6454 6.87118 37.9355 6.88171 38.2049 6.80879L42.8284 9.13236L42.9506 8.94936L38.4639 6.69389C38.507 6.6691 38.5419 6.63508 38.5655 6.59511C38.589 6.55515 38.6004 6.51057 38.5984 6.46569C38.5964 6.4208 38.5812 6.37711 38.5543 6.33882C38.5273 6.30053 38.4894 6.26892 38.4444 6.24705L42.7795 4.06605L38.398 1.86377L38.0412 1.92973L42.2908 4.06605Z" fill="black"/>
<path d="M48.4269 3.75975V0.595703L48.1826 0.614853V3.62995L42.281 6.60888C42.1289 6.56269 41.9676 6.54359 41.8068 6.55273C41.6461 6.56187 41.489 6.59906 41.3451 6.66208C41.2801 6.68112 41.2236 6.71745 41.1836 6.76593C41.1436 6.81441 41.1221 6.87261 41.1221 6.93231C41.1221 6.99201 41.1436 7.05021 41.1836 7.09869C41.2236 7.14717 41.2801 7.18349 41.3451 7.20254C41.5117 7.27601 41.6959 7.3143 41.8827 7.3143C42.0695 7.3143 42.2537 7.27601 42.4203 7.20254C42.6647 7.07274 42.7087 6.87699 42.5254 6.73017L48.3658 3.7938L48.4269 3.75975Z" fill="black"/>
<path d="M106.526 44.1539L106.709 44.0007L103.696 42.4857V39.211L77.502 26.042L77.3945 25.8803L77.287 25.9335L77.1795 25.8803L77.1526 25.8654H71.1802L77.2894 22.795L110.927 39.7068L111.064 39.5302L77.7073 22.7609C78.7434 22.729 81.4242 22.7609 83.1885 22.8035H83.2301L83.6406 22.5907L112.645 37.1704C112.682 37.1066 112.718 37.0428 112.752 36.9789L83.8777 22.4843L85.989 21.4204L86.3849 21.6204L86.4045 21.6311L106.445 31.653C106.267 31.7999 106.301 31.9935 106.555 32.1212C106.721 32.1946 106.905 32.2329 107.092 32.2329C107.278 32.2329 107.462 32.1946 107.628 32.1212C107.693 32.1021 107.749 32.0658 107.789 32.0173C107.83 31.9688 107.851 31.9106 107.851 31.8509C107.851 31.7912 107.83 31.733 107.789 31.6845C107.749 31.6361 107.693 31.5997 107.628 31.5807C107.483 31.5175 107.325 31.4805 107.164 31.4717C107.002 31.4629 106.84 31.4826 106.687 31.5296L86.8956 21.6332H92.5968V21.6481L92.6261 21.6332H95.8885L112.506 29.9806V34.7022L113.6 35.2533C113.63 35.1852 113.657 35.1171 113.684 35.0405L112.75 34.5703V29.8529L106.641 26.7782L107.643 26.2761V23.8993L112.774 21.3183C112.74 21.2544 112.704 21.1906 112.667 21.1268L107.457 23.7461L107.396 23.7759V26.1527L106.394 26.6569L101.902 24.3993V22.5971L106.201 20.4374L106.262 20.4055V16.9286L108.476 15.8136L108.31 15.6519L96.4065 21.6332L96.0033 21.4311L95.974 21.4162H93.0684L106.949 14.4391L106.765 14.2859L92.5797 21.4204H86.4704L86.2261 21.297L93.738 17.5244L93.6158 17.3393L86.0012 21.1693L82.2233 19.2713H82.541L92.8265 14.0986H97.6431C97.686 14.1681 97.7514 14.2251 97.8312 14.2625C97.9979 14.336 98.182 14.3742 98.3688 14.3742C98.5556 14.3742 98.7398 14.336 98.9064 14.2625C99.1508 14.1348 99.1948 13.939 99.0115 13.7922L103.246 11.6644L103.036 11.524L98.7671 13.6688C98.615 13.6227 98.4538 13.6037 98.293 13.6129C98.1322 13.622 97.9752 13.6591 97.8312 13.722C97.7523 13.7604 97.6872 13.8171 97.6431 13.8859H92.7605L82.4725 19.0585H81.7883L77.5314 16.918L89.3589 10.9729H96.3723L99.4636 9.41746L99.2192 9.29192L96.2868 10.7601H89.2734L77.265 16.7946L73.6996 14.9923L88.6062 7.50243C88.8717 7.58491 89.1618 7.58491 89.4273 7.50243L93.3519 9.47491L96.4505 7.91736L96.2062 7.80033L93.3617 9.23022L89.6644 7.37689C89.6968 7.35257 89.7227 7.32225 89.74 7.28813C89.7574 7.25402 89.7658 7.21696 89.7646 7.17967C89.7634 7.14238 89.7527 7.10578 89.7333 7.07254C89.7138 7.0393 89.6861 7.01025 89.6521 6.98751L91.7268 5.94488L91.4483 5.83849L89.4078 6.86409C89.155 6.79386 88.8834 6.79386 88.6307 6.86409L84.4764 4.77033L85.9279 4.0405C85.8253 4.01071 85.7227 3.97879 85.6176 3.95113L84.232 4.64692L82.4408 3.74686C82.6069 3.60217 82.5678 3.41279 82.321 3.28938C82.1547 3.2149 81.9704 3.17605 81.7834 3.17605C81.5964 3.17605 81.4121 3.2149 81.2458 3.28938C81.0014 3.41705 80.9574 3.61281 81.1407 3.75962L66.2341 11.2495L65.3104 10.7814L65.2811 10.7686H60.3766L68.475 6.696H72.1625L80.2805 2.61486L79.936 2.54252L72.0966 6.48322H68.409L60.032 10.6963L60.0784 10.7686H58.2677L53.869 8.55144L62.0383 4.44478L62.0994 4.41499V0.331728H61.855V4.29158L53.6246 8.42803L52.8671 8.04715L52.7449 8.23227L53.3802 8.55144L49.507 10.4899L48.747 10.1069L48.6248 10.292L49.2626 10.6112L45.0863 12.7113L45.0252 12.7411V12.8773L44.1308 12.4283L44.0086 12.6113L45.0252 13.1241V15.02L42.9334 13.9561L42.8112 14.1412L45.0252 15.254V15.5179L41.5772 17.252L38.4639 15.686L38.3417 15.869L41.323 17.3776L37.9018 19.1032L34.7861 17.5393L34.6639 17.7223L37.6575 19.2266L22.9488 26.6208H17.4285L7.47527 31.6339V28.4422L56.7917 3.65536L56.8527 3.62557V0.240234H56.6084V3.50216L18.0638 22.8801H10.4077L0.0415223 28.0953C0.0415223 28.1805 0.0268601 28.2656 0.0219727 28.3507L10.4835 23.0929H17.6411L7.29199 28.2954L7.2309 28.3251V31.7552L1.12164 34.8256L1.20473 35.0384L17.4945 26.8399H23.005L37.892 19.3564L39.6026 20.2076L35.4826 22.2801C35.3258 22.2261 35.1578 22.2014 34.9894 22.2076C34.821 22.2139 34.656 22.2509 34.5051 22.3162C34.4401 22.3353 34.3836 22.3716 34.3436 22.4201C34.3036 22.4686 34.2821 22.5268 34.2821 22.5865C34.2821 22.6462 34.3036 22.7043 34.3436 22.7528C34.3836 22.8013 34.4401 22.8376 34.5051 22.8567C34.6497 22.9191 34.8071 22.9559 34.9682 22.965C35.1292 22.9742 35.2908 22.9554 35.4435 22.9099L36.4698 23.4269L33.4445 24.9483L33.3834 24.9781V27.7655L16.6001 36.2002L16.539 36.2299V40.3387L12.7634 42.2367C12.6113 42.1905 12.4501 42.1715 12.2893 42.1806C12.1285 42.1897 11.9715 42.2269 11.8275 42.2899C11.7477 42.3273 11.6822 42.3843 11.6393 42.4538H6.47579C6.54911 42.524 6.62242 42.5963 6.69817 42.6666H11.6296C11.6493 42.702 11.6767 42.7337 11.7102 42.7602L8.59937 44.3305L8.78754 44.4816L11.9644 42.8836C12.1165 42.9298 12.2777 42.9489 12.4385 42.9397C12.5993 42.9306 12.7563 42.8934 12.9003 42.8304C13.1447 42.7027 13.1911 42.507 13.0078 42.3602L16.7222 40.4919L16.7833 40.4621V36.3534L33.552 27.923L33.6131 27.8932V25.1058L36.6995 23.5482L42.6206 26.5271L21.8491 36.9747L21.788 37.0045V41.5133L11.6931 46.586L11.9033 46.7264L21.9591 41.6729L22.0202 41.641V37.1321L42.865 26.6527L45.5213 27.989L41.8777 29.821L41.8166 29.8529V34.5724L16.8053 47.1456L21.1429 49.3266C21.0978 49.3482 21.0599 49.3796 21.0329 49.4177C21.0059 49.4558 20.9906 49.4994 20.9886 49.5441C20.9867 49.5889 20.998 49.6333 21.0217 49.6732C21.0453 49.713 21.0803 49.7468 21.1234 49.7713L19.2735 50.7012L19.5349 50.8161L21.3824 49.8883C21.6511 49.9607 21.9402 49.9502 22.201 49.8585L25.2532 51.3927L23.33 52.3608L23.611 52.4651L25.742 51.4012L22.4234 49.7202C22.4498 49.6965 22.4705 49.6684 22.4841 49.6376C22.4977 49.6068 22.504 49.5739 22.5027 49.5409C22.5013 49.5079 22.4923 49.4755 22.4761 49.4456C22.46 49.4157 22.4371 49.389 22.4087 49.367L29.0947 46.0072L29.1558 45.9753V43.6028L52.8597 31.6871L55.9852 33.2595L34.7055 43.956L34.6444 43.9858V47.1775L30.3581 49.333L30.297 49.3628V52.8417L28.0684 53.961L28.3738 54.0524L51.0514 42.6517L51.1125 42.6219V39.3344L59.597 35.0682L59.8243 35.1831V39.9047L63.1942 41.6069L59.0594 43.6858H56.1563L33.0755 55.2908L33.4079 55.3674L56.2223 43.8986H59.1352L63.4483 41.7303L66.5714 43.3006L59.2818 46.9541C59.0496 46.986 56.7721 47.003 55.5796 47.003H55.5478L37.2811 56.1632L37.6403 56.2271L55.6113 47.2158C56.1001 47.2158 59.2525 47.2158 59.3893 47.1456L66.8255 43.407L69.9534 44.9795L59.0081 50.482H54.4579L47.0633 54.2354H45.079L40.2209 56.6782L40.5948 56.7356L45.1498 54.4482H47.1341L54.519 50.7012H59.0619L70.1856 45.1093L76.1971 48.1308H68.3968L57.9695 53.3716C57.817 53.3266 57.6558 53.3084 57.4952 53.3179C57.3346 53.3274 57.1777 53.3644 57.0336 53.4269C56.9695 53.4464 56.9139 53.4828 56.8746 53.531C56.8353 53.5792 56.8141 53.6369 56.8141 53.696C56.8141 53.7552 56.8353 53.8129 56.8746 53.8611C56.9139 53.9093 56.9695 53.9457 57.0336 53.9652C57.1999 54.0397 57.3842 54.0785 57.5712 54.0785C57.7582 54.0785 57.9425 54.0397 58.1088 53.9652C58.3532 53.8375 58.3972 53.6418 58.2139 53.495L68.4628 48.3435H83.2716L75.9943 52.0012H68.3479L57.5077 57.4506L57.6298 57.6335L68.4139 52.214H75.5715L65.22 57.4165L65.3422 57.6016L83.7604 48.3435H86.1137L87.4308 49.0053L83.5013 50.9799C83.3492 50.9337 83.1879 50.9146 83.0272 50.9238C82.8664 50.9329 82.7093 50.9701 82.5654 51.0331C82.5004 51.0521 82.4439 51.0885 82.4039 51.1369C82.3639 51.1854 82.3424 51.2436 82.3424 51.3033C82.3424 51.363 82.3639 51.4212 82.4039 51.4697C82.4439 51.5182 82.5004 51.5545 82.5654 51.5736C82.7316 51.647 82.9154 51.6853 83.1018 51.6853C83.2882 51.6853 83.472 51.647 83.6382 51.5736C83.8948 51.4459 83.929 51.2501 83.7457 51.1033L87.6752 49.1287L93.0049 51.8097L93.2761 51.7012L86.2016 48.1435H86.1821L68.8122 39.4302C68.9931 39.2834 68.9589 39.0876 68.7047 38.9599C68.5385 38.8865 68.3547 38.8482 68.1683 38.8482C67.9819 38.8482 67.7981 38.8865 67.6319 38.9599C67.5669 38.979 67.5105 39.0153 67.4705 39.0638C67.4304 39.1123 67.4089 39.1705 67.4089 39.2302C67.4089 39.2899 67.4304 39.348 67.4705 39.3965C67.5105 39.445 67.5669 39.4813 67.6319 39.5004C67.7759 39.5634 67.9329 39.6006 68.0937 39.6097C68.2545 39.6189 68.4157 39.5998 68.5679 39.5536L85.6958 48.1308H76.6858L60.0687 39.7813V35.0618L59.8414 34.9469L62.0016 33.8596L95.4804 50.6863L95.5072 50.7012H95.6319L96.1035 50.4884H95.5732L62.2558 33.7362L65.3837 32.1637L95.1969 47.152C95.4413 47.2754 99.4343 47.2052 101.177 47.1669L101.807 47.4839L102.029 47.3499L101.24 46.9541H101.206C99.0653 47.0009 95.5708 47.0435 95.3191 46.969L65.6354 32.0424L68.365 30.67C68.4019 30.7032 68.4439 30.7318 68.4897 30.7551C68.6336 30.8181 68.7906 30.8553 68.9514 30.8644C69.1122 30.8736 69.2735 30.8545 69.4256 30.8083L95.4193 43.8773L95.4486 43.89H101.751L104.852 45.4646L105.047 45.3178L101.836 43.7028L101.807 43.6879H95.5072L72.1968 31.9701H79.1882L92.8852 38.8557C92.7019 39.0025 92.7385 39.1982 92.9927 39.3259C93.1589 39.3994 93.3427 39.4376 93.5291 39.4376C93.7155 39.4376 93.8992 39.3994 94.0655 39.3259C94.1296 39.3064 94.1852 39.27 94.2245 39.2218C94.2638 39.1736 94.2849 39.1159 94.2849 39.0567C94.2849 38.9976 94.2638 38.9399 94.2245 38.8917C94.1852 38.8435 94.1296 38.8071 94.0655 38.7876C93.9219 38.7237 93.7649 38.6859 93.604 38.6764C93.4431 38.6669 93.2817 38.6859 93.1295 38.7322L79.2835 31.7616L79.2542 31.7467H71.774L69.6626 30.6828C69.8459 30.5359 69.8093 30.3402 69.5551 30.2125C69.5013 30.1872 69.4449 30.1666 69.3865 30.1508L77.287 26.1782L103.452 39.3323V42.607L106.526 44.1539ZM101.658 24.2717L100.111 23.4929L101.658 22.7162V24.2717ZM106.008 17.052V20.2842L99.8668 23.3716L96.6509 21.7545L106.008 17.052ZM70.7672 25.8271L67.6393 24.2547L70.9358 22.5971L71.3195 22.7886L71.3488 22.8035H71.383C73.1522 22.7652 75.8428 22.729 76.8667 22.7588L70.7672 25.8271ZM51.5572 22.0354L47.1586 24.2419V23.7759L41.6993 21.0332L48.2973 17.7095V20.4055L51.5572 22.0354ZM49.0964 17.3201L55.0175 20.2991L51.8041 21.9162L48.5637 20.2884V17.5904L49.0964 17.3201ZM48.5637 17.3414V17.052L48.8521 17.1967L48.5637 17.3414ZM53.2874 25.4271C53.1715 25.3722 53.0446 25.3376 52.9135 25.3249V24.5206L54.7047 23.6206L61.5618 27.0676L58.6293 28.5358L53.3998 25.8888C53.5806 25.7462 53.5464 25.5505 53.2923 25.4228L53.2874 25.4271ZM61.5056 21.4204H58.6024L58.1675 21.6332L55.5112 20.2969L57.3977 19.3501L61.5056 21.4204ZM57.6421 19.2309L60.5745 17.7627H61.3223L68.3528 21.297L68.1084 21.4204H61.9992L57.6421 19.2309ZM57.9231 21.7609L54.7096 23.378L52.0533 22.0417L55.2668 20.4246L57.9231 21.7609ZM54.4652 23.4993L52.9282 24.2717V22.7162L54.4652 23.4993ZM54.954 23.4993L58.1675 21.8843L65.0269 25.3313L61.811 26.9463L54.954 23.4993ZM58.4118 21.7609L58.6562 21.6332H61.921L67.1456 24.261L65.2615 25.2079L58.4118 21.7609ZM62.4171 21.6332H68.1622L68.5874 21.4204L70.6963 22.4843L67.3998 24.1419L62.4171 21.6332ZM68.8318 21.297L72.8517 19.2756H77.006L77.0353 19.2905L70.926 22.3566L68.8318 21.297ZM68.5874 21.1736L61.7988 17.7691H68.2111L68.6241 17.5563L72.0184 19.2586L72.0453 19.2735H72.3629L68.5874 21.1736ZM68.6241 17.3095L65.044 15.5094L69.6382 13.2007L73.2109 14.9923L68.6241 17.3095ZM68.3797 17.4308L68.1353 17.5499H61.3663L61.1732 17.4521L64.7899 15.6328L68.3797 17.4308ZM57.3977 19.1096L51.4766 16.1307L55.4965 14.1071C55.5403 14.1737 55.6046 14.2283 55.6822 14.2646C55.8484 14.3381 56.0322 14.3763 56.2186 14.3763C56.405 14.3763 56.5888 14.3381 56.755 14.2646C56.836 14.2279 56.9024 14.1708 56.9456 14.1008H61.7597L64.5553 15.5072L57.3977 19.1096ZM57.1533 19.2309L55.2668 20.1799L49.3457 17.201L51.2322 16.252L57.1533 19.2309ZM47.1732 24.493L51.8163 22.1524L52.6838 22.5886V24.3993L48.1825 26.6612L47.183 26.1569L47.1732 24.493ZM52.674 24.6462V25.3207C52.5145 25.3276 52.3585 25.3646 52.217 25.4292C52.1521 25.4482 52.0956 25.4846 52.0556 25.5331C52.0156 25.5815 51.994 25.6397 51.994 25.6994C51.994 25.7591 52.0156 25.8173 52.0556 25.8658C52.0956 25.9143 52.1521 25.9506 52.217 25.9697C52.3617 26.0321 52.5191 26.0689 52.6801 26.078C52.8412 26.0871 53.0027 26.0684 53.1554 26.0229L58.4021 28.655L55.2766 30.2274L48.4171 26.7782L52.674 24.6462ZM58.6464 28.7847L61.7744 30.3572L58.6464 31.9297L55.5209 30.3572L58.6464 28.7847ZM58.8908 28.6613L61.8232 27.1932L63.2162 27.8932L63.3383 27.7081L62.0676 27.0697L65.2835 25.4547L68.409 27.0251L62.031 30.2338L58.8908 28.6613ZM65.5157 25.3313L67.3998 24.3844L70.5277 25.9548L68.6412 26.9038L65.5157 25.3313ZM83.1592 22.5971C81.539 22.5609 77.981 22.4971 77.2943 22.5971C76.6028 22.5056 73.0447 22.5694 71.4294 22.5971L71.1997 22.4801L77.309 19.4118L83.4182 22.4801L83.1592 22.5971ZM85.7447 21.297L83.6333 22.3609L77.524 19.2947L77.5558 19.2798H81.7101L85.7447 21.297ZM77.287 17.0414L81.2996 19.0585H77.4972L77.287 19.1628L77.1062 19.0713L77.0793 19.0585H73.2769L77.287 17.0414ZM77.0426 16.918L72.7881 19.0585H72.1112L68.8684 17.4265L73.4553 15.1157L77.0426 16.918ZM71.3977 12.3113V8.87913L81.3753 3.86601C81.6408 3.94849 81.9309 3.94849 82.1964 3.86601L88.3765 6.97474C88.3406 6.99764 88.3111 7.02737 88.2903 7.06167C88.2695 7.09597 88.258 7.13394 88.2566 7.1727C88.2552 7.21147 88.2639 7.25 88.2822 7.28538C88.3004 7.32076 88.3277 7.35206 88.3619 7.37689L73.4553 14.8668L69.8752 13.0688L71.3292 12.3368L71.3977 12.3113ZM71.1533 9.00466V12.1964L69.6382 12.9581L66.4736 11.3665L71.1533 9.00466ZM66.2292 11.4814L69.3938 13.073L64.7997 15.3817L61.855 13.8922L61.8257 13.8773H61.4445L66.2292 11.4814ZM53.6148 8.66634L58.2017 10.9729H65.2151L65.9849 11.358L61.1341 13.7965H56.8674C56.8333 13.768 56.7956 13.743 56.755 13.722C56.611 13.659 56.454 13.6218 56.2932 13.6127C56.1325 13.6035 55.9712 13.6226 55.8191 13.6688L49.7513 10.6112L53.6148 8.66634ZM45.2598 12.8666L49.4972 10.7388L55.5747 13.7944C55.5517 13.8121 55.5312 13.8321 55.5136 13.8539L51.2322 16.0073L45.2598 13.0049V12.8666ZM45.2598 13.2496L50.9879 16.1286L49.1013 17.0754L45.2598 15.1434V13.2496ZM45.1987 15.6753L45.2598 15.6455V15.3817L48.3242 16.9222V17.4584L41.4819 20.9034L40.0963 20.2054L43.7618 18.3585L41.8069 17.3776L45.1987 15.6753ZM38.1364 19.2266L41.5576 17.501L43.2682 18.3521L39.847 20.0778L38.1364 19.2266ZM35.6732 22.7843C35.7055 22.7627 35.7322 22.7353 35.7514 22.7039C35.7706 22.6725 35.7818 22.6379 35.7844 22.6024C35.7869 22.5669 35.7807 22.5314 35.7662 22.4982C35.7516 22.465 35.7291 22.4348 35.7 22.4098L39.8397 20.3288L41.2253 21.0268L36.6995 23.3014L35.6732 22.7843ZM36.9439 23.4227L41.4696 21.1481L46.9289 23.8908V24.3568L42.865 26.3995L36.9439 23.4227ZM43.1094 26.5271L46.9289 24.6121V26.2782L47.9283 26.7804L45.7657 27.8677L43.1094 26.5271ZM28.9799 43.4496L28.9188 43.4815V45.8583L22.1864 49.2415C21.9392 49.1631 21.6703 49.1535 21.4166 49.2138L17.2941 47.1456L41.9999 34.7256L42.061 34.6958V29.9742L45.7657 28.1124L52.6251 31.5594L28.9799 43.4496ZM46.0174 27.989L48.18 26.9016L55.0322 30.3572L52.8695 31.4445L46.0174 27.989ZM53.1212 31.5594L55.2839 30.4721L58.4094 32.0445L56.2394 33.1233L53.1212 31.5594ZM50.9463 39.1791L50.8852 39.211V42.4857L30.5585 52.6992V49.4734L45.3087 42.0601L45.1865 41.8771L34.8985 47.0477V44.1113L56.2394 33.3829L59.3624 34.9533L50.9463 39.1791ZM59.6068 34.8256L56.4837 33.2553L58.6464 32.1701L61.767 33.7383L59.6068 34.8256ZM62.0114 33.6149L58.8908 32.0467L62.0187 30.4742L65.1467 32.0424L62.0114 33.6149ZM68.8978 30.1104C68.7523 30.1205 68.6109 30.1567 68.4823 30.2168C68.4237 30.24 68.3727 30.2758 68.3343 30.3208C68.2958 30.3658 68.2711 30.4186 68.2624 30.4742L65.391 31.919L62.2631 30.3572L68.6412 27.1506L68.8978 27.2783V30.1104ZM69.1421 30.0316V27.1485L68.8855 27.0187L70.7721 26.0718H70.7867H77.0011L69.1421 30.0316Z" fill="black"/>
<path d="M12.1182 15.8134L2.53891 20.6286C2.46804 20.7477 2.39473 20.8648 2.32631 20.9818L12.3944 15.9197H19.3345L22.719 17.622L20.3926 18.7902C20.2404 18.7441 20.0792 18.7251 19.9184 18.7342C19.7577 18.7433 19.6007 18.7805 19.4567 18.8434C19.3778 18.8818 19.3126 18.9385 19.2685 19.0072H10.4712L0.992044 23.7714C0.955389 23.8714 0.918733 23.9714 0.884521 24.0714L10.5323 19.22H19.2685C19.3114 19.2895 19.3768 19.3465 19.4567 19.3838C19.6233 19.4573 19.8075 19.4956 19.9943 19.4956C20.1811 19.4956 20.3653 19.4573 20.5319 19.3838C20.7763 19.2561 20.8203 19.0604 20.637 18.9136L22.9634 17.7433L24.7473 18.6412L24.8695 18.4561L23.2078 17.622L27.0835 15.6751L28.8649 16.573L28.9871 16.3879L27.3254 15.5538L31.6996 13.3536L33.4835 14.2516L33.6057 14.0664L31.944 13.2323L33.8305 12.2833L34.6809 12.7089L34.8031 12.5238L34.07 12.1578L36.7581 10.8109L36.6359 10.6279L33.8379 12.0344L30.5926 10.4024C30.7906 10.2555 30.7612 10.0513 30.4998 9.91934C30.3517 9.85536 30.1902 9.81823 30.0251 9.81018C29.86 9.80214 29.6948 9.82334 29.5394 9.87253L29.295 9.74699V6.27015L26.3895 4.82324L26.0913 4.92112L29.0238 6.39995V9.63209L22.3329 6.25738L22.0617 6.3659L29.2975 10.0045C29.1313 10.1491 29.1704 10.3385 29.4172 10.4619C29.6997 10.5867 30.0275 10.6088 30.3287 10.5236L33.5862 12.1599L31.6996 13.1068L19.9894 7.22128L19.7304 7.33618L31.4601 13.2302L27.0884 15.4282L21.4507 12.594L21.4214 12.5791H16.5169C16.4731 12.5188 16.4126 12.469 16.3409 12.4344C16.0578 12.3113 15.7305 12.2899 15.4294 12.3748L12.7047 10.9939L12.4897 11.1301L15.1777 12.4833C14.9798 12.6323 15.0091 12.8344 15.2706 12.9664C15.4373 13.0398 15.6214 13.0781 15.8082 13.0781C15.995 13.0781 16.1792 13.0398 16.3458 12.9664C16.4332 12.9261 16.5028 12.8617 16.5438 12.7834H21.353L26.8391 15.5495L22.9634 17.4965L19.4005 15.707H12.387L8.67994 13.843L8.49421 13.9962L12.1182 15.8134Z" fill="black"/>
<path d="M16.0429 9.5048C16.2096 9.57828 16.3938 9.61656 16.5805 9.61656C16.7673 9.61656 16.9515 9.57828 17.1182 9.5048C17.1831 9.48576 17.2396 9.44943 17.2796 9.40095C17.3196 9.35247 17.3412 9.29427 17.3412 9.23457C17.3412 9.17487 17.3196 9.11667 17.2796 9.06819C17.2396 9.01971 17.1831 8.98338 17.1182 8.96434C16.9373 8.88343 16.7346 8.84667 16.5317 8.85795L15.8254 9.2218C15.827 9.2821 15.8483 9.34076 15.8868 9.39088C15.9254 9.44101 15.9795 9.48053 16.0429 9.5048Z" fill="black"/>
</g>
</svg>
