<svg width="46" height="36" viewBox="0 0 46 36" fill="none" xmlns="http://www.w3.org/2000/svg">
<path d="M6.9001 4.5001C6.9001 4.2614 6.77894 4.03248 6.56327 3.8637C6.3476 3.69492 6.0551 3.6001 5.7501 3.6001C5.4451 3.6001 5.15259 3.69492 4.93693 3.8637C4.72126 4.03248 4.6001 4.2614 4.6001 4.5001V31.5001C4.6001 31.7388 4.72126 31.9677 4.93693 32.1365C5.15259 32.3053 5.4451 32.4001 5.7501 32.4001H40.2501C40.5551 32.4001 40.8476 32.3053 41.0633 32.1365C41.2789 31.9677 41.4001 31.7388 41.4001 31.5001C41.4001 31.2614 41.2789 31.0325 41.0633 30.8637C40.8476 30.6949 40.5551 30.6001 40.2501 30.6001H36.8001V9.9001C36.7998 9.73074 36.7384 9.5649 36.6231 9.42161C36.5077 9.27833 36.3431 9.16342 36.148 9.0901C35.9529 9.01678 35.7354 8.98802 35.5204 9.00712C35.3054 9.02623 35.1016 9.09242 34.9325 9.1981L24.042 16.0147L16.6705 12.7189C16.5139 12.6488 16.3384 12.6085 16.1582 12.6013C15.978 12.5941 15.7981 12.6202 15.6332 12.6775L6.9001 15.7159V4.5001ZM6.9001 17.6851L16.0357 14.5081L23.5797 17.8813C23.7798 17.9706 24.0096 18.0107 24.2393 17.9966C24.4689 17.9825 24.6878 17.9147 24.8677 17.8021L34.5001 11.7721V30.6001H6.9001V17.6851Z" fill="white"/>
</svg>
