<svg width="35" height="30" viewBox="0 0 35 30" fill="none" xmlns="http://www.w3.org/2000/svg">
<path d="M24.5 4.125C24.5 3.82663 24.6383 3.54048 24.8844 3.3295C25.1306 3.11853 25.4644 3 25.8125 3H30.1875C30.5356 3 30.8695 3.11853 31.1156 3.3295C31.3617 3.54048 31.5 3.82663 31.5 4.125V7.875C31.5 8.17337 31.3617 8.45952 31.1156 8.6705C30.8695 8.88147 30.5356 9 30.1875 9C29.8394 9 29.5056 8.88147 29.2594 8.6705C29.0133 8.45952 28.875 8.17337 28.875 7.875V6.84L21.0525 13.545C20.8064 13.7557 20.4728 13.874 20.125 13.874C19.7772 13.874 19.4436 13.7557 19.1975 13.545L14.875 9.84L7.49002 16.17C7.36987 16.2805 7.22496 16.3692 7.06397 16.4307C6.90297 16.4922 6.72917 16.5252 6.55294 16.5279C6.37671 16.5306 6.20166 16.5028 6.03823 16.4462C5.8748 16.3896 5.72634 16.3054 5.60171 16.1986C5.47707 16.0917 5.37882 15.9645 5.31281 15.8244C5.2468 15.6843 5.21438 15.5343 5.21749 15.3832C5.2206 15.2322 5.25917 15.0832 5.33091 14.9452C5.40264 14.8072 5.50607 14.683 5.63502 14.58L13.9475 7.455C14.1936 7.24432 14.5272 7.12599 14.875 7.12599C15.2228 7.12599 15.5564 7.24432 15.8025 7.455L20.125 11.16L27.02 5.25H25.8125C25.4644 5.25 25.1306 5.13147 24.8844 4.9205C24.6383 4.70952 24.5 4.42337 24.5 4.125ZM6.56252 21C6.91062 21 7.24446 21.1185 7.4906 21.3295C7.73674 21.5405 7.87502 21.8266 7.87502 22.125V25.875C7.87502 26.1734 7.73674 26.4595 7.4906 26.6705C7.24446 26.8815 6.91062 27 6.56252 27C6.21443 27 5.88059 26.8815 5.63445 26.6705C5.38831 26.4595 5.25002 26.1734 5.25002 25.875V22.125C5.25002 21.8266 5.38831 21.5405 5.63445 21.3295C5.88059 21.1185 6.21443 21 6.56252 21ZM14.875 17.625C14.875 17.3266 14.7367 17.0405 14.4906 16.8295C14.2445 16.6185 13.9106 16.5 13.5625 16.5C13.2144 16.5 12.8806 16.6185 12.6344 16.8295C12.3883 17.0405 12.25 17.3266 12.25 17.625V25.875C12.25 26.1734 12.3883 26.4595 12.6344 26.6705C12.8806 26.8815 13.2144 27 13.5625 27C13.9106 27 14.2445 26.8815 14.4906 26.6705C14.7367 26.4595 14.875 26.1734 14.875 25.875V17.625ZM20.5625 19.5C20.9106 19.5 21.2445 19.6185 21.4906 19.8295C21.7367 20.0405 21.875 20.3266 21.875 20.625V25.875C21.875 26.1734 21.7367 26.4595 21.4906 26.6705C21.2445 26.8815 20.9106 27 20.5625 27C20.2144 27 19.8806 26.8815 19.6344 26.6705C19.3883 26.4595 19.25 26.1734 19.25 25.875V20.625C19.25 20.3266 19.3883 20.0405 19.6344 19.8295C19.8806 19.6185 20.2144 19.5 20.5625 19.5ZM28.875 14.625C28.875 14.3266 28.7367 14.0405 28.4906 13.8295C28.2445 13.6185 27.9106 13.5 27.5625 13.5C27.2144 13.5 26.8806 13.6185 26.6344 13.8295C26.3883 14.0405 26.25 14.3266 26.25 14.625V25.875C26.25 26.1734 26.3883 26.4595 26.6344 26.6705C26.8806 26.8815 27.2144 27 27.5625 27C27.9106 27 28.2445 26.8815 28.4906 26.6705C28.7367 26.4595 28.875 26.1734 28.875 25.875V14.625Z" fill="white"/>
</svg>
