<svg width="101" height="100" viewBox="0 0 101 100" fill="none" xmlns="http://www.w3.org/2000/svg">
<g clip-path="url(#clip0_396_7257)">
<path d="M6.75 50C6.75 54.8503 7.4987 59.4889 8.99609 63.916C10.4935 68.3431 12.6257 72.4121 15.3926 76.123C18.1595 79.834 21.4635 83.0404 25.3047 85.7422C29.1458 88.444 33.3776 90.4948 38 91.8945V98.3398C32.4987 96.9076 27.4531 94.6615 22.8633 91.6016C18.2734 88.5417 14.3184 84.8633 10.998 80.5664C7.67773 76.2695 5.10612 71.5332 3.2832 66.3574C1.46029 61.1816 0.532552 55.7292 0.5 50C0.5 45.4102 1.08594 40.9831 2.25781 36.7188C3.42969 32.4544 5.1224 28.4831 7.33594 24.8047C9.54948 21.1263 12.1536 17.7572 15.1484 14.6973C18.1432 11.6374 21.5124 9.01693 25.2559 6.83594C28.9993 4.65495 32.987 2.97852 37.2188 1.80664C41.4505 0.634766 45.8776 0.0325521 50.5 0C54.8945 0 59.1263 0.537109 63.1953 1.61133C67.2643 2.68555 71.1055 4.23177 74.7188 6.25C78.332 8.26823 81.6361 10.6934 84.6309 13.5254C87.6257 16.3574 90.2461 19.4987 92.4922 22.9492C94.7383 26.3997 96.5286 30.1432 97.8633 34.1797C99.1979 38.2161 100.028 42.3991 100.354 46.7285L92.834 39.209C91.597 34.3913 89.6439 29.9642 86.9746 25.9277C84.3053 21.8913 81.0827 18.4082 77.3066 15.4785C73.5306 12.5488 69.3802 10.2865 64.8555 8.69141C60.3307 7.09635 55.5456 6.28255 50.5 6.25C46.4635 6.25 42.5898 6.77083 38.8789 7.8125C35.168 8.85417 31.7012 10.319 28.4785 12.207C25.2559 14.0951 22.2936 16.39 19.5918 19.0918C16.89 21.7936 14.6113 24.7396 12.7559 27.9297C10.9004 31.1198 9.41927 34.6029 8.3125 38.3789C7.20573 42.1549 6.6849 46.0286 6.75 50ZM50.5 25C47.0495 25 43.8105 25.651 40.7832 26.9531C37.7559 28.2552 35.1191 30.0456 32.873 32.3242C30.627 34.6029 28.8366 37.2559 27.502 40.2832C26.1673 43.3105 25.5 46.5495 25.5 50C25.5 53.3529 26.1185 56.543 27.3555 59.5703C28.5924 62.5977 30.4154 65.2995 32.8242 67.6758L28.3809 72.1191C25.4186 69.1569 23.1562 65.7715 21.5938 61.9629C20.0312 58.1543 19.25 54.1667 19.25 50C19.25 47.1354 19.6243 44.3685 20.373 41.6992C21.1217 39.0299 22.1634 36.5397 23.498 34.2285C24.8327 31.9173 26.4603 29.8177 28.3809 27.9297C30.3014 26.0417 32.4173 24.4141 34.7285 23.0469C37.0397 21.6797 39.5299 20.6217 42.1992 19.873C44.8685 19.1243 47.6354 18.75 50.5 18.75C52.9414 18.75 55.334 19.0267 57.6777 19.5801C60.0215 20.1335 62.2513 20.9635 64.3672 22.0703C66.4831 23.1771 68.485 24.4792 70.373 25.9766C72.2611 27.474 73.9212 29.2318 75.3535 31.25H66.8574C64.5788 29.2318 62.056 27.6855 59.2891 26.6113C56.5221 25.5371 53.5924 25 50.5 25ZM79.9434 37.5L100.5 58.0566V100H44.25V37.5H79.9434ZM81.75 48.1934V56.25H89.8066L81.75 48.1934ZM94.25 93.75V62.5H75.5V43.75H50.5V93.75H94.25ZM88 68.75V87.5H81.75V68.75H88ZM56.75 87.5V62.5H63V87.5H56.75ZM69.25 87.5V75H75.5V87.5H69.25Z" fill="white"/>
</g>
<defs>
<clipPath id="clip0_396_7257">
<rect width="100" height="100" fill="white" transform="translate(0.5)"/>
</clipPath>
</defs>
</svg>
