<svg width="101" height="100" viewBox="0 0 101 100" fill="none" xmlns="http://www.w3.org/2000/svg">
<path d="M50.5586 3.89648C42.5508 3.89648 36.0859 10.2832 36.0859 18.207C36.0859 22.6953 37.6484 24.8047 39.3672 27.5391C40.5195 29.3555 41.7109 31.4648 42.3945 34.4922H58.6055C59.2891 31.3867 60.4805 29.2578 61.6328 27.4219C63.3711 24.668 64.9141 22.5977 64.9141 18.207C64.9141 10.2832 58.5078 3.89648 50.5586 3.89648ZM22.8047 5.40039L16.3203 6.91406L32.1797 14.7754L22.8047 5.40039ZM78.1953 5.40039L68.8203 14.7754L84.6797 6.91406L78.1953 5.40039ZM41.6133 15.4687L50.5 19.9023L59.3867 15.4687L55.3242 31.6797L51.9258 30.8203L54.1133 22.0313L50.5 23.8477L46.8867 22.0313L49.0742 30.8203L45.6758 31.6797L41.6133 15.4687ZM13 18.7559V25.0195L31.75 21.875L13 18.7559ZM88 18.7559L69.25 21.875L88 25V18.7559ZM65.7734 28.1836L73.5664 40.5469L78.2734 37.5586L65.7734 28.1836ZM35.2266 28.2031L22.7266 37.5781L27.4336 40.5664L35.2266 28.2031ZM42.6875 37.3047V40.4297H58.3125V37.3047H42.6875ZM49.4062 42.832C46.7305 42.832 44.1523 42.9297 42.4336 43.0273C29.1133 45.1172 26.2422 63.6133 29.4062 80.4492H34.0156L33.8203 59.8633L37.4531 59.8242C37.1797 72.2656 37.7656 84.5508 38.5273 96.875H48.5664V76.2305H52.2187V96.875H62.0625C62.9414 84.1797 63.2148 71.1914 63.332 59.8242L66.9844 59.8633L66.7695 80.4492H71.5742C75.1484 63.1641 70.6367 45.5078 58.4687 43.2227C56.6328 42.9492 53.6055 42.832 50.5391 42.832H49.4062Z" fill="white"/>
</svg>
