<svg width="30" height="31" viewBox="0 0 30 31" fill="none" xmlns="http://www.w3.org/2000/svg">
<path fill-rule="evenodd" clip-rule="evenodd" d="M16.3251 20.2117C15.9736 20.5628 15.497 20.7601 15.0001 20.7601C14.5032 20.7601 14.0267 20.5628 13.6751 20.2117L6.60262 13.1417C6.25104 12.79 6.05359 12.313 6.05371 11.8156C6.05383 11.3183 6.2515 10.8414 6.60324 10.4898C6.95499 10.1382 7.43199 9.9408 7.92931 9.94092C8.42664 9.94104 8.90354 10.1387 9.25512 10.4905L15.0001 16.2355L20.7451 10.4905C21.0986 10.1487 21.5721 9.95952 22.0638 9.96356C22.5554 9.9676 23.0257 10.1646 23.3736 10.512C23.7214 10.8595 23.9188 11.3297 23.9233 11.8213C23.9278 12.3129 23.739 12.7867 23.3976 13.1405L16.3264 20.213L16.3251 20.2117Z" fill="white"/>
</svg>
