<svg width="40" height="40" viewBox="0 0 40 40" fill="none" xmlns="http://www.w3.org/2000/svg">
<circle cx="20" cy="20" r="19.5" stroke="#BECDC7" stroke-opacity="0.3"/>
<mask id="mask0_814_1294" style="mask-type:luminance" maskUnits="userSpaceOnUse" x="10" y="10" width="20" height="20">
<path d="M10 10H30V30H10V10Z" fill="white"/>
</mask>
<g mask="url(#mask0_814_1294)">
<path d="M15.266 28.2222L15.0867 28.1187L14.8867 28.1723L14.1543 28.3685L14.1543 28.3685L10.7071 29.2917L11.6308 25.8451L11.6308 25.8451L11.8271 25.1127L11.8807 24.9126L11.7771 24.7333C10.9719 23.3385 10.5118 21.7207 10.5118 19.9941C10.5118 14.7501 14.762 10.5 20.0053 10.5C25.2485 10.5 29.4987 14.7501 29.4987 19.9941C29.4987 25.2374 25.2486 29.4875 20.0053 29.4875C18.2787 29.4875 16.6602 29.0268 15.266 28.2222Z" stroke="#BECDC7" />
</g>
<path fill-rule="evenodd" clip-rule="evenodd" d="M17.2044 18.8816C17.6054 20.3668 19.632 22.3941 21.1179 22.7945L22.0091 21.9032C22.2224 21.6899 22.5348 21.6295 22.8124 21.7477C22.8715 21.7726 22.9325 21.7936 22.9929 21.8185C23.6525 22.0975 24.3166 22.3672 24.9802 22.6376C25.1843 22.7209 25.3326 22.8798 25.4002 23.0904C25.4671 23.2991 25.4402 23.5177 25.3234 23.7034C23.2902 26.9363 19.2008 24.997 17.1197 22.9159C17.1131 22.91 17.1072 22.9041 17.1007 22.8968C17.0954 22.8916 17.0888 22.8857 17.0829 22.8791C15.0018 20.7987 13.0631 16.7086 16.296 14.6761C16.4818 14.5592 16.6997 14.5317 16.9084 14.5993C17.119 14.6669 17.2785 14.8145 17.3612 15.0193C17.6323 15.6822 17.9013 16.347 18.1803 17.0072C18.2059 17.0669 18.2269 17.1273 18.2518 17.1871C18.3706 17.4647 18.3102 17.7771 18.0969 17.9897L17.2044 18.8816Z" fill="#BECDC7"/>
</svg>
