<svg width="30" height="31" viewBox="0 0 30 31" fill="none" xmlns="http://www.w3.org/2000/svg">
<path fill-rule="evenodd" clip-rule="evenodd" d="M16.3251 20.8553C15.9736 21.2064 15.497 21.4036 15.0001 21.4036C14.5032 21.4036 14.0267 21.2064 13.6751 20.8553L6.60262 13.7853C6.25104 13.4335 6.05359 12.9565 6.05371 12.4592C6.05383 11.9619 6.2515 11.485 6.60324 11.1334C6.95499 10.7818 7.43199 10.5844 7.92931 10.5845C8.42664 10.5846 8.90354 10.7823 9.25512 11.134L15.0001 16.879L20.7451 11.134C21.0986 10.7923 21.5721 10.6031 22.0638 10.6071C22.5554 10.6112 23.0257 10.8081 23.3736 11.1556C23.7214 11.5031 23.9188 11.9733 23.9233 12.4649C23.9278 12.9565 23.739 13.4302 23.3976 13.784L16.3264 20.8565L16.3251 20.8553Z" fill="white"/>
</svg>
