<svg width="30" height="31" viewBox="0 0 30 31" fill="none" xmlns="http://www.w3.org/2000/svg">
<path fill-rule="evenodd" clip-rule="evenodd" d="M16.3251 20.4754C15.9736 20.8265 15.497 21.0237 15.0001 21.0237C14.5032 21.0237 14.0267 20.8265 13.6751 20.4754L6.60262 13.4054C6.25104 13.0536 6.05359 12.5766 6.05371 12.0793C6.05383 11.582 6.2515 11.1051 6.60324 10.7535C6.95499 10.4019 7.43199 10.2045 7.92931 10.2046C8.42664 10.2047 8.90354 10.4024 9.25512 10.7541L15.0001 16.4991L20.7451 10.7541C21.0986 10.4124 21.5721 10.2232 22.0638 10.2272C22.5554 10.2313 23.0257 10.4282 23.3736 10.7757C23.7214 11.1232 23.9188 11.5934 23.9233 12.085C23.9278 12.5766 23.739 13.0503 23.3976 13.4041L16.3264 20.4766L16.3251 20.4754Z" fill="white"/>
</svg>
