<svg width="30" height="31" viewBox="0 0 30 31" fill="none" xmlns="http://www.w3.org/2000/svg">
<path fill-rule="evenodd" clip-rule="evenodd" d="M16.3251 21.0603C15.9736 21.4115 15.497 21.6087 15.0001 21.6087C14.5032 21.6087 14.0267 21.4115 13.6751 21.0603L6.60262 13.9903C6.25104 13.6386 6.05359 13.1616 6.05371 12.6643C6.05383 12.1669 6.2515 11.69 6.60324 11.3385C6.95499 10.9869 7.43199 10.7894 7.92931 10.7896C8.42664 10.7897 8.90354 10.9873 9.25512 11.3391L15.0001 17.0841L20.7451 11.3391C21.0986 10.9974 21.5721 10.8082 22.0638 10.8122C22.5554 10.8162 23.0257 11.0132 23.3736 11.3607C23.7214 11.7082 23.9188 12.1783 23.9233 12.67C23.9278 13.1616 23.739 13.6353 23.3976 13.9891L16.3264 21.0616L16.3251 21.0603Z" fill="white"/>
</svg>
