<svg width="30" height="31" viewBox="0 0 30 31" fill="none" xmlns="http://www.w3.org/2000/svg">
<path fill-rule="evenodd" clip-rule="evenodd" d="M16.3251 20.4407C15.9736 20.7918 15.497 20.9891 15.0001 20.9891C14.5032 20.9891 14.0267 20.7918 13.6751 20.4407L6.60262 13.3707C6.25104 13.019 6.05359 12.542 6.05371 12.0446C6.05383 11.5473 6.2515 11.0704 6.60324 10.7188C6.95499 10.3673 7.43199 10.1698 7.92931 10.1699C8.42664 10.17 8.90354 10.3677 9.25512 10.7195L15.0001 16.4645L20.7451 10.7195C21.0986 10.3777 21.5721 10.1885 22.0638 10.1926C22.5554 10.1966 23.0257 10.3936 23.3736 10.741C23.7214 11.0885 23.9188 11.5587 23.9233 12.0503C23.9278 12.5419 23.739 13.0157 23.3976 13.3695L16.3264 20.442L16.3251 20.4407Z" fill="white"/>
</svg>
