<svg width="94" height="56" viewBox="0 0 94 56" fill="none" xmlns="http://www.w3.org/2000/svg">
<path d="M56.5 34.375L50.25 40.5V22.9167H56.5M66.9167 30.5417L63.6458 27.75L60.6667 30.5V14.5833H66.9167M77.3333 27.0833L71.0833 33.3333V6.25H77.3333M83.1875 26.6875L79.4167 22.9167H89.8333V33.3333L86.1042 29.6042L71.0833 44.5L63.8542 38.2083L55.9792 45.8333H50.25L63.7292 32.625L71.0833 38.8333" fill="white"/>
<path d="M25.0002 15.8958C25.0002 16.8628 24.616 17.7901 23.9323 18.4738C23.2486 19.1576 22.3213 19.5417 21.3543 19.5417C20.3874 19.5417 19.4601 19.1576 18.7763 18.4738C18.0926 17.7901 17.7085 16.8628 17.7085 15.8958C17.7085 14.9289 18.0926 14.0016 18.7763 13.3178C19.4601 12.6341 20.3874 12.25 21.3543 12.25C22.3213 12.25 23.2486 12.6341 23.9323 13.3178C24.616 14.0016 25.0002 14.9289 25.0002 15.8958Z" fill="white"/>
<path fill-rule="evenodd" clip-rule="evenodd" d="M7.29183 22.9457C6.97515 23.1285 6.71218 23.3915 6.52934 23.7082C6.34651 24.0249 6.25025 24.3842 6.25025 24.7498C6.25025 25.1155 6.34651 25.4748 6.52934 25.7915C6.71218 26.1082 6.97515 26.3711 7.29183 26.554V39.5113C6.68246 39.7267 6.15488 40.1258 5.78177 40.6536C5.40866 41.1814 5.20837 41.8118 5.2085 42.4582V48.7082H7.29183V44.5415H9.37516V48.7082H11.4585V42.4582C11.4588 41.8117 11.2586 41.181 10.8855 40.653C10.5124 40.125 9.9847 39.7258 9.37516 39.5103V26.8332H15.6252V47.6665C15.6252 48.219 15.8447 48.7489 16.2354 49.1396C16.6261 49.5303 17.156 49.7498 17.7085 49.7498C18.261 49.7498 18.7909 49.5303 19.1816 49.1396C19.5723 48.7489 19.7918 48.219 19.7918 47.6665V38.2915H22.9168V47.6665C22.9168 48.219 23.1363 48.7489 23.527 49.1396C23.9177 49.5303 24.4476 49.7498 25.0002 49.7498C25.5527 49.7498 26.0826 49.5303 26.4733 49.1396C26.864 48.7489 27.0835 48.219 27.0835 47.6665V35.08C28.6252 34.8147 30.0115 33.981 30.9686 32.7435C31.9256 31.506 32.384 29.9547 32.2532 28.3958C32.1224 26.8368 31.4119 25.3836 30.262 24.3229C29.112 23.2622 27.6062 22.6712 26.0418 22.6665H9.37516V19.5415H7.29183V22.9457ZM29.1668 28.9165C29.1668 28.364 28.9473 27.8341 28.5566 27.4434C28.1659 27.0527 27.636 26.8332 27.0835 26.8332V30.9998C27.636 30.9998 28.1659 30.7803 28.5566 30.3896C28.9473 29.9989 29.1668 29.469 29.1668 28.9165Z" fill="white"/>
<path d="M38.4524 24.3281C38.5114 24.461 38.5419 24.6047 38.542 24.75V48.7083C38.542 48.9846 38.4323 49.2496 38.2369 49.4449C38.0416 49.6403 37.7766 49.75 37.5003 49.75C37.2241 49.75 36.9591 49.6403 36.7638 49.4449C36.5684 49.2496 36.4587 48.9846 36.4587 48.7083V38.349C36.4576 38.8896 36.417 39.2656 36.417 39.2656C36.417 39.2656 33.367 39.675 32.1639 38.4844C30.9618 37.2937 31.292 34.1927 31.292 34.1927C31.292 34.1927 34.342 33.7833 35.5451 34.974C36.3139 35.7344 36.4555 37.276 36.4587 38.2896V24.75C36.4587 24.6 36.4899 24.4562 36.5483 24.3281C35.8045 23.5031 34.8962 22.2594 34.8962 21.1042C34.8962 19.149 37.5003 16.9375 37.5003 16.9375C37.5003 16.9375 40.1045 19.149 40.1045 21.1042C40.1045 22.2594 39.1962 23.5031 38.4524 24.3281Z" fill="white"/>
<path d="M39.4554 42.2656C40.6585 41.076 43.7085 41.4843 43.7085 41.4843C43.7085 41.4843 44.0387 44.5854 42.8366 45.776C41.6335 46.9656 38.5835 46.5572 38.5835 46.5572C38.5835 46.5572 38.2533 43.4562 39.4554 42.2656ZM43.7085 26.901C43.7085 26.901 40.6585 26.4916 39.4554 27.6822C38.2533 28.8729 38.5835 31.9739 38.5835 31.9739C38.5835 31.9739 41.6335 32.3833 42.8366 31.1926C44.0387 30.002 43.7085 26.901 43.7085 26.901Z" fill="white"/>
</svg>
