<svg width="30" height="31" viewBox="0 0 30 31" fill="none" xmlns="http://www.w3.org/2000/svg">
<path fill-rule="evenodd" clip-rule="evenodd" d="M16.3251 20.7967C15.9736 21.1478 15.497 21.345 15.0001 21.345C14.5032 21.345 14.0267 21.1478 13.6751 20.7967L6.60262 13.7267C6.25104 13.3749 6.05359 12.8979 6.05371 12.4006C6.05383 11.9033 6.2515 11.4264 6.60324 11.0748C6.95499 10.7232 7.43199 10.5258 7.92931 10.5259C8.42664 10.526 8.90354 10.7237 9.25512 11.0754L15.0001 16.8204L20.7451 11.0754C21.0986 10.7337 21.5721 10.5445 22.0638 10.5485C22.5554 10.5526 23.0257 10.7495 23.3736 11.097C23.7214 11.4445 23.9188 11.9147 23.9233 12.4063C23.9278 12.8979 23.739 13.3716 23.3976 13.7254L16.3264 20.7979L16.3251 20.7967Z" fill="white"/>
</svg>
