<svg width="1519" height="554" viewBox="0 0 1519 554" fill="none" xmlns="http://www.w3.org/2000/svg">
<path d="M1492.5 17.9287L1519 10.1963L1519 554L-3.15308e-05 554L-3.15308e-05 5.37857L12.6628 14.343L12.6627 5.37857L42.5 10.1963L69.5 5.37857L91 10.1963L107 14.343H128.738H140.345L155.5 18.1267L164.5 21.5255L177.278 14.343L186.775 26.8932L204 21.5255L223.708 26.8932L240.064 30.4789H264.5L287.022 26.8932L300.212 30.4789H328.703L340.5 30.4789L347.697 26.8932H362.471L371.44 14.343H381.992H401L414.177 -2.80142e-05L435.5 5.37857L453.748 -2.80142e-05L469.576 14.343H482.767L504.399 14.343L513.5 18.1267H527.5L549.246 14.343H557.16L562.964 26.8932H578.792L591.983 30.4789L593.565 26.8932L605.5 30.4789L624.695 26.8932H630.498H643.689L656.879 14.343H671.652H695.395C702.993 24.3831 716.148 18.5264 721.776 14.343C728.107 18.5264 740.89 18.1267 743 18.1267C745.638 18.1267 751.322 26.8932 752.377 26.8932C753.221 26.8932 758.709 18.5264 761.347 14.343L783 21.5255L796.697 26.8932L819.384 35.8576V21.5145L851.569 35.8576H866.869H876.894L899.5 39.9355H928.5L948.65 35.8576H957.619L974.503 35.8576H984.527C988.221 42.4315 995.545 39.9355 998.5 39.9355C1001.45 39.9355 1011.08 42.4315 1015.13 35.8576L1033 30.4789C1036.52 43.0291 1048.05 54.2786 1057.34 39.9355C1066.62 25.5925 1078.55 27.4908 1084 26.8932L1092.16 17.9287C1095.15 23.905 1102.7 26.8932 1106.5 26.8932C1110.3 26.8932 1115.2 23.905 1117.49 17.9287C1118.89 12.5501 1136.18 5.01999 1148 17.9287C1159.82 30.8375 1160.75 23.3073 1165.5 17.9287H1177.63H1188.71H1195.05L1215 21.5255C1222.91 21.5255 1233.12 21.5145 1236.5 21.5145C1239.88 21.5145 1257.19 21.5255 1260 21.5255L1277.35 17.9287L1304.79 17.9287H1327.48H1347L1371.5 18.1267L1384.5 5.94779L1398.5 14.343L1418.75 17.9287H1434.58L1454.1 17.9287C1457.48 17.9287 1466.34 20.9169 1472.5 26.8932L1472.5 23.7914L1492.5 17.9287Z" fill="#255946"/>
</svg>
