<svg width="50" height="50" viewBox="0 0 50 50" fill="none" xmlns="http://www.w3.org/2000/svg">
<path d="M16.6665 18.75C16.6665 14.8667 16.6665 12.925 16.0353 11.3958C15.6162 10.3839 15.0018 9.46449 14.2271 8.6902C13.4525 7.9159 12.5328 7.30191 11.5207 6.88333C9.9915 6.25 8.04984 6.25 4.1665 6.25C4.1665 10.1333 4.1665 12.075 4.79775 13.6042C5.2168 14.6161 5.83121 15.5355 6.60586 16.3098C7.38052 17.0841 8.30021 17.6981 9.31234 18.1167C10.8415 18.75 12.7832 18.75 16.6665 18.75ZM16.6665 18.75C16.6665 16.1604 16.6665 14.8667 17.0894 13.8458C17.654 12.4854 18.7353 11.4021 20.0957 10.8396C21.1165 10.4167 22.4123 10.4167 24.9998 10.4167C24.9998 13.0062 24.9998 14.3 24.5769 15.3208C24.0124 16.6814 22.9313 17.7626 21.5707 18.3271C20.5498 18.75 19.2561 18.75 16.6665 18.75ZM16.6665 18.75V29.1667M24.9998 29.1667H4.1665M24.9998 35.4167H4.1665M24.9998 41.6667H4.1665M33.3332 38.5479C33.3332 35.9333 35.5269 33.35 37.0665 31.8583C37.4584 31.4685 37.9887 31.2497 38.5415 31.2497C39.0943 31.2497 39.6246 31.4685 40.0165 31.8583C41.5561 33.35 43.7498 35.9333 43.7498 38.5479C43.7498 41.1125 41.7769 43.75 38.5415 43.75C35.3061 43.75 33.3332 41.1125 33.3332 38.5479Z" stroke="white" stroke-width="1.5" stroke-linecap="round" stroke-linejoin="round"/>
<path d="M38 20.625C37.644 20.6267 37.2951 20.7124 36.99 20.8731L35.0835 19.2044C35.3551 18.8477 35.5001 18.4287 35.5001 18C35.5001 17.5714 35.3551 17.1523 35.0835 16.7956L36.357 15.6813C36.6792 15.817 37.0458 15.8487 37.3921 15.7705C37.7383 15.6924 38.0418 15.5095 38.2487 15.2544C38.4557 14.9992 38.5527 14.6882 38.5227 14.3764C38.4926 14.0646 38.3374 13.7722 38.0846 13.551C37.8317 13.3298 37.4975 13.194 37.1412 13.1677C36.7849 13.1414 36.4295 13.2263 36.1379 13.4074C35.8462 13.5884 35.6373 13.854 35.548 14.1569C35.4587 14.4599 35.4948 14.7807 35.65 15.0626L34.3765 16.1769C33.9688 15.9393 33.4899 15.8124 33 15.8124C32.5101 15.8124 32.0312 15.9393 31.6235 16.1769L29.7165 14.5083C29.9 14.2415 29.9979 13.9364 30 13.625C30 13.2789 29.8827 12.9405 29.6629 12.6528C29.4432 12.365 29.1308 12.1407 28.7654 12.0082C28.3999 11.8758 27.9978 11.8411 27.6098 11.9086C27.2219 11.9762 26.8655 12.1428 26.5858 12.3876C26.3061 12.6323 26.1156 12.9441 26.0384 13.2836C25.9613 13.6231 26.0009 13.9749 26.1522 14.2947C26.3036 14.6145 26.56 14.8878 26.8889 15.0801C27.2178 15.2724 27.6044 15.375 28 15.375C28.356 15.3733 28.7049 15.2876 29.01 15.1269L30.9165 16.7956C30.6449 17.1523 30.4999 17.5714 30.4999 18C30.4999 18.4287 30.6449 18.8477 30.9165 19.2044L29.0095 20.8731C28.7046 20.7125 28.3559 20.6268 28 20.625C27.6044 20.625 27.2178 20.7276 26.8889 20.9199C26.56 21.1122 26.3036 21.3855 26.1522 21.7053C26.0009 22.0251 25.9613 22.3769 26.0384 22.7164C26.1156 23.0559 26.3061 23.3677 26.5858 23.6124C26.8655 23.8572 27.2219 24.0239 27.6098 24.0914C27.9978 24.1589 28.3999 24.1242 28.7654 23.9918C29.1308 23.8593 29.4432 23.635 29.6629 23.3472C29.8827 23.0595 30 22.7211 30 22.375C29.998 22.0635 29.9001 21.7582 29.7165 21.4913L31.6235 19.8231C31.8896 19.9778 32.1871 20.0866 32.5 20.1433V21.5805C32.1664 21.6837 31.8852 21.8868 31.7062 22.1538C31.5271 22.4209 31.4618 22.7347 31.5216 23.0399C31.5814 23.345 31.7626 23.6219 32.0332 23.8214C32.3037 24.021 32.6462 24.1304 33 24.1304C33.3538 24.1304 33.6963 24.021 33.9668 23.8214C34.2374 23.6219 34.4186 23.345 34.4784 23.0399C34.5382 22.7347 34.4729 22.4209 34.2938 22.1538C34.1148 21.8868 33.8336 21.6837 33.5 21.5805V20.1433C33.8129 20.0866 34.1104 19.9778 34.3765 19.8231L36.2835 21.4917C36.1 21.7585 36.0021 22.0636 36 22.375C36 22.7211 36.1173 23.0595 36.3371 23.3472C36.5568 23.635 36.8692 23.8593 37.2346 23.9918C37.6001 24.1242 38.0022 24.1589 38.3902 24.0914C38.7781 24.0239 39.1345 23.8572 39.4142 23.6124C39.6939 23.3677 39.8844 23.0559 39.9616 22.7164C40.0387 22.3769 39.9991 22.0251 39.8478 21.7053C39.6964 21.3855 39.44 21.1122 39.1111 20.9199C38.7822 20.7276 38.3956 20.625 38 20.625ZM33 16.6875C33.2967 16.6875 33.5867 16.7645 33.8334 16.9087C34.08 17.0529 34.2723 17.2579 34.3858 17.4977C34.4994 17.7376 34.5291 18.0015 34.4712 18.2561C34.4133 18.5107 34.2704 18.7445 34.0607 18.9281C33.8509 19.1116 33.5836 19.2366 33.2926 19.2873C33.0017 19.3379 32.7001 19.3119 32.426 19.2126C32.1519 19.1133 31.9176 18.945 31.7528 18.7292C31.588 18.5133 31.5 18.2596 31.5 18C31.5004 17.652 31.6586 17.3184 31.9398 17.0723C32.221 16.8262 32.6023 16.6878 33 16.6875ZM27 13.625C27 13.4519 27.0586 13.2828 27.1685 13.1389C27.2784 12.995 27.4346 12.8828 27.6173 12.8166C27.8 12.7504 28.0011 12.7331 28.1951 12.7668C28.3891 12.8006 28.5673 12.8839 28.7071 13.0063C28.847 13.1287 28.9422 13.2846 28.9808 13.4543C29.0194 13.624 28.9996 13.8 28.9239 13.9598C28.8482 14.1197 28.72 14.2564 28.5556 14.3525C28.3911 14.4487 28.1978 14.5 28 14.5C27.7348 14.5 27.4804 14.4078 27.2929 14.2437C27.1054 14.0796 27 13.8571 27 13.625ZM28 23.25C27.8022 23.25 27.6089 23.1987 27.4444 23.1025C27.28 23.0064 27.1518 22.8697 27.0761 22.7098C27.0004 22.55 26.9806 22.374 27.0192 22.2043C27.0578 22.0346 27.153 21.8787 27.2929 21.7563C27.4327 21.6339 27.6109 21.5506 27.8049 21.5168C27.9989 21.4831 28.2 21.5004 28.3827 21.5666C28.5654 21.6328 28.7216 21.745 28.8315 21.8889C28.9414 22.0328 29 22.2019 29 22.375C29 22.6071 28.8946 22.8296 28.7071 22.9937C28.5196 23.1578 28.2652 23.25 28 23.25ZM38 23.25C37.8022 23.25 37.6089 23.1987 37.4444 23.1025C37.28 23.0064 37.1518 22.8697 37.0761 22.7098C37.0004 22.55 36.9806 22.374 37.0192 22.2043C37.0578 22.0346 37.153 21.8787 37.2929 21.7563C37.4327 21.6339 37.6109 21.5506 37.8049 21.5168C37.9989 21.4831 38.2 21.5004 38.3827 21.5666C38.5654 21.6328 38.7216 21.745 38.8315 21.8889C38.9414 22.0328 39 22.2019 39 22.375C38.9996 22.607 38.8941 22.8293 38.7067 22.9933C38.5192 23.1574 38.2651 23.2497 38 23.25Z" fill="white"/>
</svg>
