<svg width="33" height="33" viewBox="0 0 33 33" fill="none" xmlns="http://www.w3.org/2000/svg">
<g clip-path="url(#clip0_396_7201)">
<path d="M16.7998 30.4233C14.2398 30.4233 11.8931 29.8011 9.7598 28.5566C7.62647 27.3122 5.93758 25.6233 4.69314 23.49C3.44869 21.3566 2.82647 19.01 2.82647 16.45C2.82647 13.89 3.44869 11.5433 4.69314 9.40995C5.93758 7.27662 7.62647 5.58773 9.7598 4.34328C11.8931 3.09884 14.2398 2.47662 16.7998 2.47662C19.3598 2.47662 21.7065 3.09884 23.8398 4.34328C25.9731 5.58773 27.662 7.27662 28.9065 9.40995C30.1509 11.5433 30.7731 13.89 30.7731 16.45C30.7731 19.01 30.1509 21.3566 28.9065 23.49C27.662 25.6233 25.9731 27.3122 23.8398 28.5566C21.7065 29.8011 19.3598 30.4233 16.7998 30.4233ZM16.7998 32.45C19.7154 32.45 22.3998 31.7388 24.8531 30.3166C27.3065 28.8944 29.2442 26.9566 30.6665 24.5033C32.0887 22.05 32.7998 19.3655 32.7998 16.45C32.7998 13.5344 32.0887 10.85 30.6665 8.39662C29.2442 5.94328 27.3065 4.00551 24.8531 2.58328C22.3998 1.16106 19.7154 0.44995 16.7998 0.44995C13.8842 0.44995 11.1998 1.16106 8.74647 2.58328C6.29314 4.00551 4.35536 5.94328 2.93314 8.39662C1.51092 10.85 0.799805 13.5344 0.799805 16.45C0.799805 19.3655 1.51092 22.05 2.93314 24.5033C4.35536 26.9566 6.29314 28.8944 8.74647 30.3166C11.1998 31.7388 13.8842 32.45 16.7998 32.45ZM13.3865 10.5833C13.742 10.37 14.062 10.37 14.3465 10.5833L21.3865 15.5966C21.6709 15.81 21.8131 16.0944 21.8131 16.45C21.8131 16.8055 21.6709 17.09 21.3865 17.3033L14.3465 22.3166C14.062 22.53 13.7242 22.5477 13.3331 22.37C12.942 22.1922 12.782 21.89 12.8531 21.4633V11.4366C12.782 11.01 12.9598 10.7255 13.3865 10.5833Z" fill="white" fill-opacity="0.5"/>
</g>
<defs>
<clipPath id="clip0_396_7201">
<rect width="32" height="32" fill="white" transform="matrix(1 0 0 -1 0.799805 32.45)"/>
</clipPath>
</defs>
</svg>
