<svg width="10" height="14" viewBox="0 0 10 14" fill="none" xmlns="http://www.w3.org/2000/svg">
<g clip-path="url(#clip0_396_7175)">
<path d="M0.730469 3.49999C0.730469 3.00221 0.842166 2.58221 1.06556 2.23999C1.28896 1.89777 1.56312 1.72665 1.88806 1.72665H8.74223C9.04686 1.72665 9.31087 1.89777 9.53426 2.23999C9.75766 2.58221 9.86936 3.00221 9.86936 3.49999V10.5C9.86936 10.9978 9.75766 11.41 9.53426 11.7367C9.31087 12.0633 9.0367 12.2267 8.71176 12.2267H1.88806C1.56312 12.2267 1.28896 12.0633 1.06556 11.7367C0.842166 11.41 0.730469 10.9978 0.730469 10.5V3.49999ZM1.88806 2.61332C1.72559 2.61332 1.58851 2.69888 1.47681 2.86999C1.36511 3.0411 1.30927 3.2511 1.30927 3.49999V3.68665L5.29991 7.37332L9.29056 3.68665V3.49999C9.29056 3.2511 9.23471 3.0411 9.12301 2.86999C9.01132 2.69888 8.88439 2.61332 8.74223 2.61332H1.88806ZM9.29056 4.71332L6.60982 7.18665L9.29056 9.70665V4.71332ZM9.29056 10.7333L6.06149 7.69999L5.29991 8.39999L4.53834 7.69999L1.30927 10.7333C1.34988 10.92 1.42096 11.0755 1.52251 11.2C1.62405 11.3244 1.7459 11.3867 1.88806 11.3867H8.74223C8.86408 11.3867 8.97578 11.3244 9.07732 11.2C9.17886 11.0755 9.24994 10.92 9.29056 10.7333ZM1.30927 9.70665L3.99001 7.18665L1.30927 4.71332V9.70665Z" fill="#075A53"/>
</g>
<defs>
<clipPath id="clip0_396_7175">
<rect width="9.4" height="14" fill="white" transform="matrix(1 0 0 -1 0.600098 14)"/>
</clipPath>
</defs>
</svg>
