<svg width="40" height="40" viewBox="0 0 40 40" fill="none" xmlns="http://www.w3.org/2000/svg">
<rect x="0.5" y="0.5" width="39" height="39" rx="19.5" stroke="white" stroke-opacity="0.2"/>
<g clip-path="url(#clip0_396_8546)">
<path d="M17.0133 26.5869C18.9333 26.5869 20.64 26.1069 22.1333 25.1469C23.4844 24.258 24.5333 23.0847 25.28 21.6269C25.9911 20.2047 26.3467 18.7469 26.3467 17.2536V16.8269C26.9867 16.3647 27.5378 15.7958 28 15.1202C27.3956 15.4047 26.7733 15.5825 26.1333 15.6536C26.8444 15.2269 27.3244 14.6225 27.5733 13.8402C26.8978 14.2314 26.2044 14.498 25.4933 14.6402C24.96 14.1069 24.3289 13.778 23.6 13.6536C22.8711 13.5291 22.1778 13.6447 21.52 14.0002C20.8622 14.3558 20.3822 14.8714 20.08 15.5469C19.7778 16.2225 19.7156 16.9158 19.8933 17.6269C18.5778 17.5558 17.3244 17.2269 16.1333 16.6402C14.9422 16.0536 13.9378 15.2447 13.12 14.2136C12.6933 14.9602 12.5778 15.7514 12.7733 16.5869C12.9689 17.4225 13.4222 18.0891 14.1333 18.5869C13.6 18.5514 13.1022 18.4091 12.64 18.1602V18.2136C12.64 18.9958 12.8889 19.6891 13.3867 20.2936C13.8844 20.898 14.5067 21.2714 15.2533 21.4136C14.9689 21.5202 14.6844 21.5736 14.4 21.5736C14.1867 21.5736 13.9911 21.5558 13.8133 21.5202C14.0267 22.1602 14.4089 22.6936 14.96 23.1202C15.5111 23.5469 16.1422 23.7602 16.8533 23.7602C16.2844 24.2225 15.6444 24.578 14.9333 24.8269C14.2222 25.0758 13.5111 25.2002 12.8 25.2002C12.5156 25.2002 12.2489 25.1825 12 25.1469C13.5289 26.1069 15.2 26.5869 17.0133 26.5869Z" fill="white" fill-opacity="0.7"/>
</g>
<defs>
<clipPath id="clip0_396_8546">
<rect width="16" height="16" fill="white" transform="matrix(1 0 0 -1 12 27.6001)"/>
</clipPath>
</defs>
</svg>
