<svg width="40" height="40" viewBox="0 0 40 40" fill="none" xmlns="http://www.w3.org/2000/svg">
<rect x="0.5" y="0.5" width="39" height="39" rx="19.5" stroke="white" stroke-opacity="0.2"/>
<path fill-rule="evenodd" clip-rule="evenodd" d="M25.6688 14.3255C24.1646 12.8267 22.1644 12.0009 20.0337 12C15.6428 12 12.0683 15.5566 12.0666 19.9285C12.0666 21.3257 12.4331 22.6893 13.1297 23.8923L12 28L16.2232 26.8969C17.3875 27.5284 18.6973 27.8613 20.0302 27.8622H20.0337C24.4237 27.8622 27.9982 24.3056 28 19.9338C28 17.8159 27.1729 15.8242 25.6688 14.3255ZM20.0337 26.5242H20.0311C18.8428 26.5233 17.6776 26.2062 16.6607 25.6048L16.4193 25.4617L13.9133 26.1161L14.5815 23.6847L14.4244 23.4356C13.7615 22.3864 13.4119 21.1738 13.4119 19.9285C13.4136 16.295 16.3838 13.3389 20.0364 13.3389C21.805 13.3398 23.4671 14.0261 24.7175 15.2714C25.9669 16.5176 26.6556 18.1727 26.6547 19.9338C26.6529 23.5672 23.6828 26.5242 20.0337 26.5242ZM23.6659 21.588C23.4662 21.4882 22.4883 21.0095 22.3055 20.9433C22.1236 20.877 21.9913 20.8443 21.8582 21.0422C21.7251 21.24 21.3435 21.686 21.2273 21.8185C21.111 21.951 20.9948 21.9669 20.796 21.868C20.5972 21.769 19.9556 21.5597 19.1951 20.885C18.6032 20.3595 18.2039 19.7112 18.0876 19.5125C17.9714 19.3138 18.0752 19.2069 18.1755 19.108C18.2651 19.0197 18.3743 18.8766 18.4737 18.7609C18.573 18.6452 18.6059 18.563 18.6724 18.4306C18.739 18.2981 18.7062 18.1824 18.6556 18.0835C18.6059 17.9837 18.2074 17.0086 18.0415 16.6121C17.8809 16.2279 17.7167 16.2791 17.5942 16.2738C17.4789 16.2685 17.3458 16.2667 17.2135 16.2667C17.0804 16.2667 16.8648 16.3162 16.682 16.514C16.4992 16.7127 15.9854 17.1914 15.9854 18.1665C15.9854 19.1415 16.6988 20.0839 16.7982 20.2164C16.8976 20.3489 18.2021 22.3493 20.1988 23.2078C20.6744 23.4118 21.0454 23.5337 21.3338 23.6255C21.8103 23.7766 22.2443 23.7545 22.5877 23.7041C22.9702 23.6476 23.7653 23.2254 23.9312 22.7626C24.0972 22.2998 24.0972 21.9033 24.0475 21.8203C23.9978 21.7372 23.8638 21.6869 23.6659 21.588Z" fill="#BECDC7"/>
</svg>
