<svg width="40" height="40" viewBox="0 0 40 40" fill="none" xmlns="http://www.w3.org/2000/svg">
<rect x="0.5" y="0.5" width="39" height="39" rx="19.5" stroke="white" stroke-opacity="0.2"/>
<g clip-path="url(#clip0_465_2490)">
<path d="M28 19.6534C28 18.1957 27.6444 16.8534 26.9333 15.6268C26.2222 14.4001 25.2533 13.4223 24.0267 12.6934C22.8 11.9645 21.4578 11.6001 20 11.6001C18.5422 11.6001 17.2 11.9645 15.9733 12.6934C14.7467 13.4223 13.7778 14.4001 13.0667 15.6268C12.3556 16.8534 12 18.1957 12 19.6534C12 20.969 12.2933 22.1957 12.88 23.3334C13.4667 24.4712 14.2756 25.4134 15.3067 26.1601C16.3378 26.9068 17.4933 27.3868 18.7733 27.6001V22.0001H16.6933V19.6534H18.7733V17.8934C18.7733 16.8979 19.04 16.1245 19.5733 15.5734C20.1067 15.0223 20.8356 14.7468 21.76 14.7468C22.1156 14.7468 22.5244 14.7645 22.9867 14.8001L23.5733 14.9068V16.8801H22.56C22.0978 16.8801 21.76 16.9957 21.5467 17.2268C21.3333 17.4579 21.2267 17.769 21.2267 18.1601V19.6534H23.4667L23.0933 22.0001H21.2267V27.6001C22.5067 27.3868 23.6622 26.9068 24.6933 26.1601C25.7244 25.4134 26.5333 24.4712 27.12 23.3334C27.7067 22.1957 28 20.969 28 19.6534Z" fill="white" fill-opacity="0.7"/>
</g>
<defs>
<clipPath id="clip0_465_2490">
<rect width="16" height="16" fill="white" transform="matrix(1 0 0 -1 12 27.6001)"/>
</clipPath>
</defs>
</svg>
