<svg width="40" height="40" viewBox="0 0 40 40" fill="none" xmlns="http://www.w3.org/2000/svg">
<rect x="0.5" y="0.5" width="39" height="39" rx="19.5" stroke="white" stroke-opacity="0.2"/>
<g clip-path="url(#clip0_396_8552)">
<path d="M20 11.6001C18.5067 11.6001 17.3956 11.6179 16.6667 11.6534C15.9378 11.689 15.3067 11.8134 14.7733 12.0268C14.24 12.2401 13.7689 12.5512 13.36 12.9601C12.9511 13.369 12.64 13.8401 12.4267 14.3734C12.2133 14.9068 12.0889 15.5379 12.0533 16.2668C12.0178 16.9957 12 18.1068 12 19.6001C12 21.0934 12.0178 22.2045 12.0533 22.9334C12.0889 23.6623 12.2133 24.2934 12.4267 24.8268C12.64 25.3601 12.9511 25.8312 13.36 26.2401C13.7689 26.649 14.24 26.9601 14.7733 27.1734C15.3067 27.3868 15.9378 27.5112 16.6667 27.5468C17.3956 27.5823 18.5067 27.6001 20 27.6001C21.4933 27.6001 22.6044 27.5823 23.3333 27.5468C24.0622 27.5112 24.6933 27.3868 25.2267 27.1734C25.76 26.9601 26.2311 26.649 26.64 26.2401C27.0489 25.8312 27.36 25.3601 27.5733 24.8268C27.7867 24.2934 27.9111 23.6623 27.9467 22.9334C27.9822 22.2045 28 21.0934 28 19.6001C28 18.1068 27.9822 16.9957 27.9467 16.2668C27.9111 15.5379 27.7867 14.9068 27.5733 14.3734C27.36 13.8401 27.0489 13.369 26.64 12.9601C26.2311 12.5512 25.76 12.2401 25.2267 12.0268C24.6933 11.8134 24.0622 11.689 23.3333 11.6534C22.6044 11.6179 21.4933 11.6001 20 11.6001ZM19.3067 13.0401H20C21.4933 13.0401 22.5778 13.0579 23.2533 13.0934C23.8222 13.129 24.2933 13.2179 24.6667 13.3601C25.04 13.5023 25.36 13.7068 25.6267 13.9734C25.8933 14.2401 26.0978 14.5601 26.24 14.9334C26.3822 15.3068 26.4711 15.7779 26.5067 16.3468C26.5422 17.0223 26.56 18.1068 26.56 19.6001C26.56 21.0934 26.5422 22.1779 26.5067 22.8534C26.4711 23.4223 26.3822 23.8934 26.24 24.2668C26.0978 24.6401 25.8933 24.9601 25.6267 25.2268C25.36 25.4934 25.04 25.6979 24.6667 25.8401C24.2933 25.9823 23.8222 26.0712 23.2533 26.1068C22.5422 26.1423 21.4578 26.1601 20 26.1601C18.5422 26.1601 17.4578 26.1423 16.7467 26.1068C16.1778 26.0712 15.7067 25.9823 15.3333 25.8401C14.96 25.6979 14.64 25.4934 14.3733 25.2268C14.1067 24.9601 13.9022 24.6401 13.76 24.2668C13.6178 23.8934 13.5289 23.4223 13.4933 22.8534C13.4578 22.1423 13.44 21.049 13.44 19.5734C13.44 18.0979 13.4578 17.0223 13.4933 16.3468C13.5289 15.7779 13.6178 15.3068 13.76 14.9334C13.9022 14.5601 14.1067 14.2401 14.3733 13.9734C14.64 13.7068 14.96 13.5023 15.3333 13.3601C15.7067 13.2179 16.1956 13.129 16.8 13.0934C17.4044 13.0579 18.24 13.0401 19.3067 13.0401ZM24.2667 14.3734C24.0178 14.3734 23.7956 14.4623 23.6 14.6401C23.4044 14.8179 23.3067 15.0401 23.3067 15.3068C23.3067 15.5734 23.4044 15.8045 23.6 16.0001C23.7956 16.1957 24.0267 16.2934 24.2933 16.2934C24.56 16.2934 24.7822 16.1957 24.96 16.0001C25.1378 15.8045 25.2267 15.5734 25.2267 15.3068C25.2267 15.0401 25.1378 14.8179 24.96 14.6401C24.7822 14.4623 24.5511 14.3734 24.2667 14.3734ZM20 15.4934C19.2533 15.4934 18.56 15.6712 17.92 16.0268C17.28 16.3823 16.7733 16.8801 16.4 17.5201C16.0267 18.1601 15.84 18.8534 15.84 19.6001C15.84 20.3468 16.0267 21.0401 16.4 21.6801C16.7733 22.3201 17.28 22.8179 17.92 23.1734C18.56 23.529 19.2533 23.7068 20 23.7068C20.7467 23.7068 21.4311 23.5201 22.0533 23.1468C22.6756 22.7734 23.1644 22.2757 23.52 21.6534C23.8756 21.0312 24.0533 20.3468 24.0533 19.6001C24.0533 18.8534 23.8756 18.169 23.52 17.5468C23.1644 16.9245 22.6756 16.4268 22.0533 16.0534C21.4311 15.6801 20.7467 15.4934 20 15.4934ZM20 16.9334C20.4622 16.9334 20.9067 17.049 21.3333 17.2801C21.76 17.5112 22.0889 17.8401 22.32 18.2668C22.5511 18.6934 22.6667 19.1379 22.6667 19.6001C22.6667 20.0623 22.5511 20.5068 22.32 20.9334C22.0889 21.3601 21.76 21.689 21.3333 21.9201C20.9067 22.1512 20.4622 22.2668 20 22.2668C19.2533 22.2668 18.6222 22.009 18.1067 21.4934C17.5911 20.9779 17.3333 20.3468 17.3333 19.6001C17.3333 18.8534 17.5911 18.2223 18.1067 17.7068C18.6222 17.1912 19.2533 16.9334 20 16.9334Z" fill="white" fill-opacity="0.7"/>
</g>
<defs>
<clipPath id="clip0_396_8552">
<rect width="16" height="16" fill="white" transform="matrix(1 0 0 -1 12 27.6001)"/>
</clipPath>
</defs>
</svg>
