<svg width="40" height="40" viewBox="0 0 40 40" fill="none" xmlns="http://www.w3.org/2000/svg">
<rect x="0.5" y="0.5" width="39" height="39" rx="19.5" stroke="white" stroke-opacity="0.2"/>
<g clip-path="url(#clip0_396_8555)">
<path d="M12 12.7201C12 12.4357 12.1156 12.1779 12.3467 11.9468C12.5778 11.7157 12.8533 11.6001 13.1733 11.6001H26.8267C27.1467 11.6001 27.4222 11.7157 27.6533 11.9468C27.8844 12.1779 28 12.4357 28 12.7201V26.4801C28 26.7645 27.8844 27.0223 27.6533 27.2534C27.4222 27.4845 27.1467 27.6001 26.8267 27.6001H13.1733C12.8533 27.6001 12.5778 27.4845 12.3467 27.2534C12.1156 27.0223 12 26.7645 12 26.4801V12.7201ZM16.96 24.9868V17.7868H14.56V24.9868H16.96ZM15.7333 16.7734C16.16 16.7734 16.4978 16.6579 16.7467 16.4268C16.9956 16.1957 17.1111 15.9023 17.0933 15.5468C17.0756 15.1912 16.9511 14.889 16.72 14.6401C16.4889 14.3912 16.1689 14.2668 15.76 14.2668C15.3511 14.2668 15.0222 14.3912 14.7733 14.6401C14.5244 14.889 14.4 15.1912 14.4 15.5468C14.4 15.9023 14.5244 16.1957 14.7733 16.4268C15.0222 16.6579 15.3422 16.7734 15.7333 16.7734ZM20.64 24.9868V20.9334C20.64 20.6845 20.6756 20.489 20.7467 20.3468C20.8178 20.1334 20.96 19.9379 21.1733 19.7601C21.3867 19.5823 21.6533 19.4934 21.9733 19.4934C22.4 19.4934 22.7111 19.6357 22.9067 19.9201C23.1022 20.2045 23.2 20.6134 23.2 21.1468V24.9868H25.6V20.8268C25.6 19.7601 25.3422 18.9512 24.8267 18.4001C24.3111 17.849 23.6444 17.5734 22.8267 17.5734C22.2578 17.5734 21.7778 17.7157 21.3867 18.0001C21.1022 18.1779 20.8533 18.4445 20.64 18.8001V17.7868H18.24C18.2756 18.0712 18.2756 19.3512 18.24 21.6268V24.9868H20.64Z" fill="white" fill-opacity="0.7"/>
</g>
<defs>
<clipPath id="clip0_396_8555">
<rect width="16" height="16" fill="white" transform="matrix(1 0 0 -1 12 27.6001)"/>
</clipPath>
</defs>
</svg>
