<svg width="100" height="100" viewBox="0 0 100 100" fill="none" xmlns="http://www.w3.org/2000/svg">
<path d="M33.3334 49.9585L10.4167 63.0418C9.77549 63.4052 9.24212 63.9322 8.87104 64.5691C8.49996 65.2059 8.30444 65.9298 8.30444 66.6668C8.30444 67.4039 8.49996 68.1278 8.87104 68.7646C9.24212 69.4014 9.77549 69.9284 10.4167 70.2918L45.8334 90.5418C47.1002 91.2732 48.5373 91.6583 50.0001 91.6583C51.4629 91.6583 52.8999 91.2732 54.1667 90.5418L89.5834 70.2918C90.2246 69.9284 90.758 69.4014 91.1291 68.7646C91.5002 68.1278 91.6957 67.4039 91.6957 66.6668C91.6957 65.9298 91.5002 65.2059 91.1291 64.5691C90.758 63.9322 90.2246 63.4052 89.5834 63.0418L66.6667 50.0002M27.0417 53.5418L72.9584 79.7918M72.9584 53.5418L27.0834 79.7918" stroke="white" stroke-width="3" stroke-linecap="round" stroke-linejoin="round"/>
<path d="M52.2083 11.75L62.4583 21.25V40.25H38.5416V11.75H52.2083Z" stroke="white" stroke-width="2" stroke-linecap="round" stroke-linejoin="round"/>
<path d="M51.3541 11.75V20.4583H62.4583" stroke="white" stroke-linecap="round" stroke-linejoin="round"/>
<path d="M45.375 33.9165V29.1665" stroke="white" stroke-width="2" stroke-linecap="round" stroke-linejoin="round"/>
<path d="M50.5 33.9168V27.5835" stroke="white" stroke-width="2" stroke-linecap="round" stroke-linejoin="round"/>
<path d="M55.625 33.9167V26" stroke="white" stroke-width="2" stroke-linecap="round" stroke-linejoin="round"/>
</svg>
