<svg width="27" height="27" viewBox="0 0 27 27" fill="none" xmlns="http://www.w3.org/2000/svg">
<path d="M18 3.375C18.2984 3.375 18.5845 3.49353 18.7955 3.7045C19.0065 3.91548 19.125 4.20163 19.125 4.5V5.625H21.375C21.9426 5.62482 22.4894 5.83921 22.9056 6.22518C23.3218 6.61116 23.5768 7.1402 23.6194 7.70625L23.625 7.875V21.375C23.6252 21.9426 23.4108 22.4894 23.0248 22.9056C22.6388 23.3218 22.1098 23.5768 21.5437 23.6194L21.375 23.625H5.625C5.05735 23.6252 4.51061 23.4108 4.09438 23.0248C3.67815 22.6388 3.4232 22.1098 3.38063 21.5437L3.375 21.375V7.875C3.37482 7.30735 3.58921 6.76061 3.97518 6.34438C4.36116 5.92815 4.8902 5.6732 5.45625 5.63063L5.625 5.625H7.875V4.5C7.875 4.20163 7.99353 3.91548 8.20451 3.7045C8.41548 3.49353 8.70163 3.375 9 3.375C9.29837 3.375 9.58452 3.49353 9.79549 3.7045C10.0065 3.91548 10.125 4.20163 10.125 4.5V5.625H16.875V4.5C16.875 4.20163 16.9935 3.91548 17.2045 3.7045C17.4155 3.49353 17.7016 3.375 18 3.375ZM16.677 10.5514L11.9047 15.3236L10.3129 13.7329C10.1007 13.5279 9.81652 13.4146 9.52155 13.4171C9.22658 13.4197 8.94441 13.538 8.73583 13.7466C8.52725 13.9552 8.40893 14.2373 8.40637 14.5323C8.4038 14.8273 8.5172 15.1114 8.72212 15.3236L11.1004 17.703C11.2059 17.8086 11.3312 17.8924 11.4691 17.9496C11.607 18.0067 11.7549 18.0362 11.9042 18.0362C12.0535 18.0362 12.2013 18.0067 12.3392 17.9496C12.4772 17.8924 12.6025 17.8086 12.708 17.703L18.2678 12.1421C18.3752 12.0383 18.4609 11.9142 18.5199 11.777C18.5788 11.6397 18.6099 11.4921 18.6112 11.3427C18.6125 11.1933 18.584 11.0452 18.5274 10.9069C18.4709 10.7687 18.3873 10.6431 18.2817 10.5374C18.1761 10.4318 18.0505 10.3483 17.9122 10.2917C17.7739 10.2351 17.6258 10.2067 17.4764 10.208C17.327 10.2093 17.1794 10.2403 17.0422 10.2993C16.9049 10.3582 16.7808 10.4439 16.677 10.5514Z" fill="white"/>
</svg>
