<svg width="73" height="67" viewBox="0 0 73 67" fill="none" xmlns="http://www.w3.org/2000/svg">
<path opacity="0.2" d="M71.8362 49.3482L38.1375 66.2749C37.6512 66.4903 37.1132 66.6026 36.5675 66.6026C36.0217 66.6026 35.4838 66.4903 34.9974 66.2749L1.30603 49.3503C0.871056 49.1375 0.653564 48.8503 0.653564 48.5609C0.659362 48.4463 0.693085 48.3341 0.752491 48.2318C0.811898 48.1294 0.895629 48.0393 0.998128 47.9672C1.09118 47.8919 1.1946 47.8268 1.30603 47.7736L35.0047 30.8512C35.4912 30.636 36.0291 30.5239 36.5748 30.5239C37.1204 30.5239 37.6584 30.636 38.1449 30.8512L71.8362 47.7694C72.7013 48.2077 72.7013 48.9162 71.8362 49.3482Z" fill="black"/>
<path d="M36.5711 58.4805V64.183C36.0269 64.1934 35.4886 64.0828 35.0072 63.8617L1.30603 46.9307C0.871056 46.718 0.653564 46.4264 0.653564 46.1413V41.2091C0.65902 41.0941 0.692579 40.9815 0.751997 40.8788C0.811416 40.7761 0.895327 40.6855 0.998128 40.6133L5.87332 43.0645L36.5711 58.4805Z" fill="#33C7BB" fill-opacity="0.7"/>
<path opacity="0.5" d="M36.5711 58.4805V64.183C36.0269 64.1934 35.4886 64.0828 35.0072 63.8617L1.30603 46.9307C0.871056 46.718 0.653564 46.4264 0.653564 46.1413V41.2091C0.65902 41.0941 0.692579 40.9815 0.751997 40.8788C0.811416 40.7761 0.895327 40.6855 0.998128 40.6133L5.87332 43.0645L36.5711 58.4805Z" fill="white"/>
<path d="M36.571 58.4806V64.1832C37.1161 64.1939 37.6552 64.0833 38.1375 63.8619L71.8361 46.9309C72.2711 46.7181 72.4886 46.4266 72.4886 46.1415V41.2071C72.4831 41.0922 72.4496 40.9796 72.3902 40.8768C72.3308 40.7741 72.2468 40.6836 72.144 40.6113L67.2688 43.0626L36.571 58.4806Z" fill="#33C7BB" fill-opacity="0.7"/>
<path opacity="0.65" d="M36.571 58.4806V64.1832C37.1161 64.1939 37.6552 64.0833 38.1375 63.8619L71.8361 46.9309C72.2711 46.7181 72.4886 46.4266 72.4886 46.1415V41.2071C72.4831 41.0922 72.4496 40.9796 72.3902 40.8768C72.3308 40.7741 72.2468 40.6836 72.144 40.6113L67.2688 43.0626L36.571 58.4806Z" fill="white"/>
<path d="M71.8362 41.9942L38.1375 58.923C37.6506 59.137 37.1129 59.2484 36.5675 59.2484C36.0221 59.2484 35.4843 59.137 34.9974 58.923L1.30603 41.9963C0.871056 41.7835 0.653564 41.4984 0.653564 41.209C0.65902 41.0941 0.692579 40.9815 0.751997 40.8787C0.811416 40.776 0.895327 40.6855 0.998128 40.6132C1.09118 40.5379 1.1946 40.4728 1.30603 40.4196L35.0047 23.4972C35.4912 23.282 36.0291 23.1699 36.5748 23.1699C37.1204 23.1699 37.6584 23.282 38.1449 23.4972L71.8362 40.4175C72.7013 40.8537 72.7013 41.5644 71.8362 41.9942Z" fill="#33C7BB" fill-opacity="0.7"/>
<path opacity="0.8" d="M71.8362 41.9942L38.1375 58.923C37.6506 59.137 37.1129 59.2484 36.5675 59.2484C36.0221 59.2484 35.4843 59.137 34.9974 58.923L1.30603 41.9963C0.871056 41.7835 0.653564 41.4984 0.653564 41.209C0.65902 41.0941 0.692579 40.9815 0.751997 40.8787C0.811416 40.776 0.895327 40.6855 0.998128 40.6132C1.09118 40.5379 1.1946 40.4728 1.30603 40.4196L35.0047 23.4972C35.4912 23.282 36.0291 23.1699 36.5748 23.1699C37.1204 23.1699 37.6584 23.282 38.1449 23.4972L71.8362 40.4175C72.7013 40.8537 72.7013 41.5644 71.8362 41.9942Z" fill="white"/>
<path d="M36.5711 23.5079C37.0505 23.5 37.5245 23.5973 37.9494 23.7909L71.6383 40.7091C71.9291 40.8559 72.0928 41.0368 72.0928 41.2091C72.0928 41.3815 71.9266 41.5581 71.6407 41.7028L37.942 58.6337C37.5144 58.8184 37.0436 58.9145 36.5662 58.9145C36.0889 58.9145 35.618 58.8184 35.1904 58.6337L1.49909 41.7028C1.20829 41.5602 1.04211 41.3793 1.04211 41.2091C1.04913 41.1412 1.07231 41.0753 1.11017 41.0155C1.14803 40.9558 1.19976 40.9036 1.26205 40.8623C1.33606 40.804 1.41815 40.7539 1.50642 40.7133L35.2075 23.7909C35.63 23.5959 36.1029 23.4985 36.5809 23.5079M36.5809 23.1696C36.0343 23.1594 35.4939 23.2723 35.012 23.4973L1.30603 40.4197C1.19419 40.4723 1.09069 40.5374 0.998128 40.6133C0.895327 40.6856 0.811416 40.7761 0.751997 40.8788C0.692579 40.9816 0.65902 41.0942 0.653564 41.2091C0.653564 41.4985 0.871056 41.7815 1.30603 41.9964L34.9974 58.9231C35.4843 59.1371 36.0221 59.2485 36.5675 59.2485C37.1129 59.2485 37.6506 59.1371 38.1375 58.9231L71.8362 41.9943C72.7013 41.5687 72.7013 40.8538 71.8362 40.4176L38.1449 23.4973C37.6618 23.273 37.1209 23.1602 36.5736 23.1696H36.5809Z" fill="white"/>
<path d="M35.5277 26.9295L8.15825 40.6794C7.57909 40.9709 7.57909 41.4412 8.15825 41.7327L35.5277 55.4804C35.8517 55.6241 36.2101 55.699 36.5736 55.699C36.9372 55.699 37.2956 55.6241 37.6195 55.4804L65.0012 41.7305C65.5804 41.439 65.5804 40.9688 65.0012 40.6773L37.6195 26.9295C37.2956 26.7858 36.9372 26.7109 36.5736 26.7109C36.2101 26.7109 35.8517 26.7858 35.5277 26.9295Z" fill="#455A64"/>
<path d="M64.9938 40.6816L37.6194 26.9296C37.2972 26.7825 36.9372 26.7093 36.5735 26.7168V27.6424L64.8129 41.8243L64.9938 41.7328C65.5729 41.4434 65.5729 40.9731 64.9938 40.6816Z" fill="#37474F"/>
<path d="M36.5712 26.7168C36.2075 26.7093 35.8475 26.7825 35.5253 26.9296L8.1558 40.6795C7.57665 40.971 7.57665 41.4413 8.1558 41.7328L8.33664 41.8243L36.5712 27.6424V26.7168Z" fill="#263238"/>
<g opacity="0.5">
<path opacity="0.3" d="M38.4626 52.0038C37.8812 52.2996 37.2112 52.4367 36.5394 52.3974V55.7061C36.9973 55.7046 37.4451 55.5887 37.8296 55.3721L64.6737 41.8818C65.1747 41.6413 65.4068 41.4286 65.4068 41.1371V38.4624L38.4626 52.0038Z" fill="#33C7BB" fill-opacity="0.7"/>
<path opacity="0.276923" d="M38.4625 49.0436C37.882 49.3413 37.2114 49.4786 36.5393 49.4373V52.746C36.9973 52.7445 37.4451 52.6285 37.8296 52.4119L64.6737 38.9217C65.1746 38.6812 65.4068 38.4706 65.4068 38.179V35.5044L38.4625 49.0436Z" fill="#33C7BB" fill-opacity="0.7"/>
<path opacity="0.253846" d="M38.4626 46.0799C37.8812 46.3757 37.2112 46.5128 36.5394 46.4735V49.7823C36.9973 49.7807 37.4451 49.6648 37.8296 49.4482L64.6737 35.9643C65.1747 35.7239 65.4068 35.5111 65.4068 35.2196V32.5449L38.4626 46.0799Z" fill="#33C7BB" fill-opacity="0.7"/>
<path opacity="0.230769" d="M38.4625 43.1266C37.882 43.4243 37.2114 43.5616 36.5393 43.5203V46.829C36.9969 46.8273 37.4444 46.7122 37.8296 46.4971L64.6737 33.0047C65.1746 32.7642 65.4068 32.5536 65.4068 32.2621V29.5874L38.4625 43.1266Z" fill="#33C7BB" fill-opacity="0.7"/>
<path opacity="0.207692" d="M38.4626 40.1688C37.8812 40.4646 37.2112 40.6017 36.5394 40.5624V43.8712C36.9973 43.8696 37.4451 43.7537 37.8296 43.5371L64.6737 30.0468C65.1747 29.8064 65.4068 29.5957 65.4068 29.3021V26.6274L38.4626 40.1688Z" fill="#33C7BB" fill-opacity="0.7"/>
<path opacity="0.184615" d="M38.4625 37.2108C37.8813 37.5069 37.211 37.6433 36.5393 37.6023V40.9111C36.9969 40.9093 37.4444 40.7942 37.8296 40.5791L64.6737 27.0867C65.1746 26.8484 65.4068 26.6356 65.4068 26.3441V23.6694L38.4625 37.2108Z" fill="#33C7BB" fill-opacity="0.7"/>
<path opacity="0.161538" d="M38.4626 34.2513C37.8816 34.5481 37.2113 34.6853 36.5394 34.645V37.9537C36.9973 37.9522 37.4451 37.8362 37.8296 37.6196L64.6737 24.1293C65.1747 23.8889 65.4068 23.6783 65.4068 23.3867V20.71L38.4626 34.2513Z" fill="#33C7BB" fill-opacity="0.7"/>
<path opacity="0.138462" d="M38.4625 31.2938C37.8813 31.5899 37.211 31.7263 36.5393 31.6853V34.9941C36.9969 34.9923 37.4444 34.8772 37.8296 34.6621L64.6737 21.1697C65.1746 20.9314 65.4068 20.7186 65.4068 20.4271V17.7524L38.4625 31.2938Z" fill="#33C7BB" fill-opacity="0.7"/>
<path opacity="0.115385" d="M38.4626 28.3341C37.882 28.6318 37.2114 28.7691 36.5394 28.7278V32.0365C36.9973 32.035 37.4451 31.919 37.8296 31.7024L64.6737 18.2058C65.1747 17.9653 65.4068 17.7547 65.4068 17.4632V14.8013L38.4626 28.3341Z" fill="#33C7BB" fill-opacity="0.7"/>
<path opacity="0.092308" d="M38.4626 25.3763C37.8814 25.6724 37.2111 25.8088 36.5394 25.7678V29.0766C36.9969 29.0748 37.4445 28.9597 37.8296 28.7446L64.6737 15.2522C65.1747 15.0139 65.4068 14.8011 65.4068 14.5096V11.835L38.4626 25.3763Z" fill="#33C7BB" fill-opacity="0.7"/>
<path opacity="0.069231" d="M38.4626 22.4162C37.882 22.7139 37.2114 22.8511 36.5394 22.8098V26.1186C36.9973 26.117 37.4451 26.0011 37.8296 25.7845L64.6737 12.2942C65.1747 12.0538 65.4068 11.8431 65.4068 11.5516V8.87695L38.4626 22.4162Z" fill="#33C7BB" fill-opacity="0.7"/>
<path opacity="0.046154" d="M38.4626 19.4588C37.8812 19.7546 37.2112 19.8918 36.5394 19.8525V23.1633C36.9972 23.1609 37.4447 23.045 37.8296 22.8293L64.6737 9.33686C65.1747 9.09642 65.4068 8.88364 65.4068 8.59213V5.91748L38.4626 19.4588Z" fill="#33C7BB" fill-opacity="0.7"/>
<path opacity="0.023077" d="M38.4625 16.5034C37.882 16.8011 37.2114 16.9384 36.5393 16.8971V20.2058C36.9973 20.2043 37.4451 20.0884 37.8296 19.8718L64.6737 6.37722C65.1746 6.13678 65.4068 5.92612 65.4068 5.63461V2.95996L38.4625 16.5034Z" fill="#33C7BB" fill-opacity="0.7"/>
</g>
<g opacity="0.7">
<path opacity="0.5" d="M34.6161 52.0038C35.1983 52.2997 35.8691 52.4369 36.5418 52.3974C36.5296 52.3974 36.5418 52.3974 36.5418 52.3974V55.7061C36.0838 55.705 35.6358 55.589 35.2515 55.3721L8.41475 41.8818C7.91379 41.6413 7.68164 41.4286 7.68164 41.1371V38.4624L34.6161 52.0038Z" fill="#33C7BB" fill-opacity="0.7"/>
<path opacity="0.461538" d="M34.6161 49.0436C35.1974 49.3416 35.8689 49.4789 36.5418 49.4373V52.746C36.0838 52.7448 35.6358 52.6289 35.2515 52.4119L8.41475 38.9217C7.91379 38.6812 7.68164 38.4706 7.68164 38.179V35.5044L34.6161 49.0436Z" fill="#33C7BB" fill-opacity="0.7"/>
<path opacity="0.423077" d="M34.6161 46.0799C35.1983 46.3759 35.8691 46.513 36.5418 46.4735C36.5296 46.4735 36.5418 46.4735 36.5418 46.4735V49.7823C36.0838 49.7811 35.6358 49.6651 35.2515 49.4482L8.41475 35.9579C7.91379 35.7175 7.68164 35.5047 7.68164 35.2132V32.5449L34.6161 46.0799Z" fill="#33C7BB" fill-opacity="0.7"/>
<path opacity="0.384615" d="M34.6161 43.1266C35.1974 43.4246 35.8689 43.5619 36.5418 43.5203V46.829C36.0842 46.8276 35.6365 46.7125 35.2515 46.4971L8.41231 33.0047C7.91135 32.7642 7.6792 32.5536 7.6792 32.2621V29.5874L34.6161 43.1266Z" fill="#33C7BB" fill-opacity="0.7"/>
<path opacity="0.346154" d="M34.6161 40.1688C35.1983 40.4648 35.8691 40.6019 36.5418 40.5624C36.5296 40.5624 36.5418 40.5624 36.5418 40.5624V43.8712C36.0838 43.87 35.6358 43.754 35.2515 43.5371L8.41475 30.0468C7.91379 29.8064 7.68164 29.5957 7.68164 29.3021V26.6274L34.6161 40.1688Z" fill="#33C7BB" fill-opacity="0.7"/>
<path opacity="0.307692" d="M34.6161 37.2108C35.1981 37.5071 35.8693 37.6436 36.5418 37.6023V40.9111C36.0842 40.9097 35.6365 40.7945 35.2515 40.5791L8.41231 27.0867C7.91135 26.8484 7.6792 26.6356 7.6792 26.3441V23.6694L34.6161 37.2108Z" fill="#33C7BB" fill-opacity="0.7"/>
<path opacity="0.269231" d="M34.6161 34.2513C35.1979 34.5483 35.869 34.6855 36.5418 34.645C36.5296 34.645 36.5418 34.645 36.5418 34.645V37.9537C36.0838 37.9525 35.6358 37.8366 35.2515 37.6196L8.41475 24.1293C7.91379 23.8889 7.68164 23.6783 7.68164 23.3867V20.71L34.6161 34.2513Z" fill="#33C7BB" fill-opacity="0.7"/>
<path opacity="0.230769" d="M34.6161 31.2938C35.1981 31.5902 35.8693 31.7266 36.5418 31.6853V34.9941C36.0842 34.9927 35.6365 34.8775 35.2515 34.6621L8.41231 21.1697C7.91135 20.9314 7.6792 20.7186 7.6792 20.4271V17.7524L34.6161 31.2938Z" fill="#33C7BB" fill-opacity="0.7"/>
<path opacity="0.192308" d="M34.6161 28.3341C35.1974 28.6321 35.8689 28.7694 36.5418 28.7278C36.5296 28.7278 36.5418 28.7278 36.5418 28.7278V32.0365C36.0838 32.0353 35.6358 31.9194 35.2515 31.7024L8.41231 18.2058C7.91135 17.9653 7.6792 17.7547 7.6792 17.4632V14.8013L34.6161 28.3341Z" fill="#33C7BB" fill-opacity="0.7"/>
<path opacity="0.153846" d="M34.6161 25.3763C35.1981 25.6727 35.8693 25.8091 36.5418 25.7678C36.5296 25.7678 36.5418 25.7678 36.5418 25.7678V29.0766C36.0842 29.0752 35.6365 28.96 35.2515 28.7446L8.41231 15.2522C7.91135 15.0139 7.6792 14.8011 7.6792 14.5096V11.835L34.6161 25.3763Z" fill="#33C7BB" fill-opacity="0.7"/>
<path opacity="0.115385" d="M34.6161 22.4162C35.1974 22.7142 35.8689 22.8514 36.5418 22.8098C36.5296 22.8098 36.5418 22.8098 36.5418 22.8098V26.1186C36.0838 26.1174 35.6358 26.0014 35.2515 25.7845L8.41475 12.2942C7.91379 12.0538 7.68164 11.8431 7.68164 11.5516V8.87695L34.6161 22.4162Z" fill="#33C7BB" fill-opacity="0.7"/>
<path opacity="0.076923" d="M34.6161 19.4588C35.1983 19.7548 35.8691 19.8919 36.5418 19.8525V23.1633C36.084 23.1611 35.6364 23.0452 35.2515 22.8293L8.41475 9.33899C7.91379 9.09855 7.68164 8.88577 7.68164 8.59426V5.91748L34.6161 19.4588Z" fill="#33C7BB" fill-opacity="0.7"/>
<path opacity="0.038462" d="M34.6161 16.5034C35.1974 16.8014 35.8689 16.9387 36.5418 16.8971V20.2058C36.0838 20.2047 35.6358 20.0887 35.2515 19.8718L8.41231 6.37722C7.91135 6.13678 7.6792 5.92612 7.6792 5.63461V2.95996L34.6161 16.5034Z" fill="#33C7BB" fill-opacity="0.7"/>
</g>
</svg>
