<svg width="32" height="27" viewBox="0 0 32 27" fill="none" xmlns="http://www.w3.org/2000/svg">
<path d="M23.1565 5.05309L23.3031 5.29945L23.5898 5.29735C28.2401 5.2632 31.5 7.90267 31.5 11.1737C31.5 14.4239 28.3614 17.1205 24.0531 17.1205H6.50498C4.64895 17.1205 3.13686 16.6401 2.10175 15.8548C1.07661 15.0771 0.5 13.9893 0.5 12.6939C0.5 10.6648 2.04295 8.90083 4.622 8.31366L4.97519 8.23325L5.00885 7.87259C5.38901 3.79854 9.50547 0.5 14.5363 0.5C18.3009 0.5 21.4481 2.18284 23.1565 5.05309ZM17.717 22.9808L17.7169 22.9807L17.7105 22.9903C17.6953 23.0135 17.6706 23.04 17.6335 23.0647C17.5964 23.0895 17.5495 23.1106 17.4946 23.1239C17.4397 23.1371 17.381 23.1415 17.3225 23.136C17.2658 23.1307 17.2133 23.1166 17.1681 23.0964C17.052 23.039 17.0249 22.9802 17.0192 22.9624C17.0147 22.9482 17.0087 22.9168 17.0437 22.8621L18.906 20.1931L18.9062 20.1928C19.0106 20.0429 19.2167 19.9753 19.4322 20.0828L19.4321 20.0829L19.4417 20.0875C19.5552 20.1411 19.584 20.1995 19.5898 20.2174C19.593 20.2272 19.5942 20.2374 19.5919 20.2508C19.5895 20.2649 19.5817 20.2913 19.5559 20.3283L19.5553 20.3292L17.717 22.9808ZM25.1744 20.3098L25.1743 20.3097L25.1688 20.3177L20.9999 26.3486C20.9996 26.349 20.9993 26.3494 20.999 26.3499C20.917 26.4648 20.7138 26.5422 20.4939 26.445C20.3887 26.3904 20.3649 26.336 20.3597 26.3179C20.3551 26.3022 20.3477 26.2593 20.396 26.1843L24.5274 20.1903C24.645 20.0434 24.8825 19.9874 25.0694 20.0806C25.1793 20.1381 25.2045 20.195 25.2089 20.2096C25.2113 20.2177 25.2121 20.2258 25.2099 20.2373C25.2075 20.2495 25.2 20.2742 25.1744 20.3098ZM6.46149 22.9924L6.45733 22.9984L6.45335 23.0045C6.43907 23.0264 6.41543 23.0521 6.37911 23.0762C6.34271 23.1003 6.29641 23.1209 6.2421 23.1335C6.18782 23.1461 6.12983 23.1496 6.07255 23.1433C6.01523 23.137 5.96306 23.1214 5.91921 23.0999L5.91923 23.0999L5.91276 23.0968C5.80228 23.0446 5.77553 22.9879 5.7703 22.9716C5.76726 22.9621 5.76651 22.9532 5.76832 22.9425C5.7702 22.9314 5.77626 22.9105 5.79683 22.8812L5.79872 22.8785L7.65012 20.2043C7.65024 20.2042 7.65036 20.204 7.65047 20.2038C7.75226 20.0582 7.95887 19.9829 8.1961 20.0977L8.2005 20.0997C8.31052 20.1516 8.33424 20.2064 8.33856 20.2206C8.34125 20.2294 8.35165 20.2664 8.30059 20.3396L8.2998 20.3408L6.46149 22.9924ZM9.74239 26.3635L9.74229 26.3635L9.73644 26.3723C9.67182 26.4698 9.47858 26.5569 9.25202 26.4564C9.14373 26.4005 9.11523 26.3427 9.10849 26.3211C9.10334 26.3046 9.09588 26.2657 9.14022 26.1967L13.2933 20.1914L13.2933 20.1915L13.2974 20.1855C13.3121 20.1635 13.3363 20.1379 13.373 20.1142L13.1013 19.6944L13.373 20.1142C13.4098 20.0903 13.4564 20.0702 13.5107 20.0582L13.4028 19.57L13.5108 20.0582C13.565 20.0462 13.6228 20.0432 13.6796 20.05C13.734 20.0565 13.7835 20.0713 13.8255 20.0916C13.9241 20.146 13.9509 20.2011 13.957 20.2215C13.961 20.235 13.9685 20.2683 13.9261 20.3312C13.9258 20.3317 13.9255 20.3322 13.9252 20.3326L9.74239 26.3635Z" fill="#B8E9F4" stroke="#199BC4"/>
</svg>
