<svg width="9" height="14" viewBox="0 0 9 14" fill="none" xmlns="http://www.w3.org/2000/svg">
<path fill-rule="evenodd" clip-rule="evenodd" d="M8.19944 6.11763C8.38694 6.3051 8.49227 6.55933 8.49227 6.82441C8.49227 7.0895 8.38694 7.34373 8.19944 7.5312L2.54176 13.1865C2.4495 13.282 2.33915 13.3581 2.21713 13.4105C2.09511 13.4629 1.96387 13.4905 1.83108 13.4917C1.69828 13.4928 1.56659 13.4675 1.44368 13.4173C1.32076 13.367 1.2091 13.2928 1.11519 13.1989C1.02129 13.105 0.947028 12.9934 0.896741 12.8706C0.846454 12.7477 0.821149 12.6161 0.822303 12.4833C0.823457 12.3506 0.851047 12.2194 0.903462 12.0974C0.955878 11.9755 1.03207 11.8651 1.12759 11.7729L6.07819 6.82441L1.12759 1.8759C0.94541 1.68735 0.844604 1.43483 0.846883 1.17271C0.849161 0.910594 0.954343 0.659857 1.13977 0.474504C1.3252 0.289152 1.57605 0.184014 1.83828 0.181736C2.1005 0.179458 2.35314 0.280222 2.54176 0.462326L8.19944 6.11763Z" fill="white"/>
</svg>
