<svg width="147" height="274" viewBox="0 0 147 274" fill="none" xmlns="http://www.w3.org/2000/svg">
<path fill-rule="evenodd" clip-rule="evenodd" d="M9.65737 248.8C9.65566 248.802 9.65224 248.808 9.64882 248.814C9.49403 249.064 9.35035 248.574 9.30289 248.53C9.42032 248.619 9.53993 248.71 9.65737 248.8ZM32.0992 218.293C51.9662 216.519 75.6412 200.905 94.2438 180.454C112.527 160.362 126.28 135.53 126.679 113.385C123.008 117.841 118.763 121.946 113.898 125.592C109.555 128.908 105.147 130.6 100.909 130.921C96.8119 131.224 92.8634 130.241 89.3117 128.138C79.4276 122.472 76.6444 114.529 77.5578 106.998C78.7062 97.5683 86.0688 88.0287 95.524 82.2086C108.356 74.311 124.651 73.4408 132.925 88.9455C135.755 81.0159 137.248 72.673 137.614 64.4204C138.528 43.8844 132.442 23.9217 122.771 11.7068C121.089 9.45206 121.716 5.57116 124.167 3.04211C126.627 0.511186 129.986 0.28747 131.665 2.53677C141.787 16.8783 147.584 39.7069 145.826 62.7937C144.899 74.9674 141.926 87.1951 136.405 98.3186C143.523 126.47 128.25 162.469 104.572 191.756C85.4715 215.375 60.8849 233.974 38.192 241.217C39.6831 242.845 41.1953 244.462 42.7656 246.036L57.1024 262.332C59.2408 263.762 59.4943 267.248 57.6705 270.108C55.8467 272.968 52.6291 274.127 50.4906 272.696C47.6628 271.596 45.0194 270.439 42.3118 269.143C38.3662 267.256 34.6785 265.188 30.7702 263.18C26.9395 260.957 23.1896 258.787 19.5671 256.284C16.1684 253.934 12.9775 251.301 9.65737 248.8C10.8932 246.762 4.66801 245.641 3.35988 244.309C0.325777 241.225 -0.0368478 237.542 0.122281 235.853C0.505341 231.745 1.82412 227.352 4.66185 223.231C7.73202 218.775 12.5173 214.386 15.3239 211.517C21.364 205.572 27.3824 199.723 33.3223 193.605C37.188 189.627 40.9761 185.7 44.6192 181.454C46.953 178.237 50.7438 177.199 53.0789 179.14C55.4123 181.083 55.4147 185.266 53.0809 188.482C49.8973 193.707 46.5329 198.691 42.9954 203.669C39.4528 208.655 35.7861 213.475 32.0992 218.293ZM125.884 103.402C125.834 103.135 125.78 102.866 125.725 102.596C122.062 85.163 108.38 84.141 97.679 90.065C91.0764 93.7239 85.3892 99.798 84.4226 106.302C83.6053 111.795 86.2468 117.058 93.3335 121.351C96.0146 122.919 98.9672 123.701 102.056 123.449C105.038 123.214 108.136 121.984 111.183 119.636C117.184 114.922 122.045 109.413 125.884 103.402Z" fill="#075A53"/>
</svg>
