<svg width="40" height="41" viewBox="0 0 40 41" fill="none" xmlns="http://www.w3.org/2000/svg">
<path fill-rule="evenodd" clip-rule="evenodd" d="M20.0039 40.0198C22.6303 40.0198 25.2311 39.5025 27.6576 38.4974C30.0841 37.4923 32.2889 36.0191 34.146 34.1619C36.0032 32.3047 37.4764 30.1 38.4815 27.6734C39.4866 25.2469 40.0039 22.6462 40.0039 20.0198C40.0039 17.3933 39.4866 14.7926 38.4815 12.3661C37.4764 9.9396 36.0032 7.73481 34.146 5.87764C32.2889 4.02047 30.0841 2.54728 27.6576 1.54218C25.2311 0.53709 22.6303 0.0197754 20.0039 0.0197754C14.6996 0.0197755 9.6125 2.12691 5.86177 5.87764C2.11104 9.62837 0.00390625 14.7154 0.00390625 20.0198C0.00390625 25.3241 2.11104 30.4112 5.86177 34.1619C9.6125 37.9126 14.6996 40.0198 20.0039 40.0198ZM19.4883 28.1087L30.5995 14.7753L27.1861 11.9309L17.6306 23.3953L12.6861 18.4487L9.54391 21.5909L16.2106 28.2576L17.9306 29.9776L19.4883 28.1087Z" fill="black"/>
</svg>
