<svg width="261" height="155" viewBox="0 0 261 155" fill="none" xmlns="http://www.w3.org/2000/svg">
<path fill-rule="evenodd" clip-rule="evenodd" d="M214.015 126.918C202.796 91.8176 186.654 52.307 154.207 28.174C142.259 19.2877 128.135 12.4273 111.57 9.1619C97.7442 6.43701 82.3532 6.40839 65.209 8.91488C52.7529 10.9456 41.7557 12.8125 31.2336 15.9378C24.5339 17.9265 18.0942 20.4794 11.5169 23.8397C8.61028 25.1817 4.356 24.2173 2.01376 21.688C-0.328491 19.1587 0.130415 16.0164 3.03313 14.6757C10.6798 11.4912 18.114 9.21698 25.7136 7.46155C37.0595 4.84177 48.7015 3.35751 61.9428 1.87578C80.543 -0.509155 97.1423 0.31965 112.045 3.00985C130.622 6.36342 146.635 12.9996 160.924 22.1425C195.617 44.3355 219.241 81.2348 236.579 116.237C238.692 113.819 240.634 111.552 242.505 109.122C244.492 106.538 246.445 104.127 248.135 101.227C248.826 98.7238 252.194 97.5259 255.645 98.5488C259.099 99.575 261.342 102.438 260.647 104.94C260.62 107.986 260.334 110.718 259.901 113.557C259.269 117.741 258.068 121.566 256.853 125.793C255.755 128.886 254.937 131.985 253.797 135.047C252.616 138.226 251.135 141.276 249.673 144.367C248.851 145.755 247.879 148.797 246.256 150.525C244.701 152.173 242.867 153.395 240.811 154.03C236.531 155.257 231.788 155.462 226.765 153.786C221.984 152.191 216.676 148.879 213.545 146.894C208.652 143.672 203.816 140.473 199.036 137.104C191.962 132.116 185.218 127.065 178.265 122.019C174.709 119.909 173.54 116.268 175.653 113.896C177.769 111.525 182.373 111.313 185.929 113.423L214.015 126.918Z" fill="#075A53"/>
</svg>
