<svg width="1519" height="93" viewBox="0 0 1519 93" fill="none" xmlns="http://www.w3.org/2000/svg">
<path d="M1492.5 3.0097L1519 1.71165V93L-3.15308e-05 93V0.902906L12.6628 2.40776L12.6627 0.902906L42.5 1.71165L69.5 0.902906L91 1.71165L107 2.40776L128.738 2.40776L140.345 2.40776L155.5 3.04294L164.5 3.61349L177.278 2.40776L186.775 4.51455L204 3.61349L223.708 4.51455L240.064 5.1165L264.5 5.1165L287.022 4.51455L300.212 5.1165L328.703 5.1165H340.5L347.697 4.51455H362.471L371.44 2.40776H381.992L401 2.40776L414.177 -2.08616e-06L435.5 0.902906L453.748 -2.08616e-06L469.576 2.40776H482.767L504.399 2.40776L513.5 3.04294L527.5 3.04294L549.246 2.40776H557.16L562.964 4.51455L578.792 4.51455L591.983 5.1165L593.565 4.51455L605.5 5.1165L624.695 4.51455H630.498L643.689 4.51455L656.879 2.40776L671.652 2.40776L695.395 2.40776C702.993 4.0932 716.148 3.11003 721.776 2.40776C728.107 3.11003 740.89 3.04294 743 3.04294C745.638 3.04294 751.322 4.51455 752.377 4.51455C753.221 4.51455 758.709 3.11003 761.347 2.40776L783 3.61349L796.697 4.51455L819.384 6.01941V3.61164L851.569 6.01941L866.869 6.01941H876.894L899.5 6.70398L928.5 6.70398L948.65 6.01941H957.619L974.503 6.01941L984.527 6.01941C988.221 7.12298 995.545 6.70398 998.5 6.70398C1001.45 6.70398 1011.08 7.12298 1015.13 6.01941L1033 5.1165C1036.52 7.22329 1048.05 9.11175 1057.34 6.70398C1066.62 4.29622 1078.55 4.61488 1084 4.51455L1092.16 3.0097C1095.15 4.01294 1102.7 4.51455 1106.5 4.51455C1110.3 4.51455 1115.2 4.01294 1117.49 3.0097C1118.89 2.10679 1136.18 0.84271 1148 3.0097C1159.82 5.17669 1160.75 3.91261 1165.5 3.0097L1177.63 3.0097H1188.71L1195.05 3.0097L1215 3.61349C1222.91 3.61349 1233.12 3.61164 1236.5 3.61164C1239.88 3.61164 1257.19 3.61349 1260 3.61349L1277.35 3.0097L1304.79 3.0097L1327.48 3.0097L1347 3.0097L1371.5 3.04294L1384.5 0.998464L1398.5 2.40776L1418.75 3.0097L1434.58 3.0097L1454.1 3.0097C1457.48 3.0097 1466.34 3.51132 1472.5 4.51455L1472.5 3.99386L1492.5 3.0097Z" fill="#1F4E3D"/>
</svg>
