<svg width="264" height="176" viewBox="0 0 264 176" fill="none" xmlns="http://www.w3.org/2000/svg">
<path fill-rule="evenodd" clip-rule="evenodd" d="M31.4016 8.58099C31.399 8.57885 31.3937 8.57457 31.3885 8.57029C31.1596 8.3782 31.6696 8.30983 31.72 8.26927C31.6144 8.37252 31.5072 8.47773 31.4016 8.58099ZM58.8923 35.5656C57.9649 55.6099 70.3767 81.5529 88.3212 103.184C105.951 124.443 128.942 141.916 151.062 145.686C147.1 141.354 143.567 136.504 140.579 131.105C137.85 126.277 136.755 121.633 137.011 117.366C137.265 113.241 138.787 109.461 141.376 106.246C148.394 97.2721 156.727 95.7123 164.142 97.7687C173.428 100.349 181.978 109.13 186.518 119.428C192.679 133.403 191.333 149.754 174.682 155.627C182.237 159.652 190.387 162.409 198.601 164.031C219.038 168.07 239.855 165.053 253.402 157.289C255.888 155.958 259.689 157.174 261.888 159.998C264.087 162.833 263.854 166.21 261.373 167.539C245.635 175.428 221.989 177.719 199.112 172.452C187.049 169.675 175.21 164.852 164.824 157.662C135.667 160.457 101.701 139.772 75.6001 111.742C54.5497 89.1323 39.2734 61.8272 35.1099 38.1371C33.2772 39.3732 31.4524 40.6319 29.6628 41.955L11.3948 53.7417C9.671 55.6521 6.14672 55.3734 3.53101 53.1223C0.9153 50.8712 0.193275 47.4922 1.91709 45.5817C3.40321 42.9348 4.92149 40.48 6.58798 37.9826C9.01439 34.3431 11.5864 30.9877 14.1295 27.4037C16.8763 23.9296 19.5601 20.528 22.5589 17.3038C25.3741 14.2791 28.4456 11.5045 31.4016 8.58099C33.2735 10.1215 35.2433 4.09628 36.7551 2.99724C40.2562 0.447302 43.9928 0.647471 45.6621 1.06316C49.7234 2.07037 53.9428 4.05237 57.6827 7.50465C61.7267 11.2394 65.4702 16.671 67.9605 19.9015C73.0911 26.8192 78.1287 33.7006 83.4456 40.5447C86.9024 44.9983 90.3188 49.367 94.075 53.6401C96.9781 56.4531 97.5017 60.3843 95.2407 62.4127C92.9771 64.439 88.7887 63.8041 85.8855 60.9911C81.0881 57.0265 76.5556 52.9185 72.0527 48.6391C67.5419 44.3533 63.2155 39.9696 58.8923 35.5656ZM161.166 146.416C161.44 146.407 161.717 146.394 161.994 146.381C179.948 145.391 182.834 131.929 178.359 120.376C175.594 113.246 170.286 106.661 163.906 104.708C158.517 103.057 152.887 104.884 147.624 111.284C145.69 113.713 144.505 116.533 144.337 119.646C144.166 122.649 144.975 125.92 146.912 129.311C150.815 136.001 155.67 141.68 161.166 146.416Z" fill="#075A53"/>
</svg>
