<svg width="8" height="14" viewBox="0 0 8 14" fill="none" xmlns="http://www.w3.org/2000/svg">
<path fill-rule="evenodd" clip-rule="evenodd" d="M7.37718 5.93599C7.56467 6.12346 7.67 6.37769 7.67 6.64277C7.67 6.90786 7.56467 7.16209 7.37718 7.34956L1.7195 13.0049C1.62724 13.1003 1.51688 13.1765 1.39486 13.2289C1.27284 13.2813 1.14161 13.3089 1.00881 13.31C0.876016 13.3112 0.744321 13.2859 0.62141 13.2356C0.498498 13.1853 0.386832 13.1111 0.292928 13.0173C0.199024 12.9234 0.124762 12.8118 0.0744753 12.6889C0.0241884 12.5661 -0.00111619 12.4344 3.77616e-05 12.3017C0.00119172 12.1689 0.0287813 12.0378 0.0811967 11.9158C0.133612 11.7938 0.209803 11.6835 0.305325 11.5913L5.25592 6.64277L0.305325 1.69426C0.123145 1.50571 0.0223382 1.25319 0.0246169 0.991071C0.0268956 0.728953 0.132077 0.478216 0.317508 0.292864C0.502938 0.107511 0.753781 0.00237301 1.01601 9.52705e-05C1.27824 -0.00218246 1.53087 0.0985816 1.7195 0.280685L7.37718 5.93599Z" fill="white"/>
</svg>
