<svg width="43" height="40" viewBox="0 0 43 40" fill="none" xmlns="http://www.w3.org/2000/svg">
<path d="M40.6111 40L40.635 9.3C42.0444 8.425 43 6.825 43 5C43 2.25 40.85 0 38.2222 0C35.5944 0 33.4444 2.25 33.4444 5C33.4444 7 34.5672 8.7 36.1678 9.5L26.3017 25.95C25.5133 25.35 24.5578 25 23.5306 25C21.5239 25 19.8278 26.275 19.1111 28.1L13.9989 24.275C14.2139 23.725 14.3333 23.125 14.3333 22.5C14.3333 19.725 12.2072 17.5 9.55556 17.5C8.28841 17.5 7.07316 18.0268 6.17716 18.9645C5.28115 19.9021 4.77778 21.1739 4.77778 22.5C4.78205 23.3635 4.99994 24.2111 5.41021 24.9602C5.82047 25.7094 6.40915 26.3346 7.11889 26.775L0 40H40.6111ZM38.2222 2.5C39.5361 2.5 40.6111 3.625 40.6111 5C40.6111 6.375 39.5361 7.5 38.2222 7.5C36.9083 7.5 35.8333 6.375 35.8333 5C35.8333 3.625 36.9083 2.5 38.2222 2.5ZM9.55556 20C10.8694 20 11.9444 21.125 11.9444 22.5C11.9444 23.875 10.8694 25 9.55556 25C8.24167 25 7.16667 23.875 7.16667 22.5C7.16667 21.125 8.24167 20 9.55556 20ZM23.5306 27.5C24.8444 27.5 25.9194 28.625 25.9194 30C25.9194 31.375 24.8444 32.5 23.5306 32.5C22.2167 32.5 21.1417 31.375 21.1417 30C21.1417 28.625 22.2167 27.5 23.5306 27.5Z" fill="white"/>
</svg>
