<svg width="132" height="187" viewBox="0 0 132 187" fill="none" xmlns="http://www.w3.org/2000/svg">
<path fill-rule="evenodd" clip-rule="evenodd" d="M106.554 34.1059C73.9858 42.0984 37.8562 53.6086 19.1996 76.8001C12.33 85.3402 7.76631 95.4385 7.08079 107.288C6.50904 117.177 8.80561 128.189 13.8416 140.459C17.7051 149.373 21.1883 157.243 25.8282 164.775C28.7813 169.57 32.2458 174.18 36.5193 178.89C38.2682 180.971 37.9694 184.014 35.8542 185.687C33.7391 187.36 30.6025 187.029 28.8554 184.951C24.592 179.476 21.2492 174.155 18.3879 168.716C14.1171 160.595 10.91 152.264 7.46379 142.788C2.32658 129.478 0.628603 117.602 1.00389 106.942C1.47169 93.6535 5.53105 82.203 12.2975 71.9879C28.7212 47.1875 61.1719 30.3216 92.7199 17.9508C90.0405 16.4364 87.5341 15.0445 84.8802 13.7036C82.057 12.2793 79.4089 10.8797 76.323 9.66771C73.7751 9.17045 72.0973 6.76007 72.5745 4.29164C73.0546 1.82145 75.51 0.21932 78.0575 0.718865C81.0355 0.741563 83.7447 0.948775 86.5813 1.26117C90.761 1.71774 94.6768 2.58051 98.9858 3.4544C102.171 4.24272 105.32 4.83098 108.481 5.64987C111.762 6.49788 114.963 7.56056 118.201 8.61006C119.68 9.19932 122.796 9.89789 124.728 11.0607C126.572 12.1751 128.042 13.4889 128.972 14.9603C130.816 18.0239 131.732 21.4174 130.855 25.0098C130.02 28.4291 127.589 32.2234 126.125 34.4617C123.718 37.9593 121.326 41.4168 118.759 44.8332C114.958 49.8894 111.047 54.7099 107.171 59.6799C105.648 62.2217 102.272 63.0546 99.6366 61.5405C97.0022 60.0241 96.1006 56.7298 97.6232 54.188L106.554 34.1059Z" fill="#075A53"/>
</svg>
