<svg width="1519" height="641" viewBox="0 0 1519 641" fill="none" xmlns="http://www.w3.org/2000/svg">
<path d="M1492.5 20.7443L1519 11.7975L1519 641L-3.15308e-05 641L-3.15308e-05 6.22324L12.6628 16.5954L12.6627 6.22324L42.5 11.7975L69.5 6.22324L91 11.7975L107 16.5954H128.738H140.345L155.5 20.9734L164.5 24.9059L177.278 16.5954L186.775 31.1165L204 24.9059L223.708 31.1165L240.064 35.2654H264.5L287.022 31.1165L300.212 35.2654H328.703L340.5 35.2654L347.697 31.1165H362.471L371.44 16.5954H381.992H401L414.177 -2.28286e-05L435.5 6.22324L453.748 -2.28286e-05L469.576 16.5954H482.767L504.399 16.5954L513.5 20.9734H527.5L549.246 16.5954H557.16L562.964 31.1165H578.792L591.983 35.2654L593.565 31.1165L605.5 35.2654L624.695 31.1165H630.498H643.689L656.879 16.5954H671.652H695.395C702.993 28.2123 716.148 21.4358 721.776 16.5954C728.107 21.4358 740.89 20.9734 743 20.9734C745.638 20.9734 751.322 31.1165 752.377 31.1165C753.221 31.1165 758.709 21.4358 761.347 16.5954L783 24.9059L796.697 31.1165L819.384 41.4887V24.8932L851.569 41.4887H866.869H876.894L899.5 46.2071H928.5L948.65 41.4887H957.619L974.503 41.4887H984.527C988.221 49.0949 995.545 46.2071 998.5 46.2071C1001.45 46.2071 1011.08 49.0949 1015.13 41.4887L1033 35.2654C1036.52 49.7864 1048.05 62.8025 1057.34 46.2071C1066.62 29.6116 1078.55 31.808 1084 31.1165L1092.16 20.7443C1095.15 27.6591 1102.7 31.1165 1106.5 31.1165C1110.3 31.1165 1115.2 27.6591 1117.49 20.7443C1118.89 14.521 1136.18 5.80839 1148 20.7443C1159.82 35.6802 1160.75 26.9676 1165.5 20.7443H1177.63H1188.71H1195.05L1215 24.9059C1222.91 24.9059 1233.12 24.8932 1236.5 24.8932C1239.88 24.8932 1257.19 24.9059 1260 24.9059L1277.35 20.7443L1304.79 20.7443H1327.48H1347L1371.5 20.9734L1384.5 6.88187L1398.5 16.5954L1418.75 20.7443H1434.58L1454.1 20.7443C1457.48 20.7443 1466.34 24.2017 1472.5 31.1165L1472.5 27.5276L1492.5 20.7443Z" fill="#F6F5F2"/>
</svg>
