<svg width="43" height="42" viewBox="0 0 43 42" fill="none" xmlns="http://www.w3.org/2000/svg">
<path d="M35.4756 27.5625C32.2102 27.5625 29.563 30.7945 29.563 34.7813C29.563 38.768 32.2102 42 35.4756 42C38.7409 42 41.3881 38.768 41.3881 34.7813C41.3881 30.7945 38.7409 27.5625 35.4756 27.5625ZM35.4756 36.75C34.5866 36.75 33.863 35.8665 33.863 34.7813C33.863 33.696 34.5866 32.8125 35.4756 32.8125C36.3645 32.8125 37.0881 33.696 37.0881 34.7813C37.0881 35.8665 36.3645 36.75 35.4756 36.75ZM40.8506 13.125H36.5506V9.82735C36.5506 8.66906 36.8664 7.55016 37.4341 6.64125C37.7311 6.16547 37.6726 5.48789 37.3454 5.04246L35.8921 3.05977C35.4446 2.44863 34.6612 2.49211 34.2326 3.12375C32.9614 4.99571 32.2505 7.36723 32.2505 9.82735V13.125H25.3751L21.6065 2.39039C21.3589 1.68068 20.9458 1.0756 20.4186 0.650544C19.8913 0.225485 19.2733 -0.000758725 18.6415 1.91166e-06H9.67515C7.89667 1.91166e-06 6.4501 1.76613 6.4501 3.9375V15.9567C5.87026 15.4047 5.04183 15.4268 4.50902 16.0773L2.41879 18.6293C1.84164 19.3339 1.84164 20.4766 2.41879 21.1813L2.75876 21.5964C2.42349 22.356 2.15675 23.1402 1.95855 23.9523H1.47815C0.661807 23.9523 0 24.7603 0 25.757V29.3664C0 30.363 0.661807 31.1711 1.47815 31.1711H1.95787C2.15675 31.984 2.42282 32.7674 2.75809 33.5278L2.41812 33.9429C1.84097 34.6475 1.84097 35.7902 2.41812 36.4949L4.50835 39.0469C5.0855 39.7515 6.02144 39.7515 6.59859 39.0469L6.93856 38.6318C7.56073 39.0411 8.20305 39.3668 8.86822 39.6088V40.1953C8.86822 41.192 9.53002 42 10.3464 42H13.3027C14.119 42 14.7808 41.192 14.7808 40.1953V39.6096C15.446 39.3676 16.0883 39.042 16.7105 38.6326L17.0504 39.0477C17.6276 39.7523 18.5635 39.7523 19.1407 39.0477L21.2309 36.4957C21.8081 35.7911 21.8081 34.6484 21.2309 33.9437L20.8909 33.5286C21.2262 32.769 21.4929 31.9848 21.6912 31.1727H22.1722C22.9886 31.1727 23.6504 30.3647 23.6504 29.368V28.8758H29.0617C30.5338 26.4977 32.8458 24.9383 35.4756 24.9383C36.7279 24.9383 37.899 25.3165 38.9559 25.9391L42.3704 21.7703C42.7736 21.2781 43 20.6104 43 19.9139V15.75C43.0007 14.3005 42.0379 13.125 40.8506 13.125ZM11.8252 34.125C8.8568 34.125 6.4501 31.1866 6.4501 27.5625C6.4501 23.9384 8.8568 21 11.8252 21C14.7936 21 17.2003 23.9384 17.2003 27.5625C17.2003 31.1866 14.7936 34.125 11.8252 34.125ZM13.3033 13.125H10.7502V5.25H17.932L20.6968 13.125H13.3033Z" fill="white"/>
</svg>
