<svg width="151" height="109" viewBox="0 0 151 109" fill="none" xmlns="http://www.w3.org/2000/svg">
<path d="M135.42 99.7305H125.451V99.8031H135.42V99.7305Z" fill="#EBEBEB"/>
<path d="M99.6972 100.52H97.0815V100.593H99.6972V100.52Z" fill="#EBEBEB"/>
<path d="M125.15 97.0361H119.374V97.1087H125.15V97.0361Z" fill="#EBEBEB"/>
<path d="M28.7907 97.5239H15.7905V97.5965H28.7907V97.5239Z" fill="#EBEBEB"/>
<path d="M33.378 97.5239H31.4727V97.5965H33.378V97.5239Z" fill="#EBEBEB"/>
<path d="M67.7699 98.749H39.5723V98.8216H67.7699V98.749Z" fill="#EBEBEB"/>
<path d="M71.7583 82.1095H13.6352C13.1794 82.1095 12.7422 81.9348 12.4199 81.6239C12.0976 81.313 11.9165 80.8913 11.9165 80.4516V1.64335C11.9205 1.20618 12.1033 0.788212 12.4252 0.480435C12.7471 0.172657 13.182 -1.67604e-05 13.6352 1.22019e-09H71.7583C71.984 1.22019e-09 72.2075 0.0428816 72.416 0.126197C72.6246 0.209513 72.814 0.331631 72.9736 0.485578C73.1332 0.639526 73.2598 0.822288 73.3462 1.02343C73.4326 1.22457 73.477 1.44015 73.477 1.65787V80.4516C73.477 80.6693 73.4326 80.8849 73.3462 81.086C73.2598 81.2872 73.1332 81.4699 72.9736 81.6239C72.814 81.7778 72.6246 81.8999 72.416 81.9833C72.2075 82.0666 71.984 82.1095 71.7583 82.1095ZM13.6352 0.0580691C13.1996 0.0588367 12.782 0.226103 12.474 0.523235C12.166 0.820367 11.9925 1.22314 11.9918 1.64335V80.4516C11.9925 80.8718 12.166 81.2746 12.474 81.5717C12.782 81.8688 13.1996 82.0361 13.6352 82.0369H71.7583C72.1939 82.0361 72.6115 81.8688 72.9195 81.5717C73.2276 81.2746 73.401 80.8718 73.4018 80.4516V1.64335C73.401 1.22314 73.2276 0.820367 72.9195 0.523235C72.6115 0.226103 72.1939 0.0588367 71.7583 0.0580691H13.6352Z" fill="#EBEBEB"/>
<path d="M136.865 82.1095H78.7417C78.2858 82.1095 77.8487 81.9348 77.5263 81.6239C77.204 81.313 77.0229 80.8913 77.0229 80.4516V1.64335C77.0269 1.20618 77.2097 0.788212 77.5316 0.480435C77.8535 0.172657 78.2884 -1.67604e-05 78.7417 1.22019e-09H136.865C137.321 1.22019e-09 137.758 0.174668 138.08 0.485578C138.402 0.796489 138.583 1.21817 138.583 1.65787V80.4516C138.583 80.8913 138.402 81.313 138.08 81.6239C137.758 81.9348 137.321 82.1095 136.865 82.1095ZM78.7417 0.0580691C78.306 0.0588367 77.8885 0.226103 77.5804 0.523235C77.2724 0.820367 77.099 1.22314 77.0982 1.64335V80.4516C77.099 80.8718 77.2724 81.2746 77.5804 81.5717C77.8885 81.8688 78.306 82.0361 78.7417 82.0369H136.865C137.3 82.0361 137.718 81.8688 138.026 81.5717C138.334 81.2746 138.507 80.8718 138.508 80.4516V1.64335C138.507 1.22314 138.334 0.820367 138.026 0.523235C137.718 0.226103 137.3 0.0588367 136.865 0.0580691H78.7417Z" fill="#EBEBEB"/>
<path d="M150.5 95.0586H0V95.1312H150.5V95.0586Z" fill="#EBEBEB"/>
<path d="M134.625 11.4307H85.8511V95.0557H134.625V11.4307Z" fill="#FAFAFA"/>
<path d="M131.962 18.3906H89.4604V95.0561H131.962V18.3906Z" fill="#EBEBEB"/>
<path d="M130.944 19.9033H110.948V93.5434H130.944V19.9033Z" fill="#FAFAFA"/>
<path d="M110.476 20.0513H90.4805V93.6914H110.476V20.0513Z" fill="#FAFAFA"/>
<path d="M113.613 13.3994H107.18V15.516H113.613V13.3994Z" fill="#F0F0F0"/>
<path d="M64.6485 11.4307H15.8745V95.0557H64.6485V11.4307Z" fill="#FAFAFA"/>
<path d="M61.9817 18.3906H19.4805V95.0561H61.9817V18.3906Z" fill="#EBEBEB"/>
<path d="M60.9647 19.9033H40.9692V93.5434H60.9647V19.9033Z" fill="#FAFAFA"/>
<path d="M40.4964 20.0513H20.501V93.6914H40.4964V20.0513Z" fill="#FAFAFA"/>
<path d="M43.6331 13.3994H37.2007V15.516H43.6331V13.3994Z" fill="#F0F0F0"/>
<path d="M78.1457 39.3535H72.3574V50.1079H78.1457V39.3535Z" fill="#E6E6E6"/>
<path d="M75.3133 41.6294C75.6705 41.6294 76.0197 41.7316 76.3167 41.923C76.6137 42.1144 76.8452 42.3865 76.9818 42.7048C77.1185 43.0231 77.1543 43.3734 77.0846 43.7113C77.0149 44.0492 76.8429 44.3597 76.5904 44.6033C76.3378 44.8469 76.016 45.0128 75.6657 45.0801C75.3153 45.1473 74.9522 45.1128 74.6222 44.9809C74.2922 44.8491 74.0101 44.6258 73.8117 44.3393C73.6132 44.0528 73.5073 43.716 73.5073 43.3715C73.5073 42.9094 73.6976 42.4663 74.0363 42.1396C74.375 41.8129 74.8343 41.6294 75.3133 41.6294Z" fill="#F5F5F5"/>
<path d="M76.2826 43.659H74.3472L75.3465 42.3467L76.2826 43.659Z" fill="#E6E6E6"/>
<path d="M75.3133 45.3462C75.6705 45.3462 76.0197 45.4484 76.3167 45.6398C76.6137 45.8312 76.8452 46.1033 76.9818 46.4216C77.1185 46.7399 77.1543 47.0902 77.0846 47.4281C77.0149 47.766 76.8429 48.0765 76.5904 48.3201C76.3378 48.5637 76.016 48.7296 75.6657 48.7969C75.3153 48.8641 74.9522 48.8296 74.6222 48.6977C74.2922 48.5659 74.0101 48.3426 73.8117 48.0561C73.6132 47.7696 73.5073 47.4328 73.5073 47.0883C73.5073 46.6262 73.6976 46.1831 74.0363 45.8564C74.375 45.5297 74.8343 45.3462 75.3133 45.3462Z" fill="#F5F5F5"/>
<path d="M76.2826 46.6411H74.3472L75.3465 47.9564L76.2826 46.6411Z" fill="#E6E6E6"/>
<path d="M76.3635 66.3117C76.7217 65.4406 77.5404 64.9529 78.2839 65.1503C79.0273 65.3477 79.6354 66.2042 79.7106 67.1827C79.9495 66.9514 80.2709 66.8166 80.6092 66.8058C80.9476 66.795 81.2774 66.909 81.5317 67.1246C81.8202 67.4021 82.037 67.7412 82.1646 68.1144C82.2922 68.4876 82.3269 68.8846 82.2661 69.2732C82.8681 68.6925 83.8283 68.9306 84.2106 69.7581C84.5928 70.5855 84.2979 71.7905 83.6086 72.197C84.0721 72.2376 84.4664 72.8009 84.4544 73.399C84.4423 73.9971 84.0239 74.5342 83.5514 74.5429C84.0209 74.5429 84.4544 75.0597 84.5086 75.6579C84.5627 76.256 84.2407 76.8831 83.7862 77.0399C84.2617 77.2983 84.3882 78.2535 83.9969 78.692C83.6056 79.1304 82.8892 78.8546 82.7537 78.21C82.7432 78.2509 82.7208 78.2881 82.6893 78.3172C82.6578 78.3464 82.6184 78.3664 82.5756 78.3749C82.5328 78.3834 82.4884 78.3801 82.4475 78.3653C82.4066 78.3505 82.3708 78.3248 82.3444 78.2913C82.2917 78.2087 82.2707 78.1109 82.285 78.0149C82.2993 77.9189 82.348 77.8308 82.4226 77.7658C82.2059 78.1345 81.6611 77.9632 81.6009 77.5103C81.7604 78.5613 80.731 79.5427 79.9966 79.0549C80.0826 79.275 80.0817 79.518 79.994 79.7375C79.9063 79.9571 79.738 80.1378 79.521 80.2453C79.1327 80.3818 78.7233 80.1872 78.3621 79.9695C78.0009 79.7517 77.6247 79.4933 77.2244 79.4991C76.8666 79.5566 76.5222 79.6746 76.207 79.8475C75.1354 80.2656 73.8983 79.865 73.1037 78.8458C72.5468 79.7575 71.2284 79.5136 70.8943 78.4365C70.8101 78.9533 70.4338 79.3656 70.0244 79.3946C69.6151 79.4236 69.2087 79.0694 69.0793 78.5671L69.0522 79.2581C68.2817 79.4817 67.5201 78.2652 67.8482 77.339C67.2974 77.339 66.7767 76.7583 66.7044 76.0643C66.6322 75.3704 67.0054 74.6271 67.5562 74.4558C66.6532 74.1452 65.9549 73.0041 65.9459 71.7847C65.9369 70.5652 66.6111 69.4038 67.5111 69.0699C67.6846 68.9883 67.8803 68.9614 68.0705 68.9932C68.2608 69.025 68.4357 69.1138 68.5706 69.247C68.8536 69.5519 68.8927 70.2255 68.5706 70.4723C68.2997 69.3835 68.7031 68.0828 69.4736 67.5398C70.2442 66.9969 71.3187 67.2785 71.8816 68.1699C71.7494 67.9189 71.6805 67.6413 71.6805 67.3598C71.6805 67.0783 71.7494 66.8007 71.8816 66.5497C71.9769 66.3331 72.1559 66.1608 72.3806 66.0692C72.6053 65.9776 72.8582 65.974 73.0856 66.0591C73.191 65.3129 73.802 64.7467 74.3829 64.857C74.9638 64.9674 75.4214 65.7281 75.3582 66.4888C75.4244 65.8587 76.2281 65.6729 76.4598 66.2333C76.7879 66.1084 76.3635 66.3117 76.3635 66.3117Z" fill="#EBEBEB"/>
<path d="M76.1531 73.3267C76.2593 73.2249 76.3897 73.1498 76.533 73.1078C76.6762 73.0658 76.8279 73.0582 76.9748 73.0857C77.1319 73.1326 77.272 73.2217 77.3786 73.3425C77.4852 73.4633 77.5539 73.6109 77.5768 73.768C77.614 73.9292 77.5949 74.0977 77.5225 74.2474C77.4501 74.397 77.3285 74.5194 77.1765 74.5955C76.8334 74.6971 76.4902 74.3516 76.1411 74.4125C76.0173 74.4481 75.8966 74.4928 75.7799 74.5461C75.2802 74.7087 74.7836 74.308 74.3652 73.9306C74.208 73.8001 74.0747 73.645 73.9709 73.4718C73.9183 73.3745 73.8873 73.2677 73.8801 73.1582C73.8728 73.0487 73.8894 72.9389 73.9287 72.836C73.995 72.723 74.0987 72.6348 74.2231 72.5853C74.3475 72.5359 74.4854 72.528 74.615 72.5631C75.147 72.6486 75.636 72.8982 76.0086 73.2744C76.0086 73.1786 75.9845 73.0828 75.9695 72.984L76.1531 73.3267Z" fill="#FAFAFA"/>
<path d="M68.8567 72.8011C68.9798 72.675 69.1297 72.576 69.2961 72.5108C69.3784 72.4841 69.4675 72.4847 69.5494 72.5126C69.6312 72.5405 69.701 72.594 69.7476 72.6647C69.8075 72.7848 69.8275 72.9198 69.8048 73.0512C69.7822 73.1827 69.7181 73.3042 69.6212 73.3992C69.4427 73.55 69.2193 73.6425 68.9831 73.6635C68.7513 73.7099 68.4593 73.7186 68.345 73.4689C68.311 73.374 68.3031 73.2722 68.3221 73.1735C68.3411 73.0748 68.3863 72.9825 68.4533 72.9057C68.5793 72.78 68.7354 72.6863 68.9078 72.6327L68.8567 72.8011Z" fill="#FAFAFA"/>
<path d="M80.3669 68.1701C80.6174 68.3162 80.831 68.5141 80.9924 68.7496C81.1537 68.9851 81.2588 69.2523 81.3 69.5318C81.3331 69.7118 81.3271 69.9412 81.1977 70.037C81.1489 70.0614 81.0947 70.0742 81.0397 70.0742C80.9847 70.0742 80.9305 70.0614 80.8816 70.037L79.5482 69.6509C79.7741 69.74 79.9788 69.8723 80.1502 70.0399C80.2427 70.1405 80.3111 70.2595 80.3507 70.3885C80.3902 70.5174 80.3999 70.6531 80.379 70.7861C80.3519 70.9264 80.2754 71.0533 80.1624 71.1454C80.0494 71.2375 79.9068 71.289 79.7589 71.2913C79.4775 71.2613 79.2168 71.1345 79.0245 70.9342C78.8915 70.8337 78.7814 70.7078 78.7011 70.5645C78.6208 70.4211 78.5721 70.2633 78.5579 70.1009C78.5579 69.7496 78.9161 69.4273 79.1358 69.6509C78.6111 69.474 78.1252 69.2042 77.7031 68.8553C77.5315 68.7276 77.39 68.5663 77.2877 68.382C77.2335 68.28 77.2017 68.1683 77.1945 68.0538C77.1872 67.9394 77.2046 67.8248 77.2456 67.7172C77.7001 66.7039 78.278 68.1875 78.5579 68.3211C79.0997 68.5795 79.7017 67.8246 80.3669 68.1701Z" fill="#FAFAFA"/>
<path d="M82.4529 72.4902C82.4796 72.5864 82.4829 72.6873 82.4626 72.785C82.4422 72.8827 82.3987 72.9746 82.3355 73.0534C82.3044 73.0848 82.2652 73.1076 82.2218 73.1194C82.1785 73.1313 82.1327 73.1318 82.0891 73.1208C82.0455 73.1099 82.0058 73.0879 81.974 73.0571C81.9422 73.0264 81.9194 72.988 81.9081 72.946C82.2327 73.0358 82.5154 73.2306 82.7088 73.4977C82.8954 73.8054 82.8503 74.3397 82.5523 74.4587C82.4542 74.4786 82.3525 74.4752 82.2561 74.4489C82.1596 74.4226 82.0712 74.3742 81.9984 74.3077C81.5069 73.9766 81.0457 73.6056 80.6198 73.1986C80.6454 73.286 80.6521 73.3775 80.6396 73.4675C80.6271 73.5574 80.5956 73.644 80.5471 73.7218C80.4986 73.7996 80.4341 73.867 80.3576 73.9198C80.281 73.9726 80.1941 74.0098 80.1021 74.029C79.7527 74.014 79.4219 73.8731 79.175 73.6341C78.8259 73.3757 78.4256 72.9779 78.5159 72.4931C78.5323 72.4026 78.569 72.3166 78.6234 72.2412C78.6777 72.1657 78.7485 72.1026 78.8307 72.0562C78.9129 72.0098 79.0046 71.9812 79.0994 71.9724C79.1942 71.9636 79.2899 71.9748 79.3797 72.0053C79.7296 72.1854 80.0196 72.4572 80.2165 72.7892C80.1806 72.7066 80.1627 72.6177 80.1639 72.5282C80.1651 72.4386 80.1854 72.3502 80.2235 72.2685C80.2616 72.1868 80.3167 72.1136 80.3854 72.0533C80.4541 71.993 80.5349 71.947 80.6229 71.9182C80.7937 71.9149 80.9621 71.957 81.1097 72.04C81.2573 72.123 81.3784 72.2436 81.4596 72.3885C81.0864 72.1388 81.0051 71.4914 81.5018 71.4159C81.8238 71.3549 82.3747 72.1592 82.4529 72.4902Z" fill="#FAFAFA"/>
<path d="M72.2639 71.0356C72.341 71.0124 72.4226 71.006 72.5026 71.0168C72.5827 71.0276 72.6593 71.0554 72.7269 71.0982C72.7945 71.1409 72.8515 71.1976 72.8937 71.264C72.936 71.3305 72.9624 71.4052 72.9712 71.4827C73.0135 71.6455 72.9932 71.8176 72.9141 71.9671C72.8349 72.1166 72.7023 72.2333 72.5408 72.2957C72.6569 72.3115 72.7678 72.3521 72.8657 72.4143C72.9635 72.4766 73.0459 72.559 73.1067 72.6557C73.1948 72.7735 73.2374 72.9173 73.2271 73.0622C73.2155 73.1594 73.1692 73.2496 73.0961 73.3174C73.0231 73.3852 72.9278 73.4264 72.8267 73.4338C72.6405 73.4222 72.4613 73.3608 72.309 73.2567C72.4951 73.2581 72.6748 73.3217 72.8177 73.4367C72.8959 73.5113 72.9461 73.6089 72.9603 73.7141C72.9745 73.8193 72.9518 73.9261 72.896 74.0174C72.8402 74.0694 72.7688 74.103 72.692 74.1134C72.6152 74.1239 72.537 74.1106 72.4685 74.0755C72.1271 73.9524 71.8252 73.7452 71.5926 73.4745C71.5206 73.5978 71.4134 73.6987 71.2838 73.7651C71.1541 73.8314 71.0075 73.8606 70.8612 73.849C70.7091 73.8008 70.5814 73.6989 70.5038 73.5638C70.4262 73.4287 70.4044 73.2702 70.4428 73.1203C70.4691 73.0182 70.5259 72.9258 70.6062 72.8545C70.6865 72.7833 70.7866 72.7364 70.8943 72.7196C71.0947 72.7048 71.2956 72.743 71.4752 72.8299C71.2563 72.6724 71.0933 72.4533 71.0087 72.2028C70.9395 71.9298 71.09 71.5611 71.3247 71.5814C71.5595 71.6018 71.7251 72.046 71.9267 72.2028C72.1796 71.9037 71.698 71.2911 72.2639 71.0356Z" fill="#FAFAFA"/>
<path d="M77.0199 69.6828C77.3209 69.9296 77.4232 70.4203 77.4052 70.8616C77.3811 71.3494 77.1975 71.872 76.8333 72.0666C76.3487 72.325 75.7467 71.8343 75.6594 71.1955C75.6213 70.895 75.668 70.5902 75.7946 70.3132C75.9213 70.0362 76.1231 69.7974 76.3788 69.6219C76.4795 69.5683 76.5947 69.5455 76.7091 69.5564C76.8236 69.5672 76.9319 69.6113 77.0199 69.6828Z" fill="#FAFAFA"/>
<path d="M73.6518 69.1688L73.5254 69.2994C73.5682 69.2265 73.6285 69.1645 73.7013 69.1187C73.7741 69.073 73.8572 69.0448 73.9437 69.0365C74.0302 69.0283 74.1174 69.0402 74.1981 69.0713C74.2788 69.1024 74.3506 69.1518 74.4073 69.2152C74.5246 69.372 74.5878 69.5605 74.5878 69.7538C74.5878 69.9472 74.5246 70.1356 74.4073 70.2924C74.3507 70.3555 74.2792 70.4047 74.1989 70.4359C74.1186 70.4671 74.0317 70.4794 73.9455 70.4717C73.8593 70.464 73.7762 70.4367 73.7032 70.3919C73.6301 70.347 73.5692 70.2861 73.5254 70.214C73.3523 70.3139 73.1456 70.3446 72.9494 70.2996C72.7531 70.2546 72.5829 70.1374 72.4749 69.973C72.2281 69.613 72.2853 68.983 72.6194 68.7507C72.9535 68.5184 73.4592 68.8668 73.4231 69.3314L73.5705 69.1339L73.6518 69.1688Z" fill="#FAFAFA"/>
<path d="M69.9314 69.9006C70.2014 70.1811 70.3984 70.5195 70.5064 70.8878C70.5937 71.2826 70.4492 71.7849 70.1241 71.8837C69.799 71.9824 69.495 71.6601 69.3114 71.3233C69.1182 71.0131 69.0486 70.6457 69.1157 70.2897C69.2121 69.9412 69.6214 69.7351 69.8261 69.9993L69.9314 69.9006Z" fill="#FAFAFA"/>
<path d="M75.2922 67.5198C75.3136 67.4467 75.353 67.3796 75.4071 67.3242C75.4611 67.2688 75.5281 67.2268 75.6026 67.2018C75.677 67.1767 75.7565 67.1693 75.8346 67.1802C75.9126 67.1911 75.9867 67.2199 76.0507 67.2643C76.1778 67.3875 76.267 67.5423 76.3084 67.7114C76.3499 67.8805 76.3419 68.0574 76.2855 68.2225C76.2404 68.3751 76.152 68.5126 76.0302 68.6193C75.9084 68.726 75.7581 68.7978 75.5962 68.8264C75.4952 68.8326 75.394 68.8169 75.3 68.7806C75.206 68.7443 75.1217 68.6882 75.053 68.6164C74.9844 68.5447 74.9332 68.459 74.9032 68.3657C74.8733 68.2725 74.8653 68.1739 74.8798 68.0773C74.8092 68.1915 74.7054 68.2831 74.5812 68.3409C74.4571 68.3987 74.3181 68.4201 74.1815 68.4025C73.9139 68.3506 73.6638 68.2359 73.4531 68.0686C73.2754 67.9669 73.1272 67.8237 73.022 67.6522C72.9168 67.4807 72.858 67.2864 72.8511 67.0872C72.8598 66.9334 72.9218 66.7868 73.0271 66.671C73.1324 66.5552 73.275 66.4768 73.432 66.4485C73.5799 66.4454 73.7265 66.4755 73.8602 66.5365C73.9939 66.5975 74.1111 66.6876 74.2026 66.7998C74.3711 66.9769 74.5036 67.1917 74.6932 67.3485C74.7703 67.4311 74.8737 67.4864 74.9871 67.5059C75.1005 67.5253 75.2174 67.5078 75.3193 67.456L75.2922 67.5198Z" fill="#FAFAFA"/>
<path d="M74.2775 77.5483C74.6168 78.5283 74.7119 79.5716 74.555 80.5937C74.3981 81.6157 73.9937 82.5877 73.3745 83.4307C74.723 83.4307 75.93 83.5207 77.2875 83.5207C76.6792 81.5128 76.5384 79.4 76.8751 77.3335C76.1106 77.3335 75.027 77.5483 74.2775 77.5483Z" fill="#E0E0E0"/>
<path d="M69.4919 94.9864H81.1556L82.2964 83.6484H68.3511L69.4919 94.9864Z" fill="#EBEBEB"/>
<path d="M67.4481 84.232H83.3168L83.5997 82.7251H67.1621L67.4481 84.232Z" fill="#F5F5F5"/>
<path d="M75.25 108.011C107.482 108.011 133.611 106.539 133.611 104.724C133.611 102.909 107.482 101.438 75.25 101.438C43.0182 101.438 16.8892 102.909 16.8892 104.724C16.8892 106.539 43.0182 108.011 75.25 108.011Z" fill="#F5F5F5"/>
<path d="M117.047 18.4021H114.536C115.128 18.3957 115.715 18.5073 116.26 18.7299C116.805 18.9524 117.297 19.2811 117.704 19.6955C118.111 20.1098 118.425 20.6007 118.626 21.1376C118.828 21.6745 118.912 22.2456 118.874 22.8154L114.877 96.3451C114.8 97.5314 114.261 98.6457 113.367 99.4644C112.474 100.283 111.293 100.745 110.061 100.758H112.574C113.806 100.745 114.987 100.283 115.881 99.4644C116.774 98.6457 117.313 97.5314 117.39 96.3451L121.384 22.8154C121.422 22.2456 121.338 21.6745 121.137 21.1376C120.935 20.6007 120.621 20.1098 120.214 19.6955C119.807 19.2811 119.315 18.9524 118.77 18.7299C118.225 18.5073 117.639 18.3957 117.047 18.4021Z" fill="white"/>
<path opacity="0.1" d="M117.047 18.4021H114.536C115.128 18.3957 115.715 18.5073 116.26 18.7299C116.805 18.9524 117.297 19.2811 117.704 19.6955C118.111 20.1098 118.425 20.6007 118.626 21.1376C118.828 21.6745 118.912 22.2456 118.874 22.8154L114.877 96.3451C114.8 97.5314 114.261 98.6457 113.367 99.4644C112.474 100.283 111.293 100.745 110.061 100.758H112.574C113.806 100.745 114.987 100.283 115.881 99.4644C116.774 98.6457 117.313 97.5314 117.39 96.3451L121.384 22.8154C121.422 22.2456 121.338 21.6745 121.137 21.1376C120.935 20.6007 120.621 20.1098 120.214 19.6955C119.807 19.2811 119.315 18.9524 118.77 18.7299C118.225 18.5073 117.639 18.3957 117.047 18.4021Z" fill="white"/>
<path d="M111.824 100.75H81.0773C80.4876 100.754 79.9032 100.641 79.3606 100.418C78.818 100.195 78.3288 99.8671 77.9233 99.4539C77.5179 99.0408 77.2049 98.5516 77.0039 98.0167C76.8029 97.4819 76.7182 96.9129 76.7549 96.3451L80.7492 22.8154C80.8259 21.6291 81.3651 20.5147 82.2584 19.6961C83.1517 18.8775 84.3331 18.4152 85.5652 18.4021H116.297C116.889 18.3957 117.476 18.5073 118.021 18.7299C118.566 18.9524 119.058 19.2811 119.465 19.6955C119.872 20.1098 120.186 20.6007 120.387 21.1376C120.589 21.6745 120.673 22.2456 120.635 22.8154L116.64 96.3451C116.562 97.5298 116.021 98.642 115.128 99.4588C114.235 100.276 113.055 100.737 111.824 100.75Z" fill="white"/>
<path opacity="0.4" d="M111.824 100.75H81.0773C80.4876 100.754 79.9032 100.641 79.3606 100.418C78.818 100.195 78.3288 99.8671 77.9233 99.4539C77.5179 99.0408 77.2049 98.5516 77.0039 98.0167C76.8029 97.4819 76.7182 96.9129 76.7549 96.3451L80.7492 22.8154C80.8259 21.6291 81.3651 20.5147 82.2584 19.6961C83.1517 18.8775 84.3331 18.4152 85.5652 18.4021H116.297C116.889 18.3957 117.476 18.5073 118.021 18.7299C118.566 18.9524 119.058 19.2811 119.465 19.6955C119.872 20.1098 120.186 20.6007 120.387 21.1376C120.589 21.6745 120.673 22.2456 120.635 22.8154L116.64 96.3451C116.562 97.5298 116.021 98.642 115.128 99.4588C114.235 100.276 113.055 100.737 111.824 100.75Z" fill="white"/>
<path d="M85.6619 19.8188C84.8046 19.8282 83.9827 20.1502 83.3613 20.72C82.7399 21.2898 82.3649 22.0652 82.3118 22.8907L78.3175 96.4176C78.289 96.7953 78.3424 97.1746 78.4743 97.5313C78.6062 97.888 78.8137 98.2143 79.0836 98.4894C79.3535 98.7645 79.6798 98.9823 80.0418 99.129C80.4038 99.2756 80.7935 99.348 81.186 99.3413H111.933C112.79 99.3312 113.612 99.0091 114.233 98.4394C114.854 97.8698 115.229 97.0947 115.283 96.2695L119.278 22.7426C119.306 22.3646 119.253 21.9851 119.121 21.6281C118.988 21.2712 118.781 20.9448 118.51 20.6697C118.24 20.3946 117.914 20.1768 117.551 20.0303C117.189 19.8838 116.799 19.8118 116.406 19.8188H85.6619Z" fill="#075A53"/>
<path d="M98.2766 71.2998C99.8237 71.2998 100.447 73.5529 101.004 74.964C101.209 75.4003 101.518 75.7835 101.907 76.0818C101.413 76.4423 100.996 76.8907 100.679 77.4028C99.8237 78.8052 98.8184 80.8638 97.4127 80.8638C96.007 80.8638 95.3749 78.8052 94.7729 77.4028C94.5519 76.896 94.2143 76.4442 93.7856 76.0818C94.2268 75.7832 94.6022 75.4033 94.8903 74.964C95.7 73.5529 96.7294 71.2998 98.2766 71.2998Z" fill="white"/>
<path d="M81.8239 74.8047C82.3507 74.8047 82.5734 75.4086 82.7721 75.789C82.849 75.9059 82.9518 76.0051 83.0731 76.0793C82.9145 76.1713 82.7764 76.2927 82.6667 76.4364C82.3838 76.811 82.0647 77.3626 81.5801 77.3626C81.0955 77.3626 80.8758 76.811 80.6771 76.4364C80.592 76.294 80.4747 76.172 80.334 76.0793C80.4739 76.0064 80.5976 75.9077 80.6982 75.789C80.9691 75.4086 81.3002 74.8047 81.8239 74.8047Z" fill="white"/>
<path d="M114.176 74.8047C114.7 74.8047 114.925 75.4086 115.124 75.789C115.2 75.9066 115.303 76.0059 115.425 76.0793C115.266 76.1716 115.127 76.2929 115.016 76.4364C114.736 76.811 114.414 77.3626 113.932 77.3626C113.45 77.3626 113.228 76.811 113.014 76.4364C112.93 76.2933 112.812 76.171 112.671 76.0793C112.811 76.006 112.936 75.9074 113.038 75.789C113.318 75.4086 113.652 74.8047 114.176 74.8047Z" fill="white"/>
<path d="M88.7771 73.4893C90.857 73.4893 91.8533 74.7087 92.7052 75.4752C93.0968 75.7467 93.5335 75.9518 93.9965 76.082C93.4442 76.2441 92.9205 76.4859 92.4433 76.7992C91.3958 77.5599 90.1948 78.6748 88.3045 78.6748C86.4143 78.6748 85.418 77.5599 84.5089 76.7992C84.0789 76.4779 83.594 76.2312 83.0762 76.0704C83.5724 75.9365 84.0451 75.732 84.4788 75.4636C85.4842 74.7087 86.6882 73.4893 88.7771 73.4893Z" fill="white"/>
<path d="M107.458 73.4893C109.537 73.4893 110.537 74.7087 111.386 75.4752C111.777 75.7467 112.214 75.9518 112.677 76.082C112.125 76.2448 111.601 76.4865 111.124 76.7992C110.076 77.5599 108.875 78.6748 106.988 78.6748C105.101 78.6748 104.101 77.5599 103.189 76.7992C102.761 76.4828 102.279 76.2402 101.766 76.082C102.262 75.9481 102.735 75.7436 103.168 75.4752C104.165 74.7087 105.384 73.4893 107.458 73.4893Z" fill="white"/>
<g opacity="0.2">
<path d="M94.3003 72.8477C95.3477 72.8477 95.7691 74.3749 96.1484 75.3301C96.2838 75.6252 96.4902 75.885 96.7504 76.0879C96.4156 76.3329 96.1326 76.6374 95.9166 76.9851C95.3357 77.9374 94.6554 79.3311 93.7013 79.3311C92.7471 79.3311 92.3197 77.9374 91.9133 76.9851C91.7635 76.6413 91.535 76.3346 91.2451 76.0879C91.5439 75.8859 91.7977 75.6282 91.9916 75.3301C92.5515 74.3749 93.2498 72.8477 94.3003 72.8477Z" fill="white"/>
</g>
<g opacity="0.2">
<path d="M88.5664 75.3794C89.2793 75.3793 89.9787 75.567 90.5891 75.9223C90.804 76.0004 91.0271 76.0559 91.2543 76.0878C90.9915 76.1296 90.7334 76.1957 90.4837 76.2853C89.8517 76.6064 89.1512 76.7823 88.437 76.7992C87.7503 76.79 87.0772 76.6132 86.4805 76.2853C86.2445 76.1948 85.9993 76.1287 85.749 76.0878C85.9849 76.0548 86.2168 75.9994 86.4413 75.9223C87.0921 75.5742 87.8223 75.3876 88.5664 75.3794Z" fill="white"/>
</g>
<g opacity="0.2">
<path d="M83.1122 75.7799C83.8041 75.7757 84.4939 75.8556 85.165 76.018C85.3697 76.0587 85.8363 76.0877 85.8363 76.0877C85.8363 76.0877 85.3787 76.1196 85.0777 76.1748C84.4148 76.3188 83.7376 76.3928 83.058 76.3955C82.3903 76.3943 81.7249 76.3202 81.0744 76.1748C80.7734 76.1196 80.334 76.0877 80.334 76.0877C80.334 76.0877 80.8066 76.0587 81.0173 76.018C81.7031 75.8577 82.4065 75.7778 83.1122 75.7799Z" fill="white"/>
</g>
<g opacity="0.2">
<path d="M107.343 75.3794C106.599 75.3876 105.868 75.5742 105.218 75.9223C104.993 75.9994 104.761 76.0548 104.525 76.0878C104.776 76.1287 105.021 76.1948 105.257 76.2853C105.854 76.6132 106.527 76.79 107.213 76.7992C107.928 76.7823 108.628 76.6064 109.26 76.2853C109.51 76.1957 109.768 76.1296 110.031 76.0878C109.803 76.0559 109.58 76.0004 109.365 75.9223C108.755 75.567 108.056 75.3793 107.343 75.3794Z" fill="white"/>
</g>
<g opacity="0.2">
<path d="M112.722 75.7799C112.012 75.7766 111.304 75.8565 110.615 76.018C110.401 76.0586 109.928 76.0877 109.928 76.0877C109.928 76.0877 110.383 76.1196 110.672 76.1748C111.321 76.3204 111.986 76.3944 112.652 76.3954C113.333 76.3927 114.011 76.3187 114.675 76.1748C114.976 76.1196 115.434 76.0877 115.434 76.0877C115.434 76.0877 114.964 76.0586 114.759 76.018C114.093 75.8565 113.408 75.7765 112.722 75.7799Z" fill="white"/>
</g>
<g opacity="0.2">
<path d="M102.066 72.8477C103.117 72.8477 103.535 74.3749 103.915 75.3301C104.05 75.6252 104.256 75.885 104.517 76.0879C104.182 76.3329 103.899 76.6374 103.683 76.9851C103.105 77.9374 102.422 79.3311 101.47 79.3311C100.519 79.3311 100.089 77.9374 99.6795 76.9851C99.5308 76.6406 99.3022 76.3337 99.0112 76.0879C99.31 75.8859 99.5638 75.6282 99.7577 75.3301C100.318 74.3749 101.016 72.8477 102.066 72.8477Z" fill="white"/>
</g>
<g opacity="0.2">
<path d="M97.9546 75.3794C98.385 75.3794 98.5837 75.7133 98.7552 75.9223C98.8305 75.9949 98.9207 76.0513 99.0201 76.0878C98.8996 76.1346 98.7886 76.2015 98.692 76.2853C98.4723 76.4943 98.2164 76.7992 97.8251 76.7992C97.4338 76.7992 97.2231 76.4943 97.0486 76.2853C96.9638 76.1997 96.8612 76.1324 96.7476 76.0878C96.8578 76.0515 96.96 75.9954 97.0486 75.9223C97.2623 75.7133 97.5241 75.3794 97.9546 75.3794Z" fill="white"/>
</g>
<g opacity="0.1">
<path d="M98.0479 99.3414H85.7852L97.3436 19.8189H107.213C107.636 19.8167 108.055 19.8994 108.444 20.0619C108.832 20.2244 109.18 20.463 109.468 20.7625L98.0479 99.3414Z" fill="white"/>
<path d="M83.5848 99.3413H80.8276L92.383 19.8188H95.1432L83.5848 99.3413Z" fill="white"/>
</g>
<g opacity="0.8">
<path d="M109.466 60.1748C115.857 54.222 116.372 44.736 110.616 38.987C104.861 33.2381 95.0146 33.4032 88.6241 39.3559C82.2337 45.3087 81.7189 54.7947 87.4744 60.5437C93.2298 66.2926 103.076 66.1275 109.466 60.1748Z" fill="white"/>
</g>
<path d="M98.0328 62.5518C90.7336 62.5518 85.2072 56.8204 85.7189 49.7766C86.2306 42.7329 92.5847 37.0015 99.887 37.0015C107.189 37.0015 112.713 42.7329 112.201 49.7766C111.689 56.8204 105.35 62.5518 98.0328 62.5518ZM99.8388 37.8028C92.9941 37.8028 87.0373 43.1742 86.5587 49.7795C86.0801 56.3849 91.2573 61.7533 98.105 61.7533C104.953 61.7533 110.907 56.382 111.385 49.7795C111.864 43.1771 106.671 37.8028 99.8268 37.8028H99.8388Z" fill="white"/>
<path d="M97.0095 46.3621L97.1991 43.7287C97.257 43.0855 97.5597 42.4858 98.0488 42.0451C98.5379 41.6044 99.1788 41.354 99.8479 41.342C100.166 41.3376 100.482 41.3977 100.775 41.5183C101.068 41.639 101.331 41.8175 101.548 42.0425C101.764 42.2674 101.93 42.5337 102.033 42.8241C102.136 43.1146 102.175 43.4227 102.148 43.7287L101.771 48.9229C101.717 49.567 101.416 50.1686 100.927 50.61C100.438 51.0514 99.7954 51.3008 99.1255 51.3096C98.8071 51.3139 98.4912 51.2539 98.1983 51.1333C97.9054 51.0126 97.642 50.8341 97.425 50.6092C97.2081 50.3844 97.0424 50.1181 96.9387 49.8276C96.835 49.5372 96.7955 49.229 96.8229 48.9229L97.0095 46.3621Z" fill="white"/>
<path d="M98.9269 54.0504C98.3517 54.0581 97.7811 53.9495 97.2521 53.7315C96.7231 53.5135 96.2473 53.191 95.8553 52.7848C95.4634 52.3786 95.1641 51.8976 94.9766 51.373C94.7892 50.8484 94.7178 50.2917 94.7671 49.7388L95.0681 45.5375C95.0771 45.4299 95.1275 45.3294 95.2093 45.2558C95.2912 45.1822 95.3986 45.1408 95.5105 45.1397C95.5638 45.1387 95.6166 45.1485 95.6656 45.1685C95.7147 45.1885 95.7588 45.2182 95.7951 45.2557C95.8315 45.2932 95.8592 45.3377 95.8766 45.3863C95.8939 45.4348 95.9005 45.4863 95.8958 45.5375L95.5948 49.7388C95.5544 50.1895 95.6123 50.6433 95.7649 51.071C95.9175 51.4988 96.1613 51.891 96.4806 52.2222C96.8 52.5535 97.1877 52.8166 97.6189 52.9944C98.0501 53.1723 98.5152 53.261 98.9841 53.2549C99.9726 53.2423 100.921 52.8754 101.644 52.2254C102.368 51.5754 102.814 50.689 102.897 49.7388L103.198 45.5375C103.207 45.4299 103.257 45.3294 103.339 45.2558C103.421 45.1822 103.529 45.1408 103.641 45.1397C103.694 45.1387 103.747 45.1485 103.796 45.1685C103.845 45.1885 103.889 45.2182 103.925 45.2557C103.961 45.2932 103.989 45.3377 104.007 45.3863C104.024 45.4348 104.03 45.4863 104.026 45.5375L103.725 49.7388C103.623 50.9039 103.076 51.9909 102.189 52.788C101.302 53.585 100.139 54.035 98.9269 54.0504Z" fill="white"/>
<path d="M98.5416 59.3434C98.4878 59.3445 98.4344 59.3346 98.3849 59.3143C98.3354 59.2939 98.291 59.2637 98.2546 59.2255C98.2181 59.1873 98.1905 59.1421 98.1736 59.0929C98.1567 59.0436 98.1508 58.9915 98.1563 58.9399L98.5416 53.6469C98.5506 53.5393 98.601 53.4388 98.6829 53.3652C98.7647 53.2916 98.8722 53.2502 98.9841 53.2491C99.0373 53.2481 99.0901 53.2579 99.1392 53.2779C99.1882 53.2979 99.2323 53.3276 99.2687 53.3651C99.305 53.4026 99.3328 53.4471 99.3501 53.4956C99.3675 53.5442 99.374 53.5957 99.3694 53.6469L98.9841 58.9399C98.9765 59.0485 98.9268 59.1504 98.8447 59.2252C98.7627 59.3 98.6545 59.3422 98.5416 59.3434Z" fill="white"/>
<path d="M101.287 59.3435H95.7993C95.7458 59.3441 95.6927 59.3339 95.6436 59.3134C95.5945 59.2929 95.5504 59.2625 95.5143 59.2244C95.4782 59.1863 95.4509 59.1412 95.4341 59.0922C95.4173 59.0432 95.4115 58.9912 95.4171 58.9399C95.426 58.832 95.4763 58.7312 95.5581 58.6571C95.6399 58.5831 95.7474 58.541 95.8595 58.5392H101.347C101.401 58.5378 101.454 58.5474 101.504 58.5673C101.554 58.5873 101.599 58.6171 101.635 58.655C101.672 58.6928 101.701 58.7377 101.718 58.7868C101.736 58.8359 101.743 58.8881 101.738 58.9399C101.73 59.0498 101.678 59.1525 101.595 59.2274C101.511 59.3023 101.401 59.3438 101.287 59.3435Z" fill="white"/>
<path d="M121.749 39.5187C121.729 39.5176 121.71 39.5127 121.692 39.5043C121.674 39.496 121.658 39.4844 121.645 39.4701C121.632 39.4558 121.622 39.4391 121.615 39.421C121.609 39.403 121.606 39.3839 121.607 39.3648L122.209 29.0517C122.21 29.0324 122.215 29.0134 122.223 28.9959C122.232 28.9784 122.244 28.9627 122.259 28.9497C122.273 28.9367 122.291 28.9267 122.31 28.9203C122.329 28.9139 122.349 28.9112 122.369 28.9124C122.408 28.916 122.445 28.9339 122.471 28.9625C122.497 28.991 122.511 29.0281 122.51 29.0663L121.908 39.3822C121.907 39.4014 121.903 39.4203 121.894 39.4377C121.886 39.455 121.874 39.4706 121.859 39.4833C121.844 39.4961 121.826 39.5058 121.807 39.5119C121.789 39.5179 121.769 39.5202 121.749 39.5187Z" fill="white"/>
<path d="M122.459 27.2259C122.439 27.2251 122.42 27.2206 122.402 27.2126C122.385 27.2045 122.369 27.1932 122.355 27.1791C122.342 27.165 122.332 27.1486 122.326 27.1307C122.319 27.1128 122.316 27.0938 122.318 27.0749L122.474 24.3514C122.477 24.3132 122.496 24.2776 122.525 24.2521C122.555 24.2267 122.594 24.2134 122.634 24.215C122.653 24.2161 122.673 24.221 122.691 24.2293C122.708 24.2376 122.724 24.2493 122.738 24.2636C122.751 24.2779 122.761 24.2945 122.767 24.3126C122.774 24.3307 122.776 24.3498 122.775 24.3689L122.619 27.0894C122.618 27.1085 122.612 27.1271 122.604 27.1443C122.595 27.1615 122.583 27.1769 122.568 27.1896C122.553 27.2023 122.536 27.212 122.517 27.2182C122.499 27.2244 122.479 27.227 122.459 27.2259Z" fill="white"/>
<path d="M79.8706 7.48233L79.1362 17.7925C79.1329 17.8579 79.1238 17.923 79.1091 17.987C79.0337 18.3095 78.8464 18.5976 78.5782 18.8035C78.31 19.0094 77.977 19.1208 77.6342 19.1193H75.2021C75.461 20.5711 77.3302 22.5483 77.3302 22.5483C77.3302 22.5483 73.7874 22.0663 71.8309 19.099L54.4151 18.9974C54.235 18.9999 54.0564 18.9662 53.8906 18.8985C53.7248 18.8308 53.5754 18.7305 53.452 18.604C53.3285 18.4776 53.2337 18.3277 53.1736 18.164C53.1135 18.0003 53.0893 17.8263 53.1027 17.6531L53.8341 7.34296C53.8375 7.27766 53.8456 7.21267 53.8582 7.14843C53.9361 6.82637 54.1244 6.53908 54.3926 6.33306C54.6609 6.12704 54.9933 6.01433 55.3361 6.01318L78.5583 6.14674C78.7373 6.14521 78.9146 6.17925 79.0794 6.24674C79.2441 6.31424 79.3927 6.41373 79.5158 6.53904C79.6389 6.66434 79.734 6.81276 79.795 6.97505C79.8561 7.13734 79.8818 7.31002 79.8706 7.48233Z" fill="white"/>
<path d="M77.7242 22.7371L77.3088 22.6819C77.2727 22.6819 73.7269 22.1622 71.7464 19.2297L54.4148 19.131C54.214 19.1298 54.0155 19.0899 53.831 19.0137C53.6464 18.9374 53.4796 18.8262 53.3402 18.6868C53.2054 18.5459 53.1015 18.3801 53.0348 18.1995C52.9681 18.0189 52.9399 17.8271 52.9519 17.6357L53.6834 7.31978C53.6862 7.24739 53.6963 7.17544 53.7135 7.10493C53.8 6.75062 54.0078 6.43476 54.3032 6.20826C54.5986 5.98176 54.9645 5.85783 55.3419 5.85645L78.558 5.99C78.7582 5.98878 78.9565 6.02738 79.1406 6.10338C79.3246 6.17939 79.4905 6.29117 79.6277 6.43175C79.765 6.57233 79.8707 6.7387 79.9384 6.92046C80.006 7.10222 80.0341 7.29549 80.0209 7.48818L79.2864 17.7954C79.2836 17.8678 79.2735 17.9398 79.2563 18.0103C79.1722 18.3658 78.9652 18.6832 78.6692 18.9101C78.3732 19.137 78.006 19.26 77.6279 19.2588H75.3885C75.7437 20.6437 77.4232 22.4264 77.4413 22.4525L77.7242 22.7371ZM55.2907 6.14679C54.9902 6.157 54.7015 6.26233 54.4692 6.44651C54.237 6.63069 54.074 6.88349 54.0054 7.1659C53.9941 7.22244 53.9871 7.27969 53.9844 7.3372L53.2529 17.6502C53.2419 17.8025 53.2629 17.9552 53.3146 18.0994C53.3663 18.2436 53.4477 18.3763 53.5539 18.4893C53.6655 18.6 53.7989 18.688 53.9462 18.7483C54.0935 18.8086 54.2518 18.84 54.4118 18.8407L71.9059 18.9423L71.951 19.0091C73.456 21.2825 75.9303 22.0751 76.9175 22.3074C76.3727 21.6802 75.25 20.275 75.0483 19.131L75.0182 18.9597H77.6279C77.936 18.9595 78.2349 18.8586 78.4759 18.6735C78.717 18.4885 78.886 18.2301 78.9553 17.9406C78.9694 17.8844 78.9775 17.827 78.9794 17.7693L79.7138 7.45915C79.7228 7.3077 79.6997 7.15606 79.6459 7.01353C79.592 6.87099 79.5086 6.74056 79.4007 6.63021C79.2927 6.51986 79.1626 6.43191 79.0182 6.37176C78.8739 6.3116 78.7183 6.28049 78.561 6.28035L55.3419 6.14679H55.2907Z" fill="white"/>
<path d="M76.8425 9.30859H56.1367V9.59894H76.8425V9.30859Z" fill="white"/>
<path d="M76.6472 12.1567H55.9414V12.4471H76.6472V12.1567Z" fill="white"/>
<path d="M76.4543 15.0049H55.7485V15.2952H76.4543V15.0049Z" fill="white"/>
<path d="M51.6816 25.4601C51.6472 25.4609 51.6135 25.4504 51.5863 25.4302C51.559 25.41 51.5397 25.3814 51.5316 25.3492C51.5235 25.3169 51.5271 25.283 51.5418 25.253C51.5565 25.223 51.5814 25.1987 51.6123 25.1843L54.4508 23.7326C54.4683 23.7235 54.4876 23.7179 54.5074 23.716C54.5273 23.7142 54.5473 23.7161 54.5663 23.7218C54.5854 23.7275 54.603 23.7367 54.6183 23.749C54.6336 23.7614 54.6463 23.7765 54.6554 23.7935C54.6648 23.8103 54.6706 23.8286 54.6725 23.8475C54.6744 23.8665 54.6723 23.8855 54.6664 23.9037C54.6605 23.9218 54.6509 23.9386 54.6382 23.9531C54.6254 23.9676 54.6098 23.9795 54.5922 23.9881L51.7538 25.4398C51.7318 25.452 51.707 25.459 51.6816 25.4601Z" fill="white"/>
<path d="M55.3057 26.7117H52.1422C52.1025 26.711 52.0647 26.6955 52.0366 26.6684C52.0086 26.6413 51.9925 26.6048 51.9917 26.5666C51.9917 26.5281 52.0076 26.4911 52.0358 26.4639C52.064 26.4367 52.1023 26.4214 52.1422 26.4214H55.3057C55.3456 26.4214 55.3839 26.4367 55.4121 26.4639C55.4404 26.4911 55.4562 26.5281 55.4562 26.5666C55.4554 26.6048 55.4393 26.6413 55.4113 26.6684C55.3832 26.6955 55.3454 26.711 55.3057 26.7117Z" fill="white"/>
<path d="M54.424 29.4206C54.3997 29.4207 54.3758 29.4147 54.3548 29.4031L53.9424 29.1912C53.9236 29.183 53.9067 29.1712 53.8928 29.1565C53.8789 29.1418 53.8683 29.1245 53.8616 29.1057C53.8549 29.0868 53.8523 29.0669 53.854 29.047C53.8557 29.0272 53.8615 29.0079 53.8713 28.9904C53.881 28.9728 53.8943 28.9574 53.9105 28.945C53.9267 28.9326 53.9453 28.9236 53.9652 28.9185C53.9852 28.9133 54.006 28.9122 54.0264 28.9152C54.0468 28.9182 54.0664 28.9251 54.0838 28.9357L54.4962 29.1447C54.5308 29.1637 54.5565 29.1949 54.5677 29.2317C54.5789 29.2685 54.5749 29.3081 54.5564 29.3422C54.5438 29.3656 54.5248 29.3853 54.5015 29.3991C54.4782 29.4129 54.4514 29.4203 54.424 29.4206Z" fill="white"/>
<path d="M53.3885 28.8862C53.3633 28.886 53.3386 28.88 53.3163 28.8688L51.5103 27.9397C51.4914 27.9316 51.4745 27.9198 51.4606 27.9051C51.4467 27.8904 51.4361 27.873 51.4295 27.8542C51.4228 27.8354 51.4202 27.8154 51.4219 27.7956C51.4235 27.7757 51.4294 27.7564 51.4391 27.7389C51.4489 27.7213 51.4622 27.7059 51.4784 27.6935C51.4945 27.6812 51.5132 27.6721 51.5331 27.667C51.5531 27.6619 51.5739 27.6608 51.5943 27.6637C51.6147 27.6667 51.6342 27.6737 51.6517 27.6842L53.4577 28.6133C53.4753 28.6219 53.4909 28.6338 53.5037 28.6483C53.5164 28.6628 53.526 28.6796 53.5319 28.6977C53.5378 28.7159 53.5398 28.7349 53.538 28.7539C53.5361 28.7728 53.5303 28.7911 53.5209 28.8079C53.5083 28.8313 53.4893 28.851 53.466 28.8648C53.4427 28.8786 53.4159 28.886 53.3885 28.8862Z" fill="white"/>
<path d="M62.081 28.3523C62.0534 28.3529 62.0262 28.3462 62.0023 28.3329C61.9784 28.3196 61.9588 28.3002 61.9456 28.2768L60.4406 25.536C60.4312 25.5193 60.4254 25.5009 60.4235 25.482C60.4216 25.4631 60.4237 25.444 60.4296 25.4258C60.4355 25.4077 60.4451 25.3909 60.4578 25.3764C60.4706 25.3619 60.4862 25.35 60.5038 25.3414C60.5209 25.3323 60.5398 25.3266 60.5593 25.3245C60.5787 25.3225 60.5985 25.3243 60.6172 25.3297C60.636 25.3351 60.6535 25.344 60.6686 25.356C60.6838 25.368 60.6963 25.3828 60.7054 25.3995L62.2104 28.1404C62.2285 28.1743 62.232 28.2137 62.2202 28.2501C62.2084 28.2865 62.1821 28.317 62.1472 28.3349C62.127 28.346 62.1042 28.352 62.081 28.3523Z" fill="white"/>
<path d="M63.3756 27.9078C63.3357 27.9078 63.2974 27.8925 63.2692 27.8653C63.241 27.8381 63.2251 27.8011 63.2251 27.7626V24.714C63.2251 24.6755 63.241 24.6386 63.2692 24.6114C63.2974 24.5841 63.3357 24.5688 63.3756 24.5688C63.4155 24.5688 63.4538 24.5841 63.482 24.6114C63.5102 24.6386 63.5261 24.6755 63.5261 24.714V27.7626C63.5261 27.8011 63.5102 27.8381 63.482 27.8653C63.4538 27.8925 63.4155 27.9078 63.3756 27.9078Z" fill="white"/>
<path d="M65.9672 26.1049C65.942 26.1047 65.9173 26.0987 65.895 26.0875C65.8777 26.0787 65.8623 26.0666 65.8499 26.052C65.8375 26.0374 65.8282 26.0205 65.8226 26.0024C65.817 25.9843 65.8152 25.9653 65.8173 25.9465C65.8193 25.9277 65.8253 25.9095 65.8348 25.893L66.0515 25.4952C66.0607 25.4781 66.0733 25.463 66.0886 25.4507C66.1039 25.4384 66.1216 25.4291 66.1406 25.4235C66.1597 25.4178 66.1797 25.4158 66.1995 25.4177C66.2194 25.4195 66.2386 25.4251 66.2562 25.4342C66.2913 25.4527 66.3176 25.4837 66.3294 25.5206C66.3412 25.5574 66.3376 25.5973 66.3194 25.6317L66.0997 26.0294C66.0862 26.052 66.0669 26.0707 66.0437 26.084C66.0205 26.0972 65.9942 26.1044 65.9672 26.1049Z" fill="white"/>
<path d="M64.6698 28.4536C64.6456 28.4537 64.6217 28.4477 64.6006 28.4362C64.5829 28.4273 64.5673 28.4152 64.5545 28.4004C64.5417 28.3856 64.5321 28.3686 64.5262 28.3502C64.5203 28.3318 64.5183 28.3125 64.5202 28.2934C64.5221 28.2743 64.528 28.2557 64.5374 28.2387L65.5006 26.4967C65.5098 26.48 65.5223 26.4652 65.5374 26.4532C65.5526 26.4412 65.57 26.4322 65.5888 26.4268C65.6076 26.4214 65.6273 26.4197 65.6468 26.4217C65.6663 26.4237 65.6851 26.4295 65.7023 26.4386C65.7199 26.4472 65.7355 26.4591 65.7482 26.4736C65.7609 26.4881 65.7705 26.5049 65.7764 26.523C65.7823 26.5411 65.7844 26.5602 65.7825 26.5791C65.7806 26.5981 65.7748 26.6164 65.7655 26.6331L64.8023 28.3752C64.7894 28.3985 64.7704 28.418 64.7471 28.4318C64.7238 28.4455 64.6972 28.4531 64.6698 28.4536Z" fill="white"/>
<path d="M46.2035 17.2873C45.7339 15.9604 44.0604 15.5685 42.7721 16.094C41.4838 16.6195 37.1223 18.6461 38.1969 22.7574C38.3534 23.3381 38.8471 23.9565 38.5701 24.5285C37.2066 27.3332 34.0551 25.9309 31.921 28.4249C26.9606 34.2609 33.405 36.4123 32.8842 37.9076C32.3635 39.4029 31.0211 40.6514 29.5732 40.7094C31.5538 41.3743 33.2996 42.0973 35.4126 41.8708C37.6179 41.65 39.6738 40.6928 41.225 39.1648C42.8052 37.5708 43.7774 35.2248 43.5336 32.9979C43.356 31.3661 41.0173 31.5955 42.1761 30.4312C42.9467 29.6589 43.9821 29.2989 44.864 28.6892C46.8988 27.2636 47.8891 24.6243 48.4219 22.139C48.6506 21.0792 48.8162 19.9643 48.5362 18.9452C48.3991 18.4551 48.0937 18.0243 47.6701 17.7232C47.2464 17.4221 46.7294 17.2685 46.2035 17.2873Z" fill="#075A53"/>
<path d="M52.7683 39.542C50.7636 37.6431 49.3279 36.3772 49.3279 36.3772C48.7078 35.9591 49.066 34.5742 49.5506 34.0138C49.7994 33.7359 50.1235 33.5303 50.4866 33.42C50.8497 33.3097 51.2375 33.2992 51.6064 33.3896C51.6064 33.3896 54.6164 37.1031 57.0937 39.06L57.6957 31.8014C58.5355 31.7317 58.3428 31.871 59.1856 31.8014C59.1856 31.8014 59.6913 37.527 59.7876 40.4914C59.8108 40.8933 59.7023 41.2921 59.4776 41.6313C59.2529 41.9705 58.9233 42.2329 58.5355 42.3815C58.4151 42.4236 58.2897 42.4509 58.1622 42.4628C57.1719 42.5586 55.083 41.7399 52.7683 39.542Z" fill="#B25B52"/>
<path d="M57.2199 37.9104C57.1175 40.3754 56.8858 40.9329 57.7135 43.2672C57.4089 43.4121 57.071 43.4796 56.7318 43.4634C56.3926 43.4471 56.0633 43.3476 55.7751 43.1743C55.4791 42.9636 55.2383 42.6889 55.0721 42.3722C54.9059 42.0556 54.8188 41.7059 54.8179 41.351C52.6296 40.0821 51.9614 39.3882 50.0019 36.7664C49.7041 36.3795 49.5246 35.9198 49.4836 35.4395C49.4427 34.9592 49.5419 34.4775 49.7701 34.0488C50.0219 33.5444 50.4475 33.1401 50.9741 32.9048C51.4377 32.7219 51.8199 32.9048 52.2203 33.1952L55.3266 37.141C55.3901 36.9598 55.4825 36.7894 55.6005 36.6358L57.2199 37.9104Z" fill="white"/>
<path opacity="0.7" d="M57.2199 37.9104C57.1175 40.3754 56.8858 40.9329 57.7135 43.2672C57.4089 43.4121 57.071 43.4796 56.7318 43.4634C56.3926 43.4471 56.0633 43.3476 55.7751 43.1743C55.4791 42.9636 55.2383 42.6889 55.0721 42.3722C54.9059 42.0556 54.8188 41.7059 54.8179 41.351C52.6296 40.0821 51.9614 39.3882 50.0019 36.7664C49.7041 36.3795 49.5246 35.9198 49.4836 35.4395C49.4427 34.9592 49.5419 34.4775 49.7701 34.0488C50.0219 33.5444 50.4475 33.1401 50.9741 32.9048C51.4377 32.7219 51.8199 32.9048 52.2203 33.1952L55.3266 37.141C55.3901 36.9598 55.4825 36.7894 55.6005 36.6358L57.2199 37.9104Z" fill="#075A53"/>
<path d="M61.16 32.7247C60.6333 33.0731 58.731 33.0615 58.4872 32.9483C57.2832 32.4024 57.4878 30.8171 58.8092 30.82C59.3962 30.8723 59.978 30.9693 60.549 31.1104C60.8982 30.7852 62.2166 30.2074 62.4393 30.3264C62.5446 30.3968 62.625 30.4965 62.6697 30.6123C62.7143 30.7281 62.7211 30.8543 62.6891 30.9739C62.6209 31.2124 62.5009 31.4341 62.337 31.6243C62.0175 32.0573 61.6187 32.4302 61.16 32.7247Z" fill="#B25B52"/>
<path d="M44.6201 60.0373C45.0957 61.9274 45.7097 64.0208 46.4923 66.3C46.7211 61.7097 47.9973 55.5572 48.0515 55.354L44.6201 60.0373Z" fill="#075A53"/>
<path d="M49.5356 55.5804L42.9136 79.589L33.8836 97.1578L31.5117 96.3622C31.5117 96.3622 32.8632 89.2401 35.5722 82.6986C36.1983 81.1888 37.3782 79.6442 37.7876 78.4102C38.1337 77.3243 37.5859 65.2112 39.1872 62.3948C39.1872 62.3948 37.616 57.88 40.4695 53.998L49.5356 55.5804Z" fill="#B25B52"/>
<path d="M32.3904 100.662L30.7168 99.8232L31.3579 96.9024L32.0803 94.2573L34.8074 94.957L33.5311 97.9766L32.3904 100.662Z" fill="#B25B52"/>
<path d="M33.4109 104.971C33.2328 104.647 32.994 104.358 32.7066 104.118C32.7066 104.118 32.1317 102.765 32.9113 99.7101L31.7524 98.8536C31.5543 98.7119 31.3159 98.6322 31.0693 98.6255C30.8227 98.6187 30.58 98.6852 30.3739 98.8159C30.3158 98.8524 30.264 98.8975 30.2203 98.9494C30.0219 99.2285 29.842 99.5195 29.6816 99.8204C29.1549 100.834 28.6916 101.877 28.2939 102.945L28.5257 103.046L29.4829 101.11C29.7839 100.448 30.0006 101.461 29.8381 102.239C29.6755 103.017 29.6605 103.926 31.1685 104.579C32.9173 105.34 33.6849 105.575 33.4109 104.971Z" fill="#075A53"/>
<path d="M33.1374 98.5924C33.1374 98.5924 32.8364 100.012 32.6467 101.644C32.503 102.465 32.5255 103.305 32.713 104.118C32.713 104.118 31.4879 103.848 31.3193 102.907C31.1508 101.966 31.5842 99.1673 30.3682 98.8247C30.5403 98.677 30.7291 98.5484 30.931 98.4415C31.2531 98.2672 33.1374 98.5924 33.1374 98.5924Z" fill="#B25B52"/>
<path d="M50.568 54.3267L55.0348 78.1349L57.0665 97.6432L54.6194 98.1861C54.6194 98.1861 51.8412 91.4588 50.5348 84.5399C50.2338 82.9401 50.3934 81.0209 50.0472 79.7696C49.7462 78.675 49.2014 78.0275 48.2412 75.5857C47.0764 72.6242 45.749 68.6174 45.5563 65.4236C45.5563 65.4236 41.7396 62.407 42.0196 57.654L50.568 54.3267Z" fill="#B25B52"/>
<path d="M57.7168 101.371L55.8356 101.513L54.7731 98.7142L53.9272 96.1011L56.6242 95.2969L57.2051 98.511L57.7168 101.371Z" fill="#B25B52"/>
<path d="M60.9613 104.495C60.6314 104.311 60.2691 104.188 59.8927 104.132C59.8927 104.132 58.6586 103.281 57.6382 100.294L56.1844 100.16C55.939 100.142 55.6938 100.197 55.4818 100.317C55.2698 100.438 55.1011 100.618 54.9985 100.834C54.968 100.894 54.9477 100.959 54.9383 101.025C54.9232 101.36 54.9292 101.696 54.9563 102.03C55.0673 103.161 55.2493 104.285 55.5011 105.395L55.754 105.366L55.4981 103.235C55.4018 102.512 56.1272 103.267 56.4192 104.01C56.7111 104.753 57.1958 105.529 58.8272 105.311C60.7385 105.061 61.5181 104.867 60.9613 104.495Z" fill="#075A53"/>
<path d="M57.208 99.2339C57.208 99.2339 57.7378 100.59 58.4722 102.071C58.8041 102.839 59.2865 103.539 59.893 104.132C59.893 104.132 58.707 104.533 58.0448 103.821C57.3826 103.11 56.2087 100.514 54.9927 100.848C55.057 100.635 55.1458 100.43 55.2576 100.236C55.4351 99.922 57.208 99.2339 57.208 99.2339Z" fill="#B25B52"/>
<path d="M54.2733 71.3667C54.2733 71.3667 47.0132 73.6226 37.9531 71.837C37.9531 71.837 36.7882 60.4642 38.6936 55.3542L41.0263 49.0972C41.0263 49.0972 51.8382 48.4904 51.8382 49.1582L54.2733 71.3667Z" fill="white"/>
<path d="M52.7021 40.8224C52.6238 42.7939 52.2175 44.864 51.7028 47.9562C51.7341 47.9526 51.7659 47.9551 51.7962 47.9636C51.8265 47.9721 51.8547 47.9864 51.8791 48.0056C51.9036 48.0249 51.9237 48.0487 51.9384 48.0756C51.9531 48.1025 51.962 48.132 51.9646 48.1624C51.9649 48.1672 51.9649 48.172 51.9646 48.1769C51.9887 48.4004 52.0068 48.6182 52.0309 48.8418C52.0387 48.9058 52.0205 48.9704 51.9801 49.0218C51.9397 49.0732 51.8802 49.1075 51.8141 49.1176C48.1939 49.5246 44.5365 49.5178 40.9179 49.0973C40.848 49.0788 40.7882 49.0349 40.7512 48.9748C40.7141 48.9147 40.7027 48.8431 40.7193 48.775C40.7207 48.7644 40.7207 48.7536 40.7193 48.743C40.8096 48.5282 40.8999 48.3162 40.9812 48.1014C40.9991 48.0562 41.0315 48.0177 41.0738 47.9915C41.116 47.9654 41.1659 47.953 41.2159 47.9562H41.3213C41.4838 45.105 41.0775 41.7574 39.2143 35.4278C39.1002 35.0822 39.0679 34.7162 39.1197 34.3569C39.1716 33.9976 39.3063 33.654 39.5139 33.3515C39.7215 33.0491 39.9968 32.7953 40.3194 32.6089C40.6421 32.4226 41.004 32.3084 41.3785 32.2747C41.8089 32.2311 42.2664 32.1963 42.733 32.1731C44.3734 32.0628 46.0199 32.0628 47.6603 32.1731C48.1841 32.2224 48.75 32.2863 49.2827 32.356C51.1971 32.6115 52.3228 34.1126 52.675 36.1827C52.8395 37.7248 52.8486 39.2787 52.7021 40.8224Z" fill="white"/>
<path d="M43.3137 26.5317C43.7652 28.1402 44.322 31.1134 43.2324 32.1935C43.2324 32.1935 44.6712 33.3055 47.7203 34.3768C48.6233 34.1533 48.4397 32.1935 48.4397 32.1935C46.5344 31.7608 46.4802 30.4253 46.709 29.1681L43.3137 26.5317Z" fill="#B25B52"/>
<path d="M48.3013 32.1006C51.1337 35.6079 51.1758 40.8371 50.4534 57.86C50.3902 59.3407 51.7929 59.181 53.3099 58.9458L55.2875 58.6555C55.2875 58.6555 53.048 53.4293 53.6019 45.6365C54.1557 37.8436 53.7734 35.0882 52.4611 33.6481C51.1487 32.208 48.3013 32.1006 48.3013 32.1006Z" fill="white"/>
<path opacity="0.6" d="M48.3013 32.1006C51.1337 35.6079 51.1758 40.8371 50.4534 57.86C50.3902 59.3407 51.7929 59.181 53.3099 58.9458L55.2875 58.6555C55.2875 58.6555 53.048 53.4293 53.6019 45.6365C54.1557 37.8436 53.7734 35.0882 52.4611 33.6481C51.1487 32.208 48.3013 32.1006 48.3013 32.1006Z" fill="#075A53"/>
<path d="M43.1151 31.938C43.1151 31.938 45.0866 33.6278 45.6736 37.7013C46.6127 44.2747 46.3177 50.613 45.9746 57.8484C45.9626 58.0955 45.8901 58.3364 45.7632 58.5513C45.6362 58.7663 45.4583 58.9492 45.244 59.0851C45.0297 59.221 44.7851 59.3061 44.5301 59.3334C44.2752 59.3606 44.0172 59.3293 43.7773 59.242C43.7773 59.242 37.664 59.0591 35.9513 57.6306C35.8279 55.4501 39.5121 50.642 39.1268 44.8787C38.7415 39.1153 38.0041 34.0924 38.7747 33.0065C39.5452 31.9206 43.1151 31.938 43.1151 31.938Z" fill="white"/>
<path opacity="0.6" d="M43.1151 31.938C43.1151 31.938 45.0866 33.6278 45.6736 37.7013C46.6127 44.2747 46.3177 50.613 45.9746 57.8484C45.9626 58.0955 45.8901 58.3364 45.7632 58.5513C45.6362 58.7663 45.4583 58.9492 45.244 59.0851C45.0297 59.221 44.7851 59.3061 44.5301 59.3334C44.2752 59.3606 44.0172 59.3293 43.7773 59.242C43.7773 59.242 37.664 59.0591 35.9513 57.6306C35.8279 55.4501 39.5121 50.642 39.1268 44.8787C38.7415 39.1153 38.0041 34.0924 38.7747 33.0065C39.5452 31.9206 43.1151 31.938 43.1151 31.938Z" fill="#075A53"/>
<path opacity="0.2" d="M44.6983 27.606L46.7119 29.1651C46.6548 29.4591 46.6246 29.7574 46.6216 30.0565C45.8992 29.9577 44.8608 29.2029 44.7284 28.4799C44.6657 28.1925 44.6555 27.8967 44.6983 27.606Z" fill="#075A53"/>
<path d="M46.983 20.6144C48.9632 23.2003 49.8176 26.4301 49.3639 29.6151C50.3181 27.873 50.7124 25.8174 50.7756 23.843C50.8057 22.85 50.7455 21.8106 50.288 20.9396C49.8305 20.0685 48.8913 19.3311 47.8619 19.3717C47.4902 19.3727 47.1333 19.5121 46.8656 19.7608C46.6188 20.0134 46.7633 20.3241 46.983 20.6144Z" fill="#075A53"/>
<path d="M41.8811 23.2856C42.3898 25.8987 42.5463 27.0108 44.1024 28.2621C46.4262 30.1378 49.6198 29.1506 49.9328 26.4881C50.2127 24.0928 49.3308 20.2254 46.5405 19.3602C45.9467 19.1503 45.3054 19.0982 44.6835 19.2094C44.0617 19.3205 43.4823 19.5909 43.006 19.9922C42.5296 20.3935 42.1739 20.911 41.976 21.4904C41.7781 22.0698 41.7453 22.6898 41.8811 23.2856Z" fill="#B25B52"/>
<path d="M46.5826 23.8839C46.6488 24.0988 46.8174 24.2468 46.9589 24.2178C47.1003 24.1888 47.1665 23.9884 47.1033 23.7736C47.0401 23.5587 46.8686 23.4106 46.7271 23.4397C46.5856 23.4687 46.5194 23.669 46.5826 23.8839Z" fill="#075A53"/>
<path d="M48.8852 23.3494C48.9484 23.5614 49.1169 23.7123 49.2614 23.6804C49.4059 23.6485 49.4691 23.451 49.4029 23.2391C49.3367 23.0271 49.1711 22.8761 49.0266 22.9081C48.8822 22.94 48.8189 23.1345 48.8852 23.3494Z" fill="#075A53"/>
<path d="M48.9668 22.9371L49.4514 22.6758C49.4514 22.6758 49.3009 23.1316 48.9668 22.9371Z" fill="#075A53"/>
<path d="M48.2383 23.8604C48.5857 24.3082 48.9902 24.7121 49.4423 25.0624C49.3507 25.164 49.2366 25.2444 49.1084 25.2977C48.9802 25.351 48.8413 25.3757 48.7018 25.3701L48.2383 23.8604Z" fill="#9D2724"/>
<path d="M42.0436 25.9309C42.1828 26.1466 42.3671 26.3319 42.5848 26.4749C42.8025 26.6179 43.0488 26.7155 43.3078 26.7613C43.952 26.8455 44.1416 26.1225 43.8406 25.4547C43.5637 24.8566 42.9165 24.0901 42.3356 24.3108C41.7547 24.5314 41.6614 25.3589 42.0436 25.9309Z" fill="#B25B52"/>
<path d="M45.5501 23.0329C45.5659 23.0271 45.5802 23.0181 45.5921 23.0066C45.604 22.9951 45.6133 22.9813 45.6193 22.9661C45.6748 22.8172 45.7675 22.6839 45.8894 22.578C46.0112 22.4721 46.1584 22.397 46.3177 22.3593C46.3338 22.3575 46.3494 22.3526 46.3636 22.3449C46.3777 22.3371 46.3901 22.3267 46.3999 22.3142C46.4098 22.3017 46.4169 22.2875 46.4209 22.2723C46.4248 22.257 46.4256 22.2412 46.423 22.2257C46.4151 22.1915 46.3937 22.1615 46.3634 22.1421C46.3332 22.1226 46.2963 22.1151 46.2605 22.1212C46.0559 22.1627 45.8656 22.2538 45.7077 22.3859C45.5497 22.518 45.4292 22.6867 45.3575 22.8761C45.3468 22.9088 45.3496 22.9443 45.3653 22.9751C45.381 23.0059 45.4083 23.0297 45.4418 23.0416C45.4595 23.0474 45.4782 23.0497 45.4969 23.0482C45.5155 23.0467 45.5337 23.0415 45.5501 23.0329Z" fill="#075A53"/>
<path d="M49.3942 22.0834C49.4204 22.0829 49.4458 22.0743 49.4666 22.0589C49.4874 22.0436 49.5026 22.0222 49.51 21.9979C49.5173 21.9737 49.5165 21.9478 49.5076 21.924C49.4987 21.9002 49.4822 21.8798 49.4605 21.8657C49.2997 21.7248 49.1075 21.6214 48.8988 21.5635C48.69 21.5056 48.4703 21.4948 48.2565 21.5318C48.2248 21.5406 48.1979 21.561 48.1816 21.5887C48.1653 21.6164 48.1608 21.6491 48.1692 21.6799C48.1797 21.7132 48.203 21.7413 48.2343 21.7586C48.2656 21.7759 48.3026 21.7809 48.3377 21.7728C48.5076 21.7452 48.6817 21.7551 48.847 21.8019C49.0123 21.8487 49.1644 21.931 49.2919 22.0428C49.3052 22.0559 49.3212 22.0662 49.3388 22.0732C49.3564 22.0802 49.3752 22.0836 49.3942 22.0834Z" fill="#075A53"/>
<path d="M46.6548 23.4659L47.1364 23.2046C47.1364 23.2046 46.9979 23.6662 46.6548 23.4659Z" fill="#075A53"/>
<path d="M48.7621 26.2355C48.7621 26.2355 48.0126 25.9829 45.8574 25.7651C46.038 26.4155 46.4594 26.9672 47.5581 27.0804C47.6888 27.108 47.8239 27.1102 47.9555 27.0869C48.0871 27.0637 48.2126 27.0153 48.3247 26.9448C48.4367 26.8743 48.5331 26.7829 48.6082 26.6761C48.6833 26.5693 48.7356 26.4491 48.7621 26.3226C48.7621 26.2936 48.7621 26.2645 48.7621 26.2355Z" fill="#075A53"/>
<path d="M47.1004 26.5286C47.5276 26.5507 47.937 26.7009 48.2713 26.9583C48.0524 27.0661 47.8045 27.1066 47.5609 27.0745C47.1343 27.0542 46.7254 26.9037 46.3931 26.6448C46.6101 26.5347 46.8578 26.494 47.1004 26.5286Z" fill="#9D2724"/>
<path d="M48.6627 26.2066C48.6352 26.2835 48.586 26.3515 48.5206 26.4028C48.4552 26.4541 48.3761 26.4867 48.2925 26.497C47.6524 26.4276 47.0192 26.3081 46.3992 26.1398C46.2999 26.12 46.2072 26.0771 46.1291 26.0148C46.0509 25.9526 45.9897 25.8729 45.9507 25.7827C46.8646 25.857 47.7712 25.9987 48.6627 26.2066Z" fill="#FAFAFA"/>
<path d="M45.0054 19.9932C44.2393 21.4923 43.7889 23.123 43.6804 24.7911C43.572 26.4591 43.8074 28.1314 44.3733 29.7111C43.0037 28.0938 42.1609 26.0585 41.6853 24.0377C41.4445 23.0215 41.294 21.953 41.592 20.9514C41.89 19.9497 42.7238 19.0293 43.8164 18.8754C44.2073 18.8053 44.6112 18.8822 44.9452 19.0902C45.2642 19.308 45.1799 19.6593 45.0054 19.9932Z" fill="#075A53"/>
<path d="M35.9363 41.9431L33.1701 51.2022H30.7381L29.3926 51.9716C29.3047 52.021 29.2289 52.0881 29.1704 52.1683C29.1119 52.2485 29.072 52.34 29.0534 52.4364C29.0348 52.5329 29.038 52.6321 29.0628 52.7272C29.0876 52.8224 29.1333 52.9112 29.1969 52.9878C29.395 53.2365 29.6167 53.4669 29.8591 53.6759C29.934 53.7365 30.021 53.7817 30.1147 53.8086C30.2084 53.8356 30.3069 53.8438 30.4039 53.8327L31.9481 53.6614C32.5433 53.5963 33.108 53.3732 33.5795 53.0168L34.347 52.4361C34.347 52.4361 37.6972 45.7814 39.6507 41.9837C39.2684 41.3653 38.4467 41.0401 37.7032 41.0111C36.9597 40.982 36.0507 41.2288 35.9363 41.9431Z" fill="#B25B52"/>
<path d="M38.9312 32.6233C37.3088 33.3579 36.4359 35.0941 36.0145 36.7752C35.5931 38.4563 35.4908 40.2245 34.8105 41.8243C34.5775 41.7844 34.3375 41.8078 34.1174 41.8919C33.8974 41.976 33.7059 42.1174 33.5644 42.3005C33.4081 42.6458 33.339 43.0219 33.3627 43.398C33.3842 43.7736 33.3162 44.1491 33.1641 44.4955C34.2928 45.6946 37.0169 46.1475 38.6934 46.2375C39.467 45.2039 39.6416 43.7464 39.4188 42.4892C40.4121 40.0009 40.966 37.324 41.4085 34.6905C41.559 33.7905 41.1255 32.4839 39.7981 32.4868C39.5034 32.4865 39.2106 32.5326 38.9312 32.6233Z" fill="white"/>
<g opacity="0.6">
<path d="M38.9312 32.6233C37.3088 33.3579 36.4359 35.0941 36.0145 36.7752C35.5931 38.4563 35.4908 40.2245 34.8105 41.8243C34.5775 41.7844 34.3375 41.8078 34.1174 41.8919C33.8974 41.976 33.7059 42.1174 33.5644 42.3005C33.4081 42.6458 33.339 43.0219 33.3627 43.398C33.3842 43.7736 33.3162 44.1491 33.1641 44.4955C34.2928 45.6946 37.0169 46.1475 38.6934 46.2375C39.467 45.2039 39.6416 43.7464 39.4188 42.4892C40.4121 40.0009 40.966 37.324 41.4085 34.6905C41.559 33.7905 41.1255 32.4839 39.7981 32.4868C39.5034 32.4865 39.2106 32.5326 38.9312 32.6233Z" fill="#075A53"/>
</g>
<path d="M43.4828 24.061C44.3057 23.6303 45.022 23.0328 45.5827 22.3095C46.1433 21.5863 46.5349 20.7545 46.7306 19.8714C47.3736 20.0406 47.9679 20.3497 48.4678 20.775C48.9677 21.2003 49.3598 21.7305 49.6142 22.3248C49.8286 21.9282 49.9175 21.4795 49.8697 21.0346C49.822 20.5897 49.6398 20.1681 49.3457 19.8223C49.0516 19.4765 48.6587 19.2216 48.2157 19.0894C47.7727 18.9572 47.2992 18.9535 46.854 19.0787C46.1467 18.9539 45.349 18.7129 44.7019 19.0207C44.1421 19.3369 43.7263 19.8448 43.537 20.4434C43.0845 21.6067 43.0654 22.8856 43.4828 24.061Z" fill="#075A53"/>
<path d="M63.3755 31.1713V31.3571C63.3747 31.4151 63.3559 31.4716 63.3216 31.5192C63.2873 31.5668 63.2389 31.6034 63.1829 31.6242C63.1497 31.6382 63.1137 31.6452 63.0775 31.6446H57.4909C57.4111 31.6446 57.3346 31.614 57.2781 31.5595C57.2217 31.5051 57.1899 31.4312 57.1899 31.3542V31.1626L63.3755 31.1713Z" fill="white"/>
<g opacity="0.4">
<path d="M63.3755 31.1713V31.3571C63.3747 31.4151 63.3559 31.4716 63.3216 31.5192C63.2873 31.5668 63.2389 31.6034 63.1829 31.6242C63.1497 31.6382 63.1137 31.6452 63.0775 31.6446H57.4909C57.4111 31.6446 57.3346 31.614 57.2781 31.5595C57.2217 31.5051 57.1899 31.4312 57.1899 31.3542V31.1626L63.3755 31.1713Z" fill="white"/>
</g>
<path d="M63.3725 31.1714H57.1899L59.5979 30.2771C59.7433 30.2249 59.8973 30.1983 60.0524 30.1987H66.0122L63.3725 31.1714Z" fill="#075A53"/>
<path d="M66.0125 30.1958V30.3671C66.0122 30.4211 65.9947 30.4737 65.9624 30.5179C65.9301 30.562 65.8846 30.5955 65.8319 30.6139L63.1831 31.6272C63.2392 31.6063 63.2875 31.5697 63.3219 31.5221C63.3562 31.4745 63.375 31.4181 63.3757 31.3601V31.1685L66.0125 30.1958Z" fill="white"/>
</svg>
